<svg id="Layer_1" data-name="Layer 1" xmlns="http://www.w3.org/2000/svg" viewBox="0 0 800 1000"><defs><style>.cls-1{fill:#dff7f6;}.cls-2{fill:#c2c2c2;}.cls-3{fill:#ebebeb;}.cls-4{fill:#cc8100;}.cls-5{fill:#ffb300;}.cls-6{fill:#e0b000;}.cls-7{fill:#ffd500;}.cls-8{fill:#2e2f2e;}.cls-9{fill:#4e4c4f;}.cls-10{fill:#454645;}.cls-11{fill:#f5f5f5;}.cls-12{fill:#139a4a;}.cls-13{fill:#53841e;}.cls-14{fill:#8db52c;}.cls-15{fill:#558c22;}.cls-16{fill:#068238;}</style></defs><title>Website Illustration</title><rect class="cls-1" width="800" height="1000"/><polygon class="cls-2" points="425.31 682.68 406.6 666.14 388 687.18 406.72 703.73 425.31 682.68"/><rect class="cls-2" x="392.44" y="670.59" width="26.8" height="24.98" transform="translate(-374.74 534.78) rotate(-48.53)"/><polygon class="cls-3" points="422.07 686.75 403.35 670.21 388.42 687.11 407.13 703.66 422.07 686.75"/><path class="cls-4" d="M405.63,645.22c17.95,23.09-.68,40-.68,40s-21.1,4.26-31.83-5Z"/><path class="cls-5" d="M401.43,651.77c10.05,10,11.21,25.42,2.44,34.85s-24.22,9.41-34.94.1Z"/><polygon class="cls-6" points="395.82 631.74 359.19 671.14 357.21 679.97 404.52 650.49 406.5 641.66 395.82 631.74"/><polygon class="cls-7" points="393.83 640.56 357.21 679.97 367.88 689.89 404.52 650.49 393.83 640.56"/><path class="cls-8" d="M329.94,647.39l-2,2.1A31,31,0,0,0,360.2,675.1l8.94-9.66-1.83-2.23c-12.14,5.6-23.9,2-32.93-8.74A30.4,30.4,0,0,1,329.94,647.39Z"/><path class="cls-8" d="M365.68,609l-2,2.1a31,31,0,0,1,7.6,3.72,30.43,30.43,0,0,1,10.63,35.32l.87.63,10.94-11.81a30.38,30.38,0,0,0-28.07-30Z"/><path class="cls-9" d="M328,649.49l-1.74,1.89a30.34,30.34,0,0,0,32,25.81l10.91-11.75-.71-.84A30.42,30.42,0,0,1,328,649.49Z"/><path class="cls-9" d="M363.71,611.05,362,612.94a30.39,30.39,0,0,1,18,39.25l.88.62L391.78,641a30.34,30.34,0,0,0-28.07-30Z"/><polygon class="cls-4" points="458.28 683.29 421.1 726.46 406.64 726.25 431.39 672.38 445.85 672.59 458.28 683.29"/><polygon class="cls-5" points="443.81 683.08 406.64 726.25 394.2 715.55 431.39 672.38 443.81 683.08"/><path class="cls-8" d="M538.71,793.47a19.3,19.3,0,0,1-23.82,4.37,19,19,0,0,1-3.39-2.34l-89.06-82.56L438,694.89l9.64-11.18,89.06,82.56A19.28,19.28,0,0,1,538.71,793.47Z"/><path class="cls-10" d="M517.89,795a19,19,0,0,1-3,2.82,19.28,19.28,0,0,1-24.21-.79l-77.87-72.92,9.63-11.19L438,694.89l77.87,72.93A19.3,19.3,0,0,1,517.89,795Z"/><path class="cls-6" d="M500,961.13V903.24a34.12,34.12,0,0,0-34.12-34.11H415.19a34.11,34.11,0,0,0-34.11,34.11v57.89Z"/><path class="cls-7" d="M491.89,961.13V903.24a34.12,34.12,0,0,0-34.12-34.11H407a34.11,34.11,0,0,0-34.11,34.11v57.89Z"/><path class="cls-8" d="M399.75,899.23a11.84,11.84,0,0,1-16.74-.37h0a11.84,11.84,0,0,1,.38-16.74l102-99a11.82,11.82,0,0,1,16.73.38h0a11.82,11.82,0,0,1-.38,16.73Z"/><path class="cls-8" d="M440.08,933.68a11.82,11.82,0,0,1-16.73-.38h0a11.82,11.82,0,0,1,.38-16.73l101.95-99a11.82,11.82,0,0,1,16.73.38h0a11.84,11.84,0,0,1-.38,16.74Z"/><path class="cls-8" d="M401.41,901a11.83,11.83,0,0,1-16.73-.39h0a11.85,11.85,0,0,1,.38-16.74l101.95-99a11.82,11.82,0,0,1,16.73.38h0a11.81,11.81,0,0,1-.38,16.73Z"/><path class="cls-8" d="M441.74,935.42A11.82,11.82,0,0,1,425,935h0a11.82,11.82,0,0,1,.38-16.73l102-99a11.84,11.84,0,0,1,16.74.37h0a11.85,11.85,0,0,1-.38,16.75Z"/><path class="cls-10" d="M390.93,899a11.82,11.82,0,0,1-16.73-.38h0a11.82,11.82,0,0,1,.38-16.73l101.95-99a11.82,11.82,0,0,1,16.73.38h0a11.81,11.81,0,0,1-.37,16.73Z"/><path class="cls-10" d="M431.27,933.48a11.84,11.84,0,0,1-16.74-.38h0a11.84,11.84,0,0,1,.38-16.74l101.95-99a11.84,11.84,0,0,1,16.74.38h0a11.83,11.83,0,0,1-.38,16.73Z"/><path class="cls-6" d="M473.3,804.53a45.35,45.35,0,1,1,48.6,41.84A45.36,45.36,0,0,1,473.3,804.53Z"/><path class="cls-6" d="M476.15,804.42a45.35,45.35,0,1,1,48.6,41.84A45.34,45.34,0,0,1,476.15,804.42Z"/><path class="cls-7" d="M469.91,804.78a45.35,45.35,0,1,1,48.6,41.84A45.33,45.33,0,0,1,469.91,804.78Z"/><path class="cls-11" d="M544.77,798.69a29.76,29.76,0,1,1-31.89-27.46A29.77,29.77,0,0,1,544.77,798.69Z"/><path class="cls-2" d="M513.4,778.21a22.75,22.75,0,1,0,24.38,21A22.77,22.77,0,0,0,513.4,778.21Z"/><path class="cls-6" d="M464.55,961.13V903.24a34.12,34.12,0,0,0-34.12-34.11H379.69a34.12,34.12,0,0,0-34.12,34.11v57.89Z"/><rect class="cls-8" x="374.54" y="961.13" width="157.81" height="9.24"/><path class="cls-7" d="M456.39,961.13V903.24a34.12,34.12,0,0,0-34.12-34.11H371.54a34.11,34.11,0,0,0-34.11,34.11v57.89Z"/><rect class="cls-10" x="315.65" y="961.13" width="157.81" height="9.24"/><rect class="cls-4" x="339.3" y="970.37" width="288.29" height="29.63"/><rect class="cls-5" x="231.71" y="970.37" width="288.29" height="29.63"/><path class="cls-11" d="M434.85,914.79a36.1,36.1,0,1,1-36.09-36.09A36.09,36.09,0,0,1,434.85,914.79Z"/><path class="cls-2" d="M398.76,887.19a27.6,27.6,0,1,0,27.59,27.6A27.64,27.64,0,0,0,398.76,887.19Z"/><circle class="cls-12" cx="355.08" cy="638.87" r="21.51"/><path class="cls-12" d="M390.8,572.66a37.11,37.11,0,0,1-71.44,0Z"/><rect class="cls-12" x="293.34" y="504.99" width="123.48" height="22.99" rx="4.68"/><rect class="cls-12" x="306.63" y="544.67" width="96.91" height="15.46" rx="3.15"/><path class="cls-12" d="M517.89,173.31c4.19,12.51,16.15,53.46-1,100.68a153.19,153.19,0,0,1-51,69.25c45.44-42.95,63.53-108.62,45.22-165.7-.34-1.08-.69-2.14-1.05-3.19s-.7-2-1.06-3c-14.56-39.47-43.22-62.35-68.89-75.51A183.09,183.09,0,0,0,389.2,78.75c49.64,14.68,89.29,51.59,106.05,97.54A144,144,0,0,1,504.07,226c0,40.27-16.56,76.92-43.66,104.32-26.17,26.47-62.2,44.3-102.63,48.4.76-11.63,1.64-26,1.89-32,.35-8.25.61-17.64.57-27.71A154.08,154.08,0,0,1,369.59,294q1.46-3.08,3.16-6.34h0a160,160,0,0,1,32.83-43.18c23-21.25,66.22-47.42,66.22-47.42-14.23,3.38-34.33,13-67.77,41.72l0,0a279.27,279.27,0,0,0-39.69,54h0l-.06-.21c-1.88,4.48-3.27,8.42-4.31,11.61a333.71,333.71,0,0,0-3.22-36.38c-1-7.16-2.4-14.28-3.94-21.22-.43-1.74-.86-3.46-1.27-5.17-.22-.86-.41-1.71-.64-2.56s-.48-1.69-.71-2.53c-.49-1.68-1-3.35-1.43-5s-1.06-3.27-1.58-4.89c-1.05-3.2-2.19-6.31-3.38-9.31A170.2,170.2,0,0,1,348,193.36a155.49,155.49,0,0,1,22.8-50.62c17.89-25.69,24.21-34.95-3,1.48-2.82,3.77-5.35,7.54-7.63,11.28,0,0,0,0,0,0-7.93,14.93-13.64,28.65-16.07,37.36l0-.06a147,147,0,0,0-3.55,16.68c-2.73-6.12-5.62-11.76-8.38-16.85a.33.33,0,0,1,0-.06l.12.06c-7.61-17.24-11.57-50.46-12.34-65.45a11.33,11.33,0,0,1-2-.67l-.27-.13c.86,21.17,4.26,42.47,6.37,54.12l.77,1,1,8.1s-.73-3.39-1.78-9.07a139.52,139.52,0,0,0-16.47-17.25,18.81,18.81,0,0,1-2.69,1.34c6.26,7.77,12.66,18.47,18.85,32.13C328,206,331.23,217.54,333.93,230c.33,1.55.66,3.12,1,4.69s.58,3.2.86,4.81c.15.8.29,1.61.44,2.42s.25,1.64.37,2.46c.25,1.63.48,3.27.73,4.93.84,6.64,1.57,13.4,1.94,20.21a366.39,366.39,0,0,1,.1,40.16q-.15,3.09-.35,6.1a151.53,151.53,0,0,0-7-18.06c-.43-.92-.87-1.87-1.34-2.83l-.13-.23a192.18,192.18,0,0,0-16.82-26.43h0a147.34,147.34,0,0,0-18.54-19.26c-26.71-23.15-27.62-20.48-15.89-8.15h1.78a9.43,9.43,0,0,1,9.43,9.42,9.07,9.07,0,0,1-.13,1.49l1.76,1.63a172.12,172.12,0,0,1,35.44,46,137.23,137.23,0,0,1,10.76,26.13c-.55,6.93-1.19,13.46-1.84,19.45-1.11,10.38-2.14,19.13-2.7,25.53-.15,1.59-.53,6.67-.56,7.63s0,1.39,0,1.44C245.59,376.27,175.6,308.79,175.6,226c0-2.62.08-5.22.23-7.82l-.23,0c-8.93,53.06,2.78,87.27,12.05,107,8.65,18.27,26.41,45.64,42.64,66.82,9.67,12.63,15.41,21,22.76,32.34,2.37,3.61,4.87,7.51,7.72,12,5,7.72,9.64,15.31,13.69,26a92,92,0,0,1,3.76,12.45A19.37,19.37,0,0,0,297.11,490H415.34a20.51,20.51,0,0,0,20-15.63c2.31-9.57,3.85-21.84,14.9-44.78.89-1.87,1.77-3.62,2.62-5.26,9.74-18.9,17.23-26,33.73-51.14,22.6-34.45,39.12-59.61,46.38-87.1C537.86,267.38,543.53,228.68,517.89,173.31ZM333.23,379.51v0l.07,0Z"/><path class="cls-12" d="M257.1,352.67c-4-2.43-75.14-47.12-74.77-128,.27-54.6,33-91,41.37-99.83-8.86,11.68-35,49.28-33.32,102.34C192.71,302.68,249.3,346.78,257.1,352.67Z"/><path class="cls-13" d="M319.92,127.21a11.33,11.33,0,0,1-2-.67l-.37-2.94c-.95-32.37,2.23.63,2.23.63C319.83,125.12,319.87,126.12,319.92,127.21Z"/><path class="cls-14" d="M239.18,114.1s12.61,24.51,29.58,36.73c26,18.74,38.84,12.43,38.84,12.43s8.31-19.71-17.71-38.45C272.92,112.59,239.18,114.1,239.18,114.1Z"/><path class="cls-15" d="M307.6,163.26h0a18.81,18.81,0,0,1-2.69,1.34c-5.94,2.48-21.15,6.21-41.18-8.23-16.7-12-24.29-41.35-24.52-42.26a0,0,0,0,1,0,0C262.9,118.54,296.29,144.73,307.6,163.26Z"/><path class="cls-13" d="M317.58,123.6l.37,2.94-.27-.13C317.64,125.47,317.6,124.53,317.58,123.6Z"/><path class="cls-16" d="M325.83,189.6s-.73-3.39-1.78-9.07l.77,1Z"/><path class="cls-15" d="M333.56,100.05c.4,23.7-13.63,27.16-13.63,27.16h0a11.33,11.33,0,0,1-2-.67l-.27-.13c-4.17-1.89-12.7-8-13-25.86-.27-15.47,14.23-33.93,14.23-33.93S333.3,84.58,333.56,100.05Z"/><path class="cls-14" d="M333.56,100.05c-.26-15.47-14.66-33.43-14.66-33.43l1,60.59S334,123.76,333.56,100.05Z"/><path class="cls-16" d="M279.3,240.78l11.08,10.91S292.58,240.13,279.3,240.78Z"/><path class="cls-14" d="M220.61,195.64s16.26,41.53,41.54,64c38.79,34.48,60.47,26.44,60.47,26.44s16.64-30.34-22.14-64.82C275.19,198.79,220.61,195.64,220.61,195.64Z"/><path class="cls-15" d="M322.63,286.1h0v0a30.56,30.56,0,0,1-4.56,1.71c-10,3-35.07,6.49-64.93-20.07-24.89-22.12-32.25-70.59-32.46-72.09a.06.06,0,0,1,0,0C258.06,206.71,307.48,254.4,322.63,286.1Z"/><path class="cls-14" d="M497.83,188.2s-21.52,39.07-49.52,58.06c-42.95,29.14-63.4,18.34-63.4,18.34s-12.55-32.25,30.4-61.38C443.31,184.22,497.83,188.2,497.83,188.2Z"/><path class="cls-15" d="M384.9,264.61h0v0a29.46,29.46,0,0,0,4.29,2.29c9.49,4.28,33.93,11,67-11.44,27.57-18.69,41.18-65.79,41.58-67.25a.06.06,0,0,0,0,0C459.26,194.3,404.05,235.15,384.9,264.61Z"/><path class="cls-14" d="M419.51,110.09s-10.25,26.1-26.17,40.22c-24.42,21.64-38,16.57-38,16.57s-10.44-19.1,14-40.74C385.19,112,419.51,110.09,419.51,110.09Z"/><path class="cls-15" d="M355.28,166.88h0a19.17,19.17,0,0,0,2.86,1.08c6.26,1.9,22.05,4.11,40.85-12.56,15.67-13.89,20.35-44.36,20.48-45.31v0C396,117,364.84,147,355.28,166.88Z"/></svg>