<svg id="Layer_1" data-name="Layer 1" xmlns="http://www.w3.org/2000/svg" viewBox="0 0 184.17 93.53"><defs><style>.cls-1,.cls-3{fill:#fcd224;}.cls-1{opacity:0.45;}.cls-2{fill:#068238;}</style></defs><title>Artboard 3 copy 2</title><path class="cls-1" d="M10.82,22.46a34.64,34.64,0,0,1,49.4-8C75.14,25.63,78,47.8,67,62.94L50.27,86.21A5.2,5.2,0,0,1,43,87.39L19.73,70.62C4.6,59.72.26,37.82,10.82,22.46Z"/><path class="cls-1" d="M38.64,7.44A34.65,34.65,0,0,1,74,42.85C73.6,61.51,57.26,76.74,38.59,76.72l-28.68,0A5.21,5.21,0,0,1,4.7,71.48l0-28.69C4.75,24.15,20,7.83,38.64,7.44Z"/><path class="cls-1" d="M23.37,11.36a34.64,34.64,0,0,1,47.4,16.07c7.9,16.91,0,37.8-16.75,46.05L28.29,86.17a5.2,5.2,0,0,1-7-2.37L8.63,58.07C.39,41.34,6.83,20,23.37,11.36Z"/><path class="cls-1" d="M66,63.82a36,36,0,0,1-27.37,12.9H28.18l-8.45-6.09A36,36,0,0,1,5.08,43.51a34.11,34.11,0,0,1,.46-8,32.87,32.87,0,0,1,5.29-13,34.35,34.35,0,0,1,10-9.6c.4-.26.81-.52,1.22-.75s.89-.51,1.35-.75a32,32,0,0,1,3.43-1.56L28,9.36c.33-.12.66-.23,1-.33l.59-.18c.6-.18,1.21-.34,1.82-.48l.81-.18c.81-.18,1.63-.33,2.45-.44l.71-.08h.12L36,7.6l.3,0,1.3-.09.28,0h.16a5.82,5.82,0,0,1,.59,0h.72a6,6,0,0,1,.74,0c.49,0,1,0,1.45.06s.92.06,1.37.12l.44,0,1,.13.23,0c.36.06.71.11,1.06.18l.11,0c.44.07.87.17,1.31.26l.06,0c.43.09.85.2,1.27.32.23.06.46.12.69.2l.43.12.52.17a.49.49,0,0,1,.17.06c.25.07.49.15.73.24s.62.23.92.36.38.14.56.21l.55.23.53.24.19.07.32.16.33.16.22.1.1.05.33.17.1,0,.39.21.12.07.11,0,.16.08.1.06.53.3.14.08.13.07.3.18.31.19.12.07a6.22,6.22,0,0,1,.54.35,5.87,5.87,0,0,1,.67.43c.25.17.5.33.74.51.54.37,1.06.78,1.58,1.19l.35.29a1.22,1.22,0,0,1,.17.15l.59.5.08.06,0,0C71.6,24.38,75.34,37.31,73,49.28a34.52,34.52,0,0,1-2.26,7.24A35,35,0,0,1,66,63.82Z"/><path class="cls-2" d="M19,53.42a3.35,3.35,0,1,1-3.35-3.34A3.34,3.34,0,0,1,19,53.42Z"/><path class="cls-2" d="M40.44,72.47s19.41-6.91,13.21-28.39a.71.71,0,0,1,1.18-.72c2.59,2.53,7,5.7,10.67,3a12.17,12.17,0,0,0,4.34-6.81.71.71,0,0,1,1.4.18C71.39,50.05,67.83,69,40.44,72.47Z"/><circle class="cls-2" cx="62.3" cy="42.38" r="3.95"/><path class="cls-2" d="M46.29,53.06c1.34,4.18,1.49,7.82.43,10.82-1.74,4.9-6.41,7-10,7.93a21.32,21.32,0,0,1-5.16.67c-15,0-23-17-23-17.15v0c-.42-.94.22-1.5,1-.84a21.59,21.59,0,0,0,1.73,1.32c4.83,3.31,8.39,1.58,9.93-3.61a.7.7,0,0,1,1.36.12c.81,7.82,3.83,19.4,14.8,16.36h0c2.67-.88,5.6-2.56,6.72-5.74.85-2.4.7-5.44-.44-9a50,50,0,0,0-2.94-6.73,53.59,53.59,0,0,1-2.88-6.44c-1.8-5.15-1.81-10.48,0-14.65a14.5,14.5,0,0,1,7.77-7.57,1.43,1.43,0,1,1,1.12,2.64,11.71,11.71,0,0,0-6.26,6.06c-1.52,3.51-1.48,8.1.09,12.59a52.56,52.56,0,0,0,2.72,6.1A47.56,47.56,0,0,1,46.29,53.06Z"/><path class="cls-2" d="M48.47,12.42A3.67,3.67,0,1,1,44.8,8.75,3.66,3.66,0,0,1,48.47,12.42Z"/><path class="cls-2" d="M58.72,17.55a3.67,3.67,0,1,1-3.66-3.67A3.66,3.66,0,0,1,58.72,17.55Z"/><path class="cls-2" d="M36.56,12.43A2.6,2.6,0,1,1,34,9.84,2.59,2.59,0,0,1,36.56,12.43Z"/><path class="cls-2" d="M65.47,23.8a2.6,2.6,0,1,1-2.6-2.59A2.61,2.61,0,0,1,65.47,23.8Z"/><path class="cls-2" d="M26.52,15.85a1.21,1.21,0,1,1-1.21-1.2A1.21,1.21,0,0,1,26.52,15.85Z"/><path class="cls-2" d="M68.65,30.06a1.21,1.21,0,1,1-1.2-1.2A1.2,1.2,0,0,1,68.65,30.06Z"/><path class="cls-2" d="M97.86,29.32H95.44a.5.5,0,0,1-.43-.24L87.85,17.7a.5.5,0,0,0-.93.27V28.81a.51.51,0,0,1-.51.51h-2.2a.51.51,0,0,1-.51-.51V11.35a.51.51,0,0,1,.51-.51h2.43a.52.52,0,0,1,.43.24l7.17,11.43a.51.51,0,0,0,.94-.27V11.35a.51.51,0,0,1,.51-.51h2.17a.51.51,0,0,1,.51.51V28.81A.51.51,0,0,1,97.86,29.32Z"/><path class="cls-2" d="M110.42,29.32a.51.51,0,0,1-.49-.34,6.41,6.41,0,0,1-.21-.94,5.18,5.18,0,0,1-7,.35,3.77,3.77,0,0,1-1.3-2.92,3.91,3.91,0,0,1,1.63-3.37,7.92,7.92,0,0,1,4.66-1.17h1.9V20a2.41,2.41,0,0,0-.6-1.71,2.36,2.36,0,0,0-1.82-.64,2.71,2.71,0,0,0-1.72.53,1.7,1.7,0,0,0-.64,1,.48.48,0,0,1-.48.38h-2.08a.52.52,0,0,1-.5-.62,3.64,3.64,0,0,1,.69-1.5,5,5,0,0,1,2-1.54,7.13,7.13,0,0,1,2.87-.56,5.82,5.82,0,0,1,3.85,1.21A4.34,4.34,0,0,1,112.7,20v6.2a7,7,0,0,0,.52,3v.21Zm-3.74-2.22a3.55,3.55,0,0,0,1.72-.44,3,3,0,0,0,1.14-1.07.54.54,0,0,0,.08-.28V23.38a.51.51,0,0,0-.51-.51H108a4.5,4.5,0,0,0-2.57.6,1.93,1.93,0,0,0-.87,1.69,1.8,1.8,0,0,0,.59,1.41A2.3,2.3,0,0,0,106.68,27.1Z"/><path class="cls-2" d="M119.8,12.75v2.33a.51.51,0,0,0,.51.51h1.4a.5.5,0,0,1,.51.5v1.27a.51.51,0,0,1-.51.51h-1.4a.51.51,0,0,0-.51.51v7.16a1.66,1.66,0,0,0,.31,1.13,1.42,1.42,0,0,0,1.11.35,5.1,5.1,0,0,0,1.08-.12v2a.51.51,0,0,1-.4.5,7.19,7.19,0,0,1-1.63.2q-3.55,0-3.56-3.93V18.38a.51.51,0,0,0-.51-.51H115a.51.51,0,0,1-.51-.51V16.09a.5.5,0,0,1,.51-.5h1.24a.51.51,0,0,0,.51-.51V12.75a.5.5,0,0,1,.51-.5h2.07A.5.5,0,0,1,119.8,12.75Z"/><path class="cls-2" d="M124.58,12a1.62,1.62,0,0,1,.45-1.18,1.68,1.68,0,0,1,1.29-.47,1.72,1.72,0,0,1,1.3.47,1.75,1.75,0,0,1,0,2.34,1.75,1.75,0,0,1-1.3.46,1.71,1.71,0,0,1-1.29-.46A1.61,1.61,0,0,1,124.58,12Zm2.77,17.3h-2.07a.51.51,0,0,1-.51-.51V16.09a.5.5,0,0,1,.51-.5h2.07a.5.5,0,0,1,.51.5V28.81A.51.51,0,0,1,127.35,29.32Z"/><path class="cls-2" d="M130.64,22.33a8.14,8.14,0,0,1,.8-3.64,5.8,5.8,0,0,1,2.25-2.49,6.3,6.3,0,0,1,3.32-.87,6,6,0,0,1,4.51,1.79,7,7,0,0,1,1.88,4.75v.72a8.14,8.14,0,0,1-.78,3.63,5.78,5.78,0,0,1-2.23,2.48,6.43,6.43,0,0,1-3.36.88,6,6,0,0,1-4.66-1.94,7.43,7.43,0,0,1-1.74-5.16Zm3.08.26a5.55,5.55,0,0,0,.88,3.32,2.85,2.85,0,0,0,2.44,1.2,2.8,2.8,0,0,0,2.43-1.22,6.09,6.09,0,0,0,.87-3.56,5.43,5.43,0,0,0-.9-3.3,3,3,0,0,0-4.83,0A6,6,0,0,0,133.72,22.59Z"/><path class="cls-2" d="M148.4,15.59a.51.51,0,0,1,.51.47l.06,1.11a5,5,0,0,1,4-1.84q4.29,0,4.37,4.91v8.57a.51.51,0,0,1-.51.51h-2.07a.51.51,0,0,1-.51-.51V20.42a2.85,2.85,0,0,0-.56-1.93,2.39,2.39,0,0,0-1.85-.63,3,3,0,0,0-2.71,1.56.64.64,0,0,0-.07.27v9.12a.51.51,0,0,1-.51.51h-2.07a.5.5,0,0,1-.5-.51V16.09a.5.5,0,0,1,.5-.5Z"/><path class="cls-2" d="M169,29.32a.5.5,0,0,1-.48-.34,7.83,7.83,0,0,1-.22-.94,5.17,5.17,0,0,1-7,.35A3.77,3.77,0,0,1,160,25.47a3.93,3.93,0,0,1,1.63-3.37,8,8,0,0,1,4.67-1.17h1.89V20a2.41,2.41,0,0,0-.6-1.71,2.33,2.33,0,0,0-1.81-.64,2.74,2.74,0,0,0-1.73.53,1.63,1.63,0,0,0-.63,1,.49.49,0,0,1-.49.38H160.9a.52.52,0,0,1-.51-.62,3.64,3.64,0,0,1,.69-1.5,5,5,0,0,1,2-1.54,7.22,7.22,0,0,1,2.88-.56,5.79,5.79,0,0,1,3.84,1.21A4.34,4.34,0,0,1,171.32,20v6.2a7,7,0,0,0,.52,3v.21ZM165.3,27.1a3.58,3.58,0,0,0,1.72-.44,3,3,0,0,0,1.14-1.07.53.53,0,0,0,.07-.28V23.38a.51.51,0,0,0-.51-.51h-1.15a4.53,4.53,0,0,0-2.58.6,1.92,1.92,0,0,0-.86,1.69,1.77,1.77,0,0,0,.59,1.41A2.29,2.29,0,0,0,165.3,27.1Z"/><path class="cls-2" d="M177.32,29.32h-2.07a.51.51,0,0,1-.51-.51V10.33a.51.51,0,0,1,.51-.51h2.07a.51.51,0,0,1,.51.51V28.81A.51.51,0,0,1,177.32,29.32Z"/><path class="cls-3" d="M93.37,46.56a2.24,2.24,0,0,0-.86-1.88,10.33,10.33,0,0,0-3.09-1.33,15,15,0,0,1-3.56-1.5,4.75,4.75,0,0,1-2.52-4.14A4.49,4.49,0,0,1,85.16,34a7.39,7.39,0,0,1,4.73-1.45,8.07,8.07,0,0,1,3.44.71,5.67,5.67,0,0,1,2.37,2,5.13,5.13,0,0,1,.84,2.38.5.5,0,0,1-.51.53h-2.2a.5.5,0,0,1-.49-.46,2.72,2.72,0,0,0-.88-1.8,3.74,3.74,0,0,0-2.6-.82,3.89,3.89,0,0,0-2.44.67,2.25,2.25,0,0,0-.87,1.88,2,2,0,0,0,.94,1.69,10.35,10.35,0,0,0,3.1,1.32,14.66,14.66,0,0,1,3.46,1.46A5.67,5.67,0,0,1,96,44.05a5,5,0,0,1,.61,2.49,4.39,4.39,0,0,1-1.77,3.67A7.7,7.7,0,0,1,90,51.58a9,9,0,0,1-3.69-.75,6.15,6.15,0,0,1-2.61-2,4.9,4.9,0,0,1-.91-2.51.5.5,0,0,1,.51-.53h2.2a.51.51,0,0,1,.5.48,2.84,2.84,0,0,0,1,2A4.53,4.53,0,0,0,90,49a4,4,0,0,0,2.52-.68A2.21,2.21,0,0,0,93.37,46.56Z"/><path class="cls-3" d="M98.52,44.33a8.14,8.14,0,0,1,.8-3.64,5.8,5.8,0,0,1,2.25-2.49,6.3,6.3,0,0,1,3.32-.87,6,6,0,0,1,4.52,1.79,7.05,7.05,0,0,1,1.87,4.75v.72a8.14,8.14,0,0,1-.78,3.63,5.72,5.72,0,0,1-2.23,2.48,6.43,6.43,0,0,1-3.36.88,6,6,0,0,1-4.65-1.94,7.38,7.38,0,0,1-1.75-5.16Zm3.09.26a5.55,5.55,0,0,0,.87,3.32,2.86,2.86,0,0,0,2.44,1.2,2.8,2.8,0,0,0,2.43-1.22,6.09,6.09,0,0,0,.87-3.56,5.43,5.43,0,0,0-.9-3.3,3,3,0,0,0-4.83,0A6,6,0,0,0,101.61,44.59Z"/><path class="cls-3" d="M119.54,49.11a2.79,2.79,0,0,0,1.92-.67,2.28,2.28,0,0,0,.76-1.28.52.52,0,0,1,.52-.38h1.87a.51.51,0,0,1,.5.61,4.52,4.52,0,0,1-.73,1.78,5.28,5.28,0,0,1-2,1.76,6.1,6.1,0,0,1-2.77.65A5.88,5.88,0,0,1,115,49.71a7.41,7.41,0,0,1-1.69-5.15v-.32a7.25,7.25,0,0,1,1.68-5,5.8,5.8,0,0,1,4.57-1.89,5.66,5.66,0,0,1,4,1.43,5,5,0,0,1,1.58,3.2.51.51,0,0,1-.51.55h-1.9a.53.53,0,0,1-.51-.45,2.72,2.72,0,0,0-.75-1.49,2.61,2.61,0,0,0-1.93-.76,2.72,2.72,0,0,0-2.31,1.08,5.58,5.58,0,0,0-.82,3.3v.49a5.67,5.67,0,0,0,.8,3.33A2.7,2.7,0,0,0,119.54,49.11Z"/><path class="cls-3" d="M127.52,34a1.62,1.62,0,0,1,.45-1.18,2,2,0,0,1,2.58,0,1.72,1.72,0,0,1,0,2.34,2,2,0,0,1-2.58,0A1.61,1.61,0,0,1,127.52,34Zm2.76,17.3h-2.07a.5.5,0,0,1-.5-.51V38.09a.5.5,0,0,1,.5-.5h2.07a.5.5,0,0,1,.51.5V50.81A.51.51,0,0,1,130.28,51.32Z"/><path class="cls-3" d="M142.7,51.32a.5.5,0,0,1-.48-.34A7.83,7.83,0,0,1,142,50a5.17,5.17,0,0,1-7,.35,3.77,3.77,0,0,1-1.31-2.92,3.93,3.93,0,0,1,1.63-3.37A8,8,0,0,1,140,42.93h1.89V42a2.41,2.41,0,0,0-.6-1.71,2.33,2.33,0,0,0-1.81-.64,2.74,2.74,0,0,0-1.73.53,1.63,1.63,0,0,0-.63,1,.49.49,0,0,1-.49.38h-2.07a.52.52,0,0,1-.51-.62,3.64,3.64,0,0,1,.69-1.5,5,5,0,0,1,2-1.54,7.22,7.22,0,0,1,2.88-.56,5.79,5.79,0,0,1,3.84,1.21A4.3,4.3,0,0,1,145,42v6.2a7,7,0,0,0,.53,3v.21ZM139,49.1a3.58,3.58,0,0,0,1.72-.44,3,3,0,0,0,1.14-1.07.53.53,0,0,0,.07-.28V45.38a.51.51,0,0,0-.51-.51h-1.15a4.51,4.51,0,0,0-2.58.6,1.92,1.92,0,0,0-.86,1.69,1.77,1.77,0,0,0,.59,1.41A2.29,2.29,0,0,0,139,49.1Z"/><path class="cls-3" d="M150.84,51.32h-1.77a.66.66,0,0,1-.66-.66V32.48a.67.67,0,0,1,.66-.66h1.77a.67.67,0,0,1,.66.66V50.66A.66.66,0,0,1,150.84,51.32Z"/><path class="cls-2" d="M93.37,68.56a2.24,2.24,0,0,0-.86-1.88,10.33,10.33,0,0,0-3.09-1.33,15,15,0,0,1-3.56-1.5,4.75,4.75,0,0,1-2.52-4.14A4.49,4.49,0,0,1,85.16,56a7.39,7.39,0,0,1,4.73-1.45,8.07,8.07,0,0,1,3.44.71,5.67,5.67,0,0,1,2.37,2,5.22,5.22,0,0,1,.81,2.14.67.67,0,0,1-.65.77H94a.65.65,0,0,1-.65-.55A2.75,2.75,0,0,0,92.46,58a3.74,3.74,0,0,0-2.6-.82,3.89,3.89,0,0,0-2.44.67,2.25,2.25,0,0,0-.87,1.88,2,2,0,0,0,.94,1.69,10.35,10.35,0,0,0,3.1,1.32,14.66,14.66,0,0,1,3.46,1.46A5.67,5.67,0,0,1,96,66.05a5,5,0,0,1,.61,2.49,4.39,4.39,0,0,1-1.77,3.67A7.7,7.7,0,0,1,90,73.58a9,9,0,0,1-3.69-.75,6.15,6.15,0,0,1-2.61-2,5,5,0,0,1-.89-2.29.67.67,0,0,1,.66-.75h1.89a.64.64,0,0,1,.65.54,2.81,2.81,0,0,0,1,1.89A4.53,4.53,0,0,0,90,71a4,4,0,0,0,2.52-.68A2.21,2.21,0,0,0,93.37,68.56Z"/><path class="cls-2" d="M107.42,72a4.81,4.81,0,0,1-3.86,1.6,4.25,4.25,0,0,1-3.38-1.31A5.54,5.54,0,0,1,99,68.48V60.25a.65.65,0,0,1,.66-.66h1.76a.65.65,0,0,1,.66.66v8.2c0,1.74.73,2.61,2.17,2.61a3.07,3.07,0,0,0,3-1.45.67.67,0,0,0,.09-.34v-9a.65.65,0,0,1,.66-.66h1.76a.65.65,0,0,1,.66.66V72.66a.65.65,0,0,1-.66.66H107.5Z"/><path class="cls-2" d="M115.83,59.59a.65.65,0,0,1,.65.61l0,.82a5,5,0,0,1,4-1.69,4,4,0,0,1,3.32,1.39.66.66,0,0,0,1,.07,4.88,4.88,0,0,1,3.67-1.46,4.26,4.26,0,0,1,3.38,1.26A5.5,5.5,0,0,1,133,64.3v8.36a.66.66,0,0,1-.66.66h-1.76a.65.65,0,0,1-.66-.66V64.38a2.66,2.66,0,0,0-.58-1.91,2.48,2.48,0,0,0-1.89-.61,2.62,2.62,0,0,0-1.72.56,3,3,0,0,0-.93,1.48v8.76a.65.65,0,0,1-.66.66h-1.76a.65.65,0,0,1-.66-.66V64.28a2.2,2.2,0,0,0-2.48-2.42,2.74,2.74,0,0,0-2.54,1.34.73.73,0,0,0-.09.35v9.11a.65.65,0,0,1-.66.66H114.2a.65.65,0,0,1-.66-.66V60.25a.65.65,0,0,1,.66-.66Z"/><path class="cls-2" d="M138.45,59.59a.66.66,0,0,1,.66.61l0,.82a4.92,4.92,0,0,1,4-1.69,3.94,3.94,0,0,1,3.32,1.39.66.66,0,0,0,1,.07,4.9,4.9,0,0,1,3.67-1.46,4.28,4.28,0,0,1,3.39,1.26,5.5,5.5,0,0,1,1.13,3.71v8.36a.65.65,0,0,1-.66.66H153.2a.65.65,0,0,1-.66-.66V64.38a2.71,2.71,0,0,0-.57-1.91,2.48,2.48,0,0,0-1.89-.61,2.58,2.58,0,0,0-1.72.56,3,3,0,0,0-.94,1.48v8.76a.65.65,0,0,1-.66.66H145a.66.66,0,0,1-.66-.66V64.28a2.2,2.2,0,0,0-2.48-2.42,2.72,2.72,0,0,0-2.53,1.34.73.73,0,0,0-.09.35v9.11a.66.66,0,0,1-.66.66h-1.77a.66.66,0,0,1-.66-.66V60.25a.66.66,0,0,1,.66-.66Z"/><path class="cls-2" d="M158.8,56a1.62,1.62,0,0,1,.45-1.18,2,2,0,0,1,2.58,0,1.72,1.72,0,0,1,0,2.34,2,2,0,0,1-2.58,0A1.61,1.61,0,0,1,158.8,56Zm2.61,17.3h-1.76a.65.65,0,0,1-.66-.66V60.25a.65.65,0,0,1,.66-.66h1.76a.65.65,0,0,1,.66.66V72.66A.65.65,0,0,1,161.41,73.32Z"/><path class="cls-2" d="M169.3,56.91v2a.66.66,0,0,0,.66.66h1.1a.65.65,0,0,1,.66.66v1a.66.66,0,0,1-.66.66H170a.66.66,0,0,0-.66.66v7a1.66,1.66,0,0,0,.31,1.13,1.42,1.42,0,0,0,1.11.35,5.1,5.1,0,0,0,1.08-.12v1.86a.66.66,0,0,1-.51.65,7.45,7.45,0,0,1-1.52.17q-3.56,0-3.56-3.93V62.53a.66.66,0,0,0-.66-.66h-.94a.67.67,0,0,1-.66-.66v-1a.66.66,0,0,1,.66-.66h.94a.66.66,0,0,0,.66-.66v-2a.66.66,0,0,1,.66-.66h1.77A.66.66,0,0,1,169.3,56.91Z"/></svg>