<svg id="Layer_1" data-name="Layer 1" xmlns="http://www.w3.org/2000/svg" viewBox="0 0 600 900"><defs><style>.cls-1{fill:#dff7f6;}.cls-2{fill:#c2c2c2;}.cls-3{fill:#ebebeb;}.cls-4{fill:#cc8100;}.cls-5{fill:#ffb300;}.cls-6{fill:#e0b000;}.cls-7{fill:#ffd500;}.cls-8{fill:#2e2f2e;}.cls-9{fill:#4e4c4f;}.cls-10{fill:#454645;}.cls-11{fill:#f5f5f5;}.cls-12{fill:#139a4a;}.cls-13{fill:#53841e;}.cls-14{fill:#8db52c;}.cls-15{fill:#558c22;}.cls-16{fill:#068238;}</style></defs><title>Website Illustration</title><rect class="cls-1" width="600" height="900"/><rect class="cls-2" x="293.06" y="592.14" width="26.4" height="23.48" transform="translate(-349.01 433.33) rotate(-48.52)"/><rect class="cls-2" x="292.89" y="590.4" width="25.19" height="23.48" transform="translate(-347.99 432.25) rotate(-48.53)"/><polygon class="cls-3" points="320.75 605.59 303.15 590.04 289.12 605.92 306.7 621.48 320.75 605.59"/><path class="cls-4" d="M305.29,566.56c16.87,21.7-.64,37.59-.64,37.59s-19.83,4-29.91-4.74Z"/><path class="cls-5" d="M301.34,572.71c9.45,9.42,10.54,23.89,2.3,32.76s-22.77,8.83-32.85.09Z"/><polygon class="cls-6" points="296.07 553.88 261.65 590.91 259.78 599.22 304.24 571.5 306.11 563.21 296.07 553.88"/><polygon class="cls-7" points="294.2 562.18 259.78 599.22 269.81 608.54 304.24 571.5 294.2 562.18"/><path class="cls-8" d="M234.15,568.59l-1.85,2a29.11,29.11,0,0,0,30.29,24.08l8.4-9.08-1.72-2.1c-11.41,5.27-22.45,1.87-30.94-8.21A28.9,28.9,0,0,1,234.15,568.59Z"/><path class="cls-8" d="M267.74,532.47l-1.85,2a29.55,29.55,0,0,1,7.14,3.5,28.59,28.59,0,0,1,10,33.21l.83.59,10.27-11.1a28.51,28.51,0,0,0-26.38-28.16Z"/><path class="cls-9" d="M232.3,570.56l-1.64,1.78a28.53,28.53,0,0,0,30.08,24.26l10.25-11-.66-.79a28.6,28.6,0,0,1-33.85-7.55A29.24,29.24,0,0,1,232.3,570.56Z"/><path class="cls-9" d="M265.89,534.43l-1.65,1.78a28.57,28.57,0,0,1,16.93,36.89l.83.59,10.28-11.09a28.55,28.55,0,0,0-26.39-28.17Z"/><polygon class="cls-4" points="354.77 602.33 319.83 642.9 306.24 642.72 329.5 592.08 343.09 592.28 354.77 602.33"/><polygon class="cls-5" points="341.17 602.14 306.24 642.72 294.55 632.65 329.5 592.08 341.17 602.14"/><path class="cls-8" d="M430.37,705.89a18.11,18.11,0,0,1-25.57,1.91l-83.71-77.59,14.61-17,9.05-10.51,83.71,77.6A18.12,18.12,0,0,1,430.37,705.89Z"/><path class="cls-10" d="M410.8,707.35a18.13,18.13,0,0,1-25.57,1.91L312,640.72l9-10.51,14.61-17,73.18,68.54A18.14,18.14,0,0,1,410.8,707.35Z"/><path class="cls-6" d="M394,863.47V809.06A32.07,32.07,0,0,0,362,777H314.27a32.07,32.07,0,0,0-32.06,32.06v54.41Z"/><path class="cls-7" d="M386.36,863.47V809.06A32.06,32.06,0,0,0,354.29,777H306.61a32.06,32.06,0,0,0-32.06,32.06v54.41Z"/><path class="cls-8" d="M299.77,805.29a11.14,11.14,0,0,1-15.74-.35h0a11.13,11.13,0,0,1,.36-15.73l95.83-93a11.11,11.11,0,0,1,15.72.35h0a11.13,11.13,0,0,1-.36,15.74Z"/><path class="cls-8" d="M337.67,837.67a11.1,11.1,0,0,1-15.72-.36h0a11.12,11.12,0,0,1,.35-15.73l95.82-93a11.12,11.12,0,0,1,15.73.35h0a11.14,11.14,0,0,1-.36,15.74Z"/><path class="cls-8" d="M301.33,806.93a11.11,11.11,0,0,1-15.73-.36h0a11.13,11.13,0,0,1,.36-15.73l95.82-93a11.11,11.11,0,0,1,15.72.35h0a11.11,11.11,0,0,1-.36,15.73Z"/><path class="cls-8" d="M339.23,839.31a11.12,11.12,0,0,1-15.72-.36h0a11.12,11.12,0,0,1,.35-15.73l95.82-93a11.13,11.13,0,0,1,15.74.36h0a11.13,11.13,0,0,1-.36,15.73Z"/><path class="cls-10" d="M291.48,805.11a11.13,11.13,0,0,1-15.73-.36h0a11.13,11.13,0,0,1,.36-15.73l95.81-93a11.13,11.13,0,0,1,15.73.36h0a11.11,11.11,0,0,1-.35,15.73Z"/><path class="cls-10" d="M329.39,837.48a11.11,11.11,0,0,1-15.73-.36h0a11.12,11.12,0,0,1,.35-15.73l95.82-93a11.11,11.11,0,0,1,15.73.36h0a11.11,11.11,0,0,1-.35,15.72Z"/><path class="cls-6" d="M368.89,716.28a42.62,42.62,0,1,1,45.68,39.33A42.64,42.64,0,0,1,368.89,716.28Z"/><path class="cls-6" d="M371.57,716.18a42.62,42.62,0,1,1,45.67,39.33A42.61,42.61,0,0,1,371.57,716.18Z"/><path class="cls-7" d="M365.7,716.52a42.62,42.62,0,1,1,45.68,39.33A42.62,42.62,0,0,1,365.7,716.52Z"/><path class="cls-11" d="M436.06,710.79a28,28,0,1,1-30-25.81A28,28,0,0,1,436.06,710.79Z"/><path class="cls-2" d="M406.58,691.54a21.39,21.39,0,1,0,22.91,19.74A21.41,21.41,0,0,0,406.58,691.54Z"/><path class="cls-6" d="M360.67,863.47V809.06A32.07,32.07,0,0,0,328.6,777H280.91a32.08,32.08,0,0,0-32.07,32.06v54.41Z"/><rect class="cls-8" x="276.07" y="863.47" width="148.32" height="8.68"/><path class="cls-7" d="M353,863.47V809.06A32.06,32.06,0,0,0,320.93,777H273.25a32.06,32.06,0,0,0-32.06,32.06v54.41Z"/><rect class="cls-10" x="220.72" y="863.47" width="148.32" height="8.68"/><rect class="cls-4" x="242.95" y="872.15" width="270.95" height="27.85"/><rect class="cls-5" x="141.83" y="872.15" width="270.95" height="27.85"/><path class="cls-11" d="M332.75,819.91A33.92,33.92,0,1,1,298.83,786,33.93,33.93,0,0,1,332.75,819.91Z"/><path class="cls-2" d="M298.83,794a25.94,25.94,0,1,0,25.94,25.94A26,26,0,0,0,298.83,794Z"/><circle class="cls-12" cx="257.78" cy="560.58" r="20.22"/><path class="cls-12" d="M291.36,498.36a34.88,34.88,0,0,1-67.15,0Z"/><rect class="cls-12" x="199.76" y="434.75" width="116.06" height="21.61" rx="4.68"/><rect class="cls-12" x="212.24" y="472.05" width="91.08" height="14.53" rx="3.15"/><path class="cls-12" d="M410.8,123c3.94,11.75,15.18,50.24-.9,94.61a143.92,143.92,0,0,1-48,65.09c42.72-40.36,59.72-102.09,42.51-155.74-.32-1-.65-2-1-3s-.65-1.87-1-2.79c-13.69-37.1-40.62-58.61-64.75-71a172.57,172.57,0,0,0-47.85-16.1c46.65,13.8,83.92,48.5,99.68,91.68a135.51,135.51,0,0,1,8.28,46.73c0,37.84-15.57,72.28-41,98-24.6,24.88-58.46,41.64-96.46,45.49.71-10.93,1.54-24.47,1.78-30,.33-7.75.57-16.58.53-26a145.21,145.21,0,0,1,8.79-23.58q1.36-2.9,3-6h0a150.13,150.13,0,0,1,30.86-40.59c21.6-20,62.23-44.57,62.23-44.57-13.37,3.18-32.26,12.21-63.69,39.22l0,0a262.15,262.15,0,0,0-37.3,50.74h0l-.06-.2c-1.76,4.21-3.08,7.91-4.05,10.91a313.06,313.06,0,0,0-3-34.19c-.94-6.73-2.25-13.42-3.7-19.95l-1.2-4.86c-.2-.8-.38-1.6-.6-2.4s-.44-1.59-.67-2.38c-.45-1.58-.9-3.14-1.34-4.7s-1-3.07-1.48-4.59c-1-3-2.06-5.93-3.18-8.75a160.28,160.28,0,0,1,4-22.33,146.14,146.14,0,0,1,21.44-47.57c16.81-24.14,22.75-32.85-2.79,1.39-2.64,3.54-5,7.09-7.16,10.6,0,0,0,0,0,0-7.46,14-12.82,26.93-15.11,35.11l0,0A135.86,135.86,0,0,0,244.13,157c-2.58-5.75-5.28-11-7.88-15.83l0-.05.12.05c-7.16-16.21-10.88-47.43-11.6-61.51a11.18,11.18,0,0,1-1.86-.64l-.25-.12a388.16,388.16,0,0,0,6,50.87l.72.91.95,7.61s-.68-3.19-1.67-8.52a130.31,130.31,0,0,0-15.48-16.21,19.1,19.1,0,0,1-2.53,1.25c5.88,7.31,11.89,17.36,17.72,30.2,3.95,8.73,7,19.54,9.57,31.22.31,1.46.63,2.93,1,4.42s.54,3,.8,4.51c.14.76.28,1.52.41,2.28s.24,1.53.35,2.31c.24,1.53.46,3.08.69,4.63.78,6.25,1.47,12.6,1.82,19a344.7,344.7,0,0,1,.1,37.74c-.1,1.94-.22,3.84-.33,5.74a141.83,141.83,0,0,0-6.59-17c-.4-.87-.81-1.75-1.25-2.65l-.12-.23a182.13,182.13,0,0,0-15.81-24.84h0A138.69,138.69,0,0,0,201.5,194.1c-25.11-21.76-26-19.26-14.94-7.67h1.67a8.86,8.86,0,0,1,8.86,8.86,9.23,9.23,0,0,1-.11,1.4l1.65,1.53a161.32,161.32,0,0,1,33.3,43.25A129.6,129.6,0,0,1,242.05,266c-.52,6.51-1.12,12.65-1.73,18.28-1,9.76-2,18-2.54,24-.14,1.51-.5,6.28-.52,7.18s0,1.3,0,1.35c-82.37-3-148.14-66.46-148.14-144.27,0-2.47.07-4.91.21-7.36l-.21,0c-8.4,49.87,2.61,82,11.32,100.53,8.13,17.17,24.82,42.89,40.07,62.8,9.09,11.88,14.49,19.74,21.4,30.4,2.22,3.39,4.57,7.06,7.25,11.24,4.68,7.26,9.06,14.39,12.87,24.47a87.17,87.17,0,0,1,3.54,11.69,18.19,18.19,0,0,0,17.74,14.32H314.41A19.28,19.28,0,0,0,333.18,406c2.17-9,3.62-20.53,14-42.09.84-1.76,1.66-3.4,2.47-4.94,9.15-17.76,16.19-24.4,31.69-48.06,21.25-32.39,36.77-56,43.6-81.87C429.57,211.43,434.9,175.07,410.8,123ZM237.25,316.82v0l.06,0Z"/><path class="cls-12" d="M165.7,291.59c-3.74-2.28-70.63-44.28-70.28-120.33.25-51.32,31-85.53,38.88-93.83-8.32,11-32.86,46.32-31.32,96.18C105.17,244.61,158.36,286.06,165.7,291.59Z"/><path class="cls-13" d="M224.74,79.7a11.18,11.18,0,0,1-1.86-.64l-.34-2.76c-.89-30.42,2.09.59,2.09.59C224.65,77.73,224.68,78.67,224.74,79.7Z"/><path class="cls-14" d="M148.85,67.38s11.85,23,27.8,34.51c24.46,17.62,36.5,11.68,36.5,11.68S221,95.05,196.51,77.44C180.56,66,148.85,67.38,148.85,67.38Z"/><path class="cls-15" d="M213.16,113.57h0v0a19.1,19.1,0,0,1-2.53,1.25c-5.58,2.33-19.88,5.84-38.71-7.73-15.69-11.31-22.83-38.87-23-39.72a0,0,0,0,1,0,0C171.14,71.55,202.52,96.16,213.16,113.57Z"/><path class="cls-13" d="M222.54,76.3l.34,2.76-.25-.12Q222.57,77.62,222.54,76.3Z"/><path class="cls-16" d="M230.29,138.33s-.68-3.19-1.67-8.52l.72.91Z"/><path class="cls-15" d="M237.55,54.17c.39,22.28-12.8,25.53-12.8,25.53h0a11.18,11.18,0,0,1-1.86-.64l-.25-.12c-3.92-1.77-11.94-7.48-12.22-24.31-.26-14.53,13.36-31.89,13.36-31.89S237.31,39.63,237.55,54.17Z"/><path class="cls-14" d="M237.56,54.16c-.25-14.53-13.79-31.41-13.79-31.41l1,56.94S237.94,76.45,237.56,54.16Z"/><path class="cls-16" d="M186.56,186.43,197,196.69S199,185.83,186.56,186.43Z"/><path class="cls-14" d="M131.4,144s15.28,39,39,60.16C206.9,236.58,227.27,229,227.27,229s15.65-28.51-20.81-60.92C182.69,147,131.4,144,131.4,144Z"/><path class="cls-15" d="M227.28,229h0v0a29.94,29.94,0,0,1-4.28,1.61c-9.36,2.82-33,6.09-61-18.87C138.54,191,131.62,145.46,131.42,144a0,0,0,0,1,0,0C166.6,154.41,213,199.24,227.28,229Z"/><path class="cls-14" d="M392,137s-20.23,36.71-46.55,54.57C305,219,285.82,208.83,285.82,208.83s-11.8-30.32,28.57-57.7C340.7,133.28,392,137,392,137Z"/><path class="cls-15" d="M285.81,208.83a0,0,0,0,1,0,0h0a28.07,28.07,0,0,0,4,2.15c8.92,4,31.89,10.34,63-10.75,25.91-17.57,38.7-61.83,39.08-63.21a0,0,0,0,0,0,0C355.69,142.75,303.81,181.15,285.81,208.83Z"/><path class="cls-14" d="M318.34,63.6s-9.64,24.53-24.6,37.8C270.78,121.75,258,117,258,117s-9.81-18,13.14-38.3C286.08,65.42,318.34,63.6,318.34,63.6Z"/><path class="cls-15" d="M258,117h0a17.28,17.28,0,0,0,2.69,1c5.88,1.79,20.72,3.87,38.39-11.8,14.73-13.06,19.12-41.7,19.25-42.59v0C296.2,70.11,267,98.26,258,117Z"/></svg>