<svg width="900" height="900" viewBox="0 0 900 900" fill="none" xmlns="http://www.w3.org/2000/svg">
<path d="M281.327 731.243C268.378 729.497 247.788 727.024 247.793 737.498C247.797 741.451 266.065 745.254 269.087 745.983C278.437 748.24 287.194 751.574 296.329 754.947C313.279 761.208 326.855 752.773 313.432 743.317C302.366 735.52 291.767 732.651 281.327 731.243ZM563.909 754.224C563.009 755.066 562.156 755.984 561.614 757.073C560.131 760.054 561.659 764.091 564.844 765.384C566.444 766.032 568.242 766.019 569.981 765.997C584.867 765.796 600.869 765.25 612.761 756.708C614.212 755.665 615.713 754.202 615.456 752.487C615.145 750.409 612.569 749.513 610.414 749.097C595.534 746.223 575.87 743.011 563.909 754.224V754.224ZM813.884 523.064C812.115 523.784 810.311 524.693 809.296 526.252C808.504 527.47 808.29 528.941 808.132 530.368C807.802 533.338 807.635 536.326 807.631 539.313C807.628 542.583 807.982 546.21 810.495 548.437C813.881 551.436 819.257 550.386 823.693 549.148C826.193 548.449 828.859 547.648 830.464 545.692C831.64 544.261 832.07 542.412 832.392 540.621C833.467 534.651 836.753 525.607 833.11 522.517C829.465 519.426 820.229 520.477 813.884 523.064V523.064ZM90.3331 341.295C88.3981 335.394 83.8261 332.46 76.9087 335.821C72.7813 337.826 69.9049 341.552 67.4389 345.291C63.4573 351.328 60.0337 358.227 60.8707 365.314C61.4809 370.478 64.4617 375.347 68.8771 378.396C70.6879 379.645 72.8299 380.621 75.0655 380.545C77.5189 380.464 79.7329 379.141 81.6391 377.664C86.1391 374.17 89.6023 369.636 93.0133 365.157C94.7827 362.835 96.6097 360.373 96.9481 357.52C97.6681 351.475 92.1115 346.723 90.3331 341.295V341.295ZM189.032 179.908C186.415 178.193 183.042 179.181 180.439 180.52C179.874 180.814 179.294 181.206 179.131 181.798C178.789 183.03 180.346 183.903 181.615 184.299C183.591 184.916 185.744 185.519 187.708 184.866C189.673 184.212 191.646 181.622 189.032 179.908V179.908ZM210.206 168.243C209.509 168.621 209.149 169.364 208.73 170.016C207.284 172.255 204.784 173.684 202.234 174.681C200.74 175.268 199.13 175.772 198.027 176.899C196.274 178.69 196.488 181.885 198.464 183.449C200.063 184.713 202.316 184.839 204.39 184.736C212.148 184.353 219.753 181.512 225.72 176.767C233.573 170.523 214.524 165.904 210.206 168.243ZM430.04 143.683C430.04 148.745 430.04 157.432 452.356 156.012C459.203 155.576 464.783 151.908 464.783 146.846C464.783 141.783 459.22 137.679 452.356 137.679C445.493 137.679 430.04 135.594 430.04 143.683ZM815.751 347.631C827.703 369.355 845.08 389.842 846.583 414.331C848.995 453.672 810.639 483.331 794.956 519.788C775.701 564.541 791.849 617.269 774.806 662.827C762.457 695.844 732.163 722.218 696.564 730.946C669.883 737.487 641.821 734.532 614.275 734.802C536.069 735.561 458.165 762.604 381.024 750.328C342.932 744.264 306.92 728.791 268.654 723.827C222.766 717.874 169.299 725.073 136.505 693.888C90.6913 650.319 124.704 570.21 90.3205 517.939C79.2487 501.108 61.4125 487.939 55.4329 468.904C48.4453 446.659 59.7655 422.955 73.8217 403.996C87.8779 385.035 105.269 367.573 112.883 345.517C119.795 325.489 115.574 303.718 107.071 284.256C94.0465 254.437 130.304 186.066 202.228 191.191C235.199 193.54 250.038 155.351 286.205 144.765C327.616 132.646 379.604 142.389 410.117 152.53C441.119 162.834 479.444 168.252 497.216 141.923C522.308 104.753 597.109 98.9354 630.695 159.298C642.964 181.347 653.888 198.502 679.999 196.819C821.509 187.701 797.99 315.344 815.751 347.631" fill="#C8EEFB"/>
<path d="M706.771 483.717C706.771 483.717 736.852 480.97 765.361 469.291C766.263 468.922 766.808 475.05 766.808 475.05C766.808 475.05 771.006 466.858 772.464 466.17C787.893 458.893 802.045 448.753 809.63 434.715C809.63 434.715 813.367 520.795 702.714 539.913L706.771 483.717Z" fill="#5084DA"/>
<path d="M743.569 581.912C743.569 581.912 780.087 601.269 851.5 604.633C851.5 604.633 802.918 648.967 691.761 633.703L695.406 583.213L743.569 581.912Z" fill="#5084DA"/>
<path d="M692.481 532.767C692.481 532.767 708.964 522.235 735.723 513.143C736.79 512.779 739.047 519.087 739.047 519.087C739.047 519.087 742.703 510.873 744.635 510.295C776.599 500.721 820.341 494.473 867.45 507.77C867.45 507.77 853.178 527.651 823.966 549.417C822.72 550.345 814.469 549.611 814.469 549.611C814.469 549.611 817.934 553.787 816.795 554.577C789.037 573.88 749.682 593.545 698.279 601.332L692.481 532.767Z" fill="#5193F4"/>
<g opacity="0.399994">
<g opacity="0.399994">
<path opacity="0.399994" d="M867.451 507.77C853.679 516.657 839.192 524.413 824.449 531.592C809.708 538.793 794.552 545.124 779.206 550.925C771.543 553.865 763.708 556.324 755.941 558.957L744.149 562.489C742.181 563.066 740.225 563.686 738.248 564.227L732.278 565.725C716.436 570.016 700.249 572.896 684.041 575.211L696.073 572.732L702.088 571.517C704.084 571.076 706.063 570.549 708.05 570.07L719.98 567.226L731.801 563.957C739.697 561.855 747.455 559.261 755.275 556.894C762.991 554.203 770.765 551.683 778.374 548.693C793.732 543.104 808.814 536.765 823.671 529.941C831.109 526.546 838.476 522.995 845.777 519.303C853.094 515.644 860.319 511.801 867.451 507.77Z" fill="#5084DA"/>
</g>
<g opacity="0.399994">
<path opacity="0.399994" d="M767.556 553.92C770.603 551.071 773.561 548.171 776.514 545.287C779.439 542.373 782.325 539.437 785.1 536.404C787.907 533.397 790.531 530.239 793.116 527.041C795.643 523.797 798.026 520.447 800.307 516.941C798.861 520.854 796.95 524.632 794.624 528.128C792.293 531.618 789.683 534.921 786.854 538.014C781.137 544.13 774.759 549.665 767.556 553.92Z" fill="#5084DA"/>
</g>
<g opacity="0.399994">
<path opacity="0.399994" d="M723.327 567.192C726.632 565.033 729.656 562.578 732.547 560.01C735.416 557.418 738.127 554.667 740.535 551.668C742.989 548.711 745.228 545.566 747.161 542.226C749.183 538.923 750.799 535.393 752.462 531.798C751.688 535.656 750.61 539.536 748.803 543.099C747.141 546.736 744.891 550.084 742.37 553.186C739.826 556.275 736.926 559.066 733.721 561.442C730.545 563.842 727.053 565.854 723.327 567.192Z" fill="#5084DA"/>
</g>
<g opacity="0.399994">
<path opacity="0.399994" d="M767.556 553.92C773.303 554.147 778.896 554.233 784.481 553.836C787.275 553.69 790.05 553.36 792.824 552.959C795.618 552.599 798.347 551.954 801.2 551.44C798.71 552.88 796.019 554.057 793.211 554.777C790.416 555.571 787.532 556.019 784.636 556.21C781.742 556.375 778.833 556.345 775.962 555.963C773.094 555.605 770.243 555 767.556 553.92Z" fill="#5084DA"/>
</g>
<g opacity="0.399994">
<path opacity="0.399994" d="M724.226 567.255C727.662 567.667 731.071 567.996 734.462 568.347C737.855 568.657 741.239 568.941 744.627 569.089C748.013 569.256 751.391 569.238 754.779 569.148C758.161 568.968 761.533 568.659 764.965 568.13C761.806 569.546 758.408 570.504 754.952 570.999C751.494 571.476 747.997 571.598 744.519 571.467C737.582 571.076 730.668 569.849 724.226 567.255Z" fill="#5084DA"/>
</g>
</g>
<g opacity="0.227768">
<g opacity="0.227768">
<g opacity="0.227768">
<g opacity="0.5">
<g opacity="0.5">
<path opacity="0.5" d="M798.261 457.082C795.315 465.157 790.12 472.273 784.227 478.537C778.296 484.826 771.299 490.031 763.879 494.434L758.173 497.487C756.278 498.522 754.246 499.269 752.284 500.156C748.365 501.969 744.238 503.233 740.148 504.552C738.123 505.283 735.999 505.67 733.918 506.195L727.658 507.684C723.419 508.348 719.176 508.969 714.941 509.502C719.095 508.435 723.273 507.592 727.397 506.545L733.519 504.745C735.549 504.12 737.623 503.634 739.583 502.808C743.532 501.251 747.591 500.002 751.377 498.09C753.283 497.172 755.283 496.448 757.124 495.41L762.688 492.373C769.974 488.111 776.825 483.1 782.931 477.253C784.45 475.783 785.983 474.319 787.348 472.701C788.044 471.905 788.773 471.135 789.448 470.32L791.409 467.819C794.022 464.48 796.375 460.92 798.261 457.082Z" fill="#605ACA"/>
</g>
</g>
</g>
</g>
</g>
<path d="M828.17 610.712C823.168 611.673 818.103 612.263 813.041 612.859C807.969 613.352 802.884 613.719 797.79 613.979C787.598 614.477 777.374 614.245 767.181 613.545C762.091 613.113 757.007 612.53 751.958 611.718C746.908 610.951 741.868 610.022 736.923 608.699C727.032 606.136 717.312 602.563 708.605 597.24C713.199 599.436 717.892 601.373 722.717 602.918C727.516 604.527 732.405 605.846 737.348 606.917C747.226 609.079 757.276 610.431 767.368 611.174C777.454 612.063 787.597 612.26 797.738 612.155C807.881 612.031 818.029 611.579 828.17 610.712Z" fill="#4CA1FF"/>
<path d="M780.307 628.552C773.66 629.081 766.863 627.641 760.761 624.689C757.735 623.143 754.932 621.107 752.591 618.634C750.211 616.171 748.604 613.079 747.56 609.945C749.453 612.697 751.455 615.214 753.887 617.302C756.335 619.346 758.966 621.141 761.832 622.561C764.688 623.996 767.7 625.137 770.787 626.122C773.886 627.059 777.045 627.923 780.307 628.552Z" fill="#4CA1FF"/>
<path d="M753.685 630.135C747.081 629.21 740.758 626.337 735.439 622.131C732.82 619.967 730.526 617.373 728.773 614.452C726.984 611.532 726.084 608.166 725.742 604.88C726.997 607.977 728.406 610.866 730.327 613.431C732.272 615.957 734.456 618.279 736.945 620.286C739.424 622.304 742.117 624.071 744.917 625.702C747.74 627.288 750.638 628.816 753.685 630.135Z" fill="#4CA1FF"/>
<path d="M461.848 702.905C450.734 690.102 433.832 682.515 416.875 682.738C404.356 682.902 392.062 687.063 379.57 686.297C366.446 685.508 353.75 679.005 345.451 668.793C337.151 658.582 333.353 644.846 335.248 631.825C336.695 621.927 341.872 611.987 350.836 607.557C355.72 605.151 361.366 604.548 366.791 605.036C371.801 605.486 376.596 606.845 381.125 608.87C391.491 613.469 400.504 621.576 407.709 630.527C414.25 638.667 429.19 650.642 439.29 658.373C445.212 662.888 449.482 665.942 449.482 665.942C456.602 672.525 456.973 694.517 461.848 702.905Z" fill="#52D2BC"/>
<path d="M352.146 635.361C383.61 644.323 418.365 657.024 442.931 678.63" stroke="#00AD9F" stroke-miterlimit="10" stroke-linecap="round" stroke-linejoin="round"/>
<path d="M554.919 630.934C554.454 636.161 553.381 641.505 550.845 646.255C549.092 649.528 546.718 652.393 544.034 654.937C542.652 656.254 541.172 657.484 539.669 658.634C533.823 663.087 527.321 666.496 520.569 668.651C510.73 671.781 500.197 672.364 491.154 677.91C487.006 680.45 483.369 683.989 480.575 688.111C478.825 690.672 477.412 693.464 476.408 696.378L476.37 687.567C477.333 677.811 478.321 667.873 481.957 658.549C484.303 652.507 487.692 646.874 491.4 641.532C497.324 632.978 504.132 625.008 511.989 618.382C518.341 613.025 525.616 608.475 533.382 607.319C541.136 606.155 549.391 609.026 552.942 615.86C555.225 620.25 555.39 625.692 554.919 630.934Z" fill="#5193F4"/>
<g opacity="0.309998">
<g opacity="0.309998">
<path opacity="0.309998" d="M481.83 679.333C487.364 666.24 496.92 654.704 508.577 647.048C515.843 642.28 523.803 639.02 531.219 634.551C538.635 630.081 545.775 624.006 549.253 615.858" stroke="#0B43A4" stroke-miterlimit="10" stroke-linecap="round" stroke-linejoin="round"/>
</g>
</g>
<path d="M469.724 687.354C483.565 673.624 503.197 667.333 522.495 664.564C538.594 662.257 555.5 662.17 570.557 668.315C575.275 670.24 579.926 672.916 582.714 677.179C585.504 681.441 585.9 687.595 582.493 691.382C579.62 694.577 574.951 695.355 570.654 695.51C556.519 696.017 542.687 691.908 528.842 689.006C505.044 684.017 479.129 682.814 457.495 693.915" fill="#52D2BC"/>
<path d="M486.981 680.133C515.626 668.051 557.001 671.943 575.048 684.431" stroke="#00AD9F" stroke-miterlimit="10" stroke-linecap="round" stroke-linejoin="round"/>
<path d="M148.164 539.631C135.221 533.412 129.016 516.839 118.382 513.277C105.2 508.721 101.505 523.445 80.1945 519.804C62.3097 516.749 56.8756 496.634 26.9776 502.857C17.848 504.758 11.7874 512.476 15.2164 521.733C17.7796 530.944 30.4642 536.772 38.0152 541.476C44.7094 545.256 50.635 547.283 54.6022 554.312C54.6436 554.385 54.685 554.465 54.721 554.54C57.3904 560.253 56.3248 565.347 62.5582 569.527C77.1616 580.21 95.3505 563.247 111.963 563.744C123.677 564.095 123.35 576.261 137.438 579.783C151.388 583.27 146.813 570.782 176.079 582.123C177.13 582.532 178.316 582.005 178.723 580.952C179.004 580.217 178.836 579.38 178.291 578.813C157.805 557.37 167.216 548.787 148.164 539.631Z" fill="#4A84D8"/>
<path d="M148.164 539.631C135.221 533.412 129.016 516.839 118.382 513.277C105.2 508.721 101.505 523.445 80.1945 519.804C62.3097 516.749 56.8756 496.634 26.9776 502.857C17.848 504.758 11.7874 512.476 15.2164 521.733C17.7796 530.944 30.4642 536.772 38.0152 541.476C44.7094 545.256 50.635 547.283 54.6022 554.312C54.6436 554.385 54.685 554.465 54.721 554.54C57.3904 560.253 56.3248 565.347 62.5582 569.527C77.1616 580.21 95.3505 563.247 111.963 563.744C123.677 564.095 123.35 576.261 137.438 579.783C151.388 583.27 146.813 570.782 176.079 582.123C177.13 582.532 178.316 582.005 178.723 580.952C179.004 580.217 178.836 579.38 178.291 578.813C157.805 557.37 167.216 548.787 148.164 539.631Z" fill="#00AD9F"/>
<g opacity="0.5">
<g opacity="0.5">
<path opacity="0.5" d="M164.729 567.577C153.594 561.824 147.17 549.692 135.436 544.893C132.779 543.808 129.989 543.203 127.114 543.268C123.036 543.361 119.04 545.026 114.932 544.607C109.055 544.009 105.36 538.879 100.149 536.73C94.1816 534.269 88.0976 538.073 81.929 536.579C75.665 535.063 70.5404 530.486 65.5814 526.63C55.2818 518.622 43.58 514.129 30.4418 514.163C29.774 514.165 30.071 515.926 30.8252 515.924C45.3116 515.884 56.9162 521.707 68.105 530.392C72.2954 533.643 76.763 537.063 82.0208 538.336C88.3226 539.864 94.6946 535.954 100.707 538.735C105.428 540.919 108.929 545.384 114.268 546.245C120.831 547.301 126.898 543.863 133.551 545.939C146.279 549.911 152.955 563.226 164.536 569.209C165.35 569.63 165.321 567.883 164.729 567.577Z" fill="#4CA1FF"/>
</g>
</g>
<path d="M274.172 626.662C231.588 631.164 224.777 634.841 214.567 630.428C201.555 624.804 187.882 626.199 174.765 620.825C161.651 615.448 147.407 611.34 133.416 613.612C128.993 614.33 124.085 616.127 123.467 621.316C123.221 623.399 123.89 625.503 125.111 627.206C128.192 631.504 133.229 632.948 138.044 634.274L154.143 638.715C159.379 640.16 159.044 647.871 153.668 648.644C153.623 648.651 153.578 648.656 153.533 648.663C149.024 649.275 144.457 648.381 140.013 647.398C130.345 645.256 120.659 642.653 110.756 642.639C98.7749 642.623 86.0723 646.95 80.1467 658.122C78.0443 662.084 77.2559 666.685 78.0029 671.106C80.0909 683.465 91.6487 687.588 101.892 686.663C109.1 686.013 115.913 683.229 122.718 680.766C139.341 674.753 153.565 681.384 171.236 681.845C220.005 683.114 274.172 626.662 274.172 626.662Z" fill="#7EE8D4"/>
<path d="M91.2394 665.634C121.56 662.171 152.105 658.663 181.196 649.442C189.728 646.738 200.719 645.989 224.805 628.214" stroke="#00AD9F" stroke-miterlimit="10" stroke-linecap="round" stroke-linejoin="round"/>
<path d="M140.354 489.79C141.364 490.578 142.421 491.226 143.524 491.754C148.728 494.32 154.688 494.675 158.828 499.346C161.591 502.284 163.09 506.224 165.155 509.721C165.576 510.497 166.053 511.233 166.571 511.939C172.972 520.717 179.272 521.736 186.011 521.585C188.774 521.518 191.636 521.254 194.578 521.256C199.079 521.25 203.869 521.833 209.026 524.667C212.282 526.422 215.686 529.078 219.284 533.015C219.931 533.715 221.09 533.776 222.008 533.191C222.829 532.653 223.244 531.696 223.066 530.835C221.263 522.732 217.738 517.413 213.496 513.417C201.569 502.129 183.959 501.232 182.892 477.931C182.667 472.942 183.727 469.401 182.93 465.845C182.521 464.054 181.636 462.253 179.879 460.255C176.273 456.369 171.086 454.65 166.465 451.542C153.955 442.619 159.919 428.019 158.808 414.125C158.063 402.785 147.866 395.403 139.528 388.981C129.104 381.309 129.128 367.473 122.092 357.189C115.072 346.897 97.5936 342.752 88.293 356.581C78.42 370.387 83.8416 387.645 86.682 401.648C87.4236 405.307 88.7142 408.558 90.4188 411.515C95.6208 420.603 104.554 427.078 112.273 434.776C117.03 439.501 120.988 444.856 123.76 450.903C125.378 454.434 126.595 458.189 127.328 462.199C127.493 463.132 127.675 464.055 127.855 464.981C129.659 474.692 131.781 483.34 140.354 489.79Z" fill="#7EE8D4"/>
<g opacity="0.5">
<g opacity="0.5">
<path opacity="0.5" d="M95.9994 356.781C96.4998 369.54 97.4736 382.795 107.039 392.274C111.503 396.698 116.867 400.145 121.082 404.829C124.051 408.126 125.534 411.613 126.688 415.861C127.323 418.203 127.858 420.642 129.269 422.667C130.943 425.066 133.412 426.243 135.819 427.773C139.037 429.818 141.431 432.516 143.302 435.83C146.165 440.908 147.712 446.603 150.278 451.825C151.4 454.104 152.689 456.307 154.325 458.26C156.884 461.315 160.765 463.233 162.49 466.922C165.422 473.193 164.189 480.753 167.024 487.242C173.639 502.373 189.326 509.917 203.438 516.564C204.271 516.956 204.233 515.216 203.63 514.931C189.905 508.468 174.47 501.226 167.924 486.556C165.244 480.551 166.032 474.069 164.081 467.944C162.212 462.078 156.483 459.675 153.221 454.739C147.706 446.393 146.741 435.188 138.971 428.304C136.402 426.031 132.764 424.931 130.527 422.309C127.861 419.186 127.787 414.617 126.335 410.915C124.463 406.145 120.886 402.438 117.074 399.132C111.49 394.29 105.307 390.04 101.848 383.299C97.722 375.264 97.4484 365.871 97.101 357.032C97.065 356.115 95.9526 355.581 95.9994 356.781Z" fill="#4CA1FF"/>
</g>
</g>
<g opacity="0.369995">
<g opacity="0.369995">
<path opacity="0.369995" d="M194.577 521.256C199.078 521.249 203.868 521.832 209.027 524.667C209.486 517.518 211.891 516.033 213.496 513.417C201.568 502.13 183.96 501.233 182.893 477.932C182.668 472.941 183.728 469.4 182.931 465.845C179.372 473.317 172.987 474.851 173.488 482.477C173.923 490.345 183.987 497.63 185.791 507.557C187.274 515.754 190.298 517.844 194.577 521.256Z" fill="#5A4FD1"/>
</g>
</g>
<path d="M309.996 638.685C301.95 635.508 291.207 634.203 286.048 641.148C281.728 646.962 283.966 655.2 286.948 661.799C289.467 667.372 292.667 673.035 297.977 676.064C301.606 678.132 305.857 678.755 310.005 679.247C321.571 680.624 333.223 681.299 344.871 681.264C358.372 681.227 374.727 686.74 385.898 695.159C371.564 668.511 337.071 649.377 309.996 638.685Z" fill="#5084DA"/>
<g opacity="0.309998">
<g opacity="0.309998">
<path opacity="0.309998" d="M295.88 656.008C306.12 656.444 316.454 657.164 326.284 660.071C336.335 663.043 374.999 680.787 381.044 688.338" stroke="#0B43A4" stroke-miterlimit="10" stroke-linecap="round" stroke-linejoin="round"/>
</g>
</g>
<path d="M703.1 440.525C702.852 441.726 702.749 442.907 702.766 444.077C702.784 449.628 705.014 454.886 702.775 460.419C701.434 464.039 698.698 466.998 696.579 470.256C696.093 470.944 695.666 471.667 695.283 472.412C690.486 481.632 692.295 487.462 695.292 493.17C696.527 495.512 697.969 497.85 699.22 500.37C701.14 504.224 702.679 508.576 702.447 514.201C702.33 517.738 701.502 521.785 699.662 526.542C699.335 527.393 699.776 528.412 700.667 528.949C701.479 529.426 702.476 529.372 703.138 528.851C709.312 523.86 712.369 518.577 713.989 513.242C718.58 498.219 711.854 482.752 731.362 471.921C735.542 469.604 739.027 469.005 741.734 466.811C743.095 465.695 744.257 464.172 745.222 461.816C747.019 457.071 746.284 451.898 746.979 446.617C749.299 432.101 764.345 430.996 775.775 424.133C785.175 418.668 787.157 406.79 789.11 396.913C791.246 384.718 803.112 378.85 808.926 368.446C814.756 358.051 810.868 341.313 795.062 339.232C779.035 336.649 766.556 348.639 755.77 357.031C752.95 359.225 750.714 361.712 748.905 364.432C743.334 372.759 741.59 383.167 738.28 393.054C736.255 399.142 733.353 404.812 729.353 409.758C727.013 412.649 724.317 415.288 721.194 417.622C720.463 418.162 719.749 418.709 719.036 419.258C711.481 424.936 704.976 430.436 703.1 440.525Z" fill="#7EE8D4"/>
<g opacity="0.5">
<g opacity="0.5">
<path opacity="0.5" d="M797.977 345.626C786.935 351.663 776.211 358.192 772.332 370.868C770.564 376.635 769.891 382.769 767.429 388.313C765.861 391.843 763.498 394.426 760.612 396.932C758.636 398.651 756.602 400.382 755.565 402.864C754.363 405.741 754.759 408.992 754.127 411.99C753.428 415.302 751.736 418.224 749.72 420.908C746.275 425.492 741.908 429.326 738.688 434.091C735.162 439.318 735.389 446.7 730.649 450.928C726.247 454.859 720.796 457.001 716.883 461.589C706.583 473.667 706.889 490.631 707.199 505.572C707.219 506.494 708.326 507.023 708.302 505.823C707.991 490.895 707.669 473.714 718.615 462.059C722.62 457.795 728.336 455.795 732.313 451.585C736.21 447.458 735.958 441.228 738.906 436.47C744.142 428.019 753.833 422.088 755.437 411.647C756.152 407.006 756.094 403.313 759.791 399.849C761.723 398.037 763.847 396.496 765.497 394.401C768.853 390.138 770.188 384.74 771.409 379.563C773.126 372.282 774.958 365.351 780.297 359.796C785.456 354.428 792.155 350.798 798.619 347.262C799.21 346.94 798.693 345.234 797.977 345.626Z" fill="#4CA1FF"/>
</g>
</g>
<path d="M656.587 662.723C668.848 669.639 673.849 686.244 684.019 690.411C696.617 695.712 701.176 681.553 721.785 686.482C739.077 690.618 743.1 710.639 772.739 706.476C781.791 705.205 788.212 698.045 785.454 688.773C783.537 679.598 771.51 673.084 764.427 667.999C758.123 663.874 752.458 661.508 749.029 654.38C748.993 654.305 748.957 654.226 748.929 654.148C746.686 648.39 748.056 643.478 742.227 638.989C728.632 627.604 709.755 643.024 693.541 641.469C682.107 640.375 683.209 628.496 669.658 624.148C656.239 619.84 659.911 632.348 632.02 619.374C631.018 618.908 629.823 619.347 629.36 620.35C629.036 621.052 629.148 621.88 629.643 622.47C648.3 644.756 638.544 652.546 656.587 662.723Z" fill="#4A84D8"/>
<path d="M656.587 662.723C668.848 669.639 673.849 686.244 684.019 690.411C696.617 695.712 701.176 681.553 721.785 686.482C739.077 690.618 743.1 710.639 772.739 706.476C781.791 705.205 788.212 698.045 785.454 688.773C783.537 679.598 771.51 673.084 764.427 667.999C758.123 663.874 752.458 661.508 749.029 654.38C748.993 654.305 748.957 654.226 748.929 654.148C746.686 648.39 748.056 643.478 742.227 638.989C728.632 627.604 709.755 643.024 693.541 641.469C682.107 640.375 683.209 628.496 669.658 624.148C656.239 619.84 659.911 632.348 632.02 619.374C631.018 618.908 629.823 619.347 629.36 620.35C629.036 621.052 629.148 621.88 629.643 622.47C648.3 644.756 638.544 652.546 656.587 662.723Z" fill="#00AD9F"/>
<g opacity="0.5">
<g opacity="0.5">
<path opacity="0.5" d="M642.234 634.354C653.083 640.919 658.717 654.006 670.682 658.987C677.14 661.674 682.94 658.879 689.463 660.009C695.369 661.032 698.565 666.552 703.798 668.867C709.369 671.331 715.46 668.198 721.226 669.981C727.421 671.898 732.202 676.935 736.931 681.105C746.328 689.389 757.416 694.407 769.993 695.201C770.805 695.253 770.573 693.489 769.899 693.444C755.75 692.553 744.759 686.225 734.373 676.994C730.724 673.754 726.921 670.428 722.311 668.642C715.941 666.176 708.906 669.931 702.941 666.705C698.657 664.389 695.657 659.977 690.84 658.584C684.59 656.775 678.188 659.928 671.864 657.723C659.298 653.346 653.493 639.417 642.427 632.721C641.657 632.253 641.666 634.01 642.234 634.354Z" fill="#4CA1FF"/>
</g>
</g>
<path d="M218.628 629.148C218.628 629.148 165.177 617.455 124.07 621.854C122.771 621.993 124.353 613.893 124.353 613.893C124.353 613.893 115.886 622.884 113.747 623.226C91.1412 626.838 69.1146 634.621 54.0936 649.882C54.0936 649.882 81.4392 537.537 231.205 554.241L218.628 629.148Z" fill="#5084DA"/>
<path d="M249.7 635.173C249.7 635.173 225.753 624.424 195.858 601.083C194.665 600.151 200.085 592.978 200.085 592.978C200.085 592.978 188.176 594.918 186.106 593.177C151.843 564.347 112.644 519.854 92.9056 457.202C92.9056 457.202 125.72 458.588 171.641 475.36C173.598 476.073 178.847 485.874 178.847 485.874C178.847 485.874 180.983 478.912 182.708 479.608C224.795 496.559 275.822 526.255 322.384 578.216L249.7 635.173Z" fill="#5193F4"/>
<g opacity="0.399994">
<g opacity="0.399994">
<path opacity="0.399994" d="M92.9058 458.729C113.014 467.647 132.376 478.195 151.28 489.459C170.209 500.703 188.466 513.055 206.268 526.011C215.207 532.446 223.728 539.432 232.402 546.211L245.04 556.845C247.135 558.629 249.27 560.368 251.333 562.19L257.408 567.786C273.878 582.409 289.019 598.456 303.544 614.94L291.91 603.262L286.121 597.407C284.156 595.491 282.109 593.657 280.108 591.778L268.139 580.481L255.773 569.624C247.601 562.307 238.985 555.51 230.575 548.475C221.876 541.796 213.328 534.925 204.376 528.585C186.803 515.465 168.592 503.202 150.002 491.545C140.717 485.699 131.311 480.045 121.798 474.568C112.306 469.045 102.678 463.764 92.9058 458.729Z" fill="#5084DA"/>
</g>
<g opacity="0.399994">
<path opacity="0.399994" d="M218.202 536.882C212.76 535.557 207.33 534.373 201.921 533.179C196.497 532.043 191.079 530.961 185.632 530.081C180.193 529.143 174.721 528.521 169.229 527.973C163.728 527.525 158.217 527.315 152.602 527.331C158.058 526.078 163.705 525.444 169.339 525.48C174.971 525.525 180.598 526.028 186.149 526.928C197.221 528.843 208.123 531.928 218.202 536.882Z" fill="#5084DA"/>
</g>
<g opacity="0.399994">
<path opacity="0.399994" d="M165.614 500.871C161.739 500.637 157.889 500.5 154.051 500.354C150.21 500.246 146.381 500.178 142.556 500.248C138.729 500.282 134.919 500.533 131.106 500.835C127.298 501.209 123.51 501.744 119.682 502.45C123.251 500.921 127.024 499.791 130.872 499.122C134.721 498.457 138.621 498.106 142.52 498.034C150.309 497.977 158.128 498.735 165.614 500.871Z" fill="#5084DA"/>
</g>
<g opacity="0.399994">
<path opacity="0.399994" d="M265.636 576.752C260.785 574.632 255.803 573.044 250.794 571.689C245.775 570.377 240.694 569.36 235.555 568.863C230.43 568.283 225.253 568.085 220.08 568.373C214.887 568.535 209.737 569.32 204.481 570.098C209.379 568.129 214.525 566.482 219.853 565.889C225.156 565.078 230.572 565.139 235.906 565.688C241.245 566.269 246.513 567.47 251.537 569.318C256.568 571.117 261.396 573.556 265.636 576.752Z" fill="#5084DA"/>
</g>
<g opacity="0.399994">
<path opacity="0.399994" d="M218.202 536.882C214.225 530.263 210.208 523.925 205.652 517.948C203.434 514.92 201.022 512.047 198.528 509.232C196.069 506.361 193.338 503.771 190.662 500.947C194.11 502.685 197.412 504.835 200.284 507.459C203.233 510.01 205.859 512.918 208.203 516.025C210.519 519.154 212.623 522.444 214.308 525.945C216.015 529.424 217.435 533.071 218.202 536.882Z" fill="#5084DA"/>
</g>
<g opacity="0.399994">
<path opacity="0.399994" d="M265.049 575.698C262.983 571.536 260.843 567.472 258.744 563.407C256.593 559.368 254.422 555.361 252.095 551.453C249.792 547.531 247.285 543.753 244.691 540.016C242.002 536.353 239.174 532.795 236.055 529.331C239.968 531.835 243.543 534.946 246.642 538.461C249.72 541.989 252.431 545.825 254.843 549.824C259.509 557.897 263.219 566.559 265.049 575.698Z" fill="#5084DA"/>
</g>
</g>
<g opacity="0.5">
<g opacity="0.5">
<path opacity="0.5" d="M77.1022 625.3C83.9152 615.992 93.2716 608.761 103.206 602.89C113.201 597 124.167 592.907 135.372 590.002L143.871 588.2C146.699 587.572 149.595 587.37 152.457 586.96C158.185 586.089 163.976 586 169.741 585.828C172.625 585.644 175.506 585.937 178.385 586.038L187.01 586.458C192.723 587.183 198.422 587.971 204.08 588.868C198.329 588.69 192.628 588.216 186.922 588.024L178.358 588.056C175.506 588.103 172.655 587.955 169.818 588.288C164.147 588.817 158.45 588.915 152.853 589.962C150.054 590.432 147.207 590.619 144.446 591.271L136.139 593.101C125.155 595.873 114.454 599.774 104.397 605.028C101.89 606.356 99.37 607.669 97.0048 609.245C95.8096 610.009 94.5802 610.73 93.4084 611.533L89.9452 614.019C85.3318 617.347 80.9668 621.057 77.1022 625.3Z" fill="#4CA1FF"/>
</g>
</g>
<g opacity="0.5">
<g opacity="0.5">
<path opacity="0.5" d="M169.545 587.261C166.431 592.227 163.397 596.921 160.86 601.887C159.561 604.35 158.508 606.902 157.505 609.498C156.551 612.124 155.891 614.817 155.217 617.704C153.839 611.91 155.349 605.675 158.016 600.431C159.413 597.81 161.04 595.326 162.974 593.103C164.894 590.88 167.038 588.832 169.545 587.261Z" fill="#4CA1FF"/>
</g>
</g>
<g opacity="0.5">
<path opacity="0.5" d="M494.089 645.401H405.569V623.336H494.089V645.401Z" fill="#605ACA"/>
</g>
<g opacity="0.5">
<g opacity="0.5">
<path opacity="0.5" d="M549.946 693.538C549.946 699.201 545.343 703.803 539.666 703.803H359.994C354.315 703.803 349.714 699.201 349.714 693.538C349.714 692.676 349.813 691.839 350.04 691.045C351.13 695.521 355.179 698.832 359.994 698.832H539.666C544.481 698.832 548.529 695.521 549.62 691.045C549.845 691.839 549.946 692.676 549.946 693.538Z" fill="#605ACA"/>
</g>
</g>
<path d="M172.861 631.826C169.387 631.826 166.561 629 166.561 625.526V259.714C166.561 256.242 169.387 253.414 172.861 253.414H726.8C730.272 253.414 733.1 256.242 733.1 259.714V625.526C733.1 629 730.272 631.826 726.8 631.826H172.861Z" fill="white"/>
<path d="M494.089 684.214H405.569V623.336H494.089V684.214Z" fill="#418349"/>
<path d="M539.668 683.256H359.992C354.316 683.256 349.717 687.857 349.717 693.531C349.717 699.204 354.316 703.805 359.992 703.805H539.668C545.341 703.805 549.942 699.204 549.942 693.531C549.942 687.857 545.341 683.256 539.668 683.256Z" fill="#418349"/>
<path d="M726.799 248.915H172.86C166.897 248.915 162.06 253.752 162.06 259.715V625.527C162.06 631.491 166.897 636.327 172.86 636.327H726.799C732.763 636.327 737.599 631.491 737.599 625.527V259.715C737.599 253.752 732.763 248.915 726.799 248.915ZM726.799 257.915C727.791 257.915 728.599 258.723 728.599 259.715V625.527C728.599 626.519 727.791 627.327 726.799 627.327H172.86C171.868 627.327 171.06 626.519 171.06 625.527V259.715C171.06 258.723 171.868 257.915 172.86 257.915H726.799Z" fill="#418349"/>
<path d="M737.598 624.783V589.021H162.062V624.783C162.062 631.524 167.525 636.967 174.246 636.967H725.412C732.135 636.967 737.598 631.524 737.598 624.783Z" fill="#418349"/>
<path d="M494.193 331.488C494.193 355.99 474.33 375.851 449.83 375.851C425.329 375.851 405.468 355.99 405.468 331.488C405.468 306.989 425.329 287.126 449.83 287.126C474.33 287.126 494.193 306.989 494.193 331.488Z" fill="#C8EEFB"/>
<path d="M475.701 393.149V363.193C475.701 351.808 466.471 342.58 455.087 342.58H444.574C433.189 342.58 423.958 351.808 423.958 363.193V393.149C423.958 396.302 426.516 398.862 429.671 398.862H469.988C473.143 398.862 475.701 396.302 475.701 393.149ZM466.973 321.363C466.973 330.831 459.298 338.508 449.83 338.508C440.362 338.508 432.686 330.831 432.686 321.363C432.686 311.895 440.362 304.22 449.83 304.22C459.298 304.22 466.973 311.895 466.973 321.363Z" fill="#5084DA"/>
<path d="M555.973 426.316H343.685C333.992 426.316 326.133 418.457 326.133 408.763C326.133 399.068 333.992 391.209 343.685 391.209H555.973C565.668 391.209 573.527 399.068 573.527 408.763C573.527 418.457 565.668 426.316 555.973 426.316Z" fill="#C8EEFB"/>
<path d="M548.605 413.346H351.055C348.524 413.346 346.472 411.294 346.472 408.763C346.472 406.231 348.524 404.179 351.055 404.179H548.605C551.135 404.179 553.189 406.231 553.189 408.763C553.189 411.294 551.135 413.346 548.605 413.346Z" fill="#5084DA"/>
<path d="M556.144 489.456H343.855C334.162 489.456 326.303 481.599 326.303 471.902C326.303 462.207 334.162 454.349 343.855 454.349H556.144C565.838 454.349 573.697 462.207 573.697 471.902C573.697 481.599 565.838 489.456 556.144 489.456Z" fill="#C8EEFB"/>
<path d="M435.658 472.212C435.658 469.681 433.606 467.627 431.073 467.627C428.543 467.627 426.491 469.681 426.491 472.212C426.491 474.742 428.543 476.796 431.073 476.796C433.606 476.796 435.658 474.742 435.658 472.212ZM422.027 472.212C422.027 469.681 419.975 467.627 417.442 467.627C414.911 467.627 412.859 469.681 412.859 472.212C412.859 474.742 414.911 476.796 417.442 476.796C419.975 476.796 422.027 474.742 422.027 472.212ZM408.395 472.212C408.395 469.681 406.343 467.627 403.812 467.627C401.28 467.627 399.228 469.681 399.228 472.212C399.228 474.742 401.28 476.796 403.812 476.796C406.343 476.796 408.395 474.742 408.395 472.212ZM394.766 472.212C394.766 469.681 392.714 467.627 390.181 467.627C387.65 467.627 385.596 469.681 385.596 472.212C385.596 474.742 387.65 476.796 390.181 476.796C392.714 476.796 394.766 474.742 394.766 472.212ZM381.134 472.212C381.134 469.681 379.082 467.627 376.551 467.627C374.019 467.627 371.967 469.681 371.967 472.212C371.967 474.742 374.019 476.796 376.551 476.796C379.082 476.796 381.134 474.742 381.134 472.212V472.212ZM367.503 472.212C367.503 469.681 365.451 467.627 362.92 467.627C360.387 467.627 358.335 469.681 358.335 472.212C358.335 474.742 360.387 476.796 362.92 476.796C365.451 476.796 367.503 474.742 367.503 472.212ZM349.289 476.796C346.756 476.796 344.704 474.742 344.704 472.212C344.704 469.681 346.756 467.627 349.289 467.627C351.819 467.627 353.871 469.681 353.871 472.212C353.871 474.742 351.819 476.796 349.289 476.796Z" fill="#5084DA"/>
<path d="M479.978 555.601H419.681C409.987 555.601 402.128 547.742 402.128 538.047C402.128 528.35 409.987 520.493 419.681 520.493H479.978C489.673 520.493 497.531 528.35 497.531 538.047C497.531 547.742 489.673 555.601 479.978 555.601Z" fill="#5084DA"/>
<g opacity="0.0899963">
<g opacity="0.0899963">
<path opacity="0.0899963" d="M576.631 585.383C576.631 567.081 591.521 552.191 609.823 552.191C628.125 552.191 643.017 567.081 643.017 585.383V603.979H576.631V585.383ZM672.393 635.996V615.931C672.393 609.33 667.041 603.979 660.441 603.979H659.397V585.383C659.397 558.045 637.16 535.808 609.823 535.808C582.488 535.808 560.249 558.045 560.249 585.383V603.979H559.207C552.605 603.979 547.255 609.33 547.255 615.931V635.996H672.393Z" fill="black"/>
</g>
</g>
<g opacity="0.0899963">
<g opacity="0.0899963">
<path opacity="0.0899963" d="M695.82 447.951C690.996 443.916 685.002 441.471 677.872 440.843C677.852 440.184 677.854 439.534 677.883 438.69C681.551 438.102 684.688 434.894 686.514 430.565C691.462 425.799 694.824 419.898 693.201 412.459C693.105 412.029 693.199 411.665 693.381 411.366C691.251 407.559 687.325 405.727 682.971 401.783C668.337 388.522 650.944 406.947 657.532 414.534C658.048 415.13 658.767 416.701 659.375 418.714C659.362 418.761 659.344 418.793 659.334 418.842C659.022 420.265 659.292 422.661 660.41 423.846C660.487 424.593 660.54 425.343 660.54 426.088C660.565 426.162 660.61 426.214 660.626 426.299C660.84 427.467 661.283 428.49 661.857 429.42C662.739 432.959 664.856 436.681 669.313 438.175C669.662 438.292 670.017 438.404 670.393 438.492C670.641 439.489 670.674 440.062 670.549 440.884C666.233 441.365 662.325 442.715 658.84 444.803C630.863 458.326 603.208 501.901 606.253 511.507C609.303 521.116 617.039 532.362 622.232 539.875L623.047 539.731C623.469 541.179 623.886 542.628 624.306 544.077C624.514 544.798 624.75 545.563 625.317 546.057C626.075 546.719 627.187 546.708 628.194 546.661C629.432 546.604 630.78 546.501 631.695 545.664C632.224 545.178 632.539 544.498 632.713 543.801C633.192 541.92 632.71 539.91 631.786 538.192L632.395 538.086C632.395 538.086 620.335 520.039 620.776 509.036C620.934 505.017 630.35 495.545 638.005 488.484C637.829 490.933 637.732 493.428 637.732 495.959L634.063 583.662C634.063 583.662 637.231 584.289 642.307 585.1L647.232 637.475H667.057L667.527 588.137C667.786 588.157 668.046 588.175 668.305 588.195C668.533 588.209 668.764 588.225 668.994 588.241C669.97 588.312 670.947 588.375 671.932 588.432C672.263 588.452 672.596 588.47 672.927 588.49C673.284 588.508 673.64 588.531 673.996 588.549L675.942 637.475H695.487L699.492 587.646C699.517 587.642 699.538 587.637 699.564 587.633C700.372 587.502 701.167 587.363 701.938 587.205C702.282 587.136 702.613 587.059 702.949 586.985C703.597 586.841 704.233 586.688 704.854 586.522C705.189 586.432 705.523 586.341 705.849 586.247C706.472 586.065 707.071 585.869 707.66 585.664C707.932 585.57 708.214 585.48 708.477 585.379C709.307 585.066 710.108 584.737 710.857 584.371L710.455 489.506C710.455 487.459 710.392 485.47 710.277 483.532C710.268 483.386 710.257 483.244 710.248 483.098C710.131 481.289 709.964 479.529 709.75 477.819C709.728 477.649 709.707 477.48 709.683 477.309C709.662 477.156 709.645 477 709.624 476.845C713.49 477.612 718.521 478.537 725.104 479.647C729.381 480.369 733.542 480.006 737.52 478.879V459.682C721.149 461.552 702.818 452.176 695.82 447.951Z" fill="black"/>
</g>
</g>
<g opacity="0.300003">
<g opacity="0.300003">
<path opacity="0.300003" d="M459.29 470.445C459.29 487.284 445.639 500.935 428.8 500.935C411.959 500.935 398.31 487.284 398.31 470.445C398.31 453.606 411.959 439.955 428.8 439.955C445.639 439.955 459.29 453.606 459.29 470.445Z" fill="#94EBFF"/>
</g>
</g>
<g opacity="0.5">
<g opacity="0.5">
<path opacity="0.5" d="M445.346 470.445C445.346 479.584 437.937 486.991 428.799 486.991C419.66 486.991 412.251 479.584 412.251 470.445C412.251 461.307 419.66 453.9 428.799 453.9C437.937 453.9 445.346 461.307 445.346 470.445Z" fill="#94EBFF"/>
</g>
</g>
<path d="M564.265 616.672V585.383C564.265 567.081 579.155 552.191 597.459 552.191C615.759 552.191 630.651 567.081 630.651 585.383V616.672H564.265ZM597.459 535.807C570.122 535.807 547.883 558.046 547.883 585.383V633.056H647.033V585.383C647.033 558.046 624.794 535.807 597.459 535.807Z" fill="#F9714E"/>
<g opacity="0.399994">
<g opacity="0.399994">
<path opacity="0.399994" d="M630.65 616.672H564.264V585.383C564.264 567.081 579.156 552.191 597.46 552.191C615.761 552.191 630.65 567.081 630.65 585.383V616.672ZM597.458 545.607C575.631 545.607 557.873 563.364 557.873 585.192V623.257H637.044V585.192C637.044 563.364 619.285 545.607 597.458 545.607" fill="#F9714E"/>
</g>
</g>
<path d="M647.847 703.805H547.069C540.34 703.805 534.888 698.353 534.888 691.625V616.158C534.888 609.432 540.34 603.979 547.069 603.979H647.847C654.574 603.979 660.028 609.432 660.028 616.158V691.625C660.028 698.353 654.574 703.805 647.847 703.805Z" fill="#FFB255"/>
<path d="M615.651 646.977C615.651 636.929 607.506 628.784 597.458 628.784C587.411 628.784 579.266 636.929 579.266 646.977C579.266 654 583.255 660.084 589.083 663.117V682.786H605.832V663.117C611.662 660.084 615.651 654 615.651 646.977Z" fill="#F9714E"/>
<g opacity="0.399994">
<g opacity="0.399994">
<path opacity="0.399994" d="M648.074 603.979H618.012C611.451 624.375 601.238 643.673 588.231 660.573C576.14 676.283 557.104 696.22 535.57 695.803C537.203 700.461 541.625 703.805 546.842 703.805H648.074C654.676 703.805 660.028 698.454 660.028 691.852V615.933C660.028 609.331 654.676 603.979 648.074 603.979Z" fill="#FFB255"/>
</g>
</g>
<path d="M609.553 535.83C610.349 538.579 611.144 541.328 611.94 544.076C612.149 544.798 612.383 545.563 612.951 546.058C613.709 546.719 614.823 546.708 615.826 546.663C617.066 546.603 618.414 546.503 619.329 545.664C619.86 545.178 620.173 544.497 620.349 543.803C620.861 541.778 620.274 539.601 619.206 537.807C618.141 536.01 616.629 534.529 615.135 533.071" fill="#FFC2D3"/>
<path d="M757.728 440.921C758.693 437.085 760.007 433.338 761.645 429.738C762.496 430.819 762.401 432.346 762.262 433.717C763.092 431.707 764.687 430.024 766.647 429.084C766.883 428.973 767.155 428.87 767.394 428.969C767.664 429.081 767.774 429.396 767.846 429.678C768.591 432.621 768.233 435.829 766.856 438.534C765.481 441.241 763.097 443.421 760.282 444.553" fill="#FFC2D3"/>
<path d="M676.772 697.154C683.776 698.86 689.636 700.923 692.853 703.805H665.859L666.375 697.541L676.772 697.154Z" fill="#5084DA"/>
<path d="M643.758 697.154C636.756 698.86 630.894 700.923 627.677 703.805H654.672L654.155 697.541L643.758 697.154Z" fill="#5084DA"/>
<path d="M690.966 539.854L678.238 698.256C678.238 698.256 673.792 699.343 672.253 699.343C671.496 699.343 670.063 699.089 668.756 698.857C667.282 698.556 665.995 698.256 665.995 698.256L661.23 578.518H655.254L654.109 698.256C654.109 698.256 650.929 699.204 647.62 699.204C644.397 699.204 640.582 698.256 640.582 698.256L625.304 535.808L690.966 539.854Z" fill="#2E2C84"/>
<g opacity="0.300003">
<g opacity="0.300003">
<g opacity="0.300003">
<g opacity="0.5">
<g opacity="0.5">
<path opacity="0.5" d="M666.566 538.351L644.147 536.969C643.875 566.143 648.262 670.397 648.71 699.169C651.594 699.001 654.11 698.256 654.11 698.256L655.255 578.518H661.231L665.996 698.256C665.996 698.256 667.281 698.557 668.757 698.857C669.192 698.935 669.635 699.012 670.069 699.084C670.069 666.473 667.128 551.761 666.566 538.351Z" fill="#2E2C84"/>
</g>
</g>
</g>
</g>
</g>
<path d="M648.174 426.088C648.201 426.163 648.244 426.214 648.261 426.3C649.224 431.538 654.195 434.222 659.719 435.746C664.21 436.987 665.252 437.528 668.86 434.926C676.339 429.526 682.995 422.349 680.835 412.46C680.741 412.03 680.833 411.664 681.013 411.367C678.886 407.558 674.962 405.728 670.607 401.784C655.972 388.523 638.578 406.946 645.165 414.535C646.234 415.765 648.181 421.123 648.174 426.088Z" fill="#001F64"/>
<path d="M698.089 489.507C698.089 459.395 685.626 440.671 661.758 440.671C637.89 440.671 625.367 465.849 625.367 495.96L621.699 583.663C621.699 583.663 677.34 594.697 698.49 584.37L698.089 489.507Z" fill="#8FC2FF"/>
<g opacity="0.300003">
<g opacity="0.300003">
<path opacity="0.300003" d="M698.089 489.507C698.089 481.083 697.111 473.553 695.185 467.073C693.069 499.841 690.194 587.083 641.423 586.734C659.551 588.998 685.509 590.708 698.49 584.37L698.089 489.507Z" fill="#8FC2FF"/>
</g>
</g>
<path d="M674.014 422.554C673.121 416.628 667.842 410.686 661.394 413.766C657.256 415.742 652.975 415.969 649.6 414.164C649.501 415.305 649.361 416.968 649.233 418.714C648.52 417.406 647.327 417.204 646.969 418.84C646.585 420.593 647.059 423.851 648.943 424.463C648.94 424.768 648.936 425.074 648.942 425.333C649.032 429.761 650.841 436.81 658.028 438.493C658.415 440.057 658.28 440.568 657.834 442.651C658.23 444.042 663.819 444.937 665.664 443.297C665.505 441.378 665.455 440.453 665.516 438.691C669.768 438.008 673.315 433.818 674.921 428.432C681.333 424.838 676.746 418.279 674.014 422.554Z" fill="#FFC2D3"/>
<g opacity="0.300003">
<g opacity="0.300003">
<path opacity="0.300003" d="M674.014 422.554C673.663 420.215 672.621 417.884 671.1 416.097C671.276 426.393 666.893 435.964 656.95 438.176C657.297 438.293 657.65 438.404 658.028 438.493C658.415 440.057 658.28 440.568 657.834 442.651C658.23 444.042 663.819 444.937 665.664 443.297C665.505 441.378 665.455 440.453 665.516 438.691C669.768 438.008 673.315 433.818 674.921 428.432C681.333 424.838 676.746 418.279 674.014 422.554Z" fill="#FFC2D3"/>
</g>
</g>
<path d="M646.474 444.803C618.499 458.326 590.843 501.901 593.889 511.507C596.936 521.116 604.675 532.362 609.866 539.875L620.029 538.086C620.029 538.086 607.969 520.039 608.41 509.036C608.68 502.248 635.352 479.899 635.352 479.899L646.474 444.803Z" fill="#8FC2FF"/>
<path d="M680.943 446.338C685.324 449.486 721.875 471.388 741.976 452.045C756.493 438.077 757.954 435.379 757.954 435.379L762.935 444.196C762.935 444.196 740.219 484.285 712.737 479.647C685.256 475.01 684.561 473.584 684.561 473.584L680.943 446.338Z" fill="#8FC2FF"/>
<g opacity="0.0899963">
<g opacity="0.0899963">
<path opacity="0.0899963" d="M229.108 617.889C218.645 620.913 209.792 627.747 204.124 636.773H278.379C272.711 627.747 263.859 620.913 253.395 617.889V435.97H229.108V438.938H203.172V460.835H229.108V466.05H203.172V487.947H229.108V617.889Z" fill="black"/>
</g>
</g>
<path d="M219.071 460.836H250.18V438.937H219.071V460.836Z" fill="#FFB255"/>
<path d="M219.071 487.946H250.18V466.049H219.071V487.946Z" fill="#FFB255"/>
<g opacity="0.5">
<path opacity="0.5" d="M242.249 460.836H250.18V438.937H242.249V460.836Z" fill="#FFC87C"/>
</g>
<g opacity="0.5">
<path opacity="0.5" d="M242.249 487.946H250.18V466.049H242.249V487.946Z" fill="#FFC87C"/>
</g>
<path d="M245.007 626.299H269.294V435.969H245.007V626.299Z" fill="#FFB255"/>
<g opacity="0.5">
<g opacity="0.5">
<path opacity="0.5" d="M256.773 632.853H257.527C258.346 632.853 259.008 632.191 259.008 631.373V444.002C259.008 443.185 258.346 442.523 257.527 442.523H256.773C255.955 442.523 255.293 443.185 255.293 444.002V631.373C255.293 632.191 255.955 632.853 256.773 632.853Z" fill="#FFC87C"/>
</g>
</g>
<path d="M235.926 659.985C235.926 671.688 245.448 681.21 257.149 681.21C268.853 681.21 278.375 671.688 278.375 659.985C278.375 648.281 268.853 638.759 257.149 638.759C245.448 638.759 235.926 648.281 235.926 659.985ZM213.328 659.985C213.328 635.822 232.986 616.162 257.149 616.162C281.313 616.162 300.972 635.822 300.972 659.985C300.972 684.148 281.313 703.806 257.149 703.806C232.986 703.806 213.328 684.148 213.328 659.985" fill="#FFB255"/>
<g opacity="0.5">
<g opacity="0.5">
<path opacity="0.5" d="M235.926 659.985C235.926 648.281 245.448 638.759 257.149 638.759C268.853 638.759 278.375 648.281 278.375 659.985C278.375 671.688 268.853 681.21 257.149 681.21C245.448 681.21 235.926 671.688 235.926 659.985ZM233.861 659.985C233.861 672.826 244.308 683.273 257.151 683.273C269.991 683.273 280.44 672.826 280.44 659.985C280.44 647.144 269.991 636.696 257.151 636.696C244.308 636.696 233.861 647.144 233.861 659.985Z" fill="#FFC87C"/>
</g>
</g>
<g opacity="0.0899963">
<g opacity="0.0899963">
<path opacity="0.0899963" d="M416.512 476.796C408.824 483.607 381.119 512.623 376.039 496.832C372.018 484.331 363.585 467.128 358.646 461.358C355.395 457.633 351.228 455.189 346.658 454.006V452.008C351.464 451.985 358.979 451.045 358.979 433.731C358.979 428.497 358.48 425.048 357.58 422.789C359.016 421.345 358.919 418.501 357.906 416.831C356.563 414.617 353.03 412.693 350.682 411.652C345.124 409.19 337.868 408.043 332.537 411.496C330.668 408.934 327.662 406.639 325.833 405.637C323.564 404.391 321.103 403.329 318.515 403.279C313.394 403.178 308.942 407.107 306.575 411.651C304.656 415.333 303.753 419.628 304.545 423.705C305.337 427.782 307.949 431.575 311.709 433.335C312.814 433.855 314.042 434.199 315.251 434.034C316.857 433.814 318.209 432.734 319.33 431.568C322.066 428.722 322.532 425.327 324.541 422.249C324.847 421.781 325.238 421.464 325.659 421.203C325.059 423.205 324.732 425.296 324.716 427.37C324.671 433.342 326.768 439.149 329.531 444.445C330.263 445.851 331.089 447.28 332.393 448.182C333.644 449.049 336.878 449.899 338.199 449.049L337.645 453.292C333.863 453.623 330.033 454.719 326.381 456.582C326.379 456.579 326.377 456.57 326.377 456.57C305.553 461.358 289.844 512.488 261.989 509.099V509.167C258.602 508.224 254.885 507.956 254.688 511.27C254.305 517.766 258.342 518.596 261.989 518.061V518.196C273.648 518.196 289.11 514.832 302.689 499.824C295.197 542.057 298.189 597.36 298.189 597.36C300.198 597.652 302.196 597.913 304.19 598.159L307.603 636.854H325.34L325.382 599.934C328.962 600.08 332.519 600.154 336.043 600.13L336.457 636.854H357.027L361.002 598.341C364.647 597.828 368.258 597.214 371.823 596.465C371.091 573.238 370.995 542.878 369.451 516.578C370.542 517.602 371.782 518.396 373.263 518.763C375.679 519.361 386.094 531.37 393.585 522.241C401.183 512.982 417.059 493.866 422.879 484.016C421.617 480.767 418.263 479.804 416.512 476.796Z" fill="black"/>
</g>
</g>
<path d="M349.001 447.486L347.831 456.449L357.256 457.484V448.03L349.001 447.486Z" fill="#F9ACC8"/>
<g opacity="0.100006">
<g opacity="0.100006">
<path opacity="0.100006" d="M276.361 513.037C276.361 513.037 263.883 506.89 263.521 513.037C262.834 524.683 276.361 518.12 276.361 518.12V513.037Z" fill="black"/>
</g>
</g>
<path d="M278.127 511.272C278.127 511.272 265.65 505.123 265.288 511.272C264.6 522.916 278.127 516.353 278.127 516.353V511.272Z" fill="#FFC2D3"/>
<path d="M340.489 433.731C340.489 441.878 348.9 452.01 357.047 452.01C361.841 452.01 369.577 451.294 369.577 433.731C369.577 415.271 363.387 418.98 355.24 418.98C347.093 418.98 340.489 425.585 340.489 433.731Z" fill="#FFC2D3"/>
<g opacity="0.300003">
<g opacity="0.300003">
<path opacity="0.300003" d="M352.888 440.58C352.913 433.727 353.793 425.591 356.32 418.958C355.964 418.973 355.604 418.98 355.24 418.98C347.094 418.98 340.49 425.584 340.49 433.731C340.49 441.723 348.584 451.601 356.581 451.976C353.977 448.98 352.872 445.227 352.888 440.58Z" fill="#FFC2D3"/>
</g>
</g>
<path d="M366.464 423.86C365.159 424.055 363.764 423.432 362.54 423.925C360.58 424.717 360.449 427.705 358.64 428.805C356.384 430.175 352.984 427.801 351.011 429.563C349.85 430.603 349.985 432.43 350.106 433.993C350.425 438.111 349.966 442.289 348.76 446.236C348.479 447.154 349.69 448.798 348.968 449.422C347.764 450.464 344.294 449.552 342.991 448.641C341.687 447.728 340.863 446.285 340.13 444.865C337.366 439.515 335.269 433.651 335.315 427.615C335.362 421.582 337.826 415.348 342.699 411.86C348.065 408.015 355.573 409.183 361.28 411.737C363.629 412.789 367.161 414.733 368.506 416.968C369.823 419.166 369.616 423.391 366.464 423.86Z" fill="#FFB255"/>
<g opacity="0.5">
<g opacity="0.5">
<path opacity="0.5" d="M364.908 413.681C362.985 415.402 361.049 418.503 359.6 419.515C357.596 420.915 355.199 421.198 352.92 421.896C342.43 425.118 341.704 441.207 346.285 449.796C347.37 449.957 348.413 449.903 348.969 449.422C349.691 448.797 348.479 447.154 348.76 446.236C349.966 442.289 350.425 438.111 350.106 433.992C349.984 432.43 349.849 430.601 351.012 429.564C352.983 427.802 356.385 430.176 358.64 428.805C360.447 427.705 360.581 424.717 362.541 423.925C363.765 423.432 365.16 424.056 366.465 423.86C369.617 423.39 369.824 419.166 368.506 416.97C367.773 415.751 366.391 414.628 364.908 413.681Z" fill="#FFC87C"/>
</g>
</g>
<path d="M336.432 405.661C334.162 404.403 331.702 403.33 329.115 403.278C323.992 403.177 319.541 407.146 317.174 411.736C315.255 415.455 314.351 419.795 315.143 423.913C315.935 428.031 318.545 431.864 322.307 433.644C323.413 434.166 324.64 434.515 325.85 434.348C327.455 434.124 328.807 433.035 329.93 431.856C332.665 428.982 333.131 425.553 335.14 422.442C336.765 419.928 340.331 420.961 342.71 419.319C348.749 415.156 340.149 407.722 336.432 405.661Z" fill="#FFB255"/>
<g opacity="0.5">
<g opacity="0.5">
<path opacity="0.5" d="M339.159 416.759C338.063 416.194 337.205 415.168 336.116 414.621C334.562 412.929 326.595 412.043 324.932 423.136C324.435 426.452 321.879 429.884 319.269 431.521C320.171 432.376 321.181 433.11 322.308 433.643C323.413 434.167 324.641 434.514 325.85 434.347C327.456 434.125 328.808 433.034 329.931 431.855C332.665 428.983 333.131 425.552 335.14 422.443C336.765 419.929 340.329 420.96 342.711 419.32C343.568 418.73 344.102 418.069 344.424 417.371C342.857 417.911 341.174 417.799 339.159 416.759Z" fill="#FFC87C"/>
</g>
</g>
<path d="M333.904 697.154C340.906 698.86 346.768 700.923 349.985 703.805H322.99L323.507 697.541L333.904 697.154Z" fill="#F9714E"/>
<path d="M358.103 697.154C365.105 698.86 370.968 700.923 374.185 703.805H347.19L347.707 697.541L358.103 697.154Z" fill="#F9714E"/>
<g opacity="0.100006">
<g opacity="0.100006">
<path opacity="0.100006" d="M428.094 470.758C427.945 470.681 427.689 470.549 427.529 470.504C426.523 470.234 425.576 470.933 424.743 471.552C423.268 472.65 420.486 474.905 419.267 476.277H419.276C418.878 476.631 418.518 477.02 418.228 477.441C417.289 478.806 417.019 480.719 417.903 482.12C418.588 483.21 419.841 484.024 421.13 484.015C423.007 484.004 425.542 483.009 426.798 481.54C428.055 480.073 427.952 478.435 427.043 476.729C426.429 475.584 425.544 474.943 424.557 474.686C425.698 473.991 426.791 473.211 427.781 472.313C428.013 472.103 428.247 471.876 428.35 471.581C428.451 471.284 428.371 470.902 428.094 470.758Z" fill="black"/>
</g>
</g>
<path d="M427.449 474.662C428.36 476.367 428.462 478.005 427.206 479.474C425.95 480.939 423.415 481.936 421.536 481.949C420.249 481.956 418.996 481.144 418.309 480.053C417.427 478.653 417.695 476.736 418.636 475.375C420.598 472.526 425.456 470.934 427.449 474.662Z" fill="#FFC2D3"/>
<path d="M424.274 473.054C425.68 472.273 426.998 471.328 428.189 470.246C428.42 470.035 428.656 469.808 428.756 469.513C428.857 469.216 428.778 468.834 428.503 468.69C428.353 468.611 428.098 468.482 427.936 468.438C426.931 468.167 425.984 468.865 425.149 469.486C423.675 470.582 420.894 472.838 419.674 474.211C420.649 474.501 423.385 473.547 424.274 473.054Z" fill="#FFC2D3"/>
<path d="M389.898 497.846C399.911 491.186 407.838 484.045 416.907 475.994C417.481 475.485 418.367 475.542 418.862 476.131C420.525 478.107 423.239 481.052 422.953 482.292C422.793 482.983 422.301 483.54 421.828 484.065C413.364 493.447 404.899 502.828 396.434 512.208C394.767 514.057 393.071 515.929 390.971 517.264C388.872 518.602 386.278 519.361 383.861 518.764C379.787 517.758 377.507 513.562 375.289 510C364.35 492.432 366.152 486.083 367.488 480.672C368.418 476.907 369.592 473.195 370.272 469.372C370.487 468.162 367.596 461.441 369.245 461.358C374.184 467.129 381.591 484.708 386.638 496.833C387.171 498.111 388.742 498.615 389.898 497.846Z" fill="#F9714E"/>
<path d="M310.896 554.008L323.624 698.352C323.624 698.352 328.07 699.344 329.609 699.344C330.367 699.344 331.8 699.111 333.107 698.901C334.581 698.627 335.866 698.352 335.866 698.352L335.994 589.241H346.518L347.751 698.352C347.751 698.352 350.934 699.218 354.242 699.218C357.466 699.218 361.28 698.352 361.28 698.352L376.557 550.32L310.896 554.008Z" fill="#4B48B5"/>
<path d="M343.637 564.826C343.712 569.714 343.374 574.128 345.077 578.569C346.407 582.039 349.433 584.3 353.758 584.213C360.06 584.084 364.432 580.648 364.455 574.285C364.459 573.466 364.862 564.838 365.274 564.82C365.271 564.82 343.637 564.826 343.637 564.826Z" fill="#568EDB"/>
<path d="M313.751 564.833C313.827 569.721 313.611 574.133 314.817 578.581C315.76 582.057 317.879 584.334 320.89 584.265C325.278 584.166 327.726 579.287 328.297 574.387C328.391 573.577 328.535 564.942 328.823 564.928C328.821 564.928 313.751 564.833 313.751 564.833Z" fill="#568EDB"/>
<path d="M335.987 589.226C336.001 589.226 336.015 589.224 336.032 589.222C336.174 589.197 336.271 589.062 336.248 588.918C334.559 579.11 335.718 560.338 335.729 560.15C335.733 560.075 335.708 560.001 335.654 559.947C335.6 559.897 335.533 559.868 335.454 559.868C335.283 559.877 318.469 560.66 311.413 558.876C311.278 558.829 311.13 558.926 311.093 559.067C311.058 559.205 311.143 559.349 311.285 559.385C317.891 561.058 332.898 560.505 335.187 560.408C335.047 562.845 334.145 579.814 335.727 589.008C335.751 589.136 335.862 589.226 335.987 589.226Z" fill="#5E9CE4"/>
<path d="M338.094 589.226H338.118C338.263 589.211 338.37 589.084 338.357 588.941C337.354 577.474 337.237 568.427 337.986 560.503C348.028 560.408 360.209 559.092 374.204 556.586C374.344 556.563 374.44 556.424 374.415 556.28C374.391 556.138 374.269 556.046 374.109 556.068C360.034 558.588 347.802 559.902 337.747 559.978C337.61 559.978 337.498 560.082 337.488 560.217C336.708 568.231 336.818 577.373 337.831 588.985C337.842 589.123 337.957 589.226 338.094 589.226Z" fill="#5E9CE4"/>
<g opacity="0.160004">
<g opacity="0.160004">
<path opacity="0.160004" d="M333.106 698.901C334.581 698.627 335.866 698.352 335.866 698.352L335.994 589.241H336.877C336.669 588.905 336.372 588.799 335.994 588.968C333.929 589.893 332.959 591.328 331.674 593.014C330.662 594.384 330.072 596.047 330.03 597.755C329.188 631.385 331.146 656.988 333.106 698.901Z" fill="#4E84D9"/>
</g>
</g>
<path d="M373.7 563.187C373.556 563.171 373.45 563.043 373.466 562.899L373.895 558.707C373.906 558.563 374.039 558.424 374.183 558.471C374.327 558.487 374.433 558.615 374.417 558.759L373.988 562.951C373.976 563.086 373.861 563.189 373.727 563.189C373.72 563.189 373.709 563.189 373.7 563.187ZM372.842 571.572C372.698 571.557 372.592 571.428 372.608 571.284L373.038 567.091C373.051 566.947 373.186 566.82 373.326 566.857C373.47 566.872 373.578 567.001 373.56 567.145L373.132 571.336C373.119 571.474 373.004 571.573 372.869 571.573C372.862 571.573 372.851 571.573 372.842 571.572V571.572ZM371.987 579.956C371.843 579.943 371.735 579.814 371.751 579.67L372.179 575.478C372.196 575.334 372.334 575.197 372.467 575.244C372.613 575.258 372.719 575.388 372.703 575.53L372.275 579.724C372.262 579.859 372.147 579.96 372.014 579.96C372.005 579.96 371.996 579.96 371.987 579.956V579.956ZM371.13 588.344C370.986 588.33 370.88 588.2 370.896 588.054L371.324 583.86C371.339 583.716 371.483 583.592 371.612 583.626C371.756 583.641 371.863 583.772 371.846 583.916L371.418 588.11C371.407 588.245 371.292 588.346 371.157 588.346C371.15 588.346 371.139 588.346 371.13 588.344V588.344ZM370.273 596.73C370.129 596.714 370.021 596.586 370.037 596.442L370.468 592.248C370.48 592.102 370.612 591.969 370.756 592.012C370.9 592.027 371.008 592.156 370.991 592.3L370.561 596.494C370.549 596.629 370.433 596.732 370.298 596.732C370.291 596.732 370.28 596.732 370.273 596.73ZM369.416 605.113C369.272 605.098 369.164 604.969 369.182 604.825L369.611 600.633C369.622 600.489 369.76 600.363 369.899 600.399C370.041 600.413 370.149 600.543 370.133 600.687L369.704 604.877C369.692 605.014 369.577 605.115 369.443 605.115C369.434 605.115 369.425 605.115 369.416 605.113ZM368.561 613.497C368.416 613.483 368.309 613.353 368.326 613.211L368.754 609.019C368.768 608.875 368.907 608.742 369.042 608.783C369.186 608.799 369.292 608.927 369.276 609.071L368.849 613.263C368.835 613.4 368.72 613.501 368.587 613.501C368.579 613.501 368.569 613.501 368.561 613.497V613.497ZM367.701 621.883C367.559 621.871 367.451 621.739 367.467 621.595L367.897 617.401C367.91 617.266 368.025 617.164 368.158 617.164C368.167 617.164 368.178 617.164 368.187 617.167C368.331 617.182 368.437 617.311 368.421 617.455L367.991 621.649C367.978 621.786 367.863 621.885 367.73 621.885C367.721 621.885 367.71 621.885 367.701 621.883V621.883ZM366.846 630.27C366.702 630.255 366.596 630.126 366.612 629.98L367.04 625.788C367.051 625.644 367.188 625.514 367.327 625.552C367.472 625.566 367.579 625.698 367.562 625.842L367.134 630.036C367.121 630.171 367.006 630.273 366.873 630.273C366.864 630.273 366.855 630.273 366.846 630.27V630.27ZM365.989 638.654C365.845 638.64 365.739 638.51 365.755 638.366L366.184 634.174C366.198 634.028 366.337 633.891 366.472 633.94C366.616 633.952 366.724 634.084 366.706 634.228L366.277 638.418C366.266 638.553 366.151 638.656 366.016 638.656C366.009 638.656 365.998 638.656 365.989 638.654V638.654ZM365.132 647.038C364.988 647.024 364.88 646.894 364.897 646.75L365.327 642.56C365.341 642.416 365.483 642.286 365.615 642.324C365.759 642.339 365.867 642.468 365.851 642.612L365.42 646.804C365.408 646.939 365.293 647.04 365.158 647.04C365.15 647.04 365.14 647.04 365.132 647.038V647.038ZM364.276 655.425C364.132 655.408 364.025 655.281 364.042 655.137L364.47 650.944C364.481 650.8 364.614 650.665 364.758 650.71C364.902 650.725 365.008 650.854 364.992 650.998L364.564 655.189C364.551 655.326 364.438 655.426 364.303 655.426C364.294 655.426 364.285 655.426 364.276 655.425ZM363.421 663.809C363.275 663.796 363.169 663.665 363.185 663.521L363.613 659.327C363.626 659.185 363.763 659.059 363.901 659.093C364.045 659.107 364.151 659.237 364.137 659.381L363.709 663.575C363.696 663.712 363.581 663.811 363.448 663.811C363.439 663.811 363.428 663.811 363.421 663.809V663.809ZM362.562 672.197C362.418 672.183 362.31 672.051 362.328 671.907L362.755 667.713C362.769 667.569 362.909 667.436 363.043 667.479C363.187 667.494 363.295 667.625 363.277 667.767L362.85 671.961C362.837 672.098 362.722 672.199 362.589 672.199C362.58 672.199 362.569 672.199 362.562 672.197V672.197ZM361.705 680.58C361.561 680.565 361.455 680.436 361.471 680.292L361.9 676.099C361.914 675.955 362.058 675.831 362.188 675.865C362.332 675.878 362.438 676.009 362.422 676.153L361.995 680.346C361.981 680.481 361.865 680.581 361.732 680.581C361.725 680.581 361.714 680.581 361.705 680.58V680.58ZM360.85 688.966C360.706 688.95 360.598 688.822 360.614 688.678L361.043 684.486C361.055 684.342 361.187 684.208 361.331 684.252C361.475 684.266 361.583 684.396 361.565 684.538L361.138 688.73C361.126 688.865 361.01 688.968 360.875 688.968C360.868 688.968 360.857 688.968 360.85 688.966V688.966ZM360.2 695.322C360.055 695.307 359.948 695.178 359.965 695.034L360.184 692.872C360.2 692.728 360.335 692.605 360.472 692.636C360.616 692.65 360.722 692.78 360.708 692.924L360.488 695.086C360.474 695.224 360.359 695.323 360.226 695.323C360.218 695.323 360.208 695.323 360.2 695.322Z" fill="#5E9CE4"/>
<path d="M336.977 456.569C316.151 461.357 300.443 512.488 272.588 509.1V518.196C285.627 518.196 303.427 514.034 318.025 494.031C339.132 465.105 336.977 456.569 336.977 456.569Z" fill="#F9714E"/>
<g opacity="0.300003">
<g opacity="0.300003">
<path opacity="0.300003" d="M336.977 456.569C316.151 461.357 300.443 512.488 272.588 509.1V518.196C285.627 518.196 303.427 514.034 318.025 494.031C339.132 465.105 336.977 456.569 336.977 456.569Z" fill="#F9714E"/>
</g>
</g>
<path d="M369.244 461.357C382.031 476.013 380.966 550.321 382.422 596.467C359.375 601.304 334.664 601.1 308.789 597.362C308.789 597.362 304.763 523.007 317.725 480.893C326.525 452.3 355.75 445.892 369.244 461.357Z" fill="#F9714E"/>
<g opacity="0.300003">
<g opacity="0.300003">
<path opacity="0.300003" d="M326.427 559.357C321.644 543.621 319.489 527.479 319.534 511.045C319.572 497.248 319.914 482.265 323.538 468.644C321.162 472.138 319.165 476.211 317.725 480.891C304.764 523.008 308.788 597.36 308.788 597.36C321.871 599.252 334.654 600.233 347.078 600.122C337.686 588.222 330.95 574.236 326.427 559.357Z" fill="#F9714E"/>
</g>
</g>
<path d="M122.956 438.152C124.835 438.051 137.651 428.559 142.585 425.361C143.974 424.461 145.384 423.518 146.354 422.177C147.324 420.836 147.776 418.998 147.07 417.502C146.194 415.644 144.741 413.79 141.073 413.798C134.688 413.812 132.474 415.909 129.369 419.12C119.1 429.737 122.956 438.152 122.956 438.152Z" fill="#00AD9F"/>
<path d="M180.409 476.436C185.989 478.943 191.95 481.442 198.016 480.666C200.371 480.365 202.939 479.296 203.724 477.057C204.394 475.142 203.47 472.949 201.951 471.603C200.434 470.258 198.434 469.608 196.463 469.128C189.034 467.315 178.609 468.318 171.254 470.406C171.254 470.406 177.079 474.938 180.409 476.436Z" fill="#00AD9F"/>
<path d="M217.157 394.021C214.669 392.449 211.919 390.347 211.921 387.404C211.924 384.452 215.002 382.202 217.954 382.188C220.906 382.173 223.644 383.782 225.863 385.73C235.252 393.972 234.082 403.37 234.082 403.37C234.082 403.37 219.929 395.772 217.157 394.021" fill="#00AD9F"/>
<path d="M224.56 368.88C222.376 367.942 220.123 366.81 218.841 364.806C218.218 363.832 217.864 362.599 218.249 361.507C218.892 359.68 220.035 358.04 224.637 358.875C239.212 361.519 242.387 371.5 242.387 371.5C242.387 371.5 228.428 370.543 224.56 368.88Z" fill="#00AD9F"/>
<path d="M267.257 390.956C273.103 390.452 279.139 387.542 282.823 382.973C284.215 381.251 285.489 379.348 285.952 377.183C286.416 375.017 285.923 372.533 284.245 371.088C282.197 369.324 278.952 369.606 276.698 371.095C274.443 372.584 272.995 375.01 271.822 377.444C270.259 380.685 267.257 390.956 267.257 390.956Z" fill="#00AD9F"/>
<path d="M162.879 604.107C148.724 591.628 134.57 579.152 120.415 566.675C112.871 560.025 105.171 553.18 100.394 544.331C90.123 525.311 96.0432 500.595 109.914 484.013C123.785 467.432 144.1 457.643 164.51 450.517C184.92 443.393 206.164 438.392 225.618 428.969C237.82 423.06 250.087 414.256 253.435 401.12C255.448 393.216 253.756 384.45 248.944 377.865C244.135 371.279 236.299 367.002 228.16 366.516" stroke="#086356" stroke-miterlimit="10" stroke-linecap="round" stroke-linejoin="round"/>
<path d="M277.146 377.387C273.279 389.264 258.213 396.489 251.339 406.776" stroke="#086356" stroke-miterlimit="10" stroke-linecap="round" stroke-linejoin="round"/>
<path d="M223.058 391.047C226.024 394.179 229.577 396.768 232.166 400.22C237.634 407.512 238.091 419.361 230 426.713" stroke="#086356" stroke-miterlimit="10" stroke-linecap="round" stroke-linejoin="round"/>
<path d="M146.837 457.532C159.324 467.155 175.74 473.569 191.493 474.181" stroke="#086356" stroke-miterlimit="10" stroke-linecap="round" stroke-linejoin="round"/>
<path d="M118.248 475.059C112.497 458.105 118.763 437.794 133.066 427.025" stroke="#086356" stroke-miterlimit="10" stroke-linecap="round" stroke-linejoin="round"/>
<path d="M613.12 242.165C612.445 240.066 612.479 237.489 614.023 235.921C615.251 234.677 617.307 234.121 618.903 234.825C631.284 240.286 629.944 259.657 629.944 259.657C629.944 259.657 618.201 257.955 613.12 242.165" fill="#00AD9F"/>
<path d="M612.819 278.452C604.811 292.969 633.274 291.862 643.538 283.312C643.538 283.312 619.713 265.956 612.819 278.452Z" fill="#00AD9F"/>
<path d="M648.807 243.266C646.875 240.609 646.188 236.651 648.292 234.129C649.858 232.251 652.589 231.672 654.986 232.134C657.384 232.599 660.977 234.824 662.505 236.733C671.872 248.421 667.471 259.86 667.471 259.86C667.471 259.86 651.973 247.616 648.807 243.266" fill="#00AD9F"/>
<path d="M761.843 279.213C761.152 276.952 761.314 274.193 763.067 272.609C764.172 271.61 765.745 271.248 767.229 271.359C768.714 271.473 770.132 272.015 771.487 272.636C774.391 273.966 776.65 276.291 778.043 279.171C781.562 286.445 779.173 295.447 779.173 295.447C779.173 295.447 763.566 284.847 761.843 279.213Z" fill="#00AD9F"/>
<path d="M726.286 305.853C721.253 301.42 713.545 300.108 707.413 302.806C705.852 303.492 704.373 304.462 703.375 305.846C701.127 308.965 701.916 313.525 704.248 316.579C706.581 319.636 710.12 321.493 713.614 323.085C719.948 325.968 729.778 326.546 736.521 328.27C736.521 328.27 736.492 314.844 726.286 305.853" fill="#00AD9F"/>
<path d="M621.991 245.279C626.178 259.027 638.029 269.403 651.225 275.015C664.419 280.627 678.954 282.107 693.255 283.038C707.558 283.965 722.03 284.427 735.863 288.193C749.341 291.863 762.764 299.508 768.549 312.259C775.591 327.78 769.356 346.342 759.472 360.214C749.586 374.087 736.275 385.267 726.712 399.366C722.32 405.839 718.653 413.419 719.541 421.197C720.725 431.568 729.435 439.206 737.53 445.767" stroke="#086356" stroke-miterlimit="10" stroke-linecap="round" stroke-linejoin="round"/>
<path d="M654.957 240.236C664.436 250.753 672.012 267.202 673.856 281.258" stroke="#086356" stroke-miterlimit="10" stroke-linecap="round" stroke-linejoin="round"/>
<path d="M623.088 280.859C628.508 282.301 634 283.753 639.607 283.768C645.212 283.782 651.707 280.668 655.739 276.759" stroke="#086356" stroke-miterlimit="10" stroke-linecap="round" stroke-linejoin="round"/>
<path d="M771.115 280.067C776.193 284.985 779.278 291.915 779.545 298.989C779.808 306.064 775.894 314.638 771.198 319.924" stroke="#086356" stroke-miterlimit="10" stroke-linecap="round" stroke-linejoin="round"/>
<path d="M717.993 312.175C728.132 321.541 736.961 329.111 748.236 337.066C753.382 340.696 763.599 345.349 768.133 344.15" stroke="#086356" stroke-miterlimit="10" stroke-linecap="round" stroke-linejoin="round"/>
</svg>
