<svg width="960" height="766" viewBox="0 0 960 766" fill="none" xmlns="http://www.w3.org/2000/svg">
<g clip-path="url(#clip0)">
<rect width="960" height="766" fill="white"/>
<g clip-path="url(#clip1)">
<path d="M189.336 240.042V278.448C204.892 278.448 219.811 284.855 230.81 296.259C241.81 307.664 247.989 323.131 247.989 339.259C247.989 355.387 241.81 370.854 230.81 382.259C219.811 393.663 204.892 400.07 189.336 400.07V438.476H380.73V240.042H189.336Z" fill="#F2F2F2"/>
<path d="M189.336 387.267C214.91 387.267 235.641 365.773 235.641 339.259C235.641 312.745 214.91 291.251 189.336 291.251C163.763 291.251 143.031 312.745 143.031 339.259C143.031 365.773 163.763 387.267 189.336 387.267Z" fill="#F2F2F2"/>
<path d="M891.115 387.322L815.998 339.318V710.524H891.115V387.322Z" fill="#F2F2F2"/>
<path d="M700.75 710.524H775.867V313.672L700.75 265.668V710.524Z" fill="#F2F2F2"/>
<path d="M660.618 240.02L285.033 0V216.571H405.426V466.214H285.033V710.524H660.618V240.02Z" fill="#F2F2F2"/>
<path d="M931.246 412.968V710.524H970.348L1076.33 505.688L931.246 412.968Z" fill="#F2F2F2"/>
<path d="M997.307 700.884C997.307 700.884 996.392 700.354 994.736 699.3C993.416 698.458 991.603 697.284 989.413 695.783C969.824 682.401 919.079 643.04 898.265 582.309C872.225 506.27 902.974 425.526 902.974 425.526C902.974 425.526 970.051 464.622 998.544 534.845C999.785 537.869 1000.93 540.956 1002.02 544.101C1024.68 610.262 1004.34 679.984 998.675 696.979C997.823 699.524 997.307 700.884 997.307 700.884Z" fill="#009688"/>
<path d="M997.61 703.284L996.656 702.566C995.973 702.056 928.319 650.523 910.935 572.412C893.551 494.302 932.586 417.246 932.983 416.477L933.539 415.397L934.494 416.115C935.176 416.626 1002.83 468.159 1020.21 546.269C1037.6 624.38 998.563 701.436 998.166 702.205L997.61 703.284ZM934.25 418.594C929.559 428.299 896.865 499.705 912.941 571.933C929.015 644.161 988.581 693.495 996.899 700.087C1001.59 690.383 1034.28 618.976 1018.21 546.748C1002.13 474.52 942.569 425.187 934.25 418.594Z" fill="#3F3D56"/>
<path d="M1211.65 725.984C1211.65 735.975 1156.22 745.113 1064.57 752.128C1047.91 753.398 1030.05 754.599 1011.11 755.731C994.74 756.705 977.587 757.622 959.653 758.481C942.27 759.299 924.224 760.059 905.514 760.761C846.412 762.989 781.086 764.59 711.682 765.391C694.842 765.582 677.772 765.733 660.473 765.843C642.466 765.948 624.249 766 605.824 766C271.234 766 0 748.089 0 725.984C0 703.878 271.234 685.968 605.824 685.968C749.866 685.968 882.157 689.292 986.127 694.827C989.954 695.036 993.743 695.239 997.493 695.437C997.515 695.451 997.541 695.457 997.566 695.454C1128.53 702.799 1211.65 713.748 1211.65 725.984Z" fill="#3F3D56"/>
<path opacity="0.15" d="M1211.65 725.984C1211.65 735.975 1156.22 745.113 1064.57 752.128C1047.91 753.398 1030.05 754.599 1011.11 755.731C994.74 756.705 977.587 757.622 959.653 758.481C942.27 759.299 924.224 760.059 905.514 760.761C846.412 762.989 781.086 764.59 711.682 765.391C694.842 765.582 677.772 765.733 660.473 765.843C642.466 765.948 624.249 766 605.824 766C271.234 766 0 748.089 0 725.984C0 703.878 271.234 685.968 605.824 685.968C749.866 685.968 882.157 689.292 986.127 694.827C989.954 695.036 993.743 695.239 997.493 695.437C997.515 695.451 997.541 695.457 997.566 695.454C1128.53 702.799 1211.65 713.748 1211.65 725.984Z" fill="black"/>
<path d="M1165.09 718.941C1165.09 727.295 1113.41 734.933 1027.97 740.801C1012.44 741.857 995.785 742.86 978.137 743.809C962.877 744.62 946.887 745.385 930.165 746.103C913.959 746.797 897.134 747.433 879.693 748.013C824.59 749.88 763.683 751.213 698.98 751.886C683.287 752.046 667.376 752.17 651.244 752.259C634.451 752.355 617.469 752.401 600.298 752.398C288.367 752.398 35.5005 737.419 35.5005 718.941C35.5005 700.463 288.367 685.485 600.298 685.485C669.272 685.485 735.355 686.221 796.457 687.565H796.611C854.4 688.835 907.733 690.648 954.841 692.899C958.411 693.07 961.944 693.237 965.439 693.401C965.46 693.417 965.486 693.425 965.511 693.422C987.09 694.51 1007.28 695.684 1025.88 696.943C1026.09 696.953 1026.29 696.975 1026.5 696.985C1112.82 702.864 1165.09 710.534 1165.09 718.941Z" fill="#3F3D56"/>
<path opacity="0.1" d="M1025.88 696.943C1018.24 748.482 970.029 731.21 911.695 731.21C850.068 731.21 799.75 750.488 796.611 687.565C854.4 688.835 907.733 690.648 954.841 692.899C958.411 693.07 961.944 693.237 965.439 693.401C965.46 693.417 965.486 693.425 965.511 693.422C987.09 694.51 1007.28 695.684 1025.88 696.943Z" fill="black"/>
<path d="M326.478 681.263C326.478 699.844 315.825 706.332 302.682 706.332C302.378 706.332 302.073 706.327 301.771 706.321C301.162 706.307 300.558 706.277 299.962 706.234C288.1 705.365 278.886 698.543 278.886 681.263C278.886 663.384 300.923 640.82 302.584 639.146L302.586 639.144C302.649 639.078 302.682 639.047 302.682 639.047C302.682 639.047 326.478 662.684 326.478 681.263Z" fill="#009688"/>
<path d="M301.815 703.489L310.518 690.882L301.793 704.874L301.771 706.321C301.162 706.307 300.558 706.278 299.962 706.234L300.899 687.646L300.893 687.501L300.908 687.476L300.998 685.719L292.25 671.692L301.024 684.402L301.046 684.774L301.754 670.73L294.265 656.236L301.846 668.266L302.584 639.146L302.586 639.047V639.144L302.463 662.106L309.918 653.002L302.432 664.083L302.235 676.658L309.198 664.59L302.207 678.509L302.097 685.501L312.201 668.702L302.058 687.939L301.815 703.489Z" fill="#3F3D56"/>
<path d="M796.447 668.269C796.447 597.565 848.045 540.247 911.695 540.247C975.344 540.247 1026.94 597.565 1026.94 668.269C1026.94 738.974 975.344 718.411 911.695 718.411C848.045 718.411 796.447 738.974 796.447 668.269Z" fill="#3F3D56"/>
<path d="M157.832 583.922H155.774V728.139H157.832V583.922Z" fill="#3F3D56"/>
<path d="M156.803 604.316C167.667 604.316 176.474 595.185 176.474 583.922C176.474 572.658 167.667 563.527 156.803 563.527C145.939 563.527 137.132 572.658 137.132 583.922C137.132 595.185 145.939 604.316 156.803 604.316Z" fill="#3F3D56"/>
<path d="M156.803 672.806C156.803 672.806 153.993 610.143 96.3855 617.427Z" fill="#3F3D56"/>
<path d="M729.576 607.651C730.089 609.534 730.662 611.404 731.275 613.261C728.527 610.461 725.832 607.585 723.084 604.802C724.186 605.158 725.285 605.514 726.324 605.936C727.457 606.402 728.545 606.976 729.576 607.651V607.651ZM716.268 598.301C700.077 583.704 681.316 572.404 664.723 558.253C673.784 562.874 682.598 568.26 691.341 573.424C701.711 579.549 712.205 585.436 722.822 591.086C721.092 593.895 718.869 596.342 716.268 598.301V598.301ZM723.194 561.546C723.452 561.273 723.711 560.998 723.969 560.722C723.977 562.796 723.992 564.734 724.016 566.495C722.565 565.996 721.119 565.484 719.676 564.96C720.917 563.899 722.092 562.759 723.194 561.546V561.546ZM580.569 601.063C587.241 593.249 593.037 584.676 597.847 575.509C604.274 587.152 614.72 595.548 623.605 605.299C609.289 603.34 594.952 601.723 580.569 601.063Z" fill="url(#paint0_linear)"/>
<path d="M120.678 709.002C120.678 727.583 110.025 734.07 96.8819 734.07C96.5775 734.07 96.2731 734.066 95.9709 734.059C95.362 734.045 94.7575 734.016 94.1618 733.972C82.3 733.103 73.0861 726.282 73.0861 709.002C73.0861 691.122 95.1233 668.558 96.7834 666.884L96.7856 666.882C96.8491 666.816 96.8819 666.785 96.8819 666.785C96.8819 666.785 120.678 690.423 120.678 709.002Z" fill="#009688"/>
<path d="M96.0146 731.227L104.718 718.62L95.9927 732.612L95.9708 734.059C95.362 734.045 94.7575 734.016 94.1618 733.973L95.0992 715.384L95.0926 715.239L95.108 715.214L95.1978 713.457L86.4503 699.431L95.224 712.14L95.2459 712.512L95.9533 698.468L88.4652 683.974L96.0453 696.004L96.7834 666.884L96.7856 666.785V666.882L96.6629 689.844L104.118 680.74L96.6323 691.821L96.4352 704.397L103.398 692.328L96.4067 706.247L96.2972 713.239L106.4 696.44L96.2577 715.677L96.0146 731.227Z" fill="#3F3D56"/>
<path d="M132.741 561.164C138.424 561.164 143.031 556.388 143.031 550.496C143.031 544.604 138.424 539.827 132.741 539.827C127.058 539.827 122.451 544.604 122.451 550.496C122.451 556.388 127.058 561.164 132.741 561.164Z" fill="#009688"/>
<path d="M794.376 401.17C794.376 401.17 831.706 392.602 835.822 426.741C839.938 460.88 815.998 467.324 815.998 467.324L800.836 471.549L742.183 455.546L750.415 431.008L794.376 401.17Z" fill="#2F2E41"/>
<path d="M780.924 403.054C808.785 403.054 831.369 379.638 831.369 350.753C831.369 321.868 808.785 298.452 780.924 298.452C753.064 298.452 730.479 321.868 730.479 350.753C730.479 379.638 753.064 403.054 780.924 403.054Z" fill="#2F2E41"/>
<path d="M603.663 459.357L613.913 461.494L648.761 514.918L633.387 517.055L603.663 459.357Z" fill="#2F2E41"/>
<path d="M355.748 676.116C358.511 685.545 361.915 694.76 365.934 703.691C377.485 701.185 388.849 697.828 399.939 693.646C400.281 693.517 393.579 684.428 392.875 683.686C390.22 680.884 386.783 677.611 383.272 676.028C379.733 674.431 375.372 675.65 371.583 675.85C366.31 676.129 361.032 676.218 355.748 676.116Z" fill="#FBBEBE"/>
<path d="M383.332 690.387C377.555 688.513 374.045 682.486 371.695 676.674C369.345 670.861 367.45 664.524 362.993 660.258C361.285 660.343 359.91 661.781 359.065 663.331C358.22 664.88 357.717 666.627 356.74 668.09C354.881 670.875 351.614 672.22 349.277 674.582C346.827 677.057 345.488 680.56 342.952 682.939C339.767 685.928 335.264 686.67 331.084 687.658C324.62 689.189 318.377 691.589 312.513 694.797C310.352 696.147 308.042 697.221 305.633 697.994C302.981 698.522 300.266 698.616 297.587 698.272L279.109 696.907C277.464 696.687 275.796 696.763 274.176 697.131C270.378 698.237 268.019 702.632 268.298 706.733C268.577 710.834 271.038 714.509 274.146 717.041C277.362 719.427 280.911 721.291 284.669 722.569C300.765 728.868 317.337 733.776 334.214 737.242L334.223 741.034C345.958 747.017 358.86 750.131 371.938 750.138C372.905 750.213 373.874 750.039 374.76 749.631C376.057 748.901 376.658 747.33 377.137 745.878C381.571 732.437 384.165 718.418 384.845 704.23C385.172 700.633 384.903 697.005 384.049 693.502C383.043 690.053 386.508 691.503 383.301 690.153" fill="#2F2E41"/>
<path d="M737.725 618.167C682.941 621.568 628.795 604.942 573.94 603.165C567.121 602.944 560.227 602.961 553.568 604.511C546.524 606.151 539.957 609.456 533.407 612.616C503.986 626.808 473.551 638.562 443.152 650.301L408.233 663.786C401.255 666.481 394.024 669.217 386.596 668.746C383.266 668.536 379.179 668.013 377.306 670.89C371.625 679.616 374.31 692.436 378.063 702.229C379.281 705.408 381.342 708.837 384.607 709.199C386.906 709.453 389.043 708.074 391.277 707.454C397.633 705.689 403.97 710.121 410.511 710.843C418.593 711.735 426.097 706.962 433.725 704.039C446.376 699.191 460.209 699.343 473.506 697.047C495.803 693.197 516.469 682.463 535.787 670.234C543.143 665.577 550.586 660.588 559.036 658.885C568.752 656.927 578.732 659.522 588.258 662.316C610.974 668.98 633.336 676.875 655.254 685.969C666.794 690.757 678.251 695.891 690.258 699.203C716.231 706.292 743.706 704.631 768.708 694.461C777.477 690.867 787.005 684.516 787.508 674.707C787.794 669.115 783.611 664.188 780.815 659.405C779.023 656.339 777.229 653.27 775.277 650.311C765.83 635.992 754.366 617.134 737.725 618.167Z" fill="#2F2E41"/>
<path opacity="0.1" d="M737.725 618.167C682.941 621.568 628.795 604.942 573.94 603.165C567.121 602.944 560.227 602.961 553.568 604.511C546.524 606.151 539.957 609.456 533.407 612.616C503.986 626.808 473.551 638.562 443.152 650.301L408.233 663.786C401.255 666.481 394.024 669.217 386.596 668.746C383.266 668.536 379.179 668.013 377.306 670.89C371.625 679.616 374.31 692.436 378.063 702.229C379.281 705.408 381.342 708.837 384.607 709.199C386.906 709.453 389.043 708.074 391.277 707.454C397.633 705.689 403.97 710.121 410.511 710.843C418.593 711.735 426.097 706.962 433.725 704.039C446.376 699.191 460.209 699.343 473.506 697.047C495.803 693.197 516.469 682.463 535.787 670.234C543.143 665.577 550.586 660.588 559.036 658.885C568.752 656.927 578.732 659.522 588.258 662.316C610.974 668.98 633.336 676.875 655.254 685.969C666.794 690.757 678.251 695.891 690.258 699.203C716.231 706.292 743.706 704.631 768.708 694.461C777.477 690.867 787.005 684.516 787.508 674.707C787.794 669.115 783.611 664.188 780.815 659.405C779.023 656.339 777.229 653.27 775.277 650.311C765.83 635.992 754.366 617.134 737.725 618.167Z" fill="black"/>
<path d="M460.93 678.881C469.505 681.915 478.156 684.705 486.881 687.25C491.766 678.936 500.903 673.15 502.986 663.645C503.115 663.231 503.116 662.786 502.987 662.372C502.765 661.965 502.42 661.645 502.005 661.461C495.755 657.87 488.815 655.762 481.684 655.287C476.053 654.918 473.483 661.014 470.93 665.298C469.897 667.032 463.224 679.693 460.93 678.881Z" fill="#FBBEBE"/>
<path d="M472.95 672.812C467.885 671.711 462.929 668.889 460.344 664.218C459.132 662.029 457.844 659.079 455.425 659.244C453.18 659.398 452.149 662.175 451.643 664.46C449.751 673.019 447.892 681.645 444.571 689.717C441.25 697.789 436.337 705.368 429.408 710.365C426.231 712.656 422.688 714.368 419.582 716.764C416.791 718.916 414.357 721.616 411.275 723.281C409.212 724.261 407.083 725.085 404.904 725.745C401.699 726.902 398.637 728.447 395.781 730.348C393.27 731.861 391.14 733.97 389.568 736.502C388.796 737.779 388.345 739.237 388.255 740.741C388.166 742.246 388.441 743.749 389.056 745.115C389.718 746.239 390.602 747.206 391.651 747.95C392.699 748.694 393.887 749.199 395.137 749.433C397.634 749.879 400.18 749.945 402.695 749.629C412.684 748.866 422.661 747.944 432.637 747.022C436.858 746.74 441.052 746.135 445.187 745.213C447.372 744.666 449.514 743.942 451.691 743.36C455.422 742.363 459.247 741.785 463.098 741.638C464.217 741.539 465.343 741.646 466.426 741.953C468.737 742.736 470.377 745.12 472.763 745.604C474.293 745.755 475.837 745.542 477.275 744.978C484.463 742.94 492.016 742.995 499.454 742.579C502.731 742.396 506.567 741.75 508.071 738.709C509.946 734.916 506.837 730.675 505.598 726.608C504.98 724.009 504.635 721.348 504.57 718.673C503.999 712.06 502.126 705.639 499.069 699.806C496.526 694.965 493.054 689.613 494.841 684.418C495.447 682.655 496.653 681.013 496.533 679.145C496.007 670.938 477.542 673.81 472.95 672.812Z" fill="#2F2E41"/>
<path d="M655.57 527.043C645.862 522.608 638.085 514.599 633.742 504.564C632.827 502.407 632.075 500.155 631.194 497.978C628.321 490.746 623.853 484.313 618.148 479.195C616.722 477.94 615.048 476.743 613.305 477.071C611.633 477.386 610.317 479.102 609.743 481.026C609.253 483.007 609.13 485.066 609.382 487.095C609.869 491.876 610.662 496.619 611.756 501.291L614.411 513.833C614.739 515.762 615.294 517.643 616.063 519.432C617.209 521.543 618.719 523.417 620.52 524.96C622.945 527.276 625.41 529.53 627.913 531.722C631.391 535.182 635.927 537.273 640.734 537.632C651.614 539.724 662.679 542.737 671.859 550.098C671.757 550.016 671.82 541.686 671.661 540.731C671.241 538.207 670.914 535.707 669.33 534.001C665.77 530.167 659.906 529.041 655.57 527.043Z" fill="#FBBEBE"/>
<path opacity="0.1" d="M655.57 527.043C645.862 522.608 638.085 514.599 633.742 504.564C632.827 502.407 632.075 500.155 631.194 497.978C628.321 490.746 623.853 484.313 618.148 479.195C616.722 477.94 615.048 476.743 613.305 477.071C611.633 477.386 610.317 479.102 609.743 481.026C609.253 483.007 609.13 485.066 609.382 487.095C609.869 491.876 610.662 496.619 611.756 501.291L614.411 513.833C614.739 515.762 615.294 517.643 616.063 519.432C617.209 521.543 618.719 523.417 620.52 524.96C622.945 527.276 625.41 529.53 627.913 531.722C631.391 535.182 635.927 537.273 640.734 537.632C651.614 539.724 662.679 542.737 671.859 550.098C671.757 550.016 671.82 541.686 671.661 540.731C671.241 538.207 670.914 535.707 669.33 534.001C665.77 530.167 659.906 529.041 655.57 527.043Z" fill="black"/>
<path d="M767.141 431.041C774.5 431.041 780.466 424.822 780.466 417.151C780.466 409.479 774.5 403.26 767.141 403.26C759.783 403.26 753.817 409.479 753.817 417.151C753.817 424.822 759.783 431.041 767.141 431.041Z" fill="#2F2E41"/>
<path d="M758.894 408.759C755.277 408.343 751.259 408.034 748.361 410.329C746.823 411.738 745.595 413.473 744.757 415.416C741.972 420.839 739.225 426.365 737.823 432.34C736.633 437.41 736.436 442.711 734.963 447.699C732.23 456.953 725.23 464.763 724.43 474.409C724.072 478.725 724.769 483.779 721.732 486.736C720.982 487.39 720.181 487.979 719.338 488.497C717.231 489.959 715.445 491.864 714.093 494.088C712.956 495.961 712.08 498.113 710.369 499.428C707.659 501.51 703.161 501.298 701.825 504.519C700.452 507.829 703.935 511.513 703.129 515.019C702.471 517.875 699.401 519.184 697.286 521.124C694.577 523.61 693.338 527.361 692.208 530.935C687.751 531.809 683.164 531.673 678.763 530.535C674.362 529.397 670.25 527.285 666.711 524.343C670.431 533.841 670.511 544.323 670.673 554.581C670.725 557.908 670.625 561.643 668.334 563.96C678.941 564.196 689.287 567.175 699.639 569.601C704.164 570.661 709.075 571.582 713.294 569.575C715.661 568.261 717.78 566.514 719.547 564.418C725.179 558.497 731.087 552.038 732.464 543.825C733.236 539.223 732.489 534.5 732.693 529.833C732.946 524.051 734.652 518.463 736.112 512.878C739.099 501.447 741.102 489.763 742.096 477.965C742.709 470.684 748.774 464.824 751.967 458.317C757.995 446.034 764.155 433.24 764.609 419.451C764.761 414.839 763.293 409.265 758.894 408.759Z" fill="#2F2E41"/>
<path opacity="0.1" d="M758.894 408.759C755.277 408.343 751.259 408.034 748.361 410.329C746.823 411.738 745.595 413.473 744.757 415.416C741.972 420.839 739.225 426.365 737.823 432.34C736.633 437.41 736.436 442.711 734.963 447.699C732.23 456.953 725.23 464.763 724.43 474.409C724.072 478.725 724.769 483.779 721.732 486.736C720.982 487.39 720.181 487.979 719.338 488.497C717.231 489.959 715.445 491.864 714.093 494.088C712.956 495.961 712.08 498.113 710.369 499.428C707.659 501.51 703.161 501.298 701.825 504.519C700.452 507.829 703.935 511.513 703.129 515.019C702.471 517.875 699.401 519.184 697.286 521.124C694.577 523.61 693.338 527.361 692.208 530.935C687.751 531.809 683.164 531.673 678.763 530.535C674.362 529.397 670.25 527.285 666.711 524.343C670.431 533.841 670.511 544.323 670.673 554.581C670.725 557.908 670.625 561.643 668.334 563.96C678.941 564.196 689.287 567.175 699.639 569.601C704.164 570.661 709.075 571.582 713.294 569.575C715.661 568.261 717.78 566.514 719.547 564.418C725.179 558.497 731.087 552.038 732.464 543.825C733.236 539.223 732.489 534.5 732.693 529.833C732.946 524.051 734.652 518.463 736.112 512.878C739.099 501.447 741.102 489.763 742.096 477.965C742.709 470.684 748.774 464.824 751.967 458.317C757.995 446.034 764.155 433.24 764.609 419.451C764.761 414.839 763.293 409.265 758.894 408.759Z" fill="black"/>
<path d="M746.414 630.129C735.004 624.501 726.656 614.006 717.43 605.024C699.819 587.879 678.281 575.741 659.764 559.665C647.489 549.01 636.511 536.602 623.023 527.682C611.144 519.839 597.677 514.947 583.675 513.387C582.07 513.102 580.425 513.187 578.856 513.636C577.087 514.447 575.546 515.711 574.377 517.309C568.401 524.3 563.09 531.873 558.517 539.921C535.046 581.231 501.707 615.965 474.085 654.384C473.203 655.287 472.68 656.501 472.619 657.785C472.558 659.069 472.963 660.33 473.755 661.319L479.374 672.734C482.518 679.122 487.555 686.562 494.333 685.293C497.431 684.713 499.899 682.35 502.18 680.09L527.403 655.091L553.849 628.882C569.344 613.525 585.104 597.812 595.205 578.169C603.099 592.364 617.105 601.655 626.715 614.65C630.37 619.593 633.356 625.028 636.619 630.261C641.849 638.649 647.797 646.522 653.736 654.381L684.071 694.524C688.208 699.999 692.46 705.583 698.117 709.296C705.302 714.012 714.04 715.255 722.496 716.04C733.892 717.098 745.334 717.527 756.773 717.325C765.495 717.171 774.49 716.577 782.316 712.561C790.142 708.545 796.571 700.301 796.164 691.218C795.953 686.494 793.972 682.063 791.792 677.916C780.956 657.304 766.795 640.182 746.414 630.129Z" fill="#2F2E41"/>
<path d="M775.341 437.452C781.002 437.452 785.59 432.669 785.59 426.767C785.59 420.866 781.002 416.082 775.341 416.082C769.68 416.082 765.092 420.866 765.092 426.767C765.092 432.669 769.68 437.452 775.341 437.452Z" fill="#2F2E41"/>
<path d="M773.075 418.739C775.573 423.313 775.575 429.006 774.2 434.071C772.825 439.136 770.2 443.717 767.603 448.231C765.048 452.674 762.462 457.157 759.034 460.907C774.854 461.692 790.191 455.259 804.152 447.463C815.384 441.191 826.592 433.449 832.586 421.728C829.081 422.82 825.217 421.742 822.114 419.721C819.101 417.543 816.399 414.935 814.09 411.973L806.148 402.709C804.282 400.692 802.643 398.462 801.263 396.061C799.543 392.777 798.813 389.034 799.166 385.316C796.011 388.74 792.484 391.774 788.656 394.358C782.983 398.186 776.73 400.963 771.045 404.768C769.029 406.118 764.546 408.288 765.7 411.02C766.825 413.683 771.477 415.812 773.075 418.739Z" fill="#FBBEBE"/>
<path opacity="0.1" d="M773.075 418.739C775.573 423.313 775.575 429.006 774.2 434.071C772.825 439.136 770.2 443.717 767.603 448.231C765.048 452.674 762.462 457.157 759.034 460.907C774.854 461.692 790.191 455.259 804.152 447.463C815.384 441.191 826.592 433.449 832.586 421.728C829.081 422.82 825.217 421.742 822.114 419.721C819.101 417.543 816.399 414.935 814.09 411.973L806.148 402.709C804.282 400.692 802.643 398.462 801.263 396.061C799.543 392.777 798.813 389.034 799.166 385.316C796.011 388.74 792.484 391.774 788.656 394.358C782.983 398.186 776.73 400.963 771.045 404.768C769.029 406.118 764.546 408.288 765.7 411.02C766.825 413.683 771.477 415.812 773.075 418.739Z" fill="black"/>
<path d="M773.291 420.356C770.318 425.54 769.68 431.661 773.291 436.384C773.741 436.972 775.41 440.62 776.13 440.653C776.828 440.594 777.476 440.254 777.936 439.706C781.778 436.065 784.593 431.421 787.968 427.308C791.343 423.194 795.601 419.445 800.732 418.617C806.926 417.617 812.906 421.019 818.324 424.302C820.577 425.666 822.912 427.111 824.33 429.389C825.471 431.527 826.145 433.9 826.302 436.339C828.174 450.961 828.133 465.767 828.088 480.519C828.056 491.182 828.017 501.921 826.072 512.39C825.067 517.801 823.556 523.112 822.842 528.573C822.317 533.392 822.105 538.243 822.205 543.092L822.19 563.394C822.06 567.122 822.314 570.854 822.95 574.527C823.88 578.975 825.91 583.082 827.267 587.41C828.666 592.384 829.624 597.481 830.128 602.636L832.808 623.658C833.652 630.279 834.275 637.522 830.414 642.851C828.668 645.261 826.374 647.189 824.604 649.58C817.976 658.529 820.103 671.299 817.337 682.233C815.155 690.24 810.67 697.367 804.482 702.664C799.745 706.836 793.627 710.12 787.529 708.946C779.296 707.361 774.35 698.46 772.106 690.052C769.861 681.643 769.043 672.49 764.179 665.385C760.209 659.585 754.056 655.936 748.493 651.795C742.929 647.654 737.493 642.316 736.282 635.303C735.753 632.239 736.082 629.084 735.769 625.989C735.326 622.067 733.875 618.341 731.568 615.199C729.26 612.058 726.181 609.617 722.652 608.132C718.438 606.433 713.233 605.826 710.86 601.817C716.988 598.237 721.055 591.62 723.198 584.646C725.341 577.672 725.778 570.273 726.199 562.963L727.607 538.534C728.236 527.617 728.522 516.797 733.159 506.987C735.232 502.601 737.811 498.495 739.969 494.154C742.824 488.064 745.261 481.772 747.264 475.327C750.626 465.317 753.988 455.305 756.985 445.17C758.413 440.34 759.785 435.419 762.33 431.118C764.875 426.817 768.526 421.285 773.291 420.356Z" fill="#009688"/>
<path d="M720.969 579.063L727.201 579.296L728.529 569.527C728.704 567.572 729.148 565.654 729.85 563.831C730.877 561.904 732.077 560.081 733.434 558.386C739.571 549.398 739.123 537.463 740.643 526.545C742.671 511.983 748.538 498.35 754.342 484.937L766.444 456.968C768.859 452.22 770.014 446.893 769.791 441.53C769.898 437.207 771.134 421.475 771.241 417.151C771.281 415.551 767.839 416.44 767.141 415.014C765.623 411.909 763.547 420.33 760.712 422.177C757.878 424.025 756.313 427.372 755.109 430.623C752.501 437.669 750.907 445.078 748.476 452.193C746.046 459.307 742.646 466.297 737.178 471.25C734.693 473.501 731.83 475.286 729.483 477.692C721.954 485.412 721.22 497.604 720.955 508.61C720.798 515.153 719.578 579.063 720.969 579.063Z" fill="#2F2E41"/>
<path d="M810.727 408.693C804.672 411.161 801.351 417.97 799.649 424.512C797.947 431.055 797.254 438.027 794.001 443.897C786.398 457.617 767.012 461.615 761.647 476.441C759.892 481.292 759.968 486.615 759.495 491.776C758.522 502.4 755.153 512.663 754.157 523.284C753.386 531.512 754.052 539.805 754.718 548.043L761.493 631.828C762.472 643.931 762.447 656.931 759.464 668.672C766.324 670.059 773.456 668.202 779.821 665.194C786.185 662.185 791.994 658.055 798.12 654.551C808.654 648.526 820.27 644.257 829.495 636.232C831.164 634.883 832.595 633.244 833.722 631.387C835.57 628.074 835.722 624.067 836.601 620.346C837.399 617.378 838.415 614.477 839.638 611.668C843.015 603.225 845.957 594.602 848.452 585.835C850.167 580.018 851.52 574.093 852.506 568.096C853.245 563.321 853.644 558.496 854.043 553.676C854.535 546.13 855.981 538.684 858.344 531.529C864.238 514.467 867.575 496.569 868.24 478.458C868.44 475.842 868.268 473.21 867.731 470.645C866.928 467.465 865.117 464.685 863.632 461.784C860.816 456.285 859.125 450.233 856.468 444.649C850.463 432.031 839.859 422.464 828.75 414.446C823.295 410.509 816.907 406.174 810.727 408.693Z" fill="#2F2E41"/>
<path d="M669.07 545.377C664.382 542.546 659.694 539.498 656.165 535.212C654.474 533.158 653.079 530.853 651.36 528.825C647.179 523.892 641.254 520.833 635.128 519.234C629.003 517.635 622.632 517.392 616.318 517.337C612.094 517.3 607.765 517.363 603.811 518.911C599.856 520.459 596.289 523.797 595.525 528.128C594.605 533.339 597.889 538.417 601.833 541.761C605.501 544.865 609.818 547.038 614.44 548.106C618.21 548.79 622.015 549.252 625.836 549.49C648.273 551.926 668.288 564.586 687.949 576.115C705.217 586.24 722.82 595.706 740.759 604.513C741.47 598.943 741.766 593.324 741.644 587.707C741.552 583.512 741.353 577.117 737.531 574.654C733.077 571.784 725.746 571.124 720.722 569.417C709.162 565.488 697.872 560.753 686.928 555.244C680.86 552.189 674.907 548.9 669.07 545.377Z" fill="#FBBEBE"/>
<path d="M767.141 413.945C789.218 413.945 807.114 395.288 807.114 372.274C807.114 349.259 789.218 330.602 767.141 330.602C745.065 330.602 727.169 349.259 727.169 372.274C727.169 395.288 745.065 413.945 767.141 413.945Z" fill="#FBBEBE"/>
<path d="M822.155 455.938C818.585 460.254 816.798 465.814 814.399 470.935C809.463 481.473 801.722 490.518 797.845 501.527C793.755 513.141 793.892 526.956 785.875 536.078C784.481 537.664 782.798 539.195 782.395 541.305C782.156 542.557 782.404 543.897 781.988 545.098C780.839 548.412 775.606 548.579 774.63 551.953C774.344 552.94 774.505 554.034 774.151 554.996C773.349 557.178 770.57 557.511 768.711 558.818C764.832 561.547 765.614 567.892 762.845 571.825C760.655 574.937 756.525 575.98 752.857 575.452C749.189 574.925 745.829 573.104 742.489 571.439C741.341 570.769 740.071 570.355 738.76 570.225C737.211 570.28 735.713 570.81 734.455 571.749C727.071 576.616 723.605 586.258 723.656 595.365C723.707 604.472 726.726 613.247 729.817 621.766C730.238 623.203 730.931 624.54 731.854 625.698C734.302 628.382 738.565 627.949 741.817 626.456C745.068 624.963 748.021 622.614 751.518 621.957C757.703 620.795 763.748 625.202 770.023 624.839C774.62 624.573 778.689 621.802 782.508 619.121C788.605 614.842 794.814 610.456 799.296 604.384C802.041 600.665 804.051 596.427 806.444 592.453C809.521 587.577 812.893 582.909 816.539 578.475L839.588 549.224C845.127 542.973 848.94 535.291 850.628 526.986C852.819 519.19 855.026 511.305 855.405 503.191C855.717 496.512 854.782 489.843 853.731 483.246C852.697 476.753 851.519 470.188 848.768 464.263C843.76 453.481 831.569 444.558 822.155 455.938Z" fill="#2F2E41"/>
<path d="M835.573 334.191C863.433 334.191 886.018 310.775 886.018 281.89C886.018 253.006 863.433 229.59 835.573 229.59C807.713 229.59 785.128 253.006 785.128 281.89C785.128 310.775 807.713 334.191 835.573 334.191Z" fill="#2F2E41"/>
<path d="M879.085 325.199C872.556 330.091 864.991 333.292 857.025 334.532C849.058 335.772 840.921 335.016 833.293 332.327C825.666 329.639 818.771 325.095 813.185 319.077C807.598 313.059 803.484 305.741 801.184 297.737C802.054 304.91 804.349 311.819 807.925 318.027C811.5 324.234 816.278 329.606 821.957 333.803C827.636 337.999 834.092 340.929 840.918 342.408C847.744 343.887 854.792 343.883 861.616 342.396C868.441 340.908 874.894 337.97 880.568 333.766C886.242 329.563 891.013 324.185 894.582 317.973C898.15 311.761 900.437 304.85 901.299 297.675C902.161 290.5 901.579 283.218 899.589 276.288C900.719 285.598 899.412 295.052 895.804 303.658C892.196 312.264 886.421 319.704 879.085 325.199V325.199Z" fill="#2F2E41"/>
<path d="M794.376 397.824C814.807 397.824 831.369 380.652 831.369 359.47C831.369 338.288 814.807 321.116 794.376 321.116C773.946 321.116 757.383 338.288 757.383 359.47C757.383 380.652 773.946 397.824 794.376 397.824Z" fill="#2F2E41"/>
<path d="M763.269 371.673C781.378 371.673 796.058 359.77 796.058 345.087C796.058 330.404 781.378 318.501 763.269 318.501C745.16 318.501 730.479 330.404 730.479 345.087C730.479 359.77 745.16 371.673 763.269 371.673Z" fill="#2F2E41"/>
<path d="M775.864 392.942C778.069 391.083 777.676 386.797 774.987 383.369C772.298 379.94 768.331 378.668 766.126 380.526C763.921 382.385 764.314 386.671 767.003 390.1C769.692 393.528 773.66 394.801 775.864 392.942Z" fill="#FBBEBE"/>
<path d="M734.991 726.071C734.991 744.652 724.338 751.14 711.195 751.14C710.891 751.14 710.586 751.135 710.284 751.128C709.675 751.115 709.071 751.085 708.475 751.042C696.613 750.172 687.399 743.351 687.399 726.071C687.399 708.192 709.437 685.628 711.097 683.954L711.099 683.952C711.163 683.886 711.195 683.854 711.195 683.854C711.195 683.854 734.991 707.492 734.991 726.071Z" fill="#009688"/>
<path d="M710.328 748.297L719.032 735.69L710.306 749.682L710.284 751.128C709.675 751.115 709.071 751.085 708.475 751.042L709.413 732.454L709.406 732.309L709.421 732.284L709.511 730.526L700.764 716.5L709.537 729.209L709.559 729.582L710.267 715.537L702.779 701.043L710.359 713.074L711.097 683.954L711.099 683.854V683.952L710.976 706.913L718.432 697.81L710.946 708.891L710.749 721.466L717.711 709.397L710.72 723.317L710.611 730.308L720.714 713.51L710.571 732.747L710.328 748.297Z" fill="#3F3D56"/>
</g>
</g>
<defs>
<linearGradient id="paint0_linear" x1="655.922" y1="613.261" x2="655.922" y2="558.253" gradientUnits="userSpaceOnUse">
<stop stop-color="#808080" stop-opacity="0.25"/>
<stop offset="0.53514" stop-color="#808080" stop-opacity="0.12"/>
<stop offset="1" stop-color="#808080" stop-opacity="0.1"/>
</linearGradient>
<clipPath id="clip0">
<rect width="960" height="766" fill="white"/>
</clipPath>
<clipPath id="clip1">
<rect width="1223" height="766" fill="white"/>
</clipPath>
</defs>
</svg>
