<svg width="900" height="650" viewBox="0 0 900 650" fill="none" xmlns="http://www.w3.org/2000/svg">
<g clip-path="url(#clip0)">
<path d="M290.082 623.336C277.133 621.59 256.543 619.117 256.548 629.591C256.552 633.544 274.82 637.348 277.842 638.077C287.191 640.334 295.948 643.667 305.083 647.041C322.034 653.301 335.61 644.866 322.187 635.411C311.121 627.613 300.522 624.744 290.082 623.336ZM572.664 646.317C571.764 647.159 570.911 648.077 570.369 649.166C568.886 652.147 570.414 656.185 573.598 657.477C575.199 658.125 576.997 658.112 578.736 658.091C593.622 657.889 609.624 657.344 621.516 648.801C622.967 647.759 624.468 646.295 624.211 644.58C623.899 642.503 621.324 641.606 619.169 641.191C604.288 638.316 584.625 635.105 572.664 646.317V646.317ZM822.639 415.157C820.87 415.877 819.066 416.786 818.051 418.345C817.259 419.564 817.045 421.034 816.886 422.462C816.557 425.432 816.39 428.42 816.386 431.406C816.382 434.677 816.737 438.304 819.25 440.53C822.636 443.529 828.012 442.48 832.447 441.241C834.948 440.543 837.613 439.742 839.219 437.785C840.394 436.354 840.825 434.506 841.147 432.715C842.221 426.744 845.508 417.701 841.865 414.61C838.22 411.52 828.984 412.571 822.639 415.157V415.157ZM99.0878 233.388C97.1528 227.488 92.5808 224.554 85.6634 227.914C81.536 229.919 78.6596 233.645 76.1936 237.384C72.212 243.421 68.7884 250.321 69.6254 257.407C70.2356 262.571 73.2164 267.44 77.6318 270.49C79.4426 271.739 81.5846 272.714 83.8202 272.639C86.2736 272.558 88.4876 271.235 90.3938 269.757C94.8938 266.263 98.357 261.729 101.768 257.251C103.537 254.929 105.364 252.466 105.703 249.613C106.423 243.569 100.866 238.817 99.0878 233.388V233.388ZM197.787 72.0019C195.17 70.2865 191.797 71.2747 189.194 72.6139C188.629 72.9073 188.049 73.2996 187.885 73.8918C187.543 75.123 189.1 75.9961 190.369 76.3921C192.346 77.0095 194.499 77.6125 196.462 76.9591C198.428 76.3057 200.401 73.7155 197.787 72.0019V72.0019ZM218.961 60.336C218.264 60.714 217.904 61.4575 217.485 62.1091C216.039 64.3483 213.539 65.7775 210.988 66.7747C209.494 67.3615 207.885 67.8655 206.782 68.9923C205.029 70.7833 205.243 73.9783 207.219 75.5425C208.818 76.8061 211.071 76.9321 213.145 76.8295C220.903 76.4461 228.508 73.6057 234.475 68.8609C242.328 62.6167 223.279 57.9978 218.961 60.336ZM438.795 35.7769C438.795 40.8385 438.795 49.5253 461.111 48.1051C467.958 47.6695 473.538 44.001 473.538 38.9394C473.538 33.876 467.974 29.7721 461.111 29.7721C454.248 29.7721 438.795 27.6877 438.795 35.7769ZM824.506 239.724C836.458 261.448 853.835 281.936 855.338 306.425C857.75 345.766 819.394 375.424 803.71 411.881C784.456 456.635 800.604 509.362 783.561 554.92C771.211 587.938 740.917 614.311 705.319 623.039C678.637 629.581 650.575 626.625 623.03 626.895C544.824 627.655 466.92 654.698 389.779 642.422C351.687 636.358 315.675 620.885 277.408 615.92C231.521 609.968 178.054 617.166 145.26 585.981C99.446 542.412 133.459 462.303 99.0752 410.033C88.0034 393.201 70.1672 380.032 64.1876 360.997C57.2 338.753 68.5202 315.049 82.5764 296.089C96.6326 277.128 114.024 259.666 121.638 237.611C128.55 217.582 124.329 195.811 115.826 176.35C102.801 146.531 139.059 78.1597 210.983 83.2843C243.954 85.6333 258.793 47.4444 294.96 36.8586C336.371 24.7392 388.359 34.4827 418.872 44.6239C449.874 54.9271 488.199 60.3451 505.971 34.0165C531.063 -3.15353 605.863 -8.97116 639.45 51.3918C651.718 73.44 662.643 90.5958 688.753 88.9128C830.264 79.794 806.745 207.437 824.506 239.724" fill="#C8EEFB"/>
<path d="M715.525 375.81C715.525 375.81 745.607 373.063 774.115 361.385C775.017 361.016 775.563 367.143 775.563 367.143C775.563 367.143 779.76 358.951 781.218 358.264C796.648 350.986 810.799 340.847 818.385 326.809C818.385 326.809 822.121 412.888 711.468 432.006L715.525 375.81Z" fill="#5084DA"/>
<path d="M752.323 474.005C752.323 474.005 788.842 493.362 860.255 496.726C860.255 496.726 811.673 541.06 700.516 525.796L704.161 475.306L752.323 474.005Z" fill="#5084DA"/>
<path d="M701.236 424.86C701.236 424.86 717.719 414.328 744.478 405.236C745.545 404.873 747.802 411.18 747.802 411.18C747.802 411.18 751.458 402.967 753.389 402.389C785.354 392.815 829.096 386.567 876.205 399.863C876.205 399.863 861.933 419.744 832.721 441.51C831.475 442.439 823.224 441.704 823.224 441.704C823.224 441.704 826.689 445.88 825.55 446.671C797.792 465.974 758.437 485.639 707.034 493.426L701.236 424.86Z" fill="#5193F4"/>
<g opacity="0.399994">
<g opacity="0.399994">
<path opacity="0.399994" d="M876.205 399.864C862.434 408.75 847.947 416.507 833.203 423.685C818.463 430.887 803.307 437.217 787.96 443.019C780.298 445.958 772.462 448.417 764.695 451.051L752.904 454.582C750.936 455.16 748.98 455.779 747.003 456.321L741.033 457.819C725.191 462.11 709.003 464.99 692.796 467.305L704.827 464.826L710.843 463.611C712.839 463.17 714.817 462.643 716.805 462.164L728.735 459.32L740.556 456.051C748.452 453.949 756.21 451.355 764.029 448.988C771.746 446.297 779.52 443.777 787.129 440.787C802.486 435.198 817.569 428.858 832.426 422.034C839.863 418.64 847.231 415.088 854.532 411.396C861.849 407.737 869.074 403.894 876.205 399.864Z" fill="#5084DA"/>
</g>
<g opacity="0.399994">
<path opacity="0.399994" d="M776.311 446.014C779.358 443.164 782.315 440.264 785.269 437.381C788.194 434.467 791.08 431.531 793.855 428.498C796.661 425.49 799.286 422.333 801.871 419.134C804.398 415.891 806.781 412.541 809.062 409.034C807.616 412.948 805.705 416.726 803.379 420.221C801.048 423.712 798.438 427.015 795.608 430.107C789.892 436.223 783.514 441.758 776.311 446.014Z" fill="#5084DA"/>
</g>
<g opacity="0.399994">
<path opacity="0.399994" d="M732.082 459.285C735.387 457.127 738.411 454.672 741.302 452.103C744.171 449.511 746.882 446.761 749.29 443.762C751.744 440.804 753.983 437.66 755.916 434.319C757.937 431.016 759.554 427.486 761.217 423.892C760.443 427.749 759.365 431.63 757.558 435.192C755.896 438.83 753.646 442.178 751.124 445.279C748.581 448.368 745.681 451.16 742.475 453.536C739.3 455.935 735.808 457.948 732.082 459.285Z" fill="#5084DA"/>
</g>
<g opacity="0.399994">
<path opacity="0.399994" d="M776.311 446.014C782.058 446.24 787.651 446.327 793.236 445.929C796.03 445.783 798.805 445.454 801.579 445.052C804.373 444.692 807.101 444.048 809.954 443.533C807.465 444.973 804.774 446.15 801.966 446.87C799.171 447.664 796.287 448.112 793.391 448.303C790.496 448.469 787.588 448.438 784.717 448.057C781.849 447.698 778.998 447.094 776.311 446.014Z" fill="#5084DA"/>
</g>
<g opacity="0.399994">
<path opacity="0.399994" d="M732.981 459.348C736.417 459.761 739.826 460.09 743.217 460.441C746.61 460.751 749.994 461.035 753.382 461.183C756.768 461.35 760.146 461.332 763.534 461.242C766.916 461.062 770.287 460.752 773.72 460.223C770.561 461.64 767.163 462.597 763.707 463.092C760.249 463.569 756.751 463.692 753.274 463.56C746.337 463.17 739.423 461.942 732.981 459.348Z" fill="#5084DA"/>
</g>
</g>
<g opacity="0.227768">
<g opacity="0.227768">
<g opacity="0.227768">
<g opacity="0.5">
<g opacity="0.5">
<path opacity="0.5" d="M807.016 349.176C804.069 357.251 798.875 364.366 792.981 370.63C787.05 376.919 780.054 382.125 772.634 386.528L766.928 389.58C765.033 390.615 763.001 391.362 761.039 392.25C757.12 394.062 752.993 395.326 748.903 396.645C746.878 397.376 744.754 397.763 742.673 398.289L736.413 399.777C732.174 400.442 727.931 401.063 723.696 401.595C727.85 400.528 732.028 399.686 736.152 398.638L742.274 396.838C744.304 396.213 746.378 395.727 748.338 394.901C752.287 393.344 756.346 392.095 760.131 390.183C762.038 389.265 764.037 388.542 765.879 387.503L771.443 384.467C778.729 380.204 785.58 375.193 791.685 369.347C793.205 367.876 794.738 366.413 796.103 364.794C796.799 363.999 797.528 363.228 798.203 362.413L800.163 359.913C802.777 356.574 805.13 353.013 807.016 349.176Z" fill="#605ACA"/>
</g>
</g>
</g>
</g>
</g>
<path d="M836.925 502.805C831.923 503.766 826.858 504.357 821.796 504.952C816.724 505.446 811.639 505.813 806.545 506.072C796.353 506.571 786.129 506.338 775.936 505.638C770.845 505.206 765.762 504.623 760.713 503.811C755.662 503.044 750.622 502.116 745.678 500.793C735.787 498.229 726.067 494.656 717.36 489.334C721.954 491.53 726.646 493.467 731.472 495.011C736.271 496.62 741.16 497.94 746.103 499.011C755.981 501.172 766.03 502.524 776.123 503.268C786.208 504.157 796.351 504.353 806.493 504.249C816.636 504.124 826.784 503.673 836.925 502.805Z" fill="#4CA1FF"/>
<path d="M789.062 520.645C782.414 521.174 775.618 519.734 769.516 516.782C766.49 515.236 763.687 513.2 761.345 510.727C758.966 508.265 757.358 505.172 756.314 502.038C758.208 504.791 760.21 507.307 762.641 509.395C765.089 511.44 767.721 513.234 770.587 514.655C773.443 516.089 776.455 517.23 779.542 518.215C782.641 519.153 785.8 520.017 789.062 520.645Z" fill="#4CA1FF"/>
<path d="M762.44 522.229C755.836 521.304 749.512 518.431 744.193 514.224C741.574 512.061 739.281 509.467 737.528 506.545C735.739 503.626 734.839 500.26 734.497 496.973C735.751 500.071 737.161 502.96 739.081 505.525C741.027 508.05 743.21 510.372 745.7 512.379C748.178 514.397 750.871 516.165 753.672 517.795C756.494 519.381 759.392 520.909 762.44 522.229Z" fill="#4CA1FF"/>
<path d="M470.602 594.999C459.489 582.195 442.587 574.608 425.629 574.831C413.11 574.995 400.816 579.157 388.324 578.39C375.201 577.602 362.505 571.098 354.205 560.887C345.906 550.675 342.108 536.94 344.003 523.918C345.45 514.02 350.627 504.081 359.591 499.651C364.474 497.244 370.121 496.641 375.546 497.129C380.556 497.579 385.351 498.938 389.88 500.963C400.246 505.562 409.258 513.669 416.464 522.621C423.005 530.76 437.945 542.736 448.045 550.467C453.967 554.981 458.236 558.036 458.236 558.036C465.357 564.618 465.728 586.611 470.602 594.999Z" fill="#52D2BC"/>
<path d="M360.901 527.455C392.365 536.417 427.119 549.118 451.686 570.723" stroke="#00AD9F" stroke-miterlimit="10" stroke-linecap="round" stroke-linejoin="round"/>
<path d="M563.673 523.027C563.209 528.254 562.136 533.598 559.6 538.349C557.847 541.621 555.473 544.487 552.789 547.03C551.406 548.348 549.927 549.577 548.424 550.727C542.577 555.18 536.076 558.59 529.324 560.744C519.485 563.874 508.951 564.458 499.908 570.003C495.761 572.543 492.123 576.082 489.33 580.204C487.58 582.765 486.167 585.557 485.163 588.471L485.125 579.66C486.088 569.904 487.076 559.967 490.712 550.643C493.057 544.6 496.447 538.968 500.155 533.625C506.079 525.072 512.886 517.101 520.743 510.476C527.096 505.119 534.371 500.568 542.136 499.413C549.891 498.248 558.146 501.119 561.697 507.954C563.979 512.344 564.145 517.785 563.673 523.027Z" fill="#5193F4"/>
<g opacity="0.309998">
<g opacity="0.309998">
<path opacity="0.309998" d="M490.585 571.426C496.118 558.333 505.675 546.797 517.331 539.142C524.598 534.373 532.558 531.114 539.974 526.644C547.39 522.175 554.53 516.1 558.008 507.951" stroke="#0B43A4" stroke-miterlimit="10" stroke-linecap="round" stroke-linejoin="round"/>
</g>
</g>
<path d="M478.479 579.447C492.319 565.717 511.952 559.426 531.25 556.658C547.349 554.35 564.255 554.264 579.312 560.409C584.029 562.333 588.681 565.01 591.469 569.272C594.259 573.534 594.655 579.689 591.247 583.476C588.375 586.671 583.705 587.448 579.409 587.603C565.273 588.111 551.442 584.001 537.597 581.1C513.799 576.11 487.884 574.908 466.25 586.008" fill="#52D2BC"/>
<path d="M495.736 572.226C524.381 560.145 565.756 564.036 583.802 576.525" stroke="#00AD9F" stroke-miterlimit="10" stroke-linecap="round" stroke-linejoin="round"/>
<path d="M156.919 431.724C143.975 425.505 137.771 408.933 127.136 405.371C113.955 400.815 110.26 415.539 88.9493 411.897C71.0645 408.843 65.6303 388.728 35.7323 394.95C26.6027 396.851 20.5421 404.57 23.9711 413.827C26.5343 423.038 39.2189 428.866 46.7699 433.569C53.4641 437.349 59.3897 439.376 63.3569 446.405C63.3983 446.479 63.4397 446.558 63.4757 446.634C66.1451 452.347 65.0795 457.441 71.3129 461.621C85.9163 472.303 104.105 455.34 120.718 455.837C132.432 456.188 132.104 468.354 146.193 471.877C160.143 475.363 155.567 462.875 184.833 474.217C185.885 474.626 187.071 474.098 187.478 473.045C187.758 472.311 187.591 471.474 187.046 470.907C166.56 449.463 175.97 440.881 156.919 431.724Z" fill="#4A84D8"/>
<path d="M156.919 431.724C143.975 425.505 137.771 408.933 127.136 405.371C113.955 400.815 110.26 415.539 88.9493 411.897C71.0645 408.843 65.6303 388.728 35.7323 394.95C26.6027 396.851 20.5421 404.57 23.9711 413.827C26.5343 423.038 39.2189 428.866 46.7699 433.569C53.4641 437.349 59.3897 439.376 63.3569 446.405C63.3983 446.479 63.4397 446.558 63.4757 446.634C66.1451 452.347 65.0795 457.441 71.3129 461.621C85.9163 472.303 104.105 455.34 120.718 455.837C132.432 456.188 132.104 468.354 146.193 471.877C160.143 475.363 155.567 462.875 184.833 474.217C185.885 474.626 187.071 474.098 187.478 473.045C187.758 472.311 187.591 471.474 187.046 470.907C166.56 449.463 175.97 440.881 156.919 431.724Z" fill="#00AD9F"/>
<g opacity="0.5">
<g opacity="0.5">
<path opacity="0.5" d="M173.484 459.67C162.349 453.917 155.925 441.785 144.191 436.986C141.534 435.901 138.744 435.296 135.869 435.361C131.79 435.455 127.794 437.12 123.687 436.7C117.81 436.103 114.114 430.973 108.903 428.823C102.936 426.363 96.8524 430.166 90.6838 428.672C84.4198 427.157 79.2952 422.579 74.3362 418.724C64.0366 410.715 52.3348 406.223 39.1966 406.257C38.5288 406.259 38.8258 408.019 39.58 408.017C54.0664 407.978 65.671 413.801 76.8598 422.486C81.0502 425.736 85.5178 429.156 90.7756 430.429C97.0774 431.957 103.449 428.048 109.461 430.829C114.183 433.012 117.684 437.478 123.023 438.338C129.585 439.395 135.653 435.957 142.306 438.032C155.034 442.005 161.71 455.319 173.291 461.303C174.105 461.724 174.076 459.976 173.484 459.67Z" fill="#4CA1FF"/>
</g>
</g>
<path d="M282.927 518.755C240.343 523.257 233.531 526.935 223.322 522.521C210.31 516.898 196.637 518.293 183.52 512.918C170.405 507.541 156.162 503.434 142.171 505.705C137.748 506.424 132.839 508.22 132.222 513.409C131.975 515.492 132.645 517.596 133.865 519.299C136.947 523.597 141.983 525.041 146.798 526.368L162.898 530.808C168.134 532.254 167.799 539.965 162.422 540.737C162.377 540.744 162.332 540.75 162.287 540.757C157.778 541.369 153.212 540.474 148.768 539.491C139.1 537.349 129.414 534.747 119.51 534.732C107.53 534.716 94.8271 539.043 88.9015 550.216C86.7991 554.178 86.0107 558.778 86.7577 563.199C88.8457 575.558 100.403 579.682 110.647 578.757C117.854 578.107 124.667 575.322 131.473 572.86C148.096 566.846 162.32 573.477 179.99 573.938C228.76 575.207 282.927 518.755 282.927 518.755Z" fill="#7EE8D4"/>
<path d="M99.9941 557.728C130.315 554.265 160.859 550.756 189.951 541.535C198.483 538.831 209.474 538.083 233.56 520.308" stroke="#00AD9F" stroke-miterlimit="10" stroke-linecap="round" stroke-linejoin="round"/>
<path d="M149.109 381.883C150.119 382.672 151.176 383.32 152.279 383.847C157.483 386.414 163.443 386.769 167.583 391.44C170.346 394.377 171.845 398.317 173.91 401.815C174.331 402.591 174.808 403.327 175.326 404.032C181.727 412.811 188.027 413.83 194.766 413.679C197.529 413.612 200.391 413.347 203.332 413.349C207.834 413.344 212.624 413.927 217.781 416.76C221.037 418.515 224.441 421.172 228.039 425.109C228.685 425.809 229.845 425.87 230.763 425.285C231.583 424.747 231.999 423.789 231.821 422.929C230.017 414.825 226.493 409.506 222.25 405.51C210.324 394.222 192.714 393.326 191.647 370.025C191.422 365.035 192.482 361.495 191.685 357.938C191.276 356.147 190.39 354.347 188.634 352.349C185.028 348.463 179.841 346.744 175.22 343.635C162.71 334.713 168.673 320.113 167.563 306.219C166.818 294.879 156.621 287.497 148.283 281.074C137.859 273.403 137.883 259.566 130.846 249.283C123.826 238.99 106.348 234.845 97.0477 248.674C87.1747 262.48 92.5963 279.739 95.4367 293.741C96.1783 297.4 97.4689 300.651 99.1735 303.609C104.376 312.697 113.309 319.171 121.027 326.87C125.785 331.595 129.743 336.95 132.515 342.996C134.133 346.528 135.35 350.283 136.083 354.293C136.248 355.225 136.43 356.149 136.61 357.074C138.414 366.785 140.536 375.434 149.109 381.883Z" fill="#7EE8D4"/>
<g opacity="0.5">
<g opacity="0.5">
<path opacity="0.5" d="M104.754 248.875C105.255 261.633 106.228 274.889 115.794 284.367C120.258 288.792 125.622 292.239 129.837 296.922C132.805 300.22 134.289 303.707 135.442 307.955C136.078 310.296 136.612 312.735 138.024 314.76C139.698 317.16 142.167 318.337 144.574 319.867C147.792 321.912 150.186 324.61 152.056 327.924C154.92 333.002 156.466 338.697 159.033 343.919C160.155 346.197 161.443 348.401 163.08 350.354C165.639 353.408 169.52 355.327 171.244 359.015C174.177 365.286 172.944 372.846 175.779 379.335C182.394 394.466 198.081 402.01 212.193 408.657C213.026 409.05 212.988 407.309 212.385 407.025C198.66 400.561 183.225 393.32 176.679 378.65C173.998 372.645 174.787 366.163 172.836 360.038C170.967 354.171 165.238 351.768 161.976 346.833C156.461 338.486 155.496 327.281 147.726 320.398C145.157 318.125 141.519 317.025 139.282 314.402C136.616 311.279 136.542 306.711 135.09 303.008C133.218 298.238 129.641 294.532 125.829 291.225C120.245 286.383 114.062 282.134 110.602 275.393C106.477 267.357 106.203 257.965 105.856 249.125C105.82 248.209 104.707 247.674 104.754 248.875Z" fill="#4CA1FF"/>
</g>
</g>
<g opacity="0.369995">
<g opacity="0.369995">
<path opacity="0.369995" d="M203.331 413.35C207.833 413.343 212.623 413.926 217.782 416.761C218.241 409.611 220.646 408.126 222.251 405.511C210.323 394.223 192.715 393.327 191.648 370.026C191.423 365.034 192.483 361.494 191.685 357.939C188.127 365.411 181.742 366.944 182.243 374.571C182.678 382.439 192.742 389.723 194.546 399.65C196.029 407.847 199.053 409.937 203.331 413.35Z" fill="#5A4FD1"/>
</g>
</g>
<path d="M318.75 530.779C310.704 527.602 299.962 526.297 294.803 533.241C290.483 539.055 292.72 547.294 295.703 553.893C298.221 559.465 301.422 565.128 306.732 568.158C310.36 570.226 314.612 570.849 318.759 571.34C330.326 572.717 341.977 573.392 353.625 573.358C367.127 573.32 383.482 578.833 394.653 587.252C380.319 560.605 345.826 541.471 318.75 530.779Z" fill="#5084DA"/>
<g opacity="0.309998">
<g opacity="0.309998">
<path opacity="0.309998" d="M304.635 548.102C314.875 548.538 325.209 549.258 335.039 552.165C345.09 555.136 383.754 572.881 389.798 580.432" stroke="#0B43A4" stroke-miterlimit="10" stroke-linecap="round" stroke-linejoin="round"/>
</g>
</g>
<path d="M711.855 332.619C711.607 333.819 711.504 335 711.52 336.17C711.538 341.721 713.768 346.979 711.529 352.512C710.188 356.132 707.452 359.091 705.334 362.349C704.848 363.037 704.421 363.761 704.038 364.506C699.241 373.725 701.05 379.556 704.047 385.263C705.281 387.605 706.723 389.943 707.974 392.463C709.895 396.317 711.434 400.67 711.202 406.295C711.085 409.832 710.257 413.878 708.417 418.635C708.089 419.487 708.53 420.506 709.421 421.042C710.233 421.519 711.23 421.465 711.893 420.945C718.067 415.953 721.123 410.67 722.743 405.335C727.335 390.312 720.608 374.845 740.117 364.014C744.296 361.698 747.781 361.098 750.488 358.904C751.849 357.788 753.012 356.265 753.977 353.909C755.773 349.164 755.039 343.991 755.734 338.71C758.054 324.195 773.1 323.09 784.53 316.226C793.93 310.761 795.911 298.883 797.864 289.007C800.001 276.812 811.867 270.944 817.681 260.54C823.511 250.145 819.623 233.406 803.817 231.326C787.79 228.743 775.31 240.732 764.525 249.124C761.704 251.318 759.469 253.806 757.66 256.526C752.089 264.852 750.344 275.26 747.034 285.147C745.009 291.235 742.108 296.905 738.108 301.851C735.768 304.742 733.072 307.381 729.949 309.716C729.218 310.256 728.503 310.803 727.79 311.352C720.236 317.029 713.731 322.53 711.855 332.619Z" fill="#7EE8D4"/>
<g opacity="0.5">
<g opacity="0.5">
<path opacity="0.5" d="M806.731 237.72C795.69 243.757 784.966 250.285 781.087 262.961C779.319 268.728 778.646 274.863 776.183 280.407C774.616 283.936 772.252 286.519 769.367 289.025C767.39 290.744 765.356 292.476 764.32 294.958C763.117 297.834 763.513 301.085 762.881 304.084C762.183 307.396 760.491 310.317 758.475 313.001C755.03 317.586 750.663 321.42 747.443 326.184C743.917 331.411 744.143 338.793 739.404 343.022C735.001 346.953 729.551 349.095 725.638 353.683C715.338 365.761 715.644 382.724 715.954 397.666C715.973 398.588 717.08 399.117 717.057 397.916C716.746 382.989 716.423 365.808 727.369 354.153C731.374 349.888 737.091 347.889 741.067 343.679C744.964 339.551 744.712 333.321 747.661 328.564C752.897 320.113 762.588 314.182 764.192 303.74C764.906 299.1 764.849 295.406 768.546 291.943C770.477 290.13 772.601 288.589 774.252 286.494C777.607 282.232 778.943 276.834 780.163 271.657C781.88 264.376 783.713 257.444 789.052 251.889C794.21 246.522 800.91 242.891 807.374 239.356C807.964 239.034 807.448 237.327 806.731 237.72Z" fill="#4CA1FF"/>
</g>
</g>
<path d="M665.342 554.817C677.603 561.733 682.604 578.338 692.774 582.505C705.372 587.806 709.931 573.647 730.539 578.575C747.832 582.712 751.855 602.733 781.494 598.57C790.546 597.299 796.967 590.138 794.209 580.867C792.292 571.692 780.264 565.178 773.181 560.093C766.878 555.967 761.213 553.602 757.784 546.474C757.748 546.398 757.712 546.319 757.683 546.242C755.441 540.484 756.81 535.571 750.982 531.082C737.387 519.697 718.51 535.118 702.296 533.563C690.862 532.468 691.964 520.59 678.413 516.241C664.994 511.934 668.666 524.442 640.775 511.468C639.773 511.001 638.577 511.441 638.115 512.443C637.791 513.145 637.902 513.973 638.397 514.564C657.054 536.849 647.298 544.64 665.342 554.817Z" fill="#4A84D8"/>
<path d="M665.342 554.817C677.603 561.733 682.604 578.338 692.774 582.505C705.372 587.806 709.931 573.647 730.539 578.575C747.832 582.712 751.855 602.733 781.494 598.57C790.546 597.299 796.967 590.138 794.209 580.867C792.292 571.692 780.264 565.178 773.181 560.093C766.878 555.967 761.213 553.602 757.784 546.474C757.748 546.398 757.712 546.319 757.683 546.242C755.441 540.484 756.81 535.571 750.982 531.082C737.387 519.697 718.51 535.118 702.296 533.563C690.862 532.468 691.964 520.59 678.413 516.241C664.994 511.934 668.666 524.442 640.775 511.468C639.773 511.001 638.577 511.441 638.115 512.443C637.791 513.145 637.902 513.973 638.397 514.564C657.054 536.849 647.298 544.64 665.342 554.817Z" fill="#00AD9F"/>
<g opacity="0.5">
<g opacity="0.5">
<path opacity="0.5" d="M650.989 526.447C661.838 533.012 667.472 546.1 679.436 551.08C685.895 553.768 691.694 550.972 698.218 552.103C704.123 553.125 707.32 558.646 712.553 560.961C718.124 563.425 724.215 560.291 729.98 562.075C736.176 563.992 740.957 569.028 745.685 573.199C755.083 581.482 766.171 586.501 778.748 587.295C779.56 587.347 779.327 585.583 778.654 585.538C764.504 584.647 753.514 578.318 743.128 569.088C739.479 565.848 735.676 562.521 731.066 560.736C724.696 558.27 717.661 562.024 711.696 558.799C707.412 556.482 704.411 552.07 699.595 550.677C693.345 548.868 686.942 552.022 680.619 549.817C668.053 545.439 662.248 531.511 651.182 524.815C650.411 524.347 650.42 526.104 650.989 526.447Z" fill="#4CA1FF"/>
</g>
</g>
<path d="M227.383 521.241C227.383 521.241 173.932 509.548 132.825 513.947C131.526 514.086 133.108 505.986 133.108 505.986C133.108 505.986 124.641 514.977 122.502 515.319C99.896 518.932 77.8694 526.715 62.8484 541.975C62.8484 541.975 90.194 429.63 239.959 446.334L227.383 521.241Z" fill="#5084DA"/>
<path d="M258.455 527.267C258.455 527.267 234.508 516.517 204.613 493.176C203.42 492.244 208.84 485.071 208.84 485.071C208.84 485.071 196.931 487.011 194.861 485.271C160.598 456.44 121.399 411.948 101.66 349.295C101.66 349.295 134.474 350.681 180.396 367.454C182.353 368.166 187.601 377.967 187.601 377.967C187.601 377.967 189.738 371.005 191.462 371.702C233.55 388.652 284.576 418.349 331.139 470.309L258.455 527.267Z" fill="#5193F4"/>
<g opacity="0.399994">
<g opacity="0.399994">
<path opacity="0.399994" d="M101.661 350.823C121.768 359.74 141.131 370.288 160.035 381.552C178.963 392.797 197.221 405.149 215.023 418.105C223.962 424.54 232.483 431.526 241.157 438.305L253.795 448.939C255.89 450.723 258.025 452.462 260.088 454.283L266.163 459.879C282.633 474.502 297.774 490.549 312.298 507.034L300.665 495.355L294.876 489.5C292.911 487.585 290.864 485.751 288.862 483.871L276.894 472.575L264.528 461.717C256.356 454.4 247.74 447.603 239.33 440.569C230.631 433.889 222.082 427.019 213.131 420.679C195.558 407.559 177.347 395.295 158.757 383.639C149.472 377.792 140.065 372.138 130.552 366.661C121.061 361.139 111.433 355.857 101.661 350.823Z" fill="#5084DA"/>
</g>
<g opacity="0.399994">
<path opacity="0.399994" d="M226.956 428.975C221.515 427.65 216.084 426.466 210.675 425.273C205.252 424.137 199.834 423.055 194.387 422.175C188.948 421.237 183.476 420.614 177.984 420.067C172.483 419.619 166.971 419.408 161.357 419.424C166.813 418.172 172.46 417.538 178.094 417.574C183.726 417.619 189.353 418.121 194.904 419.021C205.976 420.936 216.878 424.022 226.956 428.975Z" fill="#5084DA"/>
</g>
<g opacity="0.399994">
<path opacity="0.399994" d="M174.369 392.965C170.493 392.731 166.643 392.594 162.806 392.448C158.964 392.34 155.136 392.272 151.311 392.342C147.484 392.376 143.673 392.626 139.861 392.929C136.052 393.303 132.265 393.838 128.436 394.543C132.006 393.015 135.779 391.885 139.627 391.215C143.475 390.551 147.376 390.2 151.275 390.128C159.063 390.07 166.883 390.828 174.369 392.965Z" fill="#5084DA"/>
</g>
<g opacity="0.399994">
<path opacity="0.399994" d="M274.391 468.846C269.54 466.725 264.558 465.138 259.548 463.782C254.53 462.47 249.449 461.453 244.31 460.956C239.185 460.377 234.008 460.179 228.835 460.467C223.642 460.629 218.492 461.414 213.236 462.191C218.134 460.222 223.28 458.575 228.608 457.983C233.911 457.171 239.327 457.232 244.661 457.781C249.999 458.363 255.268 459.563 260.292 461.412C265.323 463.21 270.15 465.649 274.391 468.846Z" fill="#5084DA"/>
</g>
<g opacity="0.399994">
<path opacity="0.399994" d="M226.956 428.975C222.98 422.357 218.963 416.019 214.407 410.041C212.189 407.013 209.777 404.141 207.282 401.325C204.824 398.454 202.093 395.864 199.416 393.04C202.865 394.779 206.166 396.928 209.039 399.552C211.988 402.103 214.614 405.012 216.957 408.119C219.274 411.247 221.378 414.537 223.063 418.038C224.769 421.518 226.19 425.165 226.956 428.975Z" fill="#5084DA"/>
</g>
<g opacity="0.399994">
<path opacity="0.399994" d="M273.804 467.791C271.738 463.629 269.597 459.565 267.499 455.501C265.348 451.461 263.177 447.455 260.849 443.547C258.547 439.625 256.04 435.846 253.446 432.11C250.757 428.447 247.929 424.888 244.81 421.425C248.723 423.929 252.298 427.039 255.397 430.554C258.475 434.082 261.186 437.918 263.598 441.918C268.264 449.991 271.973 458.652 273.804 467.791Z" fill="#5084DA"/>
</g>
</g>
<g opacity="0.5">
<g opacity="0.5">
<path opacity="0.5" d="M85.8569 517.393C92.6699 508.085 102.026 500.855 111.961 494.983C121.956 489.094 132.922 485 144.127 482.095L152.626 480.293C155.454 479.665 158.35 479.464 161.212 479.053C166.94 478.182 172.73 478.094 178.496 477.921C181.379 477.737 184.261 478.031 187.139 478.132L195.765 478.551C201.478 479.276 207.177 480.065 212.834 480.961C207.083 480.783 201.383 480.31 195.677 480.117L187.112 480.149C184.261 480.196 181.41 480.049 178.573 480.382C172.901 480.911 167.204 481.008 161.608 482.056C158.809 482.525 155.962 482.713 153.2 483.364L144.893 485.195C133.91 487.967 123.209 491.867 113.152 497.122C110.645 498.45 108.125 499.762 105.76 501.339C104.564 502.102 103.335 502.824 102.163 503.627L98.6999 506.113C94.0865 509.441 89.7215 513.151 85.8569 517.393Z" fill="#4CA1FF"/>
</g>
</g>
<g opacity="0.5">
<g opacity="0.5">
<path opacity="0.5" d="M178.3 479.354C175.186 484.32 172.151 489.015 169.615 493.981C168.316 496.443 167.263 498.996 166.26 501.591C165.306 504.218 164.645 506.91 163.972 509.797C162.593 504.003 164.104 497.768 166.771 492.525C168.168 489.904 169.795 487.42 171.728 485.197C173.649 482.974 175.793 480.926 178.3 479.354Z" fill="#4CA1FF"/>
</g>
</g>
<g opacity="0.5">
<path opacity="0.5" d="M502.844 537.494H414.324V515.43H502.844V537.494Z" fill="#605ACA"/>
</g>
<g opacity="0.5">
<g opacity="0.5">
<path opacity="0.5" d="M558.7 585.631C558.7 591.294 554.098 595.897 548.421 595.897H368.748C363.069 595.897 358.469 591.294 358.469 585.631C358.469 584.769 358.568 583.932 358.794 583.138C359.885 587.615 363.933 590.925 368.748 590.925H548.421C553.236 590.925 557.284 587.615 558.375 583.138C558.6 583.932 558.7 584.769 558.7 585.631Z" fill="#605ACA"/>
</g>
</g>
<path d="M181.615 523.92C178.141 523.92 175.315 521.094 175.315 517.62V151.808C175.315 148.335 178.141 145.508 181.615 145.508H735.555C739.027 145.508 741.855 148.335 741.855 151.808V517.62C741.855 521.094 739.027 523.92 735.555 523.92H181.615Z" fill="white"/>
<path d="M502.844 576.308H414.324V515.43H502.844V576.308Z" fill="#418349"/>
<path d="M548.423 575.35H368.747C363.071 575.35 358.472 579.951 358.472 585.624C358.472 591.298 363.071 595.899 368.747 595.899H548.423C554.096 595.899 558.697 591.298 558.697 585.624C558.697 579.951 554.096 575.35 548.423 575.35Z" fill="#418349"/>
<path d="M735.554 141.008H181.615C175.651 141.008 170.815 145.845 170.815 151.808V517.621C170.815 523.584 175.651 528.421 181.615 528.421H735.554C741.517 528.421 746.354 523.584 746.354 517.621V151.808C746.354 145.845 741.517 141.008 735.554 141.008ZM735.554 150.008C736.546 150.008 737.354 150.817 737.354 151.808V517.621C737.354 518.612 736.546 519.421 735.554 519.421H181.615C180.623 519.421 179.815 518.612 179.815 517.621V151.808C179.815 150.817 180.623 150.008 181.615 150.008H735.554Z" fill="#418349"/>
<path d="M746.352 516.876V481.114H170.817V516.876C170.817 523.617 176.28 529.061 183.001 529.061H734.166C740.889 529.061 746.352 523.617 746.352 516.876Z" fill="#418349"/>
<path d="M502.948 223.582C502.948 248.083 483.085 267.945 458.585 267.945C434.084 267.945 414.222 248.083 414.222 223.582C414.222 199.082 434.084 179.219 458.585 179.219C483.085 179.219 502.948 199.082 502.948 223.582Z" fill="#C8EEFB"/>
<path d="M484.456 285.242V255.287C484.456 243.902 475.225 234.673 463.842 234.673H453.328C441.943 234.673 432.713 243.902 432.713 255.287V285.242C432.713 288.396 435.271 290.955 438.426 290.955H478.743C481.898 290.955 484.456 288.396 484.456 285.242ZM475.728 213.456C475.728 222.924 468.052 230.601 458.584 230.601C449.116 230.601 441.441 222.924 441.441 213.456C441.441 203.988 449.116 196.313 458.584 196.313C468.052 196.313 475.728 203.988 475.728 213.456Z" fill="#5084DA"/>
<path d="M564.728 318.41H352.44C342.747 318.41 334.888 310.551 334.888 300.856C334.888 291.161 342.747 283.302 352.44 283.302H564.728C574.423 283.302 582.282 291.161 582.282 300.856C582.282 310.551 574.423 318.41 564.728 318.41Z" fill="#C8EEFB"/>
<path d="M557.359 305.44H359.809C357.278 305.44 355.227 303.388 355.227 300.857C355.227 298.324 357.278 296.272 359.809 296.272H557.359C559.89 296.272 561.944 298.324 561.944 300.857C561.944 303.388 559.89 305.44 557.359 305.44Z" fill="#5084DA"/>
<path d="M564.898 381.549H352.61C342.917 381.549 335.058 373.692 335.058 363.996C335.058 354.301 342.917 346.442 352.61 346.442H564.898C574.593 346.442 582.452 354.301 582.452 363.996C582.452 373.692 574.593 381.549 564.898 381.549Z" fill="#C8EEFB"/>
<path d="M444.413 364.305C444.413 361.774 442.361 359.721 439.828 359.721C437.297 359.721 435.245 361.774 435.245 364.305C435.245 366.836 437.297 368.89 439.828 368.89C442.361 368.89 444.413 366.836 444.413 364.305ZM430.781 364.305C430.781 361.774 428.729 359.721 426.197 359.721C423.666 359.721 421.614 361.774 421.614 364.305C421.614 366.836 423.666 368.89 426.197 368.89C428.729 368.89 430.781 366.836 430.781 364.305ZM417.15 364.305C417.15 361.774 415.098 359.721 412.567 359.721C410.035 359.721 407.983 361.774 407.983 364.305C407.983 366.836 410.035 368.89 412.567 368.89C415.098 368.89 417.15 366.836 417.15 364.305ZM403.52 364.305C403.52 361.774 401.468 359.721 398.936 359.721C396.405 359.721 394.351 361.774 394.351 364.305C394.351 366.836 396.405 368.89 398.936 368.89C401.468 368.89 403.52 366.836 403.52 364.305ZM389.889 364.305C389.889 361.774 387.837 359.721 385.306 359.721C382.774 359.721 380.722 361.774 380.722 364.305C380.722 366.836 382.774 368.89 385.306 368.89C387.837 368.89 389.889 366.836 389.889 364.305V364.305ZM376.258 364.305C376.258 361.774 374.206 359.721 371.675 359.721C369.142 359.721 367.09 361.774 367.09 364.305C367.09 366.836 369.142 368.89 371.675 368.89C374.206 368.89 376.258 366.836 376.258 364.305ZM358.043 368.89C355.511 368.89 353.459 366.836 353.459 364.305C353.459 361.774 355.511 359.721 358.043 359.721C360.574 359.721 362.626 361.774 362.626 364.305C362.626 366.836 360.574 368.89 358.043 368.89Z" fill="#5084DA"/>
<path d="M488.732 447.694H428.436C418.741 447.694 410.883 439.835 410.883 430.14C410.883 420.444 418.741 412.587 428.436 412.587H488.732C498.427 412.587 506.286 420.444 506.286 430.14C506.286 439.835 498.427 447.694 488.732 447.694Z" fill="#5084DA"/>
<g opacity="0.0899963">
<g opacity="0.0899963">
<path opacity="0.0899963" d="M585.386 477.477C585.386 459.174 600.275 444.285 618.578 444.285C636.88 444.285 651.772 459.174 651.772 477.477V496.072H585.386V477.477ZM681.148 528.089V508.025C681.148 501.424 675.796 496.072 669.196 496.072H668.152V477.477C668.152 450.138 645.914 427.901 618.578 427.901C591.243 427.901 569.004 450.138 569.004 477.477V496.072H567.962C561.359 496.072 556.01 501.424 556.01 508.025V528.089H681.148Z" fill="black"/>
</g>
</g>
<g opacity="0.0899963">
<g opacity="0.0899963">
<path opacity="0.0899963" d="M704.574 340.045C699.75 336.009 693.756 333.565 686.627 332.937C686.607 332.278 686.609 331.628 686.637 330.784C690.306 330.195 693.443 326.988 695.268 322.659C700.217 317.892 703.579 311.992 701.955 304.552C701.86 304.122 701.954 303.759 702.135 303.46C700.006 299.653 696.08 297.82 691.726 293.877C677.092 280.616 659.699 299.041 666.287 306.628C666.803 307.224 667.521 308.795 668.13 310.807C668.117 310.854 668.099 310.887 668.088 310.935C667.777 312.359 668.047 314.755 669.165 315.939C669.242 316.686 669.294 317.437 669.294 318.182C669.32 318.256 669.365 318.308 669.381 318.393C669.595 319.561 670.038 320.583 670.612 321.514C671.494 325.053 673.611 328.775 678.068 330.269C678.417 330.386 678.771 330.498 679.148 330.586C679.396 331.583 679.428 332.155 679.304 332.978C674.988 333.459 671.08 334.809 667.595 336.897C639.618 350.42 611.962 393.994 615.008 403.601C618.057 413.209 625.794 424.456 630.987 431.969L631.802 431.825C632.223 433.272 632.641 434.721 633.06 436.17C633.269 436.892 633.505 437.657 634.072 438.15C634.83 438.813 635.942 438.802 636.948 438.755C638.187 438.697 639.535 438.595 640.449 437.758C640.979 437.272 641.294 436.591 641.468 435.895C641.947 434.014 641.465 432.003 640.541 430.286L641.15 430.18C641.15 430.18 629.09 412.133 629.531 401.13C629.689 397.11 639.105 387.639 646.76 380.577C646.584 383.027 646.487 385.522 646.487 388.053L642.818 475.756C642.818 475.756 645.986 476.382 651.062 477.194L655.987 529.569H675.812L676.282 480.231C676.541 480.25 676.8 480.268 677.06 480.288C677.288 480.303 677.519 480.319 677.749 480.335C678.725 480.405 679.702 480.468 680.687 480.526C681.018 480.546 681.351 480.564 681.682 480.583C682.038 480.601 682.395 480.625 682.751 480.643L684.697 529.569H704.241L708.246 479.739C708.272 479.736 708.293 479.73 708.318 479.727C709.127 479.595 709.922 479.457 710.693 479.298C711.036 479.23 711.368 479.152 711.704 479.079C712.352 478.935 712.988 478.782 713.609 478.616C713.943 478.526 714.278 478.434 714.604 478.341C715.227 478.159 715.826 477.963 716.415 477.757C716.687 477.664 716.969 477.574 717.232 477.473C718.062 477.16 718.863 476.83 719.612 476.465L719.21 381.6C719.21 379.553 719.147 377.564 719.032 375.625C719.023 375.48 719.012 375.337 719.003 375.192C718.886 373.383 718.719 371.622 718.505 369.912C718.483 369.743 718.461 369.574 718.438 369.403C718.416 369.25 718.4 369.093 718.379 368.938C722.245 369.705 727.276 370.63 733.859 371.741C738.135 372.463 742.297 372.099 746.275 370.972V351.775C729.904 353.646 711.573 344.269 704.574 340.045Z" fill="black"/>
</g>
</g>
<g opacity="0.300003">
<g opacity="0.300003">
<path opacity="0.300003" d="M468.045 362.539C468.045 379.378 454.394 393.029 437.555 393.029C420.714 393.029 407.064 379.378 407.064 362.539C407.064 345.7 420.714 332.048 437.555 332.048C454.394 332.048 468.045 345.7 468.045 362.539Z" fill="#94EBFF"/>
</g>
</g>
<g opacity="0.5">
<g opacity="0.5">
<path opacity="0.5" d="M454.101 362.539C454.101 371.677 446.692 379.084 437.554 379.084C428.415 379.084 421.006 371.677 421.006 362.539C421.006 353.4 428.415 345.993 437.554 345.993C446.692 345.993 454.101 353.4 454.101 362.539Z" fill="#94EBFF"/>
</g>
</g>
<path d="M573.02 508.766V477.476C573.02 459.174 587.909 444.284 606.213 444.284C624.514 444.284 639.406 459.174 639.406 477.476V508.766H573.02ZM606.213 427.901C578.877 427.901 556.638 450.14 556.638 477.476V525.149H655.787V477.476C655.787 450.14 633.548 427.901 606.213 427.901Z" fill="#F9714E"/>
<g opacity="0.399994">
<g opacity="0.399994">
<path opacity="0.399994" d="M639.405 508.766H573.019V477.476C573.019 459.174 587.911 444.284 606.215 444.284C624.515 444.284 639.405 459.174 639.405 477.476V508.766ZM606.213 437.7C584.386 437.7 566.627 455.457 566.627 477.286V515.35H645.799V477.286C645.799 455.457 628.04 437.7 606.213 437.7" fill="#F9714E"/>
</g>
</g>
<path d="M656.602 595.899H555.823C549.095 595.899 543.643 590.447 543.643 583.718V508.252C543.643 501.525 549.095 496.073 555.823 496.073H656.602C663.328 496.073 668.782 501.525 668.782 508.252V583.718C668.782 590.447 663.328 595.899 656.602 595.899Z" fill="#FFB255"/>
<path d="M624.406 539.07C624.406 529.023 616.261 520.878 606.213 520.878C596.166 520.878 588.021 529.023 588.021 539.07C588.021 546.094 592.009 552.178 597.838 555.211V574.88H614.587V555.211C620.417 552.178 624.406 546.094 624.406 539.07Z" fill="#F9714E"/>
<g opacity="0.399994">
<g opacity="0.399994">
<path opacity="0.399994" d="M656.829 496.073H626.767C620.206 516.469 609.993 535.766 596.986 552.667C584.895 568.377 565.858 588.314 544.325 587.896C545.958 592.554 550.38 595.899 555.597 595.899H656.829C663.431 595.899 668.782 590.547 668.782 583.945V508.027C668.782 501.424 663.431 496.073 656.829 496.073Z" fill="#FFB255"/>
</g>
</g>
<path d="M618.308 427.924C619.103 430.673 619.899 433.421 620.695 436.17C620.903 436.892 621.137 437.657 621.706 438.152C622.464 438.812 623.578 438.801 624.581 438.756C625.821 438.697 627.169 438.596 628.084 437.757C628.615 437.271 628.928 436.591 629.104 435.896C629.615 433.871 629.029 431.695 627.961 429.9C626.896 428.104 625.384 426.622 623.89 425.164" fill="#FFC2D3"/>
<path d="M766.483 333.014C767.447 329.179 768.761 325.431 770.399 321.831C771.251 322.913 771.155 324.439 771.017 325.811C771.847 323.8 773.441 322.117 775.402 321.178C775.637 321.066 775.909 320.963 776.149 321.062C776.419 321.174 776.528 321.489 776.6 321.772C777.346 324.715 776.987 327.922 775.61 330.628C774.235 333.335 771.852 335.515 769.037 336.647" fill="#FFC2D3"/>
<path d="M685.527 589.247C692.53 590.954 698.391 593.017 701.608 595.899H674.613L675.13 589.635L685.527 589.247Z" fill="#5084DA"/>
<path d="M652.513 589.247C645.511 590.954 639.649 593.017 636.432 595.899H663.427L662.91 589.635L652.513 589.247Z" fill="#5084DA"/>
<path d="M699.721 431.947L686.993 590.349C686.993 590.349 682.547 591.437 681.008 591.437C680.25 591.437 678.817 591.183 677.511 590.951C676.036 590.65 674.749 590.349 674.749 590.349L669.985 470.611H664.009L662.864 590.349C662.864 590.349 659.683 591.298 656.375 591.298C653.151 591.298 649.337 590.349 649.337 590.349L634.059 427.901L699.721 431.947Z" fill="#2E2C84"/>
<g opacity="0.300003">
<g opacity="0.300003">
<g opacity="0.300003">
<g opacity="0.5">
<g opacity="0.5">
<path opacity="0.5" d="M675.321 430.445L652.902 429.062C652.63 458.237 657.017 562.491 657.465 591.262C660.349 591.095 662.865 590.349 662.865 590.349L664.01 470.612H669.986L674.75 590.349C674.75 590.349 676.036 590.65 677.512 590.951C677.947 591.028 678.39 591.105 678.824 591.177C678.824 558.567 675.883 443.855 675.321 430.445Z" fill="#2E2C84"/>
</g>
</g>
</g>
</g>
</g>
<path d="M656.929 318.181C656.956 318.257 656.999 318.307 657.015 318.393C657.978 323.631 662.95 326.315 668.474 327.84C672.965 329.08 674.007 329.622 677.614 327.019C685.093 321.619 691.75 314.442 689.59 304.553C689.496 304.123 689.588 303.758 689.768 303.461C687.64 299.652 683.716 297.821 679.362 293.877C664.726 280.617 647.333 299.04 653.919 306.629C654.988 307.858 656.936 313.217 656.929 318.181Z" fill="#001F64"/>
<path d="M706.844 381.6C706.844 351.488 694.38 332.764 670.512 332.764C646.644 332.764 634.122 357.943 634.122 388.053L630.453 475.756C630.453 475.756 686.095 486.79 707.245 476.464L706.844 381.6Z" fill="#8FC2FF"/>
<g opacity="0.300003">
<g opacity="0.300003">
<path opacity="0.300003" d="M706.843 381.6C706.843 373.176 705.866 365.647 703.94 359.167C701.823 391.934 698.949 479.176 650.178 478.827C668.306 481.092 694.263 482.802 707.245 476.464L706.843 381.6Z" fill="#8FC2FF"/>
</g>
</g>
<path d="M682.769 314.647C681.876 308.722 676.596 302.78 670.149 305.86C666.011 307.836 661.73 308.063 658.355 306.257C658.256 307.399 658.116 309.062 657.988 310.808C657.275 309.499 656.082 309.298 655.724 310.934C655.34 312.687 655.814 315.945 657.698 316.557C657.695 316.861 657.691 317.167 657.696 317.426C657.786 321.854 659.595 328.903 666.783 330.586C667.17 332.15 667.035 332.661 666.588 334.744C666.984 336.135 672.573 337.03 674.418 335.39C674.26 333.471 674.21 332.546 674.271 330.784C678.522 330.102 682.07 325.912 683.676 320.526C690.087 316.931 685.501 310.372 682.769 314.647Z" fill="#FFC2D3"/>
<g opacity="0.300003">
<g opacity="0.300003">
<path opacity="0.300003" d="M682.768 314.647C682.417 312.309 681.375 309.978 679.854 308.191C680.031 318.487 675.648 328.057 665.704 330.269C666.052 330.386 666.405 330.498 666.783 330.586C667.17 332.15 667.035 332.661 666.588 334.744C666.984 336.135 672.573 337.03 674.418 335.39C674.26 333.471 674.209 332.546 674.271 330.784C678.522 330.102 682.07 325.911 683.676 320.526C690.087 316.931 685.501 310.372 682.768 314.647Z" fill="#FFC2D3"/>
</g>
</g>
<path d="M655.229 336.896C627.253 350.42 599.598 393.994 602.644 403.601C605.691 413.209 613.429 424.456 618.62 431.969L628.783 430.18C628.783 430.18 616.723 412.133 617.164 401.13C617.434 394.342 644.107 371.993 644.107 371.993L655.229 336.896Z" fill="#8FC2FF"/>
<path d="M689.698 338.431C694.079 341.579 730.63 363.482 750.731 344.139C765.248 330.171 766.709 327.473 766.709 327.473L771.69 336.289C771.69 336.289 748.974 376.379 721.491 371.74C694.011 367.103 693.316 365.678 693.316 365.678L689.698 338.431Z" fill="#8FC2FF"/>
<g opacity="0.0899963">
<g opacity="0.0899963">
<path opacity="0.0899963" d="M237.863 509.982C227.399 513.006 218.547 519.841 212.879 528.866H287.134C281.466 519.841 272.614 513.006 262.15 509.982V328.063H237.863V331.032H211.927V352.929H237.863V358.143H211.927V380.04H237.863V509.982Z" fill="black"/>
</g>
</g>
<path d="M227.826 352.929H258.935V331.031H227.826V352.929Z" fill="#FFB255"/>
<path d="M227.826 380.039H258.935V358.142H227.826V380.039Z" fill="#FFB255"/>
<g opacity="0.5">
<path opacity="0.5" d="M251.004 352.929H258.935V331.031H251.004V352.929Z" fill="#FFC87C"/>
</g>
<g opacity="0.5">
<path opacity="0.5" d="M251.004 380.039H258.935V358.142H251.004V380.039Z" fill="#FFC87C"/>
</g>
<path d="M253.762 518.393H278.049V328.062H253.762V518.393Z" fill="#FFB255"/>
<g opacity="0.5">
<g opacity="0.5">
<path opacity="0.5" d="M265.527 524.946H266.282C267.101 524.946 267.763 524.284 267.763 523.467V336.096C267.763 335.279 267.101 334.616 266.282 334.616H265.527C264.71 334.616 264.048 335.279 264.048 336.096V523.467C264.048 524.284 264.71 524.946 265.527 524.946Z" fill="#FFC87C"/>
</g>
</g>
<path d="M244.68 552.078C244.68 563.782 254.202 573.304 265.904 573.304C277.608 573.304 287.13 563.782 287.13 552.078C287.13 540.375 277.608 530.853 265.904 530.853C254.202 530.853 244.68 540.375 244.68 552.078ZM222.083 552.078C222.083 527.915 241.741 508.255 265.904 508.255C290.067 508.255 309.727 527.915 309.727 552.078C309.727 576.241 290.067 595.899 265.904 595.899C241.741 595.899 222.083 576.241 222.083 552.078" fill="#FFB255"/>
<g opacity="0.5">
<g opacity="0.5">
<path opacity="0.5" d="M244.68 552.078C244.68 540.375 254.202 530.853 265.904 530.853C277.608 530.853 287.13 540.375 287.13 552.078C287.13 563.782 277.608 573.304 265.904 573.304C254.202 573.304 244.68 563.782 244.68 552.078ZM242.616 552.078C242.616 564.919 253.063 575.367 265.906 575.367C278.745 575.367 289.194 564.919 289.194 552.078C289.194 539.237 278.745 528.79 265.906 528.79C253.063 528.79 242.616 539.237 242.616 552.078Z" fill="#FFC87C"/>
</g>
</g>
<g opacity="0.0899963">
<g opacity="0.0899963">
<path opacity="0.0899963" d="M425.267 368.89C417.579 375.701 389.873 404.717 384.794 388.925C380.772 376.424 372.339 359.222 367.4 353.451C364.149 349.727 359.982 347.282 355.412 346.1V344.102C360.218 344.078 367.733 343.139 367.733 325.825C367.733 320.59 367.235 317.141 366.335 314.882C367.771 313.439 367.674 310.595 366.66 308.924C365.318 306.71 361.784 304.786 359.437 303.746C353.879 301.283 346.623 300.137 341.291 303.589C339.423 301.028 336.417 298.733 334.588 297.73C332.318 296.485 329.858 295.423 327.269 295.372C322.148 295.271 317.697 299.201 315.33 303.744C313.411 307.427 312.507 311.722 313.299 315.799C314.091 319.876 316.703 323.668 320.463 325.429C321.569 325.949 322.796 326.293 324.006 326.127C325.611 325.907 326.963 324.827 328.085 323.661C330.821 320.815 331.287 317.42 333.296 314.342C333.602 313.874 333.992 313.558 334.413 313.297C333.814 315.298 333.486 317.39 333.47 319.463C333.425 325.436 335.522 331.243 338.285 336.538C339.018 337.944 339.844 339.373 341.147 340.275C342.398 341.143 345.633 341.992 346.954 341.143L346.4 345.385C342.618 345.716 338.787 346.813 335.135 348.676C335.133 348.672 335.132 348.663 335.132 348.663C314.307 353.451 298.599 404.582 270.744 401.192V401.261C267.356 400.318 263.639 400.049 263.443 403.363C263.06 409.859 267.097 410.689 270.744 410.155V410.29C282.402 410.29 297.864 406.925 311.444 391.917C303.952 434.15 306.944 489.454 306.944 489.454C308.952 489.745 310.95 490.006 312.945 490.253L316.358 528.947H334.095L334.136 492.028C337.716 492.173 341.273 492.247 344.798 492.224L345.212 528.947H365.782L369.756 490.435C373.401 489.922 377.012 489.308 380.578 488.559C379.845 465.332 379.75 434.971 378.206 408.671C379.296 409.696 380.537 410.489 382.018 410.857C384.434 411.454 394.848 423.464 402.34 414.334C409.938 405.075 425.814 385.959 431.633 376.109C430.371 372.86 427.018 371.897 425.267 368.89Z" fill="black"/>
</g>
</g>
<path d="M357.756 339.58L356.586 348.542L366.011 349.577V340.123L357.756 339.58Z" fill="#F9ACC8"/>
<g opacity="0.100006">
<g opacity="0.100006">
<path opacity="0.100006" d="M285.116 405.13C285.116 405.13 272.638 398.983 272.276 405.13C271.588 416.776 285.116 410.214 285.116 410.214V405.13Z" fill="black"/>
</g>
</g>
<path d="M286.882 403.366C286.882 403.366 274.404 397.217 274.043 403.366C273.355 415.01 286.882 408.447 286.882 408.447V403.366Z" fill="#FFC2D3"/>
<path d="M349.244 325.825C349.244 333.972 357.655 344.104 365.802 344.104C370.595 344.104 378.332 343.388 378.332 325.825C378.332 307.364 372.142 311.074 363.995 311.074C355.848 311.074 349.244 317.678 349.244 325.825Z" fill="#FFC2D3"/>
<g opacity="0.300003">
<g opacity="0.300003">
<path opacity="0.300003" d="M361.643 332.673C361.668 325.821 362.548 317.685 365.075 311.052C364.719 311.066 364.359 311.073 363.995 311.073C355.848 311.073 349.244 317.678 349.244 325.824C349.244 333.816 357.339 343.695 365.336 344.069C362.732 341.074 361.626 337.321 361.643 332.673Z" fill="#FFC2D3"/>
</g>
</g>
<path d="M375.219 315.954C373.914 316.148 372.519 315.525 371.295 316.019C369.335 316.811 369.203 319.799 367.394 320.898C365.139 322.268 361.739 319.894 359.766 321.656C358.605 322.697 358.74 324.524 358.861 326.086C359.179 330.204 358.72 334.382 357.514 338.33C357.233 339.248 358.445 340.891 357.723 341.516C356.519 342.558 353.049 341.645 351.745 340.734C350.442 339.822 349.618 338.378 348.885 336.958C346.12 331.608 344.023 325.744 344.07 319.709C344.117 313.675 346.581 307.442 351.454 303.953C356.82 300.108 364.327 301.277 370.035 303.831C372.384 304.882 375.916 306.826 377.26 309.062C378.578 311.259 378.371 315.484 375.219 315.954Z" fill="#FFB255"/>
<g opacity="0.5">
<g opacity="0.5">
<path opacity="0.5" d="M373.663 305.775C371.74 307.495 369.803 310.597 368.354 311.608C366.351 313.009 363.953 313.291 361.675 313.99C351.184 317.212 350.459 333.3 355.04 341.89C356.125 342.05 357.167 341.996 357.724 341.515C358.445 340.891 357.234 339.247 357.515 338.329C358.721 334.382 359.18 330.204 358.861 326.086C358.739 324.523 358.604 322.695 359.767 321.658C361.738 319.896 365.14 322.27 367.395 320.898C369.202 319.798 369.335 316.81 371.296 316.018C372.52 315.525 373.915 316.15 375.22 315.954C378.371 315.484 378.578 311.259 377.261 309.063C376.528 307.845 375.146 306.721 373.663 305.775Z" fill="#FFC87C"/>
</g>
</g>
<path d="M345.187 297.754C342.917 296.496 340.456 295.423 337.87 295.371C332.747 295.27 328.296 299.239 325.929 303.829C324.01 307.548 323.106 311.888 323.898 316.006C324.69 320.125 327.3 323.957 331.062 325.737C332.167 326.259 333.395 326.608 334.605 326.441C336.21 326.218 337.562 325.129 338.685 323.95C341.419 321.075 341.886 317.646 343.894 314.536C345.52 312.021 349.086 313.054 351.465 311.413C357.504 307.249 348.904 299.815 345.187 297.754Z" fill="#FFB255"/>
<g opacity="0.5">
<g opacity="0.5">
<path opacity="0.5" d="M347.914 308.852C346.818 308.287 345.959 307.261 344.87 306.714C343.317 305.022 335.35 304.136 333.687 315.23C333.19 318.545 330.634 321.978 328.024 323.614C328.926 324.469 329.936 325.204 331.063 325.736C332.168 326.26 333.395 326.608 334.605 326.44C336.211 326.219 337.562 325.128 338.686 323.949C341.42 321.076 341.886 317.645 343.895 314.537C345.52 312.022 349.084 313.054 351.466 311.414C352.322 310.823 352.857 310.163 353.179 309.464C351.611 310.004 349.928 309.893 347.914 308.852Z" fill="#FFC87C"/>
</g>
</g>
<path d="M342.658 589.247C349.66 590.954 355.523 593.017 358.74 595.899H331.745L332.262 589.635L342.658 589.247Z" fill="#F9714E"/>
<path d="M366.858 589.247C373.86 590.954 379.723 593.017 382.939 595.899H355.945L356.461 589.635L366.858 589.247Z" fill="#F9714E"/>
<g opacity="0.100006">
<g opacity="0.100006">
<path opacity="0.100006" d="M436.849 362.851C436.7 362.774 436.444 362.643 436.284 362.598C435.278 362.328 434.331 363.026 433.497 363.645C432.023 364.743 429.24 366.999 428.022 368.37H428.031C427.633 368.725 427.273 369.114 426.983 369.535C426.044 370.899 425.774 372.813 426.657 374.213C427.343 375.304 428.596 376.117 429.885 376.108C431.762 376.098 434.297 375.102 435.553 373.633C436.809 372.166 436.707 370.528 435.798 368.822C435.184 367.677 434.298 367.036 433.312 366.779C434.453 366.084 435.546 365.305 436.536 364.407C436.768 364.196 437.002 363.969 437.105 363.674C437.205 363.377 437.126 362.995 436.849 362.851Z" fill="black"/>
</g>
</g>
<path d="M436.204 366.756C437.115 368.46 437.217 370.098 435.961 371.567C434.704 373.032 432.17 374.029 430.291 374.042C429.004 374.049 427.751 373.237 427.063 372.147C426.181 370.746 426.45 368.829 427.391 367.468C429.353 364.619 434.211 363.028 436.204 366.756Z" fill="#FFC2D3"/>
<path d="M433.029 365.147C434.435 364.366 435.753 363.421 436.944 362.339C437.175 362.129 437.41 361.902 437.511 361.607C437.612 361.31 437.533 360.928 437.257 360.784C437.108 360.705 436.852 360.575 436.69 360.532C435.686 360.26 434.739 360.959 433.904 361.58C432.43 362.676 429.649 364.931 428.428 366.305C429.404 366.594 432.14 365.64 433.029 365.147Z" fill="#FFC2D3"/>
<path d="M398.653 389.939C408.666 383.279 416.593 376.139 425.662 368.087C426.236 367.578 427.121 367.636 427.616 368.224C429.28 370.201 431.994 373.145 431.708 374.386C431.548 375.077 431.056 375.633 430.583 376.159C422.119 385.54 413.654 394.922 405.188 404.302C403.522 406.15 401.826 408.022 399.725 409.358C397.627 410.695 395.033 411.455 392.615 410.857C388.542 409.851 386.261 405.655 384.044 402.093C373.105 384.525 374.907 378.176 376.243 372.766C377.173 369 378.347 365.288 379.027 361.465C379.241 360.256 376.351 353.534 377.999 353.452C382.939 359.222 390.346 376.801 395.393 388.926C395.926 390.204 397.497 390.708 398.653 389.939Z" fill="#F9714E"/>
<path d="M319.651 446.101L332.379 590.445C332.379 590.445 336.825 591.437 338.364 591.437C339.122 591.437 340.555 591.205 341.861 590.994C343.336 590.721 344.621 590.445 344.621 590.445L344.749 481.335H355.273L356.506 590.445C356.506 590.445 359.689 591.311 362.997 591.311C366.221 591.311 370.035 590.445 370.035 590.445L385.312 442.413L319.651 446.101Z" fill="#4B48B5"/>
<path d="M352.391 456.919C352.467 461.808 352.129 466.221 353.831 470.662C355.162 474.132 358.187 476.393 362.513 476.307C368.815 476.177 373.187 472.741 373.21 466.378C373.214 465.559 373.617 456.932 374.029 456.914C374.026 456.914 352.391 456.919 352.391 456.919Z" fill="#568EDB"/>
<path d="M322.506 456.926C322.582 461.815 322.366 466.227 323.572 470.674C324.515 474.15 326.633 476.427 329.645 476.359C334.033 476.26 336.481 471.38 337.052 466.48C337.145 465.67 337.289 457.036 337.577 457.021C337.575 457.021 322.506 456.926 322.506 456.926Z" fill="#568EDB"/>
<path d="M344.741 481.319C344.756 481.319 344.77 481.317 344.786 481.316C344.929 481.29 345.026 481.155 345.002 481.011C343.314 471.203 344.473 452.431 344.484 452.244C344.488 452.168 344.462 452.094 344.408 452.04C344.354 451.99 344.288 451.961 344.209 451.961C344.038 451.97 327.224 452.753 320.168 450.969C320.033 450.923 319.885 451.02 319.847 451.16C319.813 451.299 319.898 451.443 320.04 451.479C326.646 453.151 341.653 452.598 343.942 452.501C343.802 454.938 342.9 471.907 344.482 481.101C344.506 481.229 344.617 481.319 344.741 481.319Z" fill="#5E9CE4"/>
<path d="M346.849 481.319H346.872C347.018 481.305 347.124 481.177 347.112 481.035C346.109 469.567 345.992 460.52 346.741 452.597C356.783 452.501 368.964 451.186 382.959 448.68C383.099 448.657 383.195 448.518 383.169 448.374C383.146 448.232 383.024 448.14 382.863 448.162C368.789 450.682 356.556 451.996 346.502 452.071C346.365 452.071 346.253 452.176 346.242 452.311C345.463 460.324 345.573 469.466 346.586 481.078C346.597 481.217 346.712 481.319 346.849 481.319Z" fill="#5E9CE4"/>
<g opacity="0.160004">
<g opacity="0.160004">
<path opacity="0.160004" d="M341.861 590.994C343.335 590.721 344.621 590.445 344.621 590.445L344.748 481.335H345.632C345.423 480.998 345.126 480.892 344.748 481.061C342.684 481.986 341.714 483.421 340.428 485.108C339.417 486.477 338.826 488.141 338.785 489.849C337.943 523.478 339.901 549.081 341.861 590.994Z" fill="#4E84D9"/>
</g>
</g>
<path d="M382.455 455.281C382.311 455.264 382.205 455.137 382.221 454.993L382.649 450.8C382.66 450.656 382.793 450.518 382.937 450.565C383.081 450.581 383.188 450.709 383.171 450.853L382.743 455.045C382.73 455.18 382.615 455.282 382.482 455.282C382.475 455.282 382.464 455.282 382.455 455.281ZM381.596 463.665C381.452 463.651 381.346 463.521 381.362 463.377L381.793 459.185C381.805 459.041 381.94 458.913 382.081 458.951C382.225 458.965 382.333 459.095 382.315 459.239L381.886 463.429C381.874 463.568 381.758 463.667 381.623 463.667C381.616 463.667 381.605 463.667 381.596 463.665V463.665ZM380.741 472.049C380.597 472.037 380.489 471.907 380.506 471.763L380.934 467.571C380.95 467.427 381.089 467.29 381.222 467.337C381.368 467.351 381.474 467.481 381.458 467.623L381.029 471.817C381.017 471.952 380.902 472.053 380.768 472.053C380.759 472.053 380.75 472.053 380.741 472.049V472.049ZM379.885 480.437C379.741 480.423 379.634 480.293 379.651 480.148L380.079 475.954C380.093 475.81 380.237 475.685 380.367 475.72C380.511 475.734 380.617 475.865 380.601 476.009L380.173 480.203C380.162 480.338 380.047 480.439 379.912 480.439C379.904 480.439 379.894 480.439 379.885 480.437V480.437ZM379.028 488.824C378.884 488.807 378.776 488.68 378.792 488.536L379.222 484.342C379.235 484.196 379.366 484.063 379.51 484.106C379.654 484.12 379.762 484.25 379.746 484.394L379.316 488.588C379.303 488.723 379.188 488.825 379.053 488.825C379.046 488.825 379.035 488.825 379.028 488.824ZM378.171 497.206C378.027 497.192 377.919 497.062 377.937 496.918L378.365 492.726C378.376 492.582 378.515 492.456 378.653 492.492C378.796 492.506 378.904 492.636 378.887 492.78L378.459 496.97C378.446 497.107 378.331 497.208 378.198 497.208C378.189 497.208 378.18 497.208 378.171 497.206ZM377.316 505.591C377.17 505.576 377.064 505.447 377.08 505.305L377.509 501.112C377.523 500.968 377.662 500.835 377.797 500.876C377.941 500.893 378.047 501.02 378.031 501.164L377.604 505.357C377.59 505.494 377.474 505.594 377.341 505.594C377.334 505.594 377.323 505.594 377.316 505.591V505.591ZM376.456 513.977C376.313 513.964 376.205 513.833 376.222 513.689L376.652 509.495C376.664 509.36 376.78 509.257 376.913 509.257C376.922 509.257 376.933 509.257 376.942 509.261C377.086 509.275 377.192 509.405 377.176 509.549L376.745 513.743C376.733 513.88 376.618 513.979 376.484 513.979C376.475 513.979 376.465 513.979 376.456 513.977V513.977ZM375.601 522.363C375.457 522.349 375.35 522.219 375.367 522.073L375.795 517.881C375.806 517.737 375.943 517.608 376.081 517.645C376.227 517.66 376.333 517.791 376.317 517.935L375.889 522.129C375.876 522.264 375.761 522.367 375.628 522.367C375.619 522.367 375.61 522.367 375.601 522.363V522.363ZM374.744 530.748C374.6 530.733 374.494 530.604 374.51 530.46L374.938 526.267C374.953 526.122 375.091 525.985 375.226 526.033C375.37 526.046 375.478 526.177 375.46 526.321L375.032 530.512C375.021 530.647 374.906 530.749 374.771 530.749C374.764 530.749 374.753 530.749 374.744 530.748V530.748ZM373.887 539.132C373.743 539.118 373.635 538.988 373.651 538.844L374.081 534.654C374.096 534.51 374.238 534.38 374.369 534.418C374.513 534.432 374.621 534.562 374.605 534.706L374.175 538.898C374.162 539.033 374.047 539.134 373.912 539.134C373.905 539.134 373.894 539.134 373.887 539.132V539.132ZM373.03 547.518C372.886 547.502 372.78 547.374 372.796 547.23L373.225 543.038C373.235 542.894 373.369 542.759 373.513 542.804C373.657 542.818 373.763 542.948 373.747 543.092L373.318 547.282C373.306 547.419 373.192 547.52 373.057 547.52C373.048 547.52 373.039 547.52 373.03 547.518ZM372.175 555.903C372.029 555.89 371.923 555.759 371.939 555.615L372.368 551.421C372.38 551.278 372.517 551.152 372.656 551.187C372.8 551.201 372.906 551.331 372.892 551.475L372.463 555.669C372.451 555.805 372.335 555.904 372.202 555.904C372.193 555.904 372.182 555.904 372.175 555.903V555.903ZM371.317 564.291C371.173 564.276 371.065 564.145 371.083 564.001L371.509 559.807C371.524 559.663 371.664 559.53 371.797 559.573C371.941 559.587 372.049 559.719 372.031 559.861L371.605 564.055C371.592 564.192 371.477 564.292 371.344 564.292C371.335 564.292 371.324 564.292 371.317 564.291V564.291ZM370.46 572.673C370.316 572.659 370.21 572.529 370.226 572.385L370.654 568.193C370.669 568.049 370.813 567.925 370.942 567.959C371.086 567.972 371.192 568.103 371.176 568.247L370.75 572.439C370.735 572.574 370.62 572.675 370.487 572.675C370.48 572.675 370.469 572.675 370.46 572.673V572.673ZM369.605 581.059C369.461 581.043 369.353 580.915 369.369 580.771L369.797 576.579C369.81 576.435 369.941 576.302 370.085 576.345C370.229 576.36 370.337 576.489 370.319 576.631L369.893 580.824C369.88 580.959 369.765 581.061 369.63 581.061C369.623 581.061 369.612 581.061 369.605 581.059V581.059ZM368.955 587.415C368.809 587.401 368.703 587.271 368.719 587.127L368.939 584.965C368.955 584.821 369.09 584.699 369.227 584.73C369.371 584.744 369.477 584.874 369.463 585.018L369.243 587.179C369.229 587.318 369.113 587.417 368.98 587.417C368.973 587.417 368.962 587.417 368.955 587.415Z" fill="#5E9CE4"/>
<path d="M345.732 348.662C324.906 353.45 309.197 404.581 281.342 401.194V410.289C294.381 410.289 312.182 406.127 326.78 386.124C347.886 357.198 345.732 348.662 345.732 348.662Z" fill="#F9714E"/>
<g opacity="0.300003">
<g opacity="0.300003">
<path opacity="0.300003" d="M345.732 348.662C324.906 353.45 309.197 404.581 281.342 401.194V410.289C294.381 410.289 312.182 406.127 326.78 386.124C347.886 357.198 345.732 348.662 345.732 348.662Z" fill="#F9714E"/>
</g>
</g>
<path d="M377.999 353.451C390.786 368.106 389.721 442.414 391.177 488.561C368.13 493.397 343.419 493.194 317.544 489.455C317.544 489.455 313.518 415.101 326.479 372.986C335.28 344.393 364.504 337.985 377.999 353.451Z" fill="#F9714E"/>
<g opacity="0.300003">
<g opacity="0.300003">
<path opacity="0.300003" d="M335.181 451.45C330.399 435.715 328.244 419.572 328.289 403.138C328.327 389.341 328.669 374.358 332.292 360.738C329.916 364.231 327.92 368.305 326.48 372.985C313.518 415.101 317.543 489.454 317.543 489.454C330.626 491.346 343.409 492.327 355.833 492.215C346.44 480.315 339.705 466.329 335.181 451.45Z" fill="#F9714E"/>
</g>
</g>
<path d="M131.71 330.245C133.59 330.144 146.406 320.653 151.339 317.454C152.729 316.554 154.138 315.611 155.109 314.27C156.079 312.929 156.531 311.091 155.825 309.595C154.948 307.738 153.496 305.884 149.827 305.891C143.443 305.905 141.229 308.002 138.124 311.214C127.855 321.83 131.71 330.245 131.71 330.245Z" fill="#00AD9F"/>
<path d="M189.164 368.529C194.744 371.037 200.705 373.535 206.771 372.759C209.126 372.459 211.694 371.389 212.479 369.15C213.149 367.235 212.225 365.043 210.706 363.696C209.189 362.352 207.189 361.702 205.218 361.221C197.789 359.409 187.364 360.411 180.009 362.499C180.009 362.499 185.834 367.032 189.164 368.529Z" fill="#00AD9F"/>
<path d="M225.911 286.114C223.424 284.543 220.673 282.44 220.675 279.497C220.679 276.545 223.757 274.295 226.709 274.281C229.661 274.267 232.399 275.876 234.618 277.823C244.007 286.066 242.837 295.463 242.837 295.463C242.837 295.463 228.683 287.866 225.911 286.114" fill="#00AD9F"/>
<path d="M233.315 260.973C231.131 260.035 228.878 258.903 227.596 256.9C226.973 255.926 226.619 254.693 227.004 253.6C227.646 251.773 228.789 250.133 233.392 250.969C247.967 253.613 251.142 263.594 251.142 263.594C251.142 263.594 237.183 262.636 233.315 260.973Z" fill="#00AD9F"/>
<path d="M276.012 283.05C281.858 282.546 287.894 279.635 291.578 275.067C292.97 273.344 294.244 271.441 294.707 269.276C295.171 267.111 294.678 264.627 293 263.181C290.952 261.417 287.706 261.7 285.453 263.188C283.197 264.677 281.75 267.103 280.577 269.537C279.014 272.779 276.012 283.05 276.012 283.05Z" fill="#00AD9F"/>
<path d="M171.634 496.201C157.479 483.721 143.325 471.246 129.17 458.768C121.626 452.119 113.926 445.273 109.149 436.425C98.8778 417.404 104.798 392.688 118.669 376.107C132.54 359.525 152.854 349.737 173.265 342.61C193.675 335.486 214.918 330.486 234.373 321.063C246.575 315.153 258.842 306.349 262.19 293.213C264.202 285.309 262.51 276.543 257.699 269.959C252.889 263.373 245.054 259.096 236.914 258.61" stroke="#086356" stroke-miterlimit="10" stroke-linecap="round" stroke-linejoin="round"/>
<path d="M285.9 269.481C282.034 281.357 266.968 288.583 260.094 298.87" stroke="#086356" stroke-miterlimit="10" stroke-linecap="round" stroke-linejoin="round"/>
<path d="M231.812 283.141C234.779 286.273 238.332 288.861 240.92 292.314C246.389 299.605 246.846 311.455 238.755 318.806" stroke="#086356" stroke-miterlimit="10" stroke-linecap="round" stroke-linejoin="round"/>
<path d="M155.592 349.626C168.079 359.249 184.495 365.662 200.248 366.274" stroke="#086356" stroke-miterlimit="10" stroke-linecap="round" stroke-linejoin="round"/>
<path d="M127.003 367.153C121.252 350.199 127.518 329.887 141.821 319.118" stroke="#086356" stroke-miterlimit="10" stroke-linecap="round" stroke-linejoin="round"/>
<path d="M621.875 134.258C621.2 132.16 621.234 129.582 622.778 128.014C624.006 126.77 626.061 126.214 627.658 126.918C640.038 132.379 638.699 151.751 638.699 151.751C638.699 151.751 626.956 150.048 621.875 134.258" fill="#00AD9F"/>
<path d="M621.574 170.545C613.566 185.062 642.029 183.955 652.293 175.405C652.293 175.405 628.468 158.049 621.574 170.545Z" fill="#00AD9F"/>
<path d="M657.561 135.359C655.63 132.702 654.942 128.744 657.047 126.222C658.613 124.345 661.343 123.765 663.741 124.228C666.138 124.692 669.731 126.917 671.259 128.827C680.627 140.514 676.226 151.953 676.226 151.953C676.226 151.953 660.728 139.71 657.561 135.359" fill="#00AD9F"/>
<path d="M770.598 171.306C769.907 169.045 770.069 166.286 771.822 164.702C772.927 163.703 774.5 163.341 775.983 163.453C777.468 163.566 778.887 164.108 780.242 164.729C783.146 166.059 785.405 168.385 786.798 171.265C790.317 178.539 787.928 187.54 787.928 187.54C787.928 187.54 772.32 176.94 770.598 171.306Z" fill="#00AD9F"/>
<path d="M735.041 197.947C730.008 193.513 722.3 192.201 716.168 194.899C714.607 195.585 713.127 196.555 712.13 197.94C709.882 201.059 710.67 205.618 713.003 208.673C715.336 211.729 718.875 213.587 722.369 215.178C728.703 218.062 738.533 218.64 745.275 220.364C745.275 220.364 745.247 206.938 735.041 197.947" fill="#00AD9F"/>
<path d="M630.746 137.373C634.933 151.121 646.784 161.496 659.98 167.108C673.174 172.721 687.709 174.2 702.01 175.131C716.313 176.058 730.785 176.521 744.618 180.286C758.096 183.956 771.519 191.601 777.304 204.352C784.346 219.874 778.11 238.435 768.227 252.308C758.341 266.18 745.03 277.36 735.467 291.46C731.075 297.932 727.408 305.512 728.295 313.29C729.48 323.662 738.19 331.299 746.285 337.86" stroke="#086356" stroke-miterlimit="10" stroke-linecap="round" stroke-linejoin="round"/>
<path d="M663.712 132.329C673.191 142.847 680.767 159.295 682.61 173.351" stroke="#086356" stroke-miterlimit="10" stroke-linecap="round" stroke-linejoin="round"/>
<path d="M631.843 172.952C637.263 174.394 642.755 175.847 648.362 175.861C653.967 175.876 660.461 172.762 664.493 168.852" stroke="#086356" stroke-miterlimit="10" stroke-linecap="round" stroke-linejoin="round"/>
<path d="M779.87 172.16C784.948 177.078 788.033 184.008 788.3 191.082C788.562 198.158 784.649 206.731 779.953 212.018" stroke="#086356" stroke-miterlimit="10" stroke-linecap="round" stroke-linejoin="round"/>
<path d="M726.747 204.269C736.887 213.634 745.716 221.205 756.991 229.159C762.137 232.79 772.354 237.443 776.888 236.244" stroke="#086356" stroke-miterlimit="10" stroke-linecap="round" stroke-linejoin="round"/>
</g>
<defs>
<clipPath id="clip0">
<rect width="900" height="650" fill="white"/>
</clipPath>
</defs>
</svg>
