<svg width="1920" height="1080" viewBox="0 0 1920 1080" fill="none" xmlns="http://www.w3.org/2000/svg">
<g clip-path="url(#clip0)">
<rect width="1920" height="1080" fill="white"/>
<path d="M1558.27 581.059L1451.39 565.515C1454.52 572.899 1455.63 581.107 1454.17 589.489C1449.76 614.751 1423.76 631.968 1396.09 627.943C1368.42 623.917 1349.56 600.177 1353.97 574.918C1355.43 566.533 1359.28 559.048 1364.77 552.917L1258.36 537.443C1237.35 534.388 1217.61 547.456 1214.26 566.633L1196.7 667.309C1191.57 664.183 1185.64 661.988 1179.15 661.044C1155.05 657.538 1132.4 672.535 1128.56 694.545C1124.72 716.549 1141.14 737.231 1165.25 740.736C1171.74 741.681 1178.12 741.272 1184.06 739.76L1166.49 840.436C1163.14 859.612 1177.46 877.634 1198.46 880.689L1498.38 924.305C1519.38 927.36 1539.12 914.292 1542.47 895.115L1590.25 621.312C1593.59 602.135 1579.27 584.114 1558.27 581.059Z" fill="#E6BF26"/>
<g opacity="0.0800018">
<g opacity="0.0800018">
<path opacity="0.0800018" d="M1542.47 895.115L1559.06 800.069L1462.8 702.487C1455.9 695.489 1444.1 694.927 1436.43 701.229L1432.26 704.652C1424.61 710.951 1423.99 721.73 1430.89 728.727L1496.53 795.282L1494.47 796.984L1493.59 797.7L1408.67 711.607C1401.78 704.615 1389.97 704.05 1382.3 710.349L1378.13 713.775C1377.5 714.293 1376.94 714.852 1376.4 715.428C1376.27 715.571 1376.14 715.718 1376.01 715.867C1375.52 716.424 1375.07 716.997 1374.67 717.596C1374.65 717.627 1374.63 717.654 1374.61 717.683C1374.19 718.325 1373.83 718.992 1373.51 719.67C1373.44 719.811 1373.38 719.953 1373.32 720.096C1373.03 720.754 1372.78 721.424 1372.58 722.107C1372.57 722.129 1372.57 722.151 1372.56 722.174C1372.35 722.907 1372.21 723.654 1372.11 724.405C1372.1 724.507 1372.09 724.608 1372.08 724.711C1371.99 725.452 1371.95 726.196 1371.98 726.939V726.942C1372 727.723 1372.09 728.501 1372.23 729.276C1372.25 729.334 1372.26 729.393 1372.27 729.452C1372.42 730.206 1372.62 730.951 1372.87 731.684C1372.88 731.692 1372.88 731.7 1372.88 731.706L1372.88 731.708C1373.66 733.915 1374.94 736.013 1376.75 737.85L1461.67 823.941L1459.25 825.933L1359.97 725.286C1353.08 718.292 1341.27 717.73 1333.61 724.033L1329.44 727.455C1321.78 733.751 1321.16 744.535 1328.06 751.524L1427.33 852.175L1424.3 854.672L1333.85 762.972C1326.95 755.98 1315.14 755.415 1307.48 761.714L1303.31 765.14C1295.65 771.44 1295.04 782.22 1301.93 789.215L1413.11 901.932L1413.12 901.942L1424.49 913.468L1368.27 903.809C1364.8 903.143 1361.36 903.229 1358.11 903.906L1498.38 924.306C1519.38 927.361 1539.12 914.291 1542.47 895.115Z" fill="#333333"/>
</g>
</g>
<path d="M1706.27 970.325L1607.82 1051.26L1506.31 948.345L1604.76 867.409L1706.27 970.325Z" fill="#D9AE8D"/>
<path d="M1596.44 823.613C1630.53 858.182 1602.56 890.511 1593.74 897.755L1515.69 961.927C1506.88 969.17 1493.29 968.522 1485.35 960.472L1418.97 893.168C1411.02 885.115 1411.74 872.72 1420.56 865.476L1524.52 780.003C1533.33 772.758 1546.91 773.4 1554.86 781.453L1596.44 823.613Z" fill="#F7C6A1"/>
<path d="M1457.25 873.379C1464.15 880.381 1463.54 891.161 1455.87 897.464L1451.7 900.886C1444.04 907.186 1432.23 906.622 1425.33 899.618L1314.15 786.901C1307.25 779.906 1307.87 769.125 1315.53 762.827L1319.7 759.4C1327.36 753.102 1339.17 753.667 1346.07 760.659L1457.25 873.379Z" fill="#F7C6A1"/>
<path d="M1344.64 766.663C1350.56 772.664 1345.47 777.288 1338.9 782.691C1332.33 788.094 1326.77 792.228 1320.84 786.226C1314.93 780.232 1315.46 770.986 1322.03 765.588C1328.61 760.185 1338.72 760.665 1344.64 766.663Z" fill="#F7DFCD"/>
<path d="M1483.37 835.689C1490.28 842.696 1489.66 853.473 1481.99 859.773L1477.83 863.199C1470.17 869.498 1458.36 868.931 1451.45 861.933L1340.28 749.21C1333.38 742.221 1334 731.437 1341.66 725.143L1345.83 721.718C1353.49 715.416 1365.3 715.979 1372.19 722.971L1483.37 835.689Z" fill="#F7C6A1"/>
<path d="M1370.77 728.982C1376.68 734.98 1371.59 739.603 1365.03 745.003C1358.45 750.406 1352.89 754.543 1346.97 748.541C1341.05 742.544 1341.59 733.304 1348.16 727.903C1354.73 722.503 1364.85 722.981 1370.77 728.982Z" fill="#F7DFCD"/>
<path d="M1532.07 822.014C1538.97 829.015 1538.36 839.793 1530.69 846.092L1526.52 849.518C1518.86 855.817 1507.06 855.254 1500.15 848.253L1388.97 735.535C1382.07 728.537 1382.69 717.76 1390.35 711.462L1394.52 708.035C1402.18 701.737 1413.99 702.302 1420.89 709.294L1532.07 822.014Z" fill="#F7C6A1"/>
<path d="M1419.46 715.301C1425.38 721.3 1420.29 725.923 1413.72 731.325C1407.15 736.731 1401.58 740.862 1395.67 734.867C1389.75 728.863 1390.28 719.624 1396.85 714.222C1403.42 708.823 1413.55 709.302 1419.46 715.301Z" fill="#F7DFCD"/>
<path d="M1586.2 812.888C1593.11 819.892 1592.48 830.67 1584.82 836.969L1580.66 840.395C1572.99 846.694 1561.19 846.134 1554.28 839.129L1443.1 726.412C1436.2 719.417 1436.82 708.637 1444.48 702.339L1448.65 698.915C1456.32 692.614 1468.12 693.176 1475.02 700.174L1586.2 812.888Z" fill="#F7C6A1"/>
<path d="M1473.59 706.178C1479.51 712.178 1474.42 716.803 1467.85 722.202C1461.28 727.605 1455.72 731.742 1449.8 725.74C1443.88 719.743 1444.41 710.503 1450.98 705.096C1457.55 699.7 1467.68 700.179 1473.59 706.178Z" fill="#F7DFCD"/>
<path d="M1506.12 923.08C1518.94 925.541 1527.15 937.025 1524.45 948.722L1524.21 949.764C1521.51 961.46 1508.94 968.954 1496.12 966.493L1370.49 944.904C1357.68 942.443 1349.47 930.966 1352.16 919.267L1352.41 918.226C1355.1 906.519 1367.68 899.038 1380.49 901.496L1506.12 923.08Z" fill="#F7C6A1"/>
<path d="M1360.19 932.907C1359.69 935.538 1359.84 938.126 1360.51 940.569C1363.33 942.65 1366.7 944.181 1370.49 944.903L1388.99 948.185C1390.25 945.342 1391.01 941.766 1391.74 937.894C1393.65 927.788 1394.76 919.531 1383.69 917.783C1372.63 916.039 1362.11 922.805 1360.19 932.907Z" fill="#F7DFCD"/>
<path d="M1892.17 1139.48L1772.68 1237.72L1527.7 989.347L1609.53 922.078L1642.44 946.198L1621.26 912.436L1647.19 891.116L1892.17 1139.48Z" fill="#ECECEC"/>
<path d="M1657.09 913.652C1661.12 917.728 1660.76 924.021 1656.29 927.691C1651.82 931.373 1644.93 931.038 1640.91 926.958C1636.88 922.879 1637.24 916.592 1641.71 912.912C1646.19 909.243 1653.07 909.569 1657.09 913.652Z" fill="#4D4D4D"/>
<path d="M1654.26 915.983C1656.87 918.634 1656.64 922.717 1653.74 925.106C1650.83 927.494 1646.36 927.277 1643.74 924.63C1641.13 921.976 1641.36 917.89 1644.27 915.505C1647.17 913.116 1651.65 913.332 1654.26 915.983Z" fill="#333333"/>
<g opacity="0.0500031">
<g opacity="0.0500031">
<path opacity="0.0500031" d="M1448.65 698.915L1444.48 702.338C1436.82 708.637 1436.2 719.418 1443.1 726.413L1508.75 792.973L1505.81 795.387L1420.89 709.294C1413.99 702.302 1402.19 701.736 1394.52 708.035L1390.35 711.462C1384.7 716.11 1382.9 723.191 1385.1 729.392L1835.52 1186.06L1892.17 1139.48L1647.19 891.115L1636.68 899.761L1610.47 873.188C1615.14 859.537 1614.47 841.896 1596.44 823.613L1587.97 815.029C1587.44 814.283 1586.87 813.566 1586.2 812.888L1475.02 700.174C1468.12 693.175 1456.32 692.613 1448.65 698.915Z" fill="#333333"/>
</g>
</g>
<path d="M1526.14 191.419C1533.08 181.512 1547.5 178.619 1558.34 184.949L1559.31 185.518C1570.15 191.848 1573.32 205.008 1566.39 214.912L1500.95 312.853C1494.01 322.754 1479.6 325.649 1468.75 319.322L1467.79 318.753C1456.94 312.42 1453.78 299.263 1460.71 289.36L1526.14 191.419Z" fill="#F7D1B4"/>
<path d="M1485.28 317.327C1487.76 318.664 1490.42 319.437 1493.11 319.728C1496.18 318.08 1498.9 315.785 1500.95 312.853L1510.69 298.469C1508.26 296.419 1504.93 294.543 1501.28 292.581C1491.77 287.458 1483.84 283.659 1478.22 292.338C1472.62 301.021 1475.77 312.206 1485.28 317.327Z" fill="#F7DFCD"/>
<path d="M1464.39 94.6334H1165.86C1144.95 94.6334 1128 110.109 1128 129.195V227.03C1135.4 222.952 1144.08 220.604 1153.35 220.604C1180.49 220.604 1202.5 240.691 1202.5 265.469C1202.5 290.248 1180.49 310.335 1153.35 310.335C1144.08 310.335 1135.4 307.985 1128 303.907V401.742C1128 420.83 1144.95 436.304 1165.86 436.304H1279.42C1274.41 442.772 1271.45 450.661 1271.45 459.186C1271.45 481.091 1290.9 498.849 1314.89 498.849C1338.89 498.849 1358.34 481.091 1358.34 459.186C1358.34 450.661 1355.38 442.772 1350.37 436.304H1464.39C1485.3 436.304 1502.25 420.83 1502.25 401.742V129.195C1502.25 110.109 1485.3 94.6334 1464.39 94.6334Z" fill="#DB4437"/>
<g opacity="0.0800018">
<g opacity="0.0800018">
<path opacity="0.0800018" d="M1502.25 129.196C1502.25 110.108 1485.3 94.634 1464.39 94.634H1458L1457.14 94.836C1456.7 94.8758 1456.26 94.9217 1455.81 94.9921C1455.31 95.064 1454.81 95.1543 1454.31 95.2721L1296.18 132.556C1286.37 134.872 1280.47 144.01 1283 152.975L1284.38 157.846C1286.92 166.802 1296.93 172.191 1306.74 169.879L1400.12 147.863L1400.68 149.846L1401.09 151.302L1280.31 179.78C1270.5 182.095 1264.59 191.234 1267.12 200.198L1268.5 205.071C1268.64 205.573 1268.82 206.059 1269 206.538C1269.06 206.682 1269.12 206.823 1269.18 206.965C1269.33 207.314 1269.49 207.655 1269.66 207.99C1269.73 208.123 1269.8 208.26 1269.87 208.391C1270.11 208.826 1270.36 209.251 1270.64 209.66C1270.7 209.747 1270.76 209.829 1270.82 209.915C1271.05 210.238 1271.29 210.553 1271.54 210.859C1271.66 211.006 1271.78 211.15 1271.91 211.292C1272.12 211.537 1272.34 211.776 1272.57 212.008C1272.7 212.143 1272.83 212.281 1272.96 212.412C1273.3 212.73 1273.64 213.036 1274 213.33C1274.16 213.468 1274.34 213.593 1274.51 213.725C1274.73 213.892 1274.96 214.057 1275.18 214.213C1275.39 214.36 1275.61 214.499 1275.82 214.637C1276.02 214.764 1276.23 214.885 1276.44 215.006C1276.89 215.269 1277.36 215.514 1277.84 215.74C1277.99 215.811 1278.13 215.887 1278.28 215.954C1278.57 216.078 1278.85 216.187 1279.14 216.299C1279.31 216.366 1279.49 216.433 1279.67 216.496C1279.96 216.602 1280.26 216.699 1280.57 216.791C1280.73 216.839 1280.89 216.882 1281.05 216.924C1281.68 217.096 1282.32 217.238 1282.96 217.347C1283.06 217.362 1283.15 217.383 1283.24 217.399L1283.24 217.397C1285.7 217.775 1288.29 217.711 1290.86 217.105L1411.65 188.626L1412.45 191.458L1271.25 224.752C1261.44 227.063 1255.54 236.205 1258.07 245.168L1259.45 250.04C1261.98 258.997 1271.99 264.388 1281.8 262.073L1423.01 228.783L1424.01 232.331L1295.37 262.663C1285.56 264.977 1279.65 274.117 1282.19 283.076L1283.57 287.951C1286.1 296.909 1296.11 302.295 1305.93 299.983L1464.06 262.7C1464.07 262.698 1464.07 262.695 1464.08 262.695L1502.25 253.694V129.196Z" fill="#333333"/>
</g>
</g>
<path d="M1664.16 51.1142L1696.72 166.239L1552.34 200.282L1519.77 85.157L1664.16 51.1142Z" fill="#EBC09F"/>
<path d="M1474.17 71.887C1522.67 60.4557 1540.83 97.4072 1543.74 107.712L1569.57 198.983C1572.48 209.287 1565.69 219.806 1554.4 222.467L1459.97 244.73C1448.68 247.394 1437.17 241.194 1434.25 230.889L1399.86 109.317C1396.94 99.0138 1403.73 88.4991 1415.02 85.8336L1474.17 71.887Z" fill="#F7D1B4"/>
<path d="M1458.47 205.274C1468.29 202.957 1478.3 208.346 1480.84 217.311L1482.21 222.181C1484.75 231.14 1478.85 240.282 1469.02 242.597L1310.89 279.881C1301.08 282.193 1291.06 276.807 1288.53 267.848L1287.15 262.972C1284.62 254.015 1290.52 244.874 1300.33 242.56L1458.47 205.274Z" fill="#F7D1B4"/>
<path d="M1305.42 246.423C1313.83 244.438 1315.94 250.588 1318.11 258.27C1320.28 265.957 1321.71 272.263 1313.29 274.249C1304.87 276.233 1296.29 271.609 1294.12 263.93C1291.94 256.243 1297 248.409 1305.42 246.423Z" fill="#FFECDE"/>
<path d="M1434.34 167.362C1444.17 165.048 1454.18 170.439 1456.71 179.402L1458.1 184.269C1460.63 193.228 1454.73 202.37 1444.91 204.687L1286.77 241.969C1276.96 244.285 1266.94 238.895 1264.41 229.936L1263.03 225.064C1260.5 216.101 1266.4 206.959 1276.21 204.65L1434.34 167.362Z" fill="#F7D1B4"/>
<path d="M1281.3 208.513C1289.71 206.528 1291.82 212.679 1293.99 220.36C1296.16 228.044 1297.59 234.354 1289.17 236.337C1280.75 238.322 1272.17 233.701 1270 226.017C1267.83 218.334 1272.88 210.496 1281.3 208.513Z" fill="#FFECDE"/>
<path d="M1443.4 122.394C1453.23 120.079 1463.23 125.466 1465.77 134.43L1467.15 139.303C1469.68 148.261 1463.79 157.399 1453.96 159.716L1295.83 197.002C1286.01 199.313 1276 193.925 1273.46 184.968L1272.09 180.095C1269.55 171.132 1275.46 161.991 1285.27 159.676L1443.4 122.394Z" fill="#F7D1B4"/>
<path d="M1290.35 163.544C1298.77 161.559 1300.87 167.709 1303.05 175.393C1305.22 183.075 1306.64 189.386 1298.23 191.368C1289.81 193.353 1281.23 188.731 1279.05 181.05C1276.88 173.364 1281.94 165.527 1290.35 163.544Z" fill="#FFECDE"/>
<path d="M1459.28 75.169C1469.1 72.8524 1479.11 78.2444 1481.65 87.2031L1483.03 92.0733C1485.56 101.037 1479.66 110.176 1469.84 112.491L1311.7 149.776C1301.89 152.088 1291.88 146.699 1289.34 137.743L1287.97 132.87C1285.43 123.907 1291.33 114.769 1301.14 112.452L1459.28 75.169Z" fill="#F7D1B4"/>
<path d="M1306.23 116.317C1314.65 114.334 1316.75 120.483 1318.92 128.166C1321.1 135.85 1322.52 142.16 1314.1 144.143C1305.69 146.126 1297.1 141.508 1294.93 133.824C1292.76 126.142 1297.82 118.301 1306.23 116.317Z" fill="#FFECDE"/>
<path d="M1910.13 -20L1949.65 119.723L1601.21 201.876L1574.14 106.197L1612.12 90.9585L1570.26 92.484L1561.68 62.1563L1910.13 -20Z" fill="#E6BF26"/>
<path d="M1587.7 64.5152C1593.42 63.1642 1599.27 66.3054 1600.74 71.5276C1602.22 76.7589 1598.78 82.0882 1593.05 83.4393C1587.33 84.7888 1581.49 81.6476 1580.01 76.4208C1578.53 71.1925 1581.97 65.8632 1587.7 64.5152Z" fill="#4D4D4D"/>
<path d="M1588.64 67.8308C1592.36 66.9525 1596.15 68.9921 1597.11 72.3889C1598.07 75.7857 1595.83 79.2452 1592.12 80.125C1588.4 81.0017 1584.6 78.9591 1583.64 75.5653C1582.68 72.167 1584.92 68.7029 1588.64 67.8308Z" fill="#333333"/>
<g opacity="0.0500031">
<g opacity="0.0500031">
<path opacity="0.0500031" d="M1287.97 132.871L1289.34 137.742C1291.88 146.699 1301.89 152.088 1311.7 149.776L1405.08 127.757L1406.05 131.2L1285.27 159.676C1275.46 161.991 1269.55 171.132 1272.09 180.095L1273.46 184.968C1275.34 191.577 1281.28 196.228 1288.2 197.295L1928.87 46.2404L1910.13 -20L1561.68 62.1563L1565.16 74.452L1527.88 83.2439C1516.97 73.3259 1499.82 65.8453 1474.17 71.8876L1462.13 74.7305C1461.18 74.8131 1460.23 74.9463 1459.28 75.1696L1301.14 112.453C1291.33 114.768 1285.43 123.906 1287.97 132.871Z" fill="#333333"/>
</g>
</g>
<path d="M412.35 959.102C406.352 969.92 391.887 974.252 380.05 968.776L378.994 968.285C367.156 962.814 362.414 949.611 368.41 938.795L424.459 832.155C430.455 821.344 444.91 817.017 456.757 822.482L457.808 822.975C469.657 828.448 474.39 841.648 468.395 852.462L412.35 959.102Z" fill="#C7A482"/>
<path d="M780.251 785.887C786.454 785.331 792.502 785.838 798.187 787.229L787.767 690.225C785.663 670.639 766.563 656.319 745.11 658.239L627.898 668.733C632.592 661.508 634.907 652.909 633.939 643.909C631.525 621.428 609.609 604.994 584.987 607.198C560.366 609.404 542.365 629.412 544.781 651.891C545.747 660.893 549.847 668.916 555.989 675.173L438.777 685.669C417.324 687.589 401.635 705.024 403.74 724.61L433.783 1004.28C435.888 1023.86 454.988 1038.19 476.441 1036.27L782.773 1008.84C804.227 1006.92 819.915 989.477 817.811 969.891L807.391 872.887C802.108 875.261 796.285 876.83 790.079 877.385C762.405 879.863 737.771 861.39 735.056 836.123C732.341 810.855 752.576 788.365 780.251 785.887Z" fill="#46A651"/>
<g opacity="0.149994">
<g opacity="0.149994">
<path opacity="0.149994" d="M468.741 1056.91L630.824 1019.2C640.955 1016.84 647.072 1007.44 644.485 998.188L643.086 993.159C640.502 983.916 630.2 978.33 620.072 980.687L523.721 1003.11L523.049 1000.7L522.733 999.558L647.363 970.557C657.489 968.198 663.608 958.791 661.026 949.542L659.625 944.517C659.479 943.997 659.301 943.492 659.111 943C659.054 942.851 658.992 942.709 658.932 942.567C658.778 942.201 658.612 941.846 658.434 941.496C658.365 941.361 658.299 941.226 658.228 941.094C657.983 940.643 657.72 940.198 657.437 939.774C657.382 939.688 657.318 939.614 657.262 939.534C657.024 939.19 656.775 938.859 656.512 938.535C656.391 938.385 656.267 938.237 656.141 938.095C655.921 937.838 655.692 937.59 655.455 937.347C655.322 937.208 655.189 937.068 655.049 936.932C654.708 936.603 654.356 936.285 653.99 935.984C653.817 935.842 653.632 935.71 653.452 935.571C653.229 935.402 653.005 935.23 652.773 935.072C652.555 934.918 652.332 934.769 652.108 934.629C651.906 934.498 651.698 934.378 651.491 934.257C650.596 933.733 649.656 933.279 648.676 932.9C648.507 932.834 648.339 932.769 648.168 932.708C647.853 932.595 647.535 932.487 647.214 932.392C647.067 932.346 646.915 932.308 646.765 932.264C646.067 932.07 645.358 931.912 644.634 931.793C644.581 931.783 644.529 931.772 644.475 931.761H644.472C641.933 931.363 639.269 931.422 636.611 932.042L511.978 961.043L511.16 958.119L656.867 924.215C666.988 921.865 673.103 912.456 670.523 903.205L669.122 898.177C666.542 888.933 656.236 883.345 646.115 885.705L500.407 919.606L499.386 915.944L632.135 885.053C642.256 882.7 648.374 873.291 645.792 864.048L644.39 859.017C641.809 849.772 631.505 844.188 621.377 846.543L458.202 884.514C458.195 884.514 458.19 884.519 458.181 884.519L422.985 892.706L437.239 1025.39C438.969 1041.49 452.182 1054.02 468.741 1056.91Z" fill="#333333"/>
</g>
</g>
<path d="M286.641 1116.05L240.208 1001.02L384.477 952.483L430.907 1067.52L286.641 1116.05Z" fill="#B39273"/>
<path d="M479.188 1076.83C430.731 1093.13 407.92 1056.93 403.766 1046.63L366.947 955.442C362.794 945.144 368.571 933.709 379.855 929.92L474.2 898.176C485.487 894.38 497.998 899.651 502.152 909.949L551.186 1031.42C555.344 1041.72 549.577 1053.14 538.29 1056.94L479.188 1076.83Z" fill="#C7A482"/>
<path d="M480.209 938.509C470.394 941.812 459.513 937.228 455.898 928.27L453.935 923.406C450.322 914.452 455.34 904.518 465.158 901.216L623.161 848.058C632.968 844.759 643.849 849.342 647.464 858.292L649.427 863.165C653.042 872.114 648.02 882.052 638.221 885.349L480.209 938.509Z" fill="#C7A482"/>
<path d="M632.563 881.867C624.15 884.695 621.298 878.585 618.198 870.91C615.1 863.226 612.928 856.893 621.342 854.06C629.747 851.23 639.076 855.169 642.175 862.839C645.271 870.522 640.972 879.033 632.563 881.867Z" fill="#F7DFCD"/>
<path d="M509.246 975.126C499.427 978.426 488.547 973.84 484.936 964.886L482.966 960.024C479.353 951.071 484.374 941.135 494.188 937.832L652.199 884.673C661.999 881.373 672.882 885.959 676.495 894.909L678.456 899.78C682.07 908.736 677.051 918.672 667.252 921.966L509.246 975.126Z" fill="#C7A482"/>
<path d="M661.592 918.482C653.183 921.309 650.33 915.199 647.232 907.524C644.134 899.846 641.962 893.508 650.372 890.677C658.78 887.85 668.106 891.78 671.205 899.458C674.301 907.136 670.006 915.654 661.592 918.482Z" fill="#F7DFCD"/>
<path d="M505.038 1022.11C495.222 1025.41 484.347 1020.83 480.732 1011.87L478.767 1007.01C475.152 998.055 480.169 988.124 489.986 984.82L647.992 931.661C657.799 928.365 668.676 932.945 672.293 941.898L674.256 946.764C677.869 955.72 672.848 965.654 663.043 968.955L505.038 1022.11Z" fill="#C7A482"/>
<path d="M657.392 965.466C648.982 968.297 646.125 962.185 643.027 954.51C639.927 946.832 637.76 940.493 646.165 937.663C654.58 934.836 663.903 938.769 667.005 946.442C670.098 954.122 665.8 962.639 657.392 965.466Z" fill="#F7DFCD"/>
<path d="M494.098 1072.06C484.278 1075.36 473.404 1070.77 469.789 1061.82L467.82 1056.95C464.211 1048 469.225 1038.07 479.04 1034.77L637.047 981.606C646.853 978.307 657.733 982.89 661.348 991.84L663.311 996.711C666.929 1005.67 661.909 1015.59 652.099 1018.9L494.098 1072.06Z" fill="#C7A482"/>
<path d="M646.447 1015.41C638.035 1018.24 635.179 1012.13 632.082 1004.46C628.986 996.777 626.812 990.437 635.224 987.608C643.633 984.781 652.959 988.708 656.064 996.387C659.155 1004.06 654.853 1012.58 646.447 1015.41Z" fill="#F7DFCD"/>
<path d="M42.3558 1212.2L-14 1072.59L334.162 955.456L372.754 1051.06L335.51 1070.27L378.285 1064.76L390.515 1095.06L42.3558 1212.2Z" fill="#26C3E6"/>
<path d="M363.562 1095.09C357.842 1097.02 351.491 1094.35 349.387 1089.13C347.273 1083.9 350.204 1078.11 355.925 1076.18C361.645 1074.26 367.992 1076.93 370.104 1082.16C372.207 1087.38 369.281 1093.17 363.562 1095.09Z" fill="#4D4D4D"/>
<path d="M362.221 1091.78C358.506 1093.03 354.383 1091.3 353.012 1087.91C351.644 1084.51 353.548 1080.75 357.26 1079.5C360.978 1078.25 365.103 1079.98 366.472 1083.38C367.842 1086.77 365.936 1090.54 362.221 1091.78Z" fill="#333333"/>
<g opacity="0.0500031">
<g opacity="0.0500031">
<path opacity="0.0500031" d="M663.311 996.712L661.348 991.84C657.733 982.89 646.853 978.307 637.047 981.606L543.746 1013L542.363 1009.56L663.043 968.954C672.848 965.654 677.869 955.721 674.256 946.765L672.293 941.898C669.625 935.29 663.005 931.081 655.782 930.639L15.6366 1146.01L42.3551 1212.2L390.514 1095.06L385.555 1082.78L422.805 1070.24C435.124 1079.39 453.562 1085.44 479.189 1076.83L491.224 1072.77C492.19 1072.6 493.148 1072.38 494.098 1072.06L652.099 1018.9C661.909 1015.6 666.929 1005.67 663.311 996.712Z" fill="#333333"/>
</g>
</g>
<path d="M387.857 174.984C374.816 176.282 363.098 167.684 361.678 155.791L361.555 154.729C360.135 142.836 369.548 132.136 382.585 130.838L509.469 115.712C522.503 114.416 534.217 123.005 535.646 134.903L535.765 135.963C537.189 147.867 527.773 158.555 514.741 159.855L387.857 174.984Z" fill="#F7C6A1"/>
<path d="M821.938 300.358C812.039 298.748 802.326 300.283 794.022 304.172L814.505 199.217C818.239 180.082 804.272 161.804 783.312 158.395L484.023 109.712C463.063 106.302 443.042 119.053 439.307 138.188L385.982 411.425C382.246 430.56 396.212 448.838 417.172 452.247L527.62 470.212C524.073 462.674 522.81 454.14 524.505 445.458C529.12 421.811 553.858 406.057 579.761 410.27C605.663 414.485 622.919 437.07 618.305 460.717C616.61 469.397 612.196 477.009 606.016 482.964L716.463 500.932C737.423 504.339 757.444 491.589 761.178 472.454L781.662 367.501C787.985 373.77 796.518 378.273 806.417 379.884C830.471 383.796 853.448 369.167 857.732 347.205C862.019 325.245 845.992 304.27 821.938 300.358Z" fill="#4385F4"/>
<g opacity="0.0800018">
<g opacity="0.0800018">
<path opacity="0.0800018" d="M584.544 296.351C592.817 301.979 604.528 300.418 610.692 292.866L614.051 288.754C620.217 281.199 618.507 270.508 610.233 264.877L476.883 174.139C476.881 174.139 476.881 174.138 476.881 174.138L437.518 147.355L401.56 331.599L470.952 378.817C479.233 384.449 490.939 382.889 497.111 375.329L500.466 371.222C506.631 363.666 504.924 352.976 496.648 347.344L417.907 293.765L419.151 292.241L420.276 290.865L522.127 360.17C530.401 365.798 542.114 364.24 548.286 356.683L551.643 352.574C551.987 352.152 552.3 351.716 552.595 351.273C552.686 351.141 552.767 351.007 552.853 350.873C553.061 350.542 553.256 350.207 553.435 349.871C553.508 349.735 553.585 349.601 553.653 349.464C553.878 349.012 554.087 348.557 554.266 348.096C554.303 348.001 554.331 347.906 554.365 347.811C554.503 347.436 554.628 347.057 554.735 346.675C554.785 346.499 554.831 346.323 554.873 346.145C554.952 345.828 555.019 345.51 555.077 345.19C555.109 345.014 555.145 344.838 555.172 344.661C555.237 344.213 555.285 343.766 555.31 343.317C555.322 343.116 555.319 342.915 555.324 342.713C555.329 342.439 555.331 342.164 555.322 341.892C555.316 341.652 555.3 341.413 555.281 341.177C555.264 340.94 555.237 340.704 555.208 340.468C555.162 340.105 555.104 339.743 555.034 339.383C554.979 339.1 554.925 338.816 554.853 338.536C554.785 338.26 554.698 337.989 554.612 337.716C554.558 337.538 554.501 337.362 554.44 337.186C554.343 336.909 554.24 336.633 554.128 336.36C554.065 336.208 553.995 336.058 553.928 335.907C553.679 335.351 553.397 334.807 553.083 334.274C553.037 334.195 552.996 334.112 552.947 334.033L552.943 334.03C551.701 332.004 549.996 330.173 547.825 328.696L445.97 259.39L447.919 257.003L566.994 338.023C575.263 343.652 586.975 342.09 593.146 334.533L596.501 330.427C602.668 322.872 600.961 312.179 592.687 306.552L473.615 225.527L476.059 222.536L584.544 296.351Z" fill="#333333"/>
</g>
</g>
<path d="M177.823 164.586L257.08 67.5044L378.836 150.354L299.578 247.434L177.823 164.586Z" fill="#D9AE8D"/>
<path d="M317.155 288.934C276.263 261.104 296.781 224.362 303.877 215.671L366.709 138.702C373.804 130.015 387.281 128.219 396.801 134.701L476.427 188.879C485.952 195.361 487.914 207.656 480.816 216.346L397.122 318.863C390.029 327.553 376.563 329.354 367.037 322.872L317.155 288.934Z" fill="#F7C6A1"/>
<path d="M443.099 215.159C434.817 209.523 433.108 198.831 439.28 191.272L442.634 187.164C448.8 179.611 460.511 178.048 468.795 183.687L602.144 274.423C610.419 280.054 612.13 290.746 605.963 298.3L602.605 302.412C596.44 309.965 584.727 311.527 576.456 305.897L443.099 215.159Z" fill="#F7C6A1"/>
<path d="M576.562 299.748C569.463 294.916 573.466 289.467 578.754 282.989C584.048 276.507 588.618 271.452 595.72 276.282C602.816 281.108 604.276 290.281 598.993 296.755C593.698 303.236 583.662 304.576 576.562 299.748Z" fill="#F7DFCD"/>
<path d="M425.553 256.834C417.268 251.192 415.563 240.502 421.735 232.945L425.083 228.836C431.251 221.282 442.964 219.723 451.247 225.357L584.597 316.098C592.873 321.725 594.579 332.42 588.413 339.973L585.058 344.079C578.886 351.637 567.173 353.2 558.906 347.569L425.553 256.834Z" fill="#F7C6A1"/>
<path d="M559.014 341.416C551.918 336.586 555.92 331.136 561.205 324.66C566.498 318.182 571.073 313.122 578.172 317.953C585.266 322.781 586.729 331.946 581.44 338.426C576.149 344.903 566.112 346.248 559.014 341.416Z" fill="#F7DFCD"/>
<path d="M380.689 278.976C372.407 273.339 370.7 262.652 376.872 255.094L380.227 250.985C386.393 243.431 398.099 241.868 406.384 247.506L539.737 338.242C548.009 343.875 549.72 354.567 543.553 362.12L540.196 366.229C534.025 373.787 522.314 375.346 514.038 369.716L380.689 278.976Z" fill="#F7C6A1"/>
<path d="M514.155 363.565C507.057 358.736 511.057 353.284 516.346 346.806C521.635 340.325 526.213 335.272 533.307 340.096C540.407 344.93 541.866 354.094 536.583 360.575C531.287 367.052 521.25 368.393 514.155 363.565Z" fill="#F7DFCD"/>
<path d="M329.516 297.627C321.23 291.989 319.529 281.299 325.695 273.744L329.045 269.633C335.22 262.08 346.926 260.515 355.207 266.153L488.559 356.889C496.835 362.522 498.541 373.214 492.379 380.767L489.022 384.875C482.852 392.436 471.144 393.996 462.865 388.363L329.516 297.627Z" fill="#F7C6A1"/>
<path d="M462.976 382.213C455.88 377.381 459.88 371.931 465.169 365.454C470.46 358.975 475.034 353.916 482.133 358.748C489.228 363.577 490.694 372.741 485.409 379.225C480.114 385.699 470.072 387.042 462.976 382.213Z" fill="#F7DFCD"/>
<path d="M-40.9995 31.8229L55.1928 -86L349.024 113.939L283.155 194.624L245.666 176.838L273.715 206.188L252.834 231.76L-40.9995 31.8229Z" fill="#353434"/>
<path d="M238.278 211.411C233.45 208.128 232.45 201.89 236.044 197.485C239.645 193.072 246.475 192.165 251.303 195.45C256.131 198.734 257.128 204.971 253.534 209.381C249.931 213.786 243.104 214.697 238.278 211.411Z" fill="#4D4D4D"/>
<path d="M240.559 208.613C237.422 206.48 236.772 202.431 239.11 199.565C241.45 196.701 245.885 196.116 249.02 198.245C252.159 200.38 252.808 204.433 250.469 207.295C248.131 210.159 243.689 210.748 240.559 208.613Z" fill="#333333"/>
<g opacity="0.0500031">
<g opacity="0.0500031">
<path opacity="0.0500031" d="M489.022 384.875L492.379 380.767C498.541 373.214 496.835 362.522 488.559 356.889L409.816 303.311L412.188 300.412L514.038 369.716C522.314 375.345 534.025 373.787 540.197 366.229L543.554 362.12C548.102 356.545 548.353 349.273 544.859 343.578L4.60265 -24.0348L-41 31.8235L252.833 231.759L261.298 221.39L292.739 242.783C291.087 257.017 295.533 274.216 317.155 288.934L327.316 295.843C327.994 296.48 328.716 297.08 329.516 297.627L462.865 388.363C471.144 393.996 482.852 392.436 489.022 384.875Z" fill="#333333"/>
</g>
</g>
<g filter="url(#filter0_d)">
<path d="M740.088 520.152C734.2 520.152 729.208 519.16 725.112 517.176C721.016 515.128 717.528 512.504 714.648 509.304L724.248 499.608C728.792 504.728 734.392 507.288 741.048 507.288C744.632 507.288 747.288 506.552 749.016 505.08C750.744 503.608 751.608 501.656 751.608 499.224C751.608 497.368 751.096 495.832 750.072 494.616C749.048 493.336 746.968 492.472 743.832 492.024L737.208 491.16C730.104 490.264 724.888 488.12 721.56 484.728C718.296 481.336 716.664 476.824 716.664 471.192C716.664 468.184 717.24 465.432 718.392 462.936C719.544 460.44 721.176 458.296 723.288 456.504C725.464 454.712 728.088 453.336 731.16 452.376C734.296 451.352 737.848 450.84 741.816 450.84C746.872 450.84 751.32 451.64 755.16 453.24C759 454.84 762.296 457.176 765.048 460.248L755.352 470.04C753.752 468.184 751.8 466.68 749.496 465.528C747.256 464.312 744.408 463.704 740.952 463.704C737.688 463.704 735.256 464.28 733.656 465.432C732.056 466.584 731.256 468.184 731.256 470.232C731.256 472.536 731.864 474.2 733.08 475.224C734.36 476.248 736.408 476.984 739.224 477.432L745.848 478.488C752.76 479.576 757.88 481.72 761.208 484.92C764.536 488.056 766.2 492.536 766.2 498.36C766.2 501.56 765.624 504.504 764.472 507.192C763.32 509.88 761.624 512.184 759.384 514.104C757.208 516.024 754.488 517.528 751.224 518.616C747.96 519.64 744.248 520.152 740.088 520.152ZM797.978 520.152C794.266 520.152 790.938 519.544 787.994 518.328C785.114 517.112 782.65 515.352 780.602 513.048C778.618 510.744 777.082 507.96 775.994 504.696C774.906 501.432 774.362 497.784 774.362 493.752C774.362 489.72 774.906 486.072 775.994 482.808C777.082 479.544 778.618 476.792 780.602 474.552C782.65 472.248 785.114 470.488 787.994 469.272C790.938 468.056 794.266 467.448 797.978 467.448C801.69 467.448 804.986 468.056 807.866 469.272C810.81 470.488 813.274 472.248 815.258 474.552C817.306 476.792 818.874 479.544 819.962 482.808C821.05 486.072 821.594 489.72 821.594 493.752C821.594 497.784 821.05 501.432 819.962 504.696C818.874 507.96 817.306 510.744 815.258 513.048C813.274 515.352 810.81 517.112 807.866 518.328C804.986 519.544 801.69 520.152 797.978 520.152ZM797.978 508.92C800.794 508.92 802.97 508.056 804.506 506.328C806.042 504.6 806.81 502.136 806.81 498.936V488.664C806.81 485.464 806.042 483 804.506 481.272C802.97 479.544 800.794 478.68 797.978 478.68C795.162 478.68 792.986 479.544 791.45 481.272C789.914 483 789.146 485.464 789.146 488.664V498.936C789.146 502.136 789.914 504.6 791.45 506.328C792.986 508.056 795.162 508.92 797.978 508.92Z" fill="#1E1E1E"/>
<path d="M924.072 600.152C920.36 600.152 917.032 599.544 914.088 598.328C911.208 597.112 908.744 595.352 906.696 593.048C904.712 590.744 903.176 587.96 902.088 584.696C901 581.432 900.456 577.784 900.456 573.752C900.456 569.72 901 566.072 902.088 562.808C903.176 559.544 904.712 556.792 906.696 554.552C908.744 552.248 911.208 550.488 914.088 549.272C917.032 548.056 920.36 547.448 924.072 547.448C927.784 547.448 931.08 548.056 933.96 549.272C936.904 550.488 939.368 552.248 941.352 554.552C943.4 556.792 944.968 559.544 946.056 562.808C947.144 566.072 947.688 569.72 947.688 573.752C947.688 577.784 947.144 581.432 946.056 584.696C944.968 587.96 943.4 590.744 941.352 593.048C939.368 595.352 936.904 597.112 933.96 598.328C931.08 599.544 927.784 600.152 924.072 600.152ZM924.072 588.92C926.888 588.92 929.064 588.056 930.6 586.328C932.136 584.6 932.904 582.136 932.904 578.936V568.664C932.904 565.464 932.136 563 930.6 561.272C929.064 559.544 926.888 558.68 924.072 558.68C921.256 558.68 919.08 559.544 917.544 561.272C916.008 563 915.24 565.464 915.24 568.664V578.936C915.24 582.136 916.008 584.6 917.544 586.328C919.08 588.056 921.256 588.92 924.072 588.92ZM957.812 599V548.6H972.02V557.144H972.596C973.492 554.52 975.06 552.248 977.3 550.328C979.54 548.408 982.644 547.448 986.612 547.448C991.796 547.448 995.7 549.176 998.324 552.632C1001.01 556.088 1002.36 561.016 1002.36 567.416V599H988.148V568.568C988.148 565.304 987.636 562.904 986.612 561.368C985.588 559.768 983.764 558.968 981.14 558.968C979.988 558.968 978.868 559.128 977.78 559.448C976.692 559.704 975.7 560.152 974.804 560.792C973.972 561.432 973.3 562.232 972.788 563.192C972.276 564.088 972.02 565.144 972.02 566.36V599H957.812ZM1035.35 600.152C1031.58 600.152 1028.22 599.544 1025.27 598.328C1022.33 597.048 1019.86 595.288 1017.88 593.048C1015.9 590.744 1014.39 587.96 1013.37 584.696C1012.34 581.432 1011.83 577.784 1011.83 573.752C1011.83 569.72 1012.34 566.104 1013.37 562.904C1014.39 559.64 1015.9 556.856 1017.88 554.552C1019.86 552.248 1022.33 550.488 1025.27 549.272C1028.22 548.056 1031.58 547.448 1035.35 547.448C1040.47 547.448 1044.73 548.6 1048.12 550.904C1051.58 553.208 1054.04 556.44 1055.51 560.6L1043.99 565.592C1043.54 563.672 1042.62 562.04 1041.21 560.696C1039.8 559.352 1037.85 558.68 1035.35 558.68C1032.47 558.68 1030.3 559.64 1028.82 561.56C1027.35 563.416 1026.62 565.944 1026.62 569.144V578.552C1026.62 581.752 1027.35 584.28 1028.82 586.136C1030.3 587.992 1032.47 588.92 1035.35 588.92C1037.91 588.92 1039.93 588.248 1041.4 586.904C1042.94 585.496 1044.06 583.672 1044.76 581.432L1055.8 586.232C1054.14 591.032 1051.54 594.552 1048.02 596.792C1044.57 599.032 1040.34 600.152 1035.35 600.152ZM1078.7 599C1073.84 599 1070.26 597.816 1067.95 595.448C1065.71 593.08 1064.59 589.656 1064.59 585.176V527.96H1078.8V587.96H1085.14V599H1078.7ZM1130.9 599C1128.34 599 1126.2 598.2 1124.47 596.6C1122.81 595 1121.75 592.856 1121.3 590.168H1120.73C1119.96 593.432 1118.26 595.928 1115.64 597.656C1113.02 599.32 1109.78 600.152 1105.94 600.152C1100.89 600.152 1097.02 598.808 1094.33 596.12C1091.64 593.432 1090.3 589.88 1090.3 585.464C1090.3 580.152 1092.22 576.216 1096.06 573.656C1099.96 571.032 1105.24 569.72 1111.9 569.72H1119.86V566.552C1119.86 564.12 1119.22 562.2 1117.94 560.792C1116.66 559.32 1114.52 558.584 1111.51 558.584C1108.7 558.584 1106.46 559.192 1104.79 560.408C1103.13 561.624 1101.75 563 1100.66 564.536L1092.22 557.048C1094.26 554.04 1096.82 551.704 1099.9 550.04C1103.03 548.312 1107.26 547.448 1112.57 547.448C1119.74 547.448 1125.11 549.016 1128.7 552.152C1132.28 555.288 1134.07 559.864 1134.07 565.88V587.96H1138.78V599H1130.9ZM1111.22 590.264C1113.59 590.264 1115.61 589.752 1117.27 588.728C1119 587.704 1119.86 586.04 1119.86 583.736V577.784H1112.95C1107.38 577.784 1104.6 579.672 1104.6 583.448V584.888C1104.6 586.744 1105.18 588.12 1106.33 589.016C1107.48 589.848 1109.11 590.264 1111.22 590.264ZM1158.13 599L1141.61 548.6H1155.63L1161.87 568.952L1166.57 587.192H1167.34L1172.05 568.952L1178.09 548.6H1191.53L1175.02 599H1158.13ZM1219.3 600.152C1215.46 600.152 1212.04 599.544 1209.03 598.328C1206.02 597.048 1203.46 595.288 1201.35 593.048C1199.3 590.744 1197.74 587.96 1196.65 584.696C1195.62 581.432 1195.11 577.784 1195.11 573.752C1195.11 569.784 1195.62 566.2 1196.65 563C1197.67 559.736 1199.18 556.952 1201.16 554.648C1203.21 552.344 1205.7 550.584 1208.65 549.368C1211.59 548.088 1214.95 547.448 1218.73 547.448C1222.89 547.448 1226.44 548.152 1229.38 549.56C1232.39 550.968 1234.82 552.856 1236.68 555.224C1238.6 557.592 1239.98 560.344 1240.81 563.48C1241.7 566.552 1242.15 569.784 1242.15 573.176V577.4H1209.8V578.168C1209.8 581.496 1210.7 584.152 1212.49 586.136C1214.28 588.056 1217.1 589.016 1220.94 589.016C1223.88 589.016 1226.28 588.44 1228.14 587.288C1229.99 586.072 1231.72 584.632 1233.32 582.968L1240.42 591.8C1238.18 594.424 1235.24 596.472 1231.59 597.944C1228.01 599.416 1223.91 600.152 1219.3 600.152ZM1219.02 557.912C1216.14 557.912 1213.86 558.872 1212.2 560.792C1210.6 562.648 1209.8 565.144 1209.8 568.28V569.048H1227.46V568.184C1227.46 565.112 1226.76 562.648 1225.35 560.792C1224.01 558.872 1221.9 557.912 1219.02 557.912Z" fill="#1E1E1E"/>
<path d="M984.728 461.224C981.848 461.224 979.736 460.584 978.392 459.304C977.112 457.96 976.472 456.264 976.472 454.216V452.104C976.472 450.056 977.112 448.392 978.392 447.112C979.736 445.768 981.848 445.096 984.728 445.096C987.608 445.096 989.688 445.768 990.968 447.112C992.312 448.392 992.984 450.056 992.984 452.104V454.216C992.984 456.264 992.312 457.96 990.968 459.304C989.688 460.584 987.608 461.224 984.728 461.224ZM977.624 466.6H991.832V517H977.624V466.6ZM1042.34 517C1039.78 517 1037.64 516.2 1035.91 514.6C1034.24 513 1033.19 510.856 1032.74 508.168H1032.16C1031.4 511.432 1029.7 513.928 1027.08 515.656C1024.45 517.32 1021.22 518.152 1017.38 518.152C1012.32 518.152 1008.45 516.808 1005.76 514.12C1003.08 511.432 1001.73 507.88 1001.73 503.464C1001.73 498.152 1003.65 494.216 1007.49 491.656C1011.4 489.032 1016.68 487.72 1023.33 487.72H1031.3V484.552C1031.3 482.12 1030.66 480.2 1029.38 478.792C1028.1 477.32 1025.96 476.584 1022.95 476.584C1020.13 476.584 1017.89 477.192 1016.23 478.408C1014.56 479.624 1013.19 481 1012.1 482.536L1003.65 475.048C1005.7 472.04 1008.26 469.704 1011.33 468.04C1014.47 466.312 1018.69 465.448 1024 465.448C1031.17 465.448 1036.55 467.016 1040.13 470.152C1043.72 473.288 1045.51 477.864 1045.51 483.88V505.96H1050.21V517H1042.34ZM1022.66 508.264C1025.03 508.264 1027.04 507.752 1028.71 506.728C1030.44 505.704 1031.3 504.04 1031.3 501.736V495.784H1024.39C1018.82 495.784 1016.04 497.672 1016.04 501.448V502.888C1016.04 504.744 1016.61 506.12 1017.76 507.016C1018.92 507.848 1020.55 508.264 1022.66 508.264ZM1073.86 517C1069 517 1065.41 515.816 1063.11 513.448C1060.87 511.08 1059.75 507.656 1059.75 503.176V445.96H1073.96V505.96H1080.29V517H1073.86Z" fill="#1E1E1E"/>
<path d="M899.632 664.456C874.096 664.456 854.224 655.816 840.016 638.536C825.808 621.064 818.704 595.432 818.704 561.64C818.704 527.848 825.808 501.928 840.016 483.88C854.224 465.64 874.096 456.52 899.632 456.52C916.528 456.52 930.64 460.36 941.968 468.04C953.488 475.72 962.416 486.568 968.752 500.584L949.168 512.392C945.136 502.024 938.992 493.768 930.736 487.624C922.48 481.288 912.112 478.12 899.632 478.12C890.992 478.12 883.216 479.752 876.304 483.016C869.584 486.28 863.824 490.984 859.024 497.128C854.416 503.08 850.864 510.28 848.368 518.728C845.872 526.984 844.624 536.296 844.624 546.664V576.616C844.624 597.352 849.424 613.576 859.024 625.288C868.624 637 882.16 642.856 899.632 642.856C912.496 642.856 923.248 639.592 931.888 633.064C940.528 626.344 946.864 617.512 950.896 606.568L970.192 618.664C963.856 632.872 954.736 644.104 942.832 652.36C930.928 660.424 916.528 664.456 899.632 664.456Z" fill="#1E1E1E"/>
</g>
</g>
<defs>
<filter id="filter0_d" x="704.648" y="445.096" width="537.504" height="229.36" filterUnits="userSpaceOnUse" color-interpolation-filters="sRGB">
<feFlood flood-opacity="0" result="BackgroundImageFix"/>
<feColorMatrix in="SourceAlpha" type="matrix" values="0 0 0 0 0 0 0 0 0 0 0 0 0 0 0 0 0 0 127 0"/>
<feOffset dx="-6" dy="6"/>
<feGaussianBlur stdDeviation="2"/>
<feColorMatrix type="matrix" values="0 0 0 0 0.366667 0 0 0 0 0.366667 0 0 0 0 0.366667 0 0 0 0.5 0"/>
<feBlend mode="normal" in2="BackgroundImageFix" result="effect1_dropShadow"/>
<feBlend mode="normal" in="SourceGraphic" in2="effect1_dropShadow" result="shape"/>
</filter>
<clipPath id="clip0">
<rect width="1920" height="1080" fill="white"/>
</clipPath>
</defs>
</svg>
