<svg width="1920" height="1001" viewBox="0 0 1920 1001" fill="none" xmlns="http://www.w3.org/2000/svg">
<g clip-path="url(#clip0)">
<rect width="1920" height="1001" fill="black"/>
<path d="M1558.27 538.555L1451.39 524.149C1454.52 530.993 1455.63 538.6 1454.17 546.369C1449.76 569.783 1423.76 585.74 1396.09 582.01C1368.42 578.279 1349.56 556.275 1353.97 532.864C1355.43 525.092 1359.28 518.154 1364.77 512.472L1258.36 498.13C1237.35 495.298 1217.61 507.411 1214.26 525.185L1196.7 618.496C1191.57 615.599 1185.64 613.565 1179.15 612.689C1155.05 609.441 1132.4 623.341 1128.56 643.74C1124.72 664.135 1141.14 683.304 1165.25 686.553C1171.74 687.428 1178.12 687.049 1184.06 685.648L1166.49 778.96C1163.14 796.733 1177.46 813.437 1198.46 816.269L1498.38 856.693C1519.38 859.525 1539.12 847.413 1542.47 829.639L1590.25 575.864C1593.59 558.09 1579.27 541.387 1558.27 538.555Z" fill="#E6BF26"/>
<g opacity="0.0800018">
<g opacity="0.0800018">
<path opacity="0.0800018" d="M1542.47 829.639L1559.06 741.545L1462.8 651.102C1455.9 644.615 1444.1 644.094 1436.43 649.936L1432.26 653.108C1424.61 658.947 1423.99 668.937 1430.89 675.422L1496.53 737.109L1494.47 738.686L1493.59 739.349L1408.67 659.554C1401.78 653.074 1389.97 652.55 1382.3 658.388L1378.13 661.564C1377.5 662.044 1376.94 662.562 1376.4 663.096C1376.27 663.229 1376.14 663.364 1376.01 663.503C1375.52 664.019 1375.07 664.55 1374.67 665.105C1374.65 665.134 1374.63 665.159 1374.61 665.186C1374.19 665.781 1373.83 666.4 1373.51 667.027C1373.44 667.158 1373.38 667.29 1373.32 667.422C1373.03 668.033 1372.78 668.653 1372.58 669.286C1372.57 669.307 1372.57 669.327 1372.56 669.348C1372.35 670.028 1372.21 670.72 1372.11 671.416C1372.1 671.511 1372.09 671.605 1372.08 671.7C1371.99 672.387 1371.95 673.076 1371.98 673.764V673.767C1372 674.491 1372.09 675.213 1372.23 675.931C1372.25 675.985 1372.26 676.039 1372.27 676.094C1372.42 676.793 1372.62 677.484 1372.87 678.163C1372.88 678.17 1372.88 678.177 1372.88 678.183L1372.88 678.185C1373.66 680.23 1374.94 682.175 1376.75 683.877L1461.67 763.671L1459.25 765.518L1359.97 672.232C1353.08 665.75 1341.27 665.23 1333.61 671.071L1329.44 674.243C1321.78 680.079 1321.16 690.074 1328.06 696.551L1427.33 789.84L1424.3 792.154L1333.85 707.162C1326.95 700.682 1315.14 700.158 1307.48 705.996L1303.31 709.172C1295.65 715.01 1295.04 725.002 1301.93 731.485L1413.11 835.958L1413.12 835.966L1424.49 846.649L1368.27 837.697C1364.8 837.08 1361.36 837.159 1358.11 837.787L1498.38 856.694C1519.38 859.526 1539.12 847.412 1542.47 829.639Z" fill="#333333"/>
</g>
</g>
<path d="M1706.27 899.347L1607.82 974.366L1506.31 878.975L1604.76 803.96L1706.27 899.347Z" fill="#D9AE8D"/>
<path d="M1596.44 763.367C1630.53 795.408 1602.56 825.372 1593.74 832.086L1515.69 891.564C1506.88 898.277 1493.29 897.677 1485.35 890.215L1418.97 827.834C1411.02 820.37 1411.74 808.882 1420.56 802.168L1524.52 722.947C1533.33 716.233 1546.91 716.827 1554.86 724.291L1596.44 763.367Z" fill="#F7C6A1"/>
<path d="M1457.25 809.493C1464.15 815.982 1463.54 825.974 1455.87 831.816L1451.7 834.988C1444.04 840.827 1432.23 840.304 1425.33 833.812L1314.15 729.34C1307.25 722.857 1307.87 712.865 1315.53 707.028L1319.7 703.851C1327.36 698.014 1339.17 698.538 1346.07 705.018L1457.25 809.493Z" fill="#F7C6A1"/>
<path d="M1344.64 710.583C1350.56 716.145 1345.47 720.431 1338.9 725.439C1332.33 730.446 1326.77 734.278 1320.84 728.715C1314.93 723.159 1315.46 714.59 1322.03 709.587C1328.61 704.579 1338.72 705.023 1344.64 710.583Z" fill="#F7DFCD"/>
<path d="M1483.37 774.56C1490.28 781.054 1489.66 791.043 1481.99 796.882L1477.83 800.057C1470.17 805.896 1458.36 805.371 1451.45 798.884L1340.28 694.406C1333.38 687.929 1334 677.934 1341.66 672.1L1345.83 668.926C1353.49 663.085 1365.3 663.607 1372.19 670.087L1483.37 774.56Z" fill="#F7C6A1"/>
<path d="M1370.77 675.658C1376.68 681.218 1371.59 685.503 1365.03 690.507C1358.45 695.515 1352.89 699.349 1346.97 693.786C1341.05 688.228 1341.59 679.664 1348.16 674.658C1354.73 669.653 1364.85 670.096 1370.77 675.658Z" fill="#F7DFCD"/>
<path d="M1532.07 761.885C1538.97 768.374 1538.36 778.364 1530.69 784.202L1526.52 787.377C1518.86 793.216 1507.06 792.694 1500.15 786.204L1388.97 681.732C1382.07 675.246 1382.69 665.257 1390.35 659.42L1394.52 656.243C1402.18 650.406 1413.99 650.93 1420.89 657.41L1532.07 761.885Z" fill="#F7C6A1"/>
<path d="M1419.46 662.978C1425.38 668.538 1420.29 672.823 1413.72 677.83C1407.15 682.841 1401.58 686.67 1395.67 681.112C1389.75 675.548 1390.28 666.984 1396.85 661.978C1403.42 656.974 1413.55 657.418 1419.46 662.978Z" fill="#F7DFCD"/>
<path d="M1586.2 753.427C1593.11 759.919 1592.48 769.908 1584.82 775.746L1580.66 778.921C1572.99 784.76 1561.19 784.241 1554.28 777.749L1443.1 673.276C1436.2 666.793 1436.82 656.801 1444.48 650.964L1448.65 647.79C1456.32 641.95 1468.12 642.471 1475.02 648.957L1586.2 753.427Z" fill="#F7C6A1"/>
<path d="M1473.59 654.522C1479.51 660.084 1474.42 664.37 1467.85 669.374C1461.28 674.382 1455.72 678.217 1449.8 672.654C1443.88 667.095 1444.41 658.531 1450.98 653.52C1457.55 648.518 1467.68 648.962 1473.59 654.522Z" fill="#F7DFCD"/>
<path d="M1506.12 855.559C1518.94 857.84 1527.15 868.483 1524.45 879.325L1524.21 880.29C1521.51 891.13 1508.94 898.077 1496.12 895.796L1370.49 875.786C1357.68 873.505 1349.47 862.867 1352.16 852.024L1352.41 851.059C1355.1 840.209 1367.68 833.275 1380.49 835.553L1506.12 855.559Z" fill="#F7C6A1"/>
<path d="M1360.19 864.667C1359.69 867.105 1359.84 869.504 1360.51 871.768C1363.33 873.697 1366.7 875.116 1370.49 875.786L1388.99 878.827C1390.25 876.192 1391.01 872.877 1391.74 869.289C1393.65 859.922 1394.76 852.269 1383.69 850.649C1372.63 849.033 1362.11 855.304 1360.19 864.667Z" fill="#F7DFCD"/>
<path d="M1892.17 1056.13L1772.68 1147.18L1527.7 916.978L1609.53 854.63L1642.44 876.986L1621.26 845.693L1647.19 825.932L1892.17 1056.13Z" fill="#ECECEC"/>
<path d="M1657.09 846.82C1661.12 850.598 1660.76 856.431 1656.29 859.833C1651.82 863.244 1644.93 862.934 1640.91 859.153C1636.88 855.372 1637.24 849.545 1641.71 846.134C1646.19 842.734 1653.07 843.036 1657.09 846.82Z" fill="#4D4D4D"/>
<path d="M1654.26 848.981C1656.87 851.438 1656.64 855.222 1653.74 857.436C1650.83 859.649 1646.36 859.449 1643.74 856.995C1641.13 854.535 1641.36 850.748 1644.27 848.538C1647.17 846.323 1651.65 846.524 1654.26 848.981Z" fill="#333333"/>
<g opacity="0.0500031">
<g opacity="0.0500031">
<path opacity="0.0500031" d="M1448.65 647.791L1444.48 650.963C1436.82 656.802 1436.2 666.794 1443.1 673.277L1508.75 734.968L1505.81 737.206L1420.89 657.411C1413.99 650.93 1402.19 650.405 1394.52 656.243L1390.35 659.42C1384.7 663.728 1382.9 670.291 1385.1 676.038L1835.52 1099.3L1892.17 1056.13L1647.19 825.931L1636.68 833.945L1610.47 809.316C1615.14 796.664 1614.47 780.313 1596.44 763.367L1587.97 755.411C1587.44 754.72 1586.86 754.055 1586.2 753.427L1475.02 648.958C1468.12 642.47 1456.32 641.949 1448.65 647.791Z" fill="#333333"/>
</g>
</g>
<path d="M1546.14 168.149C1553.08 158.966 1567.5 156.285 1578.34 162.152L1579.31 162.679C1590.15 168.546 1593.32 180.744 1586.39 189.923L1520.95 280.7C1514.01 289.877 1499.6 292.56 1488.75 286.696L1487.79 286.168C1476.94 280.298 1473.78 268.104 1480.71 258.925L1546.14 168.149Z" fill="#F7D1B4"/>
<path d="M1505.28 284.847C1507.76 286.086 1510.42 286.802 1513.11 287.072C1516.18 285.544 1518.9 283.417 1520.95 280.7L1530.69 267.368C1528.26 265.468 1524.92 263.729 1521.28 261.911C1511.77 257.163 1503.84 253.642 1498.22 261.685C1492.62 269.733 1495.77 280.1 1505.28 284.847Z" fill="#F7DFCD"/>
<path d="M1484.39 78.4427H1185.86C1164.95 78.4427 1148 92.7859 1148 110.476V201.155C1155.4 197.375 1164.08 195.198 1173.35 195.198C1200.49 195.198 1222.5 213.816 1222.5 236.782C1222.5 259.749 1200.49 278.366 1173.35 278.366C1164.08 278.366 1155.4 276.188 1148 272.409V363.087C1148 380.779 1164.95 395.121 1185.86 395.121H1299.42C1294.41 401.115 1291.45 408.427 1291.45 416.329C1291.45 436.632 1310.9 453.091 1334.89 453.091C1358.89 453.091 1378.34 436.632 1378.34 416.329C1378.34 408.427 1375.38 401.115 1370.37 395.121H1484.39C1505.3 395.121 1522.25 380.779 1522.25 363.087V110.476C1522.25 92.7859 1505.3 78.4427 1484.39 78.4427Z" fill="#DB4437"/>
<g opacity="0.0800018">
<g opacity="0.0800018">
<path opacity="0.0800018" d="M1522.25 110.477C1522.25 92.785 1505.3 78.4432 1484.39 78.4432H1478L1477.14 78.6304C1476.7 78.6672 1476.26 78.7098 1475.81 78.775C1475.31 78.8417 1474.81 78.9254 1474.31 79.0346L1316.18 113.591C1306.37 115.738 1300.47 124.207 1303 132.516L1304.38 137.032C1306.92 145.332 1316.93 150.327 1326.74 148.184L1420.12 127.778L1420.68 129.616L1421.09 130.966L1300.31 157.361C1290.5 159.507 1284.59 167.977 1287.12 176.285L1288.5 180.802C1288.64 181.267 1288.82 181.718 1289 182.162C1289.06 182.295 1289.12 182.426 1289.18 182.557C1289.33 182.881 1289.49 183.197 1289.66 183.508C1289.73 183.631 1289.8 183.757 1289.87 183.879C1290.11 184.282 1290.36 184.676 1290.64 185.055C1290.7 185.136 1290.76 185.212 1290.82 185.292C1291.05 185.591 1291.29 185.883 1291.54 186.167C1291.66 186.303 1291.78 186.436 1291.91 186.568C1292.12 186.795 1292.34 187.016 1292.57 187.232C1292.7 187.356 1292.83 187.484 1292.96 187.606C1293.3 187.901 1293.64 188.185 1294 188.457C1294.16 188.585 1294.34 188.701 1294.51 188.823C1294.73 188.977 1294.96 189.131 1295.18 189.275C1295.39 189.411 1295.61 189.54 1295.82 189.668C1296.02 189.786 1296.23 189.898 1296.44 190.01C1296.89 190.254 1297.36 190.481 1297.84 190.691C1297.99 190.756 1298.13 190.827 1298.28 190.889C1298.57 191.004 1298.85 191.105 1299.14 191.208C1299.31 191.271 1299.49 191.333 1299.67 191.391C1299.96 191.489 1300.26 191.58 1300.57 191.665C1300.73 191.709 1300.89 191.749 1301.05 191.788C1301.68 191.947 1302.32 192.079 1302.96 192.18C1303.06 192.194 1303.15 192.214 1303.24 192.228L1303.24 192.226C1305.7 192.577 1308.29 192.517 1310.86 191.956L1431.65 165.559L1432.45 168.184L1291.25 199.044C1281.44 201.185 1275.54 209.658 1278.07 217.966L1279.45 222.481C1281.98 230.783 1291.99 235.78 1301.8 233.634L1443.01 202.779L1444.01 206.068L1315.37 234.181C1305.56 236.326 1299.65 244.798 1302.19 253.101L1303.57 257.619C1306.1 265.923 1316.11 270.914 1325.93 268.772L1484.06 234.215C1484.07 234.214 1484.07 234.211 1484.08 234.211L1522.25 225.868V110.477Z" fill="#333333"/>
</g>
</g>
<path d="M1684.16 38.1068L1716.72 144.811L1572.34 176.363L1539.77 69.6594L1684.16 38.1068Z" fill="#EBC09F"/>
<path d="M1494.17 57.36C1542.67 46.765 1560.83 81.0135 1563.74 90.5648L1589.57 175.16C1592.48 184.709 1585.69 194.459 1574.4 196.925L1479.97 217.56C1468.68 220.029 1457.17 214.282 1454.25 204.731L1419.86 92.0525C1416.94 82.5026 1423.73 72.757 1435.02 70.2866L1494.17 57.36Z" fill="#F7D1B4"/>
<path d="M1478.47 180.99C1488.29 178.843 1498.3 183.838 1500.84 192.147L1502.21 196.661C1504.75 204.964 1498.85 213.437 1489.02 215.583L1330.89 250.139C1321.08 252.282 1311.06 247.29 1308.53 238.987L1307.15 234.467C1304.62 226.165 1310.52 217.693 1320.33 215.549L1478.47 180.99Z" fill="#F7D1B4"/>
<path d="M1325.42 219.129C1333.83 217.29 1335.94 222.989 1338.11 230.11C1340.28 237.235 1341.71 243.079 1333.29 244.92C1324.87 246.759 1316.29 242.473 1314.12 235.355C1311.94 228.231 1317 220.97 1325.42 219.129Z" fill="#FFECDE"/>
<path d="M1454.34 145.851C1464.17 143.707 1474.18 148.703 1476.71 157.011L1478.1 161.522C1480.63 169.825 1474.73 178.299 1464.91 180.446L1306.77 215.001C1296.96 217.148 1286.94 212.151 1284.41 203.848L1283.03 199.333C1280.5 191.025 1286.4 182.552 1296.21 180.412L1454.34 145.851Z" fill="#F7D1B4"/>
<path d="M1301.3 183.992C1309.71 182.152 1311.82 187.853 1313.99 194.973C1316.16 202.095 1317.59 207.943 1309.17 209.781C1300.75 211.62 1292.17 207.338 1290 200.216C1287.83 193.095 1292.88 185.83 1301.3 183.992Z" fill="#FFECDE"/>
<path d="M1463.4 104.172C1473.23 102.027 1483.23 107.02 1485.77 115.328L1487.15 119.845C1489.68 128.148 1483.79 136.617 1473.96 138.764L1315.83 173.323C1306.01 175.465 1296 170.471 1293.46 162.17L1292.09 157.653C1289.55 149.345 1295.46 140.873 1305.27 138.727L1463.4 104.172Z" fill="#F7D1B4"/>
<path d="M1310.35 142.313C1318.77 140.473 1320.87 146.173 1323.05 153.295C1325.22 160.415 1326.64 166.264 1318.23 168.102C1309.81 169.941 1301.23 165.657 1299.05 158.538C1296.88 151.414 1301.94 144.15 1310.35 142.313Z" fill="#FFECDE"/>
<path d="M1479.28 60.402C1489.1 58.2549 1499.11 63.2525 1501.65 71.5558L1503.03 76.0698C1505.56 84.3774 1499.66 92.8481 1489.84 94.9938L1331.7 129.551C1321.89 131.694 1311.88 126.7 1309.34 118.399L1307.97 113.882C1305.43 105.575 1311.33 97.1054 1321.14 94.9583L1479.28 60.402Z" fill="#F7D1B4"/>
<path d="M1326.23 98.5401C1334.65 96.7021 1336.75 102.402 1338.92 109.522C1341.1 116.644 1342.52 122.493 1334.1 124.331C1325.69 126.169 1317.1 121.889 1314.93 114.767C1312.76 107.646 1317.82 100.379 1326.23 98.5401Z" fill="#FFECDE"/>
<path d="M1930.13 -27.8056L1969.65 101.697L1621.21 177.84L1594.14 89.16L1632.12 75.0366L1590.26 76.4505L1581.68 48.3412L1930.13 -27.8056Z" fill="#E6BF26"/>
<path d="M1607.7 50.5275C1613.42 49.2753 1619.27 52.1868 1620.74 57.027C1622.23 61.8756 1618.78 66.8151 1613.05 68.0673C1607.33 69.3181 1601.49 66.4067 1600.01 61.5622C1598.53 56.7164 1601.97 51.7769 1607.7 50.5275Z" fill="#4D4D4D"/>
<path d="M1608.64 53.6006C1612.36 52.7866 1616.15 54.677 1617.11 57.8253C1618.07 60.9736 1615.83 64.1801 1612.12 64.9955C1608.4 65.8081 1604.6 63.9149 1603.64 60.7694C1602.68 57.6196 1604.92 54.4089 1608.64 53.6006Z" fill="#333333"/>
<g opacity="0.0500031">
<g opacity="0.0500031">
<path opacity="0.0500031" d="M1307.97 113.883L1309.34 118.398C1311.88 126.7 1321.89 131.695 1331.7 129.552L1425.08 109.143L1426.05 112.334L1305.27 138.728C1295.46 140.873 1289.55 149.345 1292.09 157.653L1293.46 162.17C1295.34 168.295 1301.28 172.606 1308.2 173.594L1948.87 33.5894L1930.13 -27.8056L1581.68 48.3411L1585.16 59.7375L1547.88 67.8862C1536.97 58.6937 1519.82 51.7603 1494.17 57.3606L1482.13 59.9956C1481.18 60.0722 1480.23 60.1956 1479.28 60.4026L1321.14 94.9589C1311.33 97.1046 1305.43 105.574 1307.97 113.883Z" fill="#333333"/>
</g>
</g>
<path d="M412.35 888.946C406.352 898.972 391.887 902.987 380.05 897.912L378.994 897.457C367.156 892.386 362.414 880.149 368.41 870.124L424.459 771.285C430.455 761.264 444.91 757.253 456.757 762.318L457.808 762.776C469.657 767.848 474.39 780.083 468.395 790.106L412.35 888.946Z" fill="#C7A482"/>
<path d="M780.251 728.4C786.454 727.886 792.502 728.355 798.187 729.645L787.767 639.736C785.663 621.583 766.563 608.311 745.11 610.09L627.898 619.817C632.592 613.12 634.907 605.15 633.939 596.808C631.525 575.972 609.609 560.74 584.987 562.783C560.366 564.827 542.365 583.372 544.781 604.207C545.747 612.55 549.847 619.987 555.989 625.786L438.777 635.513C417.324 637.293 401.635 653.453 403.74 671.606L433.783 930.816C435.888 948.969 454.988 962.245 476.441 960.464L782.773 935.041C804.227 933.262 819.915 917.099 817.811 898.946L807.391 809.037C802.108 811.238 796.285 812.691 790.079 813.206C762.405 815.503 737.771 798.381 735.056 774.962C732.341 751.542 752.576 730.698 780.251 728.4Z" fill="#46A651"/>
<g opacity="0.149994">
<g opacity="0.149994">
<path opacity="0.149994" d="M468.741 979.601L630.824 944.646C640.955 942.46 647.072 933.746 644.485 925.173L643.086 920.511C640.502 911.944 630.2 906.767 620.072 908.951L523.721 929.732L523.049 927.499L522.733 926.442L647.363 899.562C657.489 897.377 663.608 888.657 661.026 880.085L659.625 875.428C659.479 874.945 659.301 874.477 659.111 874.021C659.054 873.884 658.992 873.752 658.932 873.62C658.778 873.281 658.612 872.952 658.434 872.628C658.365 872.502 658.299 872.377 658.228 872.255C657.983 871.836 657.72 871.424 657.437 871.031C657.382 870.952 657.318 870.883 657.262 870.809C657.024 870.49 656.775 870.183 656.512 869.883C656.391 869.744 656.267 869.607 656.141 869.475C655.921 869.237 655.692 869.007 655.455 868.782C655.322 868.653 655.189 868.523 655.049 868.397C654.708 868.092 654.356 867.798 653.99 867.519C653.817 867.387 653.632 867.264 653.452 867.136C653.229 866.979 653.005 866.82 652.773 866.673C652.555 866.53 652.332 866.393 652.108 866.263C651.906 866.141 651.698 866.03 651.491 865.918C650.596 865.432 649.656 865.011 648.676 864.66C648.507 864.599 648.339 864.539 648.168 864.482C647.853 864.378 647.535 864.277 647.214 864.189C647.067 864.147 646.915 864.112 646.765 864.071C646.067 863.891 645.358 863.745 644.634 863.634C644.581 863.625 644.529 863.615 644.475 863.604H644.472C641.933 863.236 639.269 863.29 636.611 863.865L511.978 890.744L511.16 888.035L656.867 856.611C666.988 854.432 673.103 845.712 670.523 837.137L669.122 832.477C666.542 823.909 656.236 818.73 646.115 820.917L500.407 852.338L499.386 848.944L632.135 820.313C642.256 818.132 648.374 809.411 645.792 800.844L644.39 796.181C641.809 787.613 631.505 782.437 621.377 784.62L458.202 819.813C458.195 819.813 458.19 819.818 458.181 819.818L422.985 827.406L437.239 950.387C438.969 965.305 452.182 976.924 468.741 979.601Z" fill="#333333"/>
</g>
</g>
<path d="M286.641 1034.41L240.208 927.799L384.477 882.811L430.907 989.429L286.641 1034.41Z" fill="#B39273"/>
<path d="M479.188 998.06C430.731 1013.17 407.92 979.62 403.766 970.075L366.947 885.553C362.794 876.008 368.571 865.41 379.855 861.898L474.2 832.476C485.487 828.958 497.998 833.843 502.152 843.388L551.186 955.975C555.344 965.516 549.577 976.107 538.29 979.628L479.188 998.06Z" fill="#C7A482"/>
<path d="M480.209 869.859C470.394 872.92 459.513 868.671 455.898 860.369L453.935 855.861C450.322 847.562 455.34 838.354 465.158 835.294L623.161 786.024C632.968 782.966 643.849 787.214 647.464 795.509L649.427 800.026C653.042 808.321 648.02 817.531 638.221 820.587L480.209 869.859Z" fill="#C7A482"/>
<path d="M632.563 817.36C624.15 819.981 621.298 814.318 618.198 807.205C615.1 800.082 612.928 794.213 621.342 791.587C629.747 788.964 639.076 792.615 642.175 799.724C645.271 806.845 640.972 814.734 632.563 817.36Z" fill="#F7DFCD"/>
<path d="M509.246 903.797C499.427 906.856 488.547 902.606 484.936 894.306L482.966 889.8C479.353 881.502 484.374 872.293 494.188 869.231L652.199 819.961C661.999 816.902 672.882 821.153 676.495 829.448L678.456 833.963C682.07 842.264 677.051 851.473 667.252 854.526L509.246 903.797Z" fill="#C7A482"/>
<path d="M661.592 851.297C653.183 853.917 650.33 848.254 647.232 841.141C644.134 834.024 641.962 828.149 650.372 825.526C658.78 822.906 668.106 826.548 671.205 833.665C674.301 840.781 670.006 848.675 661.592 851.297Z" fill="#F7DFCD"/>
<path d="M505.038 947.346C495.222 950.405 484.347 946.159 480.732 937.858L478.767 933.345C475.152 925.049 480.169 915.844 489.986 912.783L647.992 863.511C657.799 860.457 668.676 864.701 672.293 872.999L674.256 877.51C677.869 885.811 672.848 895.019 663.043 898.077L505.038 947.346Z" fill="#C7A482"/>
<path d="M657.392 894.844C648.982 897.467 646.125 891.803 643.027 884.689C639.927 877.573 637.76 871.698 646.165 869.075C654.58 866.454 663.903 870.1 667.005 877.212C670.098 884.33 665.8 892.224 657.392 894.844Z" fill="#F7DFCD"/>
<path d="M494.098 993.638C484.278 996.699 473.404 992.446 469.789 984.149L467.82 979.64C464.211 971.338 469.225 962.133 479.04 959.074L637.047 909.803C646.853 906.746 657.733 910.993 661.348 919.288L663.311 923.804C666.929 932.103 661.909 941.306 652.099 944.366L494.098 993.638Z" fill="#C7A482"/>
<path d="M646.447 941.136C638.035 943.759 635.179 938.095 632.082 930.981C628.986 923.865 626.812 917.988 635.224 915.366C643.632 912.746 652.959 916.386 656.064 923.503C659.155 930.618 654.852 938.513 646.447 941.136Z" fill="#F7DFCD"/>
<path d="M42.3558 1123.53L-14 994.132L334.162 885.566L372.754 974.174L335.51 991.981L378.285 986.874L390.515 1014.96L42.3558 1123.53Z" fill="#26C3E6"/>
<path d="M363.562 1014.99C357.842 1016.77 351.491 1014.3 349.387 1009.46C347.273 1004.62 350.204 999.249 355.925 997.464C361.645 995.681 367.992 998.158 370.104 1003C372.207 1007.84 369.281 1013.21 363.562 1014.99Z" fill="#4D4D4D"/>
<path d="M362.221 1011.92C358.506 1013.08 354.383 1011.47 353.012 1008.33C351.644 1005.18 353.548 1001.7 357.26 1000.54C360.978 999.374 365.103 1000.98 366.472 1004.13C367.842 1007.27 365.936 1010.77 362.221 1011.92Z" fill="#333333"/>
<g opacity="0.0500031">
<g opacity="0.0500031">
<path opacity="0.0500031" d="M663.311 923.804L661.348 919.289C657.733 910.994 646.853 906.746 637.047 909.803L543.746 938.9L542.363 935.711L663.043 898.077C672.848 895.018 677.869 885.812 674.256 877.511L672.293 873C669.625 866.875 663.005 862.974 655.782 862.565L15.6366 1062.18L42.3551 1123.53L390.514 1014.96L385.555 1003.57L422.805 991.955C435.124 1000.43 453.562 1006.05 479.189 998.06L491.224 994.302C492.19 994.141 493.148 993.933 494.098 993.638L652.099 944.367C661.909 941.306 666.929 932.103 663.311 923.804Z" fill="#333333"/>
</g>
</g>
<path d="M387.857 162.184C374.816 163.387 363.098 155.419 361.678 144.395L361.555 143.411C360.135 132.387 369.548 122.47 382.585 121.268L509.469 107.248C522.503 106.046 534.217 114.008 535.646 125.035L535.765 126.017C537.189 137.051 527.773 146.957 514.741 148.162L387.857 162.184Z" fill="#F7C6A1"/>
<path d="M821.938 278.387C812.039 276.895 802.326 278.318 794.022 281.922L814.505 184.645C818.239 166.91 804.272 149.968 783.312 146.809L484.023 101.686C463.063 98.5266 443.042 110.344 439.307 128.079L385.982 381.33C382.246 399.065 396.212 416.006 417.172 419.166L527.62 435.817C524.073 428.83 522.81 420.921 524.505 412.874C529.12 390.956 553.858 376.355 579.761 380.259C605.663 384.166 622.919 405.099 618.305 427.016C616.61 435.062 612.196 442.116 606.016 447.636L716.463 464.29C737.423 467.448 757.444 455.631 761.178 437.895L781.662 340.619C787.985 346.429 796.518 350.603 806.417 352.096C830.471 355.722 853.448 342.163 857.732 321.808C862.019 301.454 845.992 282.013 821.938 278.387Z" fill="#4385F4"/>
<g opacity="0.0800018">
<g opacity="0.0800018">
<path opacity="0.0800018" d="M584.544 274.674C592.817 279.89 604.528 278.443 610.692 271.443L614.051 267.632C620.217 260.629 618.507 250.721 610.233 245.502L476.883 161.401C476.881 161.401 476.881 161.4 476.881 161.4L437.518 136.576L401.56 307.343L470.952 351.108C479.233 356.327 490.939 354.881 497.111 347.874L500.466 344.068C506.631 337.065 504.924 327.157 496.648 321.936L417.907 272.276L419.151 270.864L420.276 269.589L522.127 333.824C530.401 339.04 542.114 337.596 548.286 330.592L551.643 326.784C551.988 326.393 552.3 325.988 552.595 325.578C552.686 325.455 552.767 325.331 552.853 325.207C553.061 324.901 553.256 324.59 553.435 324.278C553.508 324.153 553.585 324.029 553.653 323.902C553.879 323.483 554.087 323.061 554.266 322.634C554.303 322.545 554.331 322.457 554.365 322.369C554.503 322.021 554.628 321.67 554.735 321.317C554.785 321.153 554.831 320.99 554.874 320.826C554.952 320.531 555.019 320.236 555.077 319.94C555.109 319.777 555.145 319.614 555.172 319.449C555.237 319.035 555.285 318.62 555.31 318.204C555.322 318.018 555.319 317.832 555.324 317.644C555.329 317.39 555.331 317.136 555.322 316.883C555.316 316.661 555.3 316.44 555.281 316.22C555.264 316.001 555.237 315.783 555.208 315.563C555.162 315.227 555.104 314.892 555.034 314.558C554.979 314.295 554.925 314.032 554.853 313.772C554.785 313.517 554.698 313.265 554.612 313.013C554.558 312.848 554.501 312.685 554.44 312.522C554.343 312.265 554.24 312.009 554.128 311.756C554.065 311.615 553.995 311.476 553.928 311.336C553.679 310.821 553.397 310.317 553.083 309.823C553.037 309.749 552.996 309.672 552.947 309.599L552.943 309.596C551.701 307.719 549.996 306.022 547.825 304.653L445.97 240.416L447.919 238.203L566.994 313.297C575.263 318.515 586.975 317.066 593.146 310.062L596.501 306.257C602.668 299.254 600.961 289.343 592.687 284.129L473.615 209.03L476.059 206.258L584.544 274.674Z" fill="#333333"/>
</g>
</g>
<path d="M177.823 152.547L257.08 62.5665L378.836 139.356L299.578 229.334L177.823 152.547Z" fill="#D9AE8D"/>
<path d="M317.155 267.799C276.263 242.005 296.781 207.951 303.877 199.895L366.709 128.556C373.804 120.505 387.281 118.84 396.801 124.848L476.427 175.063C485.952 181.071 487.914 192.467 480.816 200.52L397.122 295.539C390.029 303.593 376.563 305.262 367.037 299.255L317.155 267.799Z" fill="#F7C6A1"/>
<path d="M443.099 199.42C434.817 194.197 433.108 184.287 439.28 177.28L442.634 173.474C448.8 166.472 460.511 165.024 468.795 170.25L602.144 254.35C610.42 259.569 612.13 269.479 605.963 276.48L602.605 280.291C596.44 287.292 584.727 288.739 576.456 283.521L443.099 199.42Z" fill="#F7C6A1"/>
<path d="M576.562 277.822C569.463 273.343 573.466 268.293 578.754 262.289C584.048 256.281 588.618 251.596 595.72 256.073C602.816 260.545 604.276 269.047 598.993 275.048C593.698 281.055 583.662 282.297 576.562 277.822Z" fill="#F7DFCD"/>
<path d="M425.553 238.047C417.268 232.818 415.563 222.91 421.735 215.905L425.083 212.097C431.251 205.096 442.964 203.65 451.247 208.872L584.597 292.976C592.873 298.191 594.579 308.104 588.413 315.105L585.058 318.91C578.886 325.916 567.173 327.364 558.906 322.145L425.553 238.047Z" fill="#F7C6A1"/>
<path d="M559.014 316.442C551.918 311.965 555.92 306.914 561.205 300.912C566.498 294.907 571.073 290.218 578.172 294.695C585.266 299.17 586.729 307.665 581.44 313.671C576.149 319.674 566.112 320.92 559.014 316.442Z" fill="#F7DFCD"/>
<path d="M380.689 258.57C372.407 253.345 370.7 243.439 376.872 236.434L380.227 232.626C386.393 225.625 398.099 224.176 406.384 229.401L539.737 313.5C548.009 318.721 549.72 328.631 543.553 335.632L540.196 339.44C534.025 346.446 522.314 347.89 514.038 342.672L380.689 258.57Z" fill="#F7C6A1"/>
<path d="M514.155 336.971C507.057 332.495 511.057 327.442 516.346 321.437C521.635 315.431 526.213 310.748 533.307 315.219C540.407 319.699 541.866 328.193 536.583 334.199C531.287 340.203 521.25 341.446 514.155 336.971Z" fill="#F7DFCD"/>
<path d="M329.516 275.856C321.23 270.631 319.529 260.723 325.695 253.72L329.045 249.91C335.22 242.909 346.926 241.459 355.207 246.684L488.559 330.784C496.835 336.004 498.541 345.914 492.379 352.915L489.022 356.722C482.852 363.73 471.144 365.176 462.865 359.955L329.516 275.856Z" fill="#F7C6A1"/>
<path d="M462.976 354.255C455.88 349.777 459.88 344.725 465.169 338.722C470.46 332.717 475.034 328.028 482.133 332.506C489.228 336.982 490.694 345.476 485.409 351.485C480.114 357.486 470.072 358.73 462.976 354.255Z" fill="#F7DFCD"/>
<path d="M-40.9995 29.4951L55.1928 -79.7093L349.024 105.604L283.155 180.387L245.666 163.903L273.715 191.106L252.834 214.807L-40.9995 29.4951Z" fill="#353434"/>
<path d="M238.278 195.947C233.45 192.904 232.45 187.122 236.044 183.039C239.645 178.949 246.475 178.109 251.303 181.153C256.131 184.197 257.128 189.978 253.534 194.065C249.931 198.148 243.104 198.992 238.278 195.947Z" fill="#4D4D4D"/>
<path d="M240.559 193.353C237.422 191.376 236.772 187.623 239.11 184.967C241.45 182.313 245.885 181.77 249.02 183.744C252.159 185.723 252.808 189.479 250.469 192.132C248.131 194.786 243.689 195.332 240.559 193.353Z" fill="#333333"/>
<g opacity="0.0500031">
<g opacity="0.0500031">
<path opacity="0.0500031" d="M489.022 356.722L492.379 352.915C498.541 345.914 496.835 336.004 488.559 330.784L409.816 281.124L412.188 278.438L514.038 342.672C522.314 347.889 534.025 346.445 540.197 339.44L543.554 335.632C548.102 330.464 548.353 323.725 544.859 318.446L4.60265 -22.2767L-41 29.4957L252.833 214.806L261.298 205.195L292.739 225.023C291.087 238.217 295.533 254.158 317.155 267.799L327.316 274.202C327.994 274.793 328.716 275.349 329.516 275.856L462.865 359.955C471.144 365.176 482.852 363.73 489.022 356.722Z" fill="#333333"/>
</g>
</g>
<path d="M740.088 520.152C734.2 520.152 729.208 519.16 725.112 517.176C721.016 515.128 717.528 512.504 714.648 509.304L724.248 499.608C728.792 504.728 734.392 507.288 741.048 507.288C744.632 507.288 747.288 506.552 749.016 505.08C750.744 503.608 751.608 501.656 751.608 499.224C751.608 497.368 751.096 495.832 750.072 494.616C749.048 493.336 746.968 492.472 743.832 492.024L737.208 491.16C730.104 490.264 724.888 488.12 721.56 484.728C718.296 481.336 716.664 476.824 716.664 471.192C716.664 468.184 717.24 465.432 718.392 462.936C719.544 460.44 721.176 458.296 723.288 456.504C725.464 454.712 728.088 453.336 731.16 452.376C734.296 451.352 737.848 450.84 741.816 450.84C746.872 450.84 751.32 451.64 755.16 453.24C759 454.84 762.296 457.176 765.048 460.248L755.352 470.04C753.752 468.184 751.8 466.68 749.496 465.528C747.256 464.312 744.408 463.704 740.952 463.704C737.688 463.704 735.256 464.28 733.656 465.432C732.056 466.584 731.256 468.184 731.256 470.232C731.256 472.536 731.864 474.2 733.08 475.224C734.36 476.248 736.408 476.984 739.224 477.432L745.848 478.488C752.76 479.576 757.88 481.72 761.208 484.92C764.536 488.056 766.2 492.536 766.2 498.36C766.2 501.56 765.624 504.504 764.472 507.192C763.32 509.88 761.624 512.184 759.384 514.104C757.208 516.024 754.488 517.528 751.224 518.616C747.96 519.64 744.248 520.152 740.088 520.152ZM797.978 520.152C794.266 520.152 790.938 519.544 787.994 518.328C785.114 517.112 782.65 515.352 780.602 513.048C778.618 510.744 777.082 507.96 775.994 504.696C774.906 501.432 774.362 497.784 774.362 493.752C774.362 489.72 774.906 486.072 775.994 482.808C777.082 479.544 778.618 476.792 780.602 474.552C782.65 472.248 785.114 470.488 787.994 469.272C790.938 468.056 794.266 467.448 797.978 467.448C801.69 467.448 804.986 468.056 807.866 469.272C810.81 470.488 813.274 472.248 815.258 474.552C817.306 476.792 818.874 479.544 819.962 482.808C821.05 486.072 821.594 489.72 821.594 493.752C821.594 497.784 821.05 501.432 819.962 504.696C818.874 507.96 817.306 510.744 815.258 513.048C813.274 515.352 810.81 517.112 807.866 518.328C804.986 519.544 801.69 520.152 797.978 520.152ZM797.978 508.92C800.794 508.92 802.97 508.056 804.506 506.328C806.042 504.6 806.81 502.136 806.81 498.936V488.664C806.81 485.464 806.042 483 804.506 481.272C802.97 479.544 800.794 478.68 797.978 478.68C795.162 478.68 792.986 479.544 791.45 481.272C789.914 483 789.146 485.464 789.146 488.664V498.936C789.146 502.136 789.914 504.6 791.45 506.328C792.986 508.056 795.162 508.92 797.978 508.92Z" fill="white"/>
<path d="M924.072 600.152C920.36 600.152 917.032 599.544 914.088 598.328C911.208 597.112 908.744 595.352 906.696 593.048C904.712 590.744 903.176 587.96 902.088 584.696C901 581.432 900.456 577.784 900.456 573.752C900.456 569.72 901 566.072 902.088 562.808C903.176 559.544 904.712 556.792 906.696 554.552C908.744 552.248 911.208 550.488 914.088 549.272C917.032 548.056 920.36 547.448 924.072 547.448C927.784 547.448 931.08 548.056 933.96 549.272C936.904 550.488 939.368 552.248 941.352 554.552C943.4 556.792 944.968 559.544 946.056 562.808C947.144 566.072 947.688 569.72 947.688 573.752C947.688 577.784 947.144 581.432 946.056 584.696C944.968 587.96 943.4 590.744 941.352 593.048C939.368 595.352 936.904 597.112 933.96 598.328C931.08 599.544 927.784 600.152 924.072 600.152ZM924.072 588.92C926.888 588.92 929.064 588.056 930.6 586.328C932.136 584.6 932.904 582.136 932.904 578.936V568.664C932.904 565.464 932.136 563 930.6 561.272C929.064 559.544 926.888 558.68 924.072 558.68C921.256 558.68 919.08 559.544 917.544 561.272C916.008 563 915.24 565.464 915.24 568.664V578.936C915.24 582.136 916.008 584.6 917.544 586.328C919.08 588.056 921.256 588.92 924.072 588.92ZM957.812 599V548.6H972.02V557.144H972.596C973.492 554.52 975.06 552.248 977.3 550.328C979.54 548.408 982.644 547.448 986.612 547.448C991.796 547.448 995.7 549.176 998.324 552.632C1001.01 556.088 1002.36 561.016 1002.36 567.416V599H988.148V568.568C988.148 565.304 987.636 562.904 986.612 561.368C985.588 559.768 983.764 558.968 981.14 558.968C979.988 558.968 978.868 559.128 977.78 559.448C976.692 559.704 975.7 560.152 974.804 560.792C973.972 561.432 973.3 562.232 972.788 563.192C972.276 564.088 972.02 565.144 972.02 566.36V599H957.812ZM1035.35 600.152C1031.58 600.152 1028.22 599.544 1025.27 598.328C1022.33 597.048 1019.86 595.288 1017.88 593.048C1015.9 590.744 1014.39 587.96 1013.37 584.696C1012.34 581.432 1011.83 577.784 1011.83 573.752C1011.83 569.72 1012.34 566.104 1013.37 562.904C1014.39 559.64 1015.9 556.856 1017.88 554.552C1019.86 552.248 1022.33 550.488 1025.27 549.272C1028.22 548.056 1031.58 547.448 1035.35 547.448C1040.47 547.448 1044.73 548.6 1048.12 550.904C1051.58 553.208 1054.04 556.44 1055.51 560.6L1043.99 565.592C1043.54 563.672 1042.62 562.04 1041.21 560.696C1039.8 559.352 1037.85 558.68 1035.35 558.68C1032.47 558.68 1030.3 559.64 1028.82 561.56C1027.35 563.416 1026.62 565.944 1026.62 569.144V578.552C1026.62 581.752 1027.35 584.28 1028.82 586.136C1030.3 587.992 1032.47 588.92 1035.35 588.92C1037.91 588.92 1039.93 588.248 1041.4 586.904C1042.94 585.496 1044.06 583.672 1044.76 581.432L1055.8 586.232C1054.14 591.032 1051.54 594.552 1048.02 596.792C1044.57 599.032 1040.34 600.152 1035.35 600.152ZM1078.7 599C1073.84 599 1070.26 597.816 1067.95 595.448C1065.71 593.08 1064.59 589.656 1064.59 585.176V527.96H1078.8V587.96H1085.14V599H1078.7ZM1130.9 599C1128.34 599 1126.2 598.2 1124.47 596.6C1122.81 595 1121.75 592.856 1121.3 590.168H1120.73C1119.96 593.432 1118.26 595.928 1115.64 597.656C1113.02 599.32 1109.78 600.152 1105.94 600.152C1100.89 600.152 1097.02 598.808 1094.33 596.12C1091.64 593.432 1090.3 589.88 1090.3 585.464C1090.3 580.152 1092.22 576.216 1096.06 573.656C1099.96 571.032 1105.24 569.72 1111.9 569.72H1119.86V566.552C1119.86 564.12 1119.22 562.2 1117.94 560.792C1116.66 559.32 1114.52 558.584 1111.51 558.584C1108.7 558.584 1106.46 559.192 1104.79 560.408C1103.13 561.624 1101.75 563 1100.66 564.536L1092.22 557.048C1094.26 554.04 1096.82 551.704 1099.9 550.04C1103.03 548.312 1107.26 547.448 1112.57 547.448C1119.74 547.448 1125.11 549.016 1128.7 552.152C1132.28 555.288 1134.07 559.864 1134.07 565.88V587.96H1138.78V599H1130.9ZM1111.22 590.264C1113.59 590.264 1115.61 589.752 1117.27 588.728C1119 587.704 1119.86 586.04 1119.86 583.736V577.784H1112.95C1107.38 577.784 1104.6 579.672 1104.6 583.448V584.888C1104.6 586.744 1105.18 588.12 1106.33 589.016C1107.48 589.848 1109.11 590.264 1111.22 590.264ZM1158.13 599L1141.61 548.6H1155.63L1161.87 568.952L1166.57 587.192H1167.34L1172.05 568.952L1178.09 548.6H1191.53L1175.02 599H1158.13ZM1219.3 600.152C1215.46 600.152 1212.04 599.544 1209.03 598.328C1206.02 597.048 1203.46 595.288 1201.35 593.048C1199.3 590.744 1197.74 587.96 1196.65 584.696C1195.62 581.432 1195.11 577.784 1195.11 573.752C1195.11 569.784 1195.62 566.2 1196.65 563C1197.67 559.736 1199.18 556.952 1201.16 554.648C1203.21 552.344 1205.7 550.584 1208.65 549.368C1211.59 548.088 1214.95 547.448 1218.73 547.448C1222.89 547.448 1226.44 548.152 1229.38 549.56C1232.39 550.968 1234.82 552.856 1236.68 555.224C1238.6 557.592 1239.98 560.344 1240.81 563.48C1241.7 566.552 1242.15 569.784 1242.15 573.176V577.4H1209.8V578.168C1209.8 581.496 1210.7 584.152 1212.49 586.136C1214.28 588.056 1217.1 589.016 1220.94 589.016C1223.88 589.016 1226.28 588.44 1228.14 587.288C1229.99 586.072 1231.72 584.632 1233.32 582.968L1240.42 591.8C1238.18 594.424 1235.24 596.472 1231.59 597.944C1228.01 599.416 1223.91 600.152 1219.3 600.152ZM1219.02 557.912C1216.14 557.912 1213.86 558.872 1212.2 560.792C1210.6 562.648 1209.8 565.144 1209.8 568.28V569.048H1227.46V568.184C1227.46 565.112 1226.76 562.648 1225.35 560.792C1224.01 558.872 1221.9 557.912 1219.02 557.912Z" fill="white"/>
<path d="M984.728 461.224C981.848 461.224 979.736 460.584 978.392 459.304C977.112 457.96 976.472 456.264 976.472 454.216V452.104C976.472 450.056 977.112 448.392 978.392 447.112C979.736 445.768 981.848 445.096 984.728 445.096C987.608 445.096 989.688 445.768 990.968 447.112C992.312 448.392 992.984 450.056 992.984 452.104V454.216C992.984 456.264 992.312 457.96 990.968 459.304C989.688 460.584 987.608 461.224 984.728 461.224ZM977.624 466.6H991.832V517H977.624V466.6ZM1042.34 517C1039.78 517 1037.64 516.2 1035.91 514.6C1034.24 513 1033.19 510.856 1032.74 508.168H1032.16C1031.4 511.432 1029.7 513.928 1027.08 515.656C1024.45 517.32 1021.22 518.152 1017.38 518.152C1012.32 518.152 1008.45 516.808 1005.76 514.12C1003.08 511.432 1001.73 507.88 1001.73 503.464C1001.73 498.152 1003.65 494.216 1007.49 491.656C1011.4 489.032 1016.68 487.72 1023.33 487.72H1031.3V484.552C1031.3 482.12 1030.66 480.2 1029.38 478.792C1028.1 477.32 1025.96 476.584 1022.95 476.584C1020.13 476.584 1017.89 477.192 1016.23 478.408C1014.56 479.624 1013.19 481 1012.1 482.536L1003.65 475.048C1005.7 472.04 1008.26 469.704 1011.33 468.04C1014.47 466.312 1018.69 465.448 1024 465.448C1031.17 465.448 1036.55 467.016 1040.13 470.152C1043.72 473.288 1045.51 477.864 1045.51 483.88V505.96H1050.21V517H1042.34ZM1022.66 508.264C1025.03 508.264 1027.04 507.752 1028.71 506.728C1030.44 505.704 1031.3 504.04 1031.3 501.736V495.784H1024.39C1018.82 495.784 1016.04 497.672 1016.04 501.448V502.888C1016.04 504.744 1016.61 506.12 1017.76 507.016C1018.92 507.848 1020.55 508.264 1022.66 508.264ZM1073.86 517C1069 517 1065.41 515.816 1063.11 513.448C1060.87 511.08 1059.75 507.656 1059.75 503.176V445.96H1073.96V505.96H1080.29V517H1073.86Z" fill="white"/>
<path d="M899.632 664.456C874.096 664.456 854.224 655.816 840.016 638.536C825.808 621.064 818.704 595.432 818.704 561.64C818.704 527.848 825.808 501.928 840.016 483.88C854.224 465.64 874.096 456.52 899.632 456.52C916.528 456.52 930.64 460.36 941.968 468.04C953.488 475.72 962.416 486.568 968.752 500.584L949.168 512.392C945.136 502.024 938.992 493.768 930.736 487.624C922.48 481.288 912.112 478.12 899.632 478.12C890.992 478.12 883.216 479.752 876.304 483.016C869.584 486.28 863.824 490.984 859.024 497.128C854.416 503.08 850.864 510.28 848.368 518.728C845.872 526.984 844.624 536.296 844.624 546.664V576.616C844.624 597.352 849.424 613.576 859.024 625.288C868.624 637 882.16 642.856 899.632 642.856C912.496 642.856 923.248 639.592 931.888 633.064C940.528 626.344 946.864 617.512 950.896 606.568L970.192 618.664C963.856 632.872 954.736 644.104 942.832 652.36C930.928 660.424 916.528 664.456 899.632 664.456Z" fill="white"/>
</g>
<defs>
<clipPath id="clip0">
<rect width="1920" height="1001" fill="white"/>
</clipPath>
</defs>
</svg>
