<svg width="519" height="634" viewBox="0 0 519 634" fill="none" xmlns="http://www.w3.org/2000/svg">
<path d="M434.171 374.751C418.363 378.989 401.479 380.401 386.143 385.581C412.108 363.316 410.628 328.875 427.983 302.641C433.094 294.905 438.618 287.45 444.53 280.308C433.969 301.497 438.544 328.942 426.435 349.459C421.562 358.042 415.286 365.749 407.87 372.262C410.291 372.262 412.377 370.11 414.596 368.697C434.171 348.719 459.867 343.27 481.258 327.26C490.035 320.692 496.982 311.984 501.438 301.968C497.402 334.525 465.047 365.065 434.171 374.751Z" fill="white"/>
<path d="M505.206 242.91C495.519 256.363 483.882 269.346 475.003 283.27C477.006 271.587 476.316 259.6 472.985 248.224C464.91 225.613 459.514 202.134 456.908 178.266L457.245 168.849C462.828 194.007 487.582 211.362 486.035 239.614C486.057 245.96 485.081 252.271 483.142 258.314L483.613 258.785L484.69 257.507C487.401 243.457 491.156 229.629 495.923 216.138C504.062 197.505 514.152 178.737 510.049 156.203C522.426 182.706 518.659 218.156 505.206 242.91Z" fill="white"/>
<path d="M490.004 100.1C498.132 112.041 503.121 125.839 504.508 140.217C505.895 154.596 503.637 169.092 497.942 182.367C493.519 193.169 490.402 204.46 488.659 216.001C487.852 213.916 487.717 211.225 486.977 209.274C480.25 184.587 457.111 166.963 447.491 143.689C444.464 136.017 442.211 128.063 440.765 119.944C451.056 138.913 476.349 148.734 483.21 169.654C485.24 175.353 486.727 181.231 487.65 187.211C487.755 187.15 487.843 187.061 487.902 186.954C487.961 186.848 487.99 186.727 487.986 186.605C485.292 164.852 485.563 142.834 488.793 121.154C489.511 110.163 486.884 99.2112 481.259 89.7407C485.363 92.1623 487.179 96.4674 490.071 100.302L490.004 100.1Z" fill="white"/>
<path d="M478.501 95.8617C482.806 115.167 476.551 133.935 480.519 153.375C470.093 132.724 447.76 123.038 432.491 106.288C424.268 96.5243 419.057 84.5832 417.49 71.9147C426.302 93.1038 449.98 97.7452 463.568 115.571C467.262 119.913 470.278 124.789 472.515 130.033L473.053 129.562C465.183 112.88 462.559 94.1128 457.111 76.287C454.242 68.0988 448.849 61.0327 441.706 56.1069C459.532 59.7394 475.34 78.3723 478.703 95.3909L478.501 95.8617Z" fill="white"/>
<path d="M430.808 51.6689C442.994 63.4542 451.22 78.7318 454.351 95.3925L456.571 100.572C436.783 86.2774 419.91 68.3313 406.861 47.7002L391.591 32.3633C405.045 38.0137 419.44 41.3771 430.875 51.6689H430.808Z" fill="white"/>
<path d="M122.658 34.9198C110.168 47.0538 99.129 60.598 89.7647 75.28C80.8182 86.3791 69.5846 93.7112 59.1582 103.263C64.6741 91.895 64.8759 78.307 72.6116 67.8134C83.7107 48.5078 104.294 41.7138 122.658 34.5835V34.9198Z" fill="white"/>
<path d="M48.8666 76.289C54.9382 68.3713 63.4488 62.6739 73.0828 60.0776C54.9207 72.522 56.1315 94.9219 50.3465 113.488C48.5303 120.214 45.3015 126.941 43.6198 133.668L44.0907 134.004C47.4479 125.694 52.5389 118.195 59.024 112.008C71.9392 100.101 91.0431 92.6349 97.3662 75.0109C97.3662 99.5634 76.6479 118.802 57.006 132.524C48.9368 139.356 42.2471 147.667 37.2967 157.009C36.8259 150.888 38.1712 144.632 37.7676 138.04C35.615 116.649 34.0679 92.2313 49.203 76.4235L48.8666 76.289Z" fill="white"/>
<path d="M12.1391 149.205C12.2085 128.768 19.6894 109.05 33.1937 93.7101C33.5973 93.7101 33.8663 93.1047 34.3372 93.2392C20.3457 114.428 31.9156 141.133 31.2429 165.215L29.4267 189.902C29.4267 189.902 29.4267 190.844 30.3685 190.507C31.026 187.71 31.5423 184.881 31.9156 182.032C35.2117 161.852 52.4993 147.995 67.5671 134.205C70.833 130.906 73.4562 127.028 75.3028 122.769C73.9486 132.818 71.1152 142.61 66.8944 151.829C55.1227 174.767 33.2609 193.534 29.4267 219.768C27.476 194.678 10.3902 175.843 12.1391 149.205Z" fill="white"/>
<path d="M1.57802 180.015C2.75595 173.11 4.64964 166.347 7.22845 159.835C1.64529 188.491 20.6818 209.142 27.4085 233.829C29.0488 243.291 31.2957 252.638 34.1353 261.812C34.4716 261.812 34.7407 261.812 35.0097 261.341C25.5923 234.972 39.1803 210.487 52.8355 189.769C55.9156 184.035 58.1797 177.899 59.5622 171.539C60.053 184.318 58.9457 197.108 56.2661 209.613C52.97 225.42 47.9923 240.354 43.6872 255.623C41.3324 265.601 41.1261 275.965 43.0818 286.028L41.6691 284.884C31.6464 266.453 11.8699 252.058 5.95038 231.945C0.269377 215.164 -1.34448 197.273 1.24169 179.746L1.57802 180.015Z" fill="white"/>
<path d="M0.636694 235.913C2.85651 266.318 35.481 282.327 50.6161 307.485C53.8595 312.953 57.7189 318.031 62.1187 322.62C61.3788 319.391 58.3518 316.633 57.2082 313.337C51.8869 302.186 49.8345 289.754 51.2887 277.484C52.7686 261.945 59.2262 247.55 56.7374 231.271C70.1908 259.927 66.0202 295.713 73.4868 326.791C75.9556 333.388 78.7621 339.854 81.8952 346.164C54.5848 327.531 17.3189 309.839 5.21085 275.735C0.554542 263.01 -1.01319 249.362 0.636694 235.913Z" fill="white"/>
<path d="M17.1183 305.667C32.3207 340.108 70.4611 342.933 96.0898 363.988C100.572 368.05 105.598 371.469 111.023 374.145C104.608 368.889 98.969 362.752 94.2736 355.916C79.273 335.063 84.5199 305.937 73.3535 283.537C83.6244 295.183 92.2272 308.201 98.915 322.215C108.063 344.817 111.561 370.311 132.549 387.397C109.61 379.863 82.7709 381.948 62.5908 367.822C40.46 354.369 20.7507 331.229 16.6475 305.937L17.1183 305.667Z" fill="white"/>
<path d="M56.1333 369.978C80.5512 397.692 120.441 388.476 152.998 395.741C157.376 396.958 161.909 397.525 166.451 397.423C162.617 395.001 157.168 395.27 152.998 393.05C127.436 384.037 123.737 356.457 109.88 337.824C127.322 350.749 143.657 365.104 158.715 380.741C170.482 390.429 184.626 396.792 199.681 399.172C196.116 400.45 191.407 400.113 187.573 401.122C160.666 407.849 131.136 418.41 102.817 408.791C82.9334 402.36 66.2428 388.603 56.1333 370.314V369.978Z" fill="white"/>
<path d="M387.624 434.687C360.112 444.979 331.389 434.216 309.863 417.938C301.186 412.422 293.517 404.484 282.217 405.157C278.373 404.951 274.519 405.314 270.781 406.233C292.218 416.37 311.815 430.01 328.765 446.593C325.526 450.05 322.017 453.244 318.272 456.145C302.138 437.319 282.748 421.552 261.027 409.596C256.818 410.579 252.812 412.286 249.188 414.641C231.112 425.764 215.166 440.024 202.102 456.751L191.07 447.602C207.843 430.305 227.599 416.177 249.39 405.897C228.47 399.17 214.815 416.996 198.738 426.077C183.629 437.025 164.941 441.861 146.417 439.616C127.894 437.371 110.903 428.21 98.8467 413.969C108.335 419.765 119.039 423.28 130.116 424.238C141.193 425.195 152.341 423.568 162.683 419.485C189.59 407.847 217.438 393.049 250.13 400.112C255.175 400.112 260.086 405.291 264.862 400.986C289.155 395.212 314.718 398.413 336.837 410L358.228 418.543C368.459 422.311 379.422 423.665 390.262 422.498C401.101 421.331 411.525 417.676 420.719 411.816C412.011 422.365 400.592 430.342 387.691 434.889L387.624 434.687Z" fill="white"/>
<path d="M417.155 406.231C386.212 417.936 355.134 403.608 325.537 398.832L319.819 398.092C334.189 395.793 347.695 389.736 358.969 380.535C375.584 364.526 390.382 348.113 408.814 335.534C395.36 353.09 393.679 378.046 371.077 389.347C365.125 392.028 358.988 394.276 352.713 396.074C360.741 395.363 368.716 394.15 376.593 392.442C406.863 387.666 441.505 392.442 462.762 366.746C453.151 385.212 436.83 399.295 417.155 406.097V406.231Z" fill="white"/>
<path d="M473.255 319.322C461.08 327.26 448.703 334.726 436.931 343.807V342.664C454.891 312.797 446.147 271.764 457.111 238.938L461.08 227.906C458.793 248.423 467.807 265.71 467.067 286.294C466.454 298.319 462.57 309.948 455.833 319.928H456.977C465.061 307.761 473.796 296.039 483.144 284.814C499.153 269.41 515.364 253.602 517.45 232.279C522.898 267.93 502.853 299.142 473.255 319.726V319.322Z" fill="white"/>
<path opacity="0.9" d="M176.756 213.269C176.756 216.06 175.953 218.787 174.449 221.107C172.944 223.427 170.806 225.235 168.304 226.303C165.802 227.371 163.049 227.65 160.393 227.106C157.737 226.561 155.297 225.218 153.382 223.245C151.467 221.272 150.163 218.758 149.635 216.022C149.106 213.285 149.378 210.449 150.414 207.871C151.45 205.293 153.205 203.09 155.457 201.54C157.709 199.989 160.356 199.162 163.064 199.162C166.695 199.162 170.178 200.648 172.746 203.294C175.314 205.94 176.756 209.528 176.756 213.269Z" fill="white"/>
<path opacity="0.9" d="M265.549 292.105C265.549 292.105 345.517 263.415 320.08 174.22C319.904 173.596 319.937 172.93 320.172 172.326C320.408 171.722 320.834 171.212 321.384 170.876C321.935 170.539 322.58 170.394 323.22 170.462C323.86 170.531 324.461 170.809 324.929 171.255C335.581 181.753 353.546 194.896 368.887 183.837C377.835 176.704 384.137 166.737 386.773 155.548C386.988 154.898 387.42 154.343 387.995 153.977C388.57 153.612 389.253 153.459 389.928 153.544C390.602 153.629 391.227 153.947 391.695 154.444C392.163 154.941 392.447 155.586 392.496 156.269C393.132 199.063 378.347 277.76 265.549 292.105Z" fill="white"/>
<path opacity="0.9" d="M355.588 184.225C364.525 184.225 371.77 176.795 371.77 167.629C371.77 158.462 364.525 151.032 355.588 151.032C346.651 151.032 339.406 158.462 339.406 167.629C339.406 176.795 346.651 184.225 355.588 184.225Z" fill="white"/>
<path opacity="0.9" d="M288.843 211.698C294.266 226.052 294.879 241.799 290.589 256.537C283.365 276.839 264.155 285.631 249.311 289.387C242.381 291.155 235.264 292.067 228.116 292.105C166.595 292.105 133.731 221.769 133.334 220.969C131.588 217.133 134.207 214.815 137.383 217.532C140.558 220.25 142.304 221.449 144.527 222.967C164.372 236.715 178.979 229.601 185.409 208.101C185.604 207.477 186.005 206.94 186.544 206.576C187.084 206.213 187.731 206.045 188.378 206.101C189.024 206.157 189.633 206.433 190.104 206.883C190.574 207.334 190.878 207.933 190.965 208.58C194.299 240.951 206.842 288.908 251.851 276.359C257.975 274.766 263.652 271.774 268.442 267.616C273.233 263.457 277.008 258.245 279.476 252.381C282.89 240.067 282.249 226.971 277.65 215.055C274.364 205.477 270.329 196.176 265.584 187.24C261.115 178.587 257.165 169.673 253.756 160.544C246.357 141.008 246.357 119.414 253.756 99.8788C259.932 85.7032 271.308 74.478 285.509 68.5471C286.708 68.0124 288.052 67.9031 289.321 68.237C290.589 68.5709 291.708 69.3283 292.494 70.3855C293.286 71.4185 293.73 72.6781 293.764 73.9822C293.757 75.1499 293.406 76.2892 292.756 77.2564C292.106 78.2236 291.186 78.9755 290.113 79.4173C278.653 84.1696 269.425 93.146 264.314 104.515C257.951 121.295 257.951 139.847 264.314 156.627C267.53 165.294 271.267 173.756 275.507 181.965C280.751 191.492 285.212 201.436 288.843 211.698Z" fill="white"/>
<path opacity="0.9" d="M298.743 43.9036C298.759 46.8645 297.87 49.7632 296.189 52.2315C294.508 54.6999 292.112 56.6265 289.303 57.7668C286.495 58.907 283.401 59.2094 280.416 58.6355C277.43 58.0617 274.687 56.6375 272.536 54.5438C270.384 52.4501 268.92 49.7814 268.33 46.8766C267.74 43.9718 268.051 40.962 269.223 38.2294C270.395 35.4968 272.375 33.1647 274.912 31.5294C277.449 29.894 280.428 29.0292 283.471 29.0446C287.515 29.0652 291.387 30.6373 294.247 33.4194C297.106 36.2016 298.722 39.9691 298.743 43.9036Z" fill="white"/>
<path opacity="0.9" d="M341.066 65.4793C341.081 68.4402 340.216 71.3389 338.581 73.8072C336.945 76.2756 334.613 78.2022 331.881 79.3425C329.148 80.4827 326.138 80.7851 323.234 80.2112C320.329 79.6374 317.66 78.2132 315.566 76.1195C313.473 74.0258 312.048 71.357 311.475 68.4523C310.901 65.5475 311.203 62.5376 312.343 59.8051C313.484 57.0725 315.41 54.7404 317.879 53.1051C320.347 51.4697 323.246 50.6049 326.207 50.6203C330.141 50.6409 333.909 52.213 336.691 54.9951C339.473 57.7773 341.045 61.5448 341.066 65.4793Z" fill="white"/>
<path opacity="0.9" d="M248.953 43.9017C248.968 46.0421 248.347 48.1388 247.168 49.925C245.988 51.7113 244.304 53.1064 242.33 53.9328C240.356 54.7592 238.18 54.9795 236.08 54.5658C233.98 54.1521 232.05 53.1231 230.537 51.6095C229.023 50.096 227.994 48.1665 227.58 46.0664C227.167 43.9663 227.387 41.7907 228.213 39.8162C229.04 37.8417 230.435 36.1577 232.221 34.9784C234.007 33.7991 236.104 33.1779 238.245 33.1937C241.084 33.1937 243.808 34.3218 245.816 36.33C247.824 38.3381 248.953 41.0617 248.953 43.9017Z" fill="white"/>
<path opacity="0.9" d="M368.412 91.1846C368.535 92.6739 368.36 94.1737 367.897 95.5888C367.433 97.004 366.693 98.3035 365.721 99.4051C364.749 100.507 363.568 101.386 362.252 101.988C360.936 102.589 359.515 102.9 358.077 102.9C356.64 102.9 355.218 102.589 353.902 101.988C352.586 101.386 351.405 100.507 350.433 99.4051C349.462 98.3035 348.721 97.004 348.258 95.5888C347.794 94.1737 347.619 92.6739 347.743 91.1846C347.966 88.494 349.151 85.9884 351.065 84.1627C352.978 82.3371 355.48 81.3242 358.077 81.3242C360.674 81.3242 363.176 82.3371 365.09 84.1627C367.003 85.9884 368.188 88.494 368.412 91.1846Z" fill="white"/>
<path opacity="0.9" d="M208.291 57.7549C208.291 59.164 207.766 60.5154 206.832 61.5118C205.899 62.5082 204.632 63.068 203.312 63.068C201.991 63.068 200.725 62.5082 199.791 61.5118C198.857 60.5154 198.333 59.164 198.333 57.7549C198.485 56.4717 199.071 55.292 199.98 54.4368C200.889 53.5817 202.06 53.1099 203.272 53.1099C204.484 53.1099 205.655 53.5817 206.564 54.4368C207.473 55.292 208.059 56.4717 208.212 57.7549H208.291Z" fill="white"/>
<path opacity="0.9" d="M380.898 116.217C380.898 116.861 380.788 117.498 380.574 118.092C380.36 118.687 380.046 119.227 379.651 119.682C379.255 120.137 378.786 120.498 378.269 120.744C377.753 120.991 377.199 121.117 376.64 121.117C376.031 121.206 375.412 121.145 374.825 120.937C374.238 120.73 373.696 120.381 373.236 119.913C372.775 119.446 372.406 118.871 372.153 118.227C371.9 117.583 371.77 116.885 371.77 116.178C371.77 115.471 371.9 114.772 372.153 114.128C372.406 113.484 372.775 112.91 373.236 112.442C373.696 111.975 374.238 111.626 374.825 111.418C375.412 111.211 376.031 111.149 376.64 111.238C377.775 111.259 378.858 111.793 379.655 112.724C380.452 113.656 380.898 114.91 380.898 116.217Z" fill="white"/>
<path d="M159.769 321.37H124.303C113.85 321.37 105.377 312.896 105.377 302.444V170.28C105.335 171.074 105.335 169.485 105.377 170.28V175.608V179.584V180.061C105.377 183.162 106.092 186.343 106.57 189.365C107.532 195.672 108.887 201.913 110.625 208.052C110.625 209.643 111.5 211.154 111.977 212.664C112.454 214.175 112.931 215.607 113.488 217.118L114.919 221.014C115.396 222.286 115.873 223.638 116.43 224.911L117.862 228.251V228.728L118.657 230.557L159.769 321.37Z" fill="white" stroke="white" stroke-width="2.5" stroke-miterlimit="10"/>
<path d="M391.553 253.489L390.52 255.066L318.649 364.709C313.04 373.511 301.346 376.078 292.566 370.435L247.955 341.807L321.591 309.283H322.148L324.613 308.17C328.191 306.579 331.69 304.91 335.11 303.081L340.438 300.138L345.288 297.117L349.026 294.731L351.332 293.061C355.584 290.075 359.672 286.863 363.578 283.439L367.634 279.86L371.292 276.282C372.644 274.93 373.916 273.658 375.109 272.306L378.687 268.33L391.553 253.489Z" fill="white" stroke="white" stroke-width="2.5" stroke-miterlimit="10"/>
<path d="M321.117 309.441L247.481 341.965L215.672 321.369H261.317C281.843 321.386 302.169 317.332 321.117 309.441Z" fill="white"/>
<path d="M215.434 321.372H159.769C135.89 281.386 119.223 241.142 108.461 200.687C120.92 227.666 151.914 280.387 176.946 296.403L215.434 321.372Z" fill="white"/>
<path d="M247.48 341.967L199.131 363.438C196.856 364.457 194.401 365.017 191.909 365.085C189.416 365.153 186.935 364.727 184.607 363.833C182.279 362.939 180.151 361.594 178.345 359.875C176.539 358.156 175.09 356.096 174.082 353.816L159.769 321.371H215.433L247.48 341.967Z" fill="white"/>
<path d="M321.117 309.441L247.481 341.965L215.672 321.369H261.317C281.843 321.386 302.169 317.332 321.117 309.441Z" fill="white"/>
<path d="M262.809 0.00139353C174.15 0.366395 102.565 72.5206 102.902 161.18C103.313 233.571 161.175 299.855 214.199 321.352C228.518 327.158 247.777 321.198 264.027 321.142C352.684 320.832 424.313 248.727 424.036 160.07V159.855C423.641 71.1977 351.467 -0.362073 262.809 0.00137836V0.00139353ZM262.826 4.01827C349.27 3.65995 419.644 73.4317 420.029 159.875V160.084C420.297 246.526 350.469 320.844 264.027 321.142C248.767 321.195 227.669 326.914 214.224 321.41C161.077 299.654 107.333 232.313 106.912 161.167C106.584 74.7235 176.379 4.37354 262.823 4.01828L262.826 4.01827Z" fill="white"/>
<path opacity="0.99" d="M378.688 268.333L395.992 248.25L396.679 247.453" fill="white"/>
</svg>
