<?xml version="1.0" encoding="UTF-8" standalone="no"?>
<svg
   xmlns:dc="http://purl.org/dc/elements/1.1/"
   xmlns:cc="http://creativecommons.org/ns#"
   xmlns:rdf="http://www.w3.org/1999/02/22-rdf-syntax-ns#"
   xmlns:svg="http://www.w3.org/2000/svg"
   xmlns="http://www.w3.org/2000/svg"
   xmlns:sodipodi="http://sodipodi.sourceforge.net/DTD/sodipodi-0.dtd"
   xmlns:inkscape="http://www.inkscape.org/namespaces/inkscape"
   viewBox="0 0 100 100"
   version="1.1"
   id="svg91"
   sodipodi:docname="MUN-03.svg"
   inkscape:version="0.92.3 (2405546, 2018-03-11)"
   width="100"
   height="100">
  <metadata
     id="metadata95">
    <rdf:RDF>
      <cc:Work
         rdf:about="">
        <dc:format>image/svg+xml</dc:format>
        <dc:type
           rdf:resource="http://purl.org/dc/dcmitype/StillImage" />
        <dc:title>MUN</dc:title>
      </cc:Work>
    </rdf:RDF>
  </metadata>
  <sodipodi:namedview
     pagecolor="#ffffff"
     bordercolor="#666666"
     borderopacity="1"
     objecttolerance="10"
     gridtolerance="10"
     guidetolerance="10"
     inkscape:pageopacity="0"
     inkscape:pageshadow="2"
     inkscape:window-width="714"
     inkscape:window-height="513"
     id="namedview93"
     showgrid="false"
     showborder="true"
     inkscape:zoom="8"
     inkscape:cx="38.306123"
     inkscape:cy="35.037713"
     inkscape:window-x="955"
     inkscape:window-y="309"
     inkscape:window-maximized="0"
     inkscape:current-layer="f2bb4f06-d513-40b5-91d4-d067ef504f05"
     inkscape:pagecheckerboard="true"
     units="px" />
  <defs
     id="defs4">
    <inkscape:path-effect
       effect="bspline"
       id="path-effect953"
       is_visible="true"
       weight="33.333333"
       steps="2"
       helper_size="0"
       apply_no_weight="true"
       apply_with_weight="true"
       only_selected="false" />
    <style
       id="style2">
      .a36e3383-187d-4b1c-96d4-e207e8058724, .e51a6145-01d5-4fdf-a5dc-83d1d85e6b8d, .f6e4edf7-294b-478c-9a27-06e3fc279425 {
        fill: #0d6c33;
      }

      .ac92f569-ce80-4bb2-ab87-57323b8b564f, .f6e4edf7-294b-478c-9a27-06e3fc279425 {
        opacity: 0.9;
      }

      .ac92f569-ce80-4bb2-ab87-57323b8b564f, .f6dc05bf-7b78-44b5-a493-fddbb7ff93f3 {
        fill: none;
        stroke: #0d6c33;
        stroke-miterlimit: 10;
        stroke-width: 0.5px;
      }

      .e51a6145-01d5-4fdf-a5dc-83d1d85e6b8d {
        font-size: 6.44px;
        font-family: Raleway-Bold, Raleway;
        font-weight: 700;
      }

      .a21210f1-5b40-46eb-bd0b-c250c1776077 {
        letter-spacing: -0.03em;
      }

      .faffec33-506f-4c9c-98ca-008dcb1e5d28 {
        letter-spacing: -0.03em;
      }

      .e37351ff-b473-4129-b8d8-caa1fe06b49f, .e8ccdff4-dac8-4c52-8218-3065e012cab4 {
        font-size: 6.67px;
        font-family: Montserrat-SemiBold, Montserrat;
        font-weight: 600;
      }

      .e8ccdff4-dac8-4c52-8218-3065e012cab4 {
        letter-spacing: 0em;
      }
    </style>
  </defs>
  <title
     id="title6">MUN</title>
  <g
     id="f2bb4f06-d513-40b5-91d4-d067ef504f05"
     data-name="Layer 2">
    <text
       xml:space="preserve"
       style="font-style:normal;font-weight:normal;font-size:40px;line-height:1.25;font-family:sans-serif;letter-spacing:0px;word-spacing:0px;fill:#000000;fill-opacity:1;stroke:none"
       x="44.703388"
       y="90.995766"
       id="text904"><tspan
         sodipodi:role="line"
         id="tspan902"
         x="44.703388"
         y="127.02594" /></text>
    <g
       id="g1008"
       transform="translate(-0.73244954,-2.9142136)"
       style="fill:#ffffff;fill-opacity:1;stroke:none">
      <path
         id="path978"
         d="m 76,62.37 c -2.35,0.63 -4.86,0.84 -7.14,1.61 3.86,-3.31 3.64,-8.43 6.22,-12.33 a 38.43,38.43 0 0 1 2.46,-3.32 c -1.57,3.15 -0.89,7.23 -2.69,10.28 A 13.16,13.16 0 0 1 72.09,62 c 0.36,0 0.67,-0.32 1,-0.53 C 76,58.5 79.82,57.69 83,55.31 a 9.54,9.54 0 0 0 3,-3.76 c -0.6,4.84 -5.41,9.38 -10,10.82 z"
         class="a36e3383-187d-4b1c-96d4-e207e8058724"
         inkscape:connector-curvature="0"
         style="fill:#ffffff;fill-opacity:1;stroke:none" />
      <path
         id="path980"
         d="m 86.56,42.77 c -1.44,2 -3.17,3.93 -4.49,6 a 11.58,11.58 0 0 0 -0.3,-5.21 45.66,45.66 0 0 1 -2.39,-10.4 l 0.05,-1.4 c 0.83,3.74 4.51,6.32 4.28,10.52 a 9,9 0 0 1 -0.43,2.78 l 0.07,0.07 0.16,-0.19 a 42.82,42.82 0 0 1 1.67,-6.15 c 1.21,-2.77 2.71,-5.56 2.1,-8.91 1.84,3.94 1.28,9.21 -0.72,12.89 z"
         class="a36e3383-187d-4b1c-96d4-e207e8058724"
         inkscape:connector-curvature="0"
         style="fill:#ffffff;fill-opacity:1;stroke:none" />
      <path
         id="path982"
         d="m 84.3,21.54 a 12.78,12.78 0 0 1 1.18,12.23 21.78,21.78 0 0 0 -1.38,5 c -0.12,-0.31 -0.14,-0.71 -0.25,-1 -1,-3.67 -4.44,-6.29 -5.87,-9.75 a 18.42,18.42 0 0 1 -1,-3.53 c 1.53,2.82 5.29,4.28 6.31,7.39 A 14.26,14.26 0 0 1 83.95,34.49 0.1,0.1 0 0 0 84,34.4 36,36 0 0 1 84.12,24.67 8.11,8.11 0 0 0 83,20 c 0.61,0.36 0.88,1 1.31,1.57 z"
         class="a36e3383-187d-4b1c-96d4-e207e8058724"
         inkscape:connector-curvature="0"
         style="fill:#ffffff;fill-opacity:1;stroke:none" />
      <path
         id="path984"
         d="m 82.59,20.91 c 0.64,2.87 -0.29,5.66 0.3,8.55 v 0 c -1.55,-3.07 -4.87,-4.51 -7.14,-7 a 9.8,9.8 0 0 1 -2.23,-5.11 c 1.31,3.15 4.83,3.84 6.85,6.49 a 8.41,8.41 0 0 1 1.33,2.15 l 0.08,-0.07 C 80.61,23.44 80.22,20.65 79.41,18 a 6.09,6.09 0 0 0 -2.29,-3 c 2.65,0.54 5,3.31 5.5,5.84 z"
         class="a36e3383-187d-4b1c-96d4-e207e8058724"
         inkscape:connector-curvature="0"
         style="fill:#ffffff;fill-opacity:1;stroke:none" />
      <path
         id="path986"
         d="m 75.5,14.34 a 12.17,12.17 0 0 1 3.5,6.5 l 0.33,0.77 a 28.47,28.47 0 0 1 -7.39,-7.86 l -2.27,-2.28 c 2,0.84 4.14,1.34 5.84,2.87 z"
         class="a36e3383-187d-4b1c-96d4-e207e8058724"
         inkscape:connector-curvature="0"
         style="fill:#ffffff;fill-opacity:1;stroke:none" />
      <path
         id="path988"
         d="m 29.69,11.85 a 33.42,33.42 0 0 0 -4.89,6 c -1.33,1.65 -3,2.74 -4.55,4.16 0.82,-1.69 0.85,-3.71 2,-5.27 1.65,-2.87 4.71,-3.88 7.44,-4.94 z"
         class="a36e3383-187d-4b1c-96d4-e207e8058724"
         inkscape:connector-curvature="0"
         style="fill:#ffffff;fill-opacity:1;stroke:none" />
      <path
         id="path990"
         d="m 18.72,18 a 6.75,6.75 0 0 1 3.6,-2.41 c -2.7,1.85 -2.52,5.18 -3.38,7.94 -0.27,1 -0.75,2 -1,3 l 0.07,0.05 a 9.37,9.37 0 0 1 2.22,-3.27 c 1.92,-1.77 4.76,-2.88 5.7,-5.5 0,3.65 -3.08,6.51 -6,8.55 A 12.34,12.34 0 0 0 17,30 c -0.07,-0.91 0.13,-1.84 0.07,-2.82 -0.32,-3.18 -0.55,-6.81 1.7,-9.16 z"
         class="a36e3383-187d-4b1c-96d4-e207e8058724"
         inkscape:connector-curvature="0"
         style="fill:#ffffff;fill-opacity:1;stroke:none" />
      <path
         id="path992"
         d="m 13.26,28.84 a 12.55,12.55 0 0 1 3.13,-8.25 c 0.06,0 0.1,-0.09 0.17,-0.07 -2.08,3.15 -0.36,7.12 -0.46,10.7 l -0.27,3.67 c 0,0 0,0.14 0.14,0.09 a 12.74,12.74 0 0 0 0.23,-1.26 c 0.49,-3 3.06,-5.06 5.3,-7.11 a 5.56,5.56 0 0 0 1.15,-1.7 15.28,15.28 0 0 1 -1.25,4.32 c -1.75,3.41 -5,6.2 -5.57,10.1 C 15.54,35.6 13,32.8 13.26,28.84 Z"
         class="a36e3383-187d-4b1c-96d4-e207e8058724"
         inkscape:connector-curvature="0"
         style="fill:#ffffff;fill-opacity:1;stroke:none" />
      <path
         id="path994"
         d="m 11.69,33.42 a 15,15 0 0 1 0.84,-3 c -0.83,4.26 2,7.33 3,11 a 33.31,33.31 0 0 0 1,4.16 c 0.05,0 0.09,0 0.13,-0.07 -1.4,-3.92 0.62,-7.56 2.65,-10.64 a 10.39,10.39 0 0 0 1,-2.71 22.83,22.83 0 0 1 -0.49,5.66 c -0.49,2.35 -1.23,4.57 -1.87,6.84 a 10.75,10.75 0 0 0 -0.09,4.52 l -0.21,-0.17 c -1.49,-2.74 -4.43,-4.88 -5.31,-7.87 a 16.63,16.63 0 0 1 -0.7,-7.76 z"
         class="a36e3383-187d-4b1c-96d4-e207e8058724"
         inkscape:connector-curvature="0"
         style="fill:#ffffff;fill-opacity:1;stroke:none" />
      <path
         id="path996"
         d="m 11.55,41.73 c 0.33,4.52 5.18,6.9 7.43,10.64 a 12.37,12.37 0 0 0 1.71,2.25 c -0.11,-0.48 -0.56,-0.89 -0.73,-1.38 a 9.72,9.72 0 0 1 -0.88,-5.33 c 0.22,-2.31 1.18,-4.45 0.81,-6.87 2,4.26 1.38,9.58 2.49,14.2 a 30.54,30.54 0 0 0 1.25,2.88 c -4.06,-2.77 -9.6,-5.4 -11.4,-10.47 a 12.72,12.72 0 0 1 -0.68,-5.92 z"
         class="a36e3383-187d-4b1c-96d4-e207e8058724"
         inkscape:connector-curvature="0"
         style="fill:#ffffff;fill-opacity:1;stroke:none" />
      <path
         id="path998"
         d="m 14,52.1 c 2.26,5.12 7.93,5.54 11.74,8.67 a 9.69,9.69 0 0 0 2.22,1.51 v 0 a 13.07,13.07 0 0 1 -2.49,-2.71 c -2.23,-3.1 -1.45,-7.43 -3.11,-10.76 a 24.92,24.92 0 0 1 3.8,5.75 c 1.36,3.36 1.88,7.15 5,9.69 -3.41,-1.12 -7.4,-0.81 -10.4,-2.91 -3.29,-2 -6.22,-5.44 -6.83,-9.2 z"
         class="a36e3383-187d-4b1c-96d4-e207e8058724"
         inkscape:connector-curvature="0"
         style="fill:#ffffff;fill-opacity:1;stroke:none" />
      <path
         id="path1000"
         d="m 19.8,61.66 c 3.63,4.12 9.56,2.75 14.4,3.83 a 6.89,6.89 0 0 0 2,0.25 c -0.57,-0.36 -1.38,-0.32 -2,-0.65 -3.8,-1.34 -4.35,-5.44 -6.41,-8.21 a 58.1,58.1 0 0 1 7.26,6.38 12.7,12.7 0 0 0 6.09,2.74 c -0.53,0.19 -1.23,0.14 -1.8,0.29 -4,1 -8.39,2.57 -12.6,1.14 A 12.23,12.23 0 0 1 19.8,61.71 Z"
         class="a36e3383-187d-4b1c-96d4-e207e8058724"
         inkscape:connector-curvature="0"
         style="fill:#ffffff;fill-opacity:1;stroke:none" />
      <path
         id="path1002"
         d="m 69.08,71.28 c -4.09,1.53 -8.36,-0.07 -11.56,-2.49 -1.29,-0.82 -2.43,-2 -4.11,-1.9 a 5.82,5.82 0 0 0 -1.7,0.16 31.71,31.71 0 0 1 8.62,6 13.3,13.3 0 0 1 -1.56,1.42 30.71,30.71 0 0 0 -8.51,-6.92 5.54,5.54 0 0 0 -1.76,0.75 26.51,26.51 0 0 0 -7,6.26 L 39.86,73.2 A 29.77,29.77 0 0 1 48.53,67 C 45.42,66 43.39,68.65 41,70 a 11,11 0 0 1 -14.85,-1.8 10.68,10.68 0 0 0 9.49,0.82 c 4,-1.73 8.14,-3.93 13,-2.88 0.75,0 1.48,0.77 2.19,0.13 a 15.39,15.39 0 0 1 10.7,1.34 l 3.18,1.27 a 10.52,10.52 0 0 0 9.29,-1 11.19,11.19 0 0 1 -4.91,3.43 z"
         class="a36e3383-187d-4b1c-96d4-e207e8058724"
         inkscape:connector-curvature="0"
         style="fill:#ffffff;fill-opacity:1;stroke:none" />
      <path
         id="path1004"
         d="m 73.47,67.05 c -4.6,1.74 -9.22,-0.39 -13.62,-1.1 L 59,65.84 v 0 a 12.27,12.27 0 0 0 5.82,-2.61 c 2.47,-2.38 4.67,-4.82 7.41,-6.69 -2,2.61 -2.25,6.32 -5.61,8 a 20.19,20.19 0 0 1 -2.73,1 28.69,28.69 0 0 0 3.55,-0.54 c 4.5,-0.71 9.65,0 12.81,-3.82 a 12.1,12.1 0 0 1 -6.78,5.85 z"
         class="a36e3383-187d-4b1c-96d4-e207e8058724"
         inkscape:connector-curvature="0"
         style="fill:#ffffff;fill-opacity:1;stroke:none" />
      <path
         id="path1006"
         d="m 81.81,54.13 c -1.81,1.18 -3.65,2.29 -5.4,3.64 V 57.6 c 2.67,-4.44 1.37,-10.54 3,-15.42 L 80,40.54 c -0.34,3.05 1,5.62 0.89,8.68 a 9.83,9.83 0 0 1 -1.67,5 h 0.17 A 60.34,60.34 0 0 1 83.28,49 c 2.38,-2.29 4.79,-4.64 5.1,-7.81 0.81,5.3 -2.17,9.94 -6.57,13 z"
         class="a36e3383-187d-4b1c-96d4-e207e8058724"
         inkscape:connector-curvature="0"
         style="fill:#ffffff;fill-opacity:1;stroke:none" />
    </g>
    <path
       id="path1010"
       d="m 39.62755,38.565786 a 1.74,1.74 0 1 1 -1.74,-1.74 1.74,1.74 0 0 1 1.74,1.74 z"
       class="f6e4edf7-294b-478c-9a27-06e3fc279425"
       inkscape:connector-curvature="0"
       style="opacity:0.9;fill:#ffffff;fill-opacity:1;stroke:none" />
    <path
       id="path1012"
       d="m 50.71755,48.445786 c 0,0 10.06,-3.58 6.86,-14.71 a 0.37,0.37 0 0 1 0.61,-0.37 c 1.34,1.31 3.6,2.95 5.53,1.57 a 6.38,6.38 0 0 0 2.25,-3.53 0.37,0.37 0 0 1 0.72,0.09 c 0.08,5.34 -1.78,15.16 -15.97,16.95 z"
       class="f6e4edf7-294b-478c-9a27-06e3fc279425"
       inkscape:connector-curvature="0"
       style="opacity:0.9;fill:#ffffff;fill-opacity:1;stroke:none" />
    <circle
       id="circle1014"
       r="2.04"
       cy="32.865784"
       cx="62.057556"
       class="f6e4edf7-294b-478c-9a27-06e3fc279425"
       style="opacity:0.9;fill:#ffffff;fill-opacity:1;stroke:none" />
    <path
       id="path1016"
       d="m 53.75755,38.385786 a 8.81,8.81 0 0 1 0.22,5.61 c -0.91,2.54 -3.33,3.64 -5.2,4.11 a 11.11,11.11 0 0 1 -2.67,0.34 c -7.75,0 -11.89,-8.8 -11.94,-8.9 v 0 c -0.22,-0.48 0.11,-0.77 0.51,-0.43 0.4,0.34 0.62,0.49 0.9,0.68 2.5,1.72 4.34,0.83 5.15,-1.86 a 0.36,0.36 0 0 1 0.7,0.06 c 0.42,4.05 2,10.05 7.67,8.48 v 0 a 5.19,5.19 0 0 0 3.48,-3 7.4,7.4 0 0 0 -0.23,-4.67 24,24 0 0 0 -1.52,-3.48 30.51,30.51 0 0 1 -1.49,-3.34 10.65,10.65 0 0 1 0,-7.59 7.51,7.51 0 0 1 4,-3.92 0.73,0.73 0 0 1 0.88,0.23 0.77,0.77 0 0 1 0.16,0.45 0.74,0.74 0 0 1 -0.46,0.68 6.13,6.13 0 0 0 -3.25,3.14 9.14,9.14 0 0 0 0,6.52 28.46,28.46 0 0 0 1.41,3.17 24.94,24.94 0 0 1 1.68,3.72 z"
       class="f6e4edf7-294b-478c-9a27-06e3fc279425"
       inkscape:connector-curvature="0"
       style="opacity:0.9;fill:#ffffff;fill-opacity:1;stroke:none" />
    <path
       id="path1018"
       d="m 54.90755,17.325786 a 1.91,1.91 0 1 1 -1.9,-1.9 1.91,1.91 0 0 1 1.9,1.9 z"
       class="f6e4edf7-294b-478c-9a27-06e3fc279425"
       inkscape:connector-curvature="0"
       style="opacity:0.9;fill:#ffffff;fill-opacity:1;stroke:none" />
    <path
       id="path1020"
       d="m 60.26755,19.995786 a 1.91,1.91 0 1 1 -1.9,-1.9 1.91,1.91 0 0 1 1.9,1.9 z"
       class="f6e4edf7-294b-478c-9a27-06e3fc279425"
       inkscape:connector-curvature="0"
       style="opacity:0.9;fill:#ffffff;fill-opacity:1;stroke:none" />
    <path
       id="path1022"
       d="m 48.72755,17.325786 a 1.35,1.35 0 1 1 -1.34,-1.34 1.34,1.34 0 0 1 1.34,1.34 z"
       class="f6e4edf7-294b-478c-9a27-06e3fc279425"
       inkscape:connector-curvature="0"
       style="opacity:0.9;fill:#ffffff;fill-opacity:1;stroke:none" />
    <path
       id="path1024"
       d="m 63.70755,23.235786 a 1.35,1.35 0 1 1 -2.69,0 1.35,1.35 0 0 1 2.69,0 z"
       class="f6e4edf7-294b-478c-9a27-06e3fc279425"
       inkscape:connector-curvature="0"
       style="opacity:0.9;fill:#ffffff;fill-opacity:1;stroke:none" />
    <path
       id="path1026"
       d="m 43.52755,19.085786 a 0.63,0.63 0 0 1 -1.26,0 0.63,0.63 0 0 1 1.25,0 z"
       class="f6e4edf7-294b-478c-9a27-06e3fc279425"
       inkscape:connector-curvature="0"
       style="opacity:0.9;fill:#ffffff;fill-opacity:1;stroke:none" />
    <path
       id="path1028"
       d="m 65.34755,26.485786 a 0.62,0.62 0 0 1 -0.62,0.62 0.63,0.63 0 1 1 0,-1.25 0.63,0.63 0 0 1 0.62,0.63 z"
       class="f6e4edf7-294b-478c-9a27-06e3fc279425"
       inkscape:connector-curvature="0"
       style="opacity:0.9;fill:#ffffff;fill-opacity:1;stroke:none" />
    <g
       id="g1046"
       transform="translate(-0.73244954,-2.9142136)"
       style="fill:#ffffff;fill-opacity:1;stroke:none">
      <path
         sodipodi:nodetypes="cssccccsccsccccccc"
         style="fill:#ffffff;fill-opacity:1;stroke:none;stroke-width:0.5px;stroke-miterlimit:10"
         inkscape:connector-curvature="0"
         id="path1030"
         d="m 38.2,55.14 h -4.46 c -1.314438,0 -2.38,-1.065562 -2.38,-2.38 V 36.14 c -0.0052,0.09993 -0.0052,-0.09993 0,0 v 0.67 0.5 0.06 c 0,0.39 0.09,0.79 0.15,1.17 0.121038,0.793163 0.291368,1.578017 0.51,2.35 0,0.2 0.11,0.39 0.17,0.58 0.06,0.19 0.12,0.37 0.19,0.56 l 0.18,0.49 c 0.06,0.16 0.12,0.33 0.19,0.49 l 0.18,0.42 v 0.06 l 0.1,0.23 z"
         class="f6dc05bf-7b78-44b5-a493-fddbb7ff93f3" />
      <path
         sodipodi:nodetypes="cccccccccccccccccccccc"
         style="fill:#ffffff;fill-opacity:1;stroke:none;stroke-width:0.5px;stroke-miterlimit:10"
         inkscape:connector-curvature="0"
         id="path1032"
         d="m 67.347969,46.60375 -0.129944,0.198237 v 0 L 58.18,60.59 c -0.705369,1.106799 -2.175909,1.4296 -3.28,0.72 l -5.61,-3.6 9.26,-4.09 h 0.07 l 0.31,-0.14 c 0.45,-0.2 0.89,-0.41 1.32,-0.64 l 0.67,-0.37 0.61,-0.38 0.47,-0.3 0.29,-0.21 c 0.534655,-0.375432 1.048731,-0.779349 1.54,-1.21 l 0.51,-0.45 v 0 l 0.46,-0.45 v 0 c 0.17,-0.17 0.33,-0.33 0.48,-0.5 l 0.45,-0.5 z"
         class="f6dc05bf-7b78-44b5-a493-fddbb7ff93f3" />
      <path
         id="path1034"
         d="m 58.49,53.64 -9.26,4.09 -4,-2.59 h 5.74 a 19.52,19.52 0 0 0 7.52,-1.5 z"
         class="f6dc05bf-7b78-44b5-a493-fddbb7ff93f3"
         inkscape:connector-curvature="0"
         style="fill:#ffffff;fill-opacity:1;stroke:none;stroke-width:0.5px;stroke-miterlimit:10" />
      <path
         id="path1036"
         d="m 45.2,55.14 h -7 C 35.197103,50.1116 33.101241,45.050807 31.747884,39.963495 33.314624,43.356239 37.212135,49.985966 40.36,52 Z"
         class="f6dc05bf-7b78-44b5-a493-fddbb7ff93f3"
         inkscape:connector-curvature="0"
         style="fill:#ffffff;fill-opacity:1;stroke:none;stroke-width:0.5px;stroke-miterlimit:10"
         sodipodi:nodetypes="ccccc" />
      <path
         id="path1038"
         d="m 49.23,57.73 -6.08,2.7 A 2.38,2.38 0 0 1 40,59.22 l -1.8,-4.08 h 7 z"
         class="f6dc05bf-7b78-44b5-a493-fddbb7ff93f3"
         inkscape:connector-curvature="0"
         style="fill:#ffffff;fill-opacity:1;stroke:none;stroke-width:0.5px;stroke-miterlimit:10" />
      <path
         id="path1040"
         d="m 58.49,53.64 -9.26,4.09 -4,-2.59 h 5.74 a 19.52,19.52 0 0 0 7.52,-1.5 z"
         class="f6dc05bf-7b78-44b5-a493-fddbb7ff93f3"
         inkscape:connector-curvature="0"
         style="fill:#ffffff;fill-opacity:1;stroke:none;stroke-width:0.5px;stroke-miterlimit:10" />
      <path
         sodipodi:nodetypes="ccscccccccccsccc"
         inkscape:connector-curvature="0"
         id="path1042"
         d="m 51.15764,14.726846 c -11.149224,0.0459 -20.151231,9.119494 -20.108811,20.268731 0.05162,9.103378 7.327965,17.438751 13.995934,20.142088 1.80061,0.730006 4.222472,-0.01942 6.266023,-0.0265 11.148884,-0.0389 20.156424,-9.106296 20.121507,-20.255194 v -0.02708 C 71.382675,23.67999 62.306554,14.681139 51.15764,14.726844 Z m 0.0021,0.505133 c 10.870523,-0.04506 19.720276,8.728943 19.768676,19.59945 v 0.02623 c 0.0338,10.870336 -8.74731,20.21604 -19.617634,20.253504 -1.918999,0.0067 -4.572184,0.725886 -6.262859,0.03378 C 38.364511,52.408983 31.605976,43.940693 31.553109,34.993885 31.511809,24.12337 40.288828,15.276656 51.159329,15.23198 Z"
         style="opacity:1;fill:#ffffff;fill-opacity:1;stroke:none;stroke-width:0;stroke-miterlimit:4;stroke-dasharray:none;stroke-opacity:1" />
      <path
         sodipodi:nodetypes="ccc"
         inkscape:connector-curvature="0"
         id="path1044"
         d="m 65.73,48.47 2.175977,-2.525531 0.08636,-0.10023"
         style="opacity:0.98999999;fill:#ffffff;fill-opacity:1;stroke:none;stroke-width:0.5;stroke-linecap:butt;stroke-linejoin:miter;stroke-miterlimit:4;stroke-dasharray:none;stroke-opacity:1" />
    </g>
  </g>
</svg>
