<svg width="2500" height="2500" viewBox="0 0 2500 2500" fill="none" xmlns="http://www.w3.org/2000/svg">
<path fill-rule="evenodd" clip-rule="evenodd" d="M161.084 1428.98C86.5083 1336.98 36.7693 1247.48 36.7693 1160.48C36.7693 1085.87 46.7171 1048.59 69.0899 1018.74C86.5083 1103.27 106.378 1160.48 138.699 1212.69C166.039 1254.93 213.288 1332.02 220.758 1389.24C233.196 1267.38 265.491 1180.37 362.466 1078.44C362.466 1205.2 362.466 1274.88 312.74 1364.34C280.419 1424.03 272.962 1481.2 272.962 1568.26H265.491L161.084 1428.98V1428.98ZM295.335 1787.01C118.803 1707.44 54.1617 1612.96 54.1617 1389.23H61.6194C126.274 1528.42 243.118 1680.09 354.995 1717.43C320.185 1583.13 327.655 1506.06 362.453 1389.23C422.153 1473.74 432.088 1550.79 432.088 1652.78C432.088 1727.33 432.088 1811.86 484.278 1861.62L476.82 1869.09L295.335 1787.01V1787.01ZM233.183 608.489L240.615 615.973C200.863 755.19 185.948 869.571 213.275 1016.26C260.524 904.369 362.453 834.76 439.545 794.956C422.14 899.414 392.296 951.618 305.256 1038.63C255.53 1088.36 213.262 1135.59 193.392 1212.69H185.935C138.673 1048.59 113.81 976.507 113.81 877.003C113.836 777.55 161.084 675.608 233.183 608.489V608.489ZM153.627 1774.58L161.084 1767.16C240.628 1844.21 312.74 1888.93 432.101 1901.39C484.291 1908.86 573.808 1946.2 621.057 1968.55C541.488 1898.97 509.167 1764.63 509.167 1652.79C566.351 1702.52 643.417 1787.03 658.332 1861.63C665.79 1901.39 715.516 1978.49 777.693 2010.75C698.111 2030.69 643.404 2035.63 558.88 2035.63C377.381 2035.62 208.32 1948.63 153.627 1774.58V1774.58ZM272.949 750.223C290.38 648.294 307.785 583.639 337.603 533.926C382.375 456.834 439.558 379.742 516.625 347.421L524.095 354.905C454.461 456.834 409.715 546.325 382.388 655.738C447.029 608.476 566.364 583.639 631.005 573.679C598.671 628.359 534.03 678.085 432.114 725.334C369.937 755.178 330.158 782.544 260.55 852.152L255.569 844.669L272.949 750.223V750.223ZM887.08 2279.36C974.12 2197.31 1061.12 2137.6 1163.08 2095.33C969.127 2105.24 872.165 2189.82 693.169 2189.82C603.665 2189.82 486.781 2164.94 422.153 2102.8L429.585 2095.33C464.421 2105.24 494.226 2105.24 524.082 2105.24C621.057 2105.24 802.556 2030.69 944.264 2030.69C1061.12 2030.69 1133.23 2043.13 1232.69 2080.47C1329.65 2043.13 1406.7 2030.69 1518.59 2030.69C1660.32 2030.69 1841.82 2105.24 1938.79 2105.24C1973.6 2105.24 2000.95 2105.24 2033.3 2095.33L2040.77 2102.8C1976.13 2164.94 1859.27 2189.82 1769.72 2189.82C1595.67 2189.82 1496.22 2105.24 1299.8 2095.33C1401.76 2137.61 1488.75 2197.31 1575.79 2279.36H1503.66C1424.14 2182.32 1289.87 2112.72 1232.67 2112.72C1177.98 2112.72 1038.75 2182.31 944.251 2279.36H887.08ZM531.54 471.749C591.201 354.905 700.601 235.518 862.217 220.655C795.085 315.1 730.444 377.264 645.92 439.429C698.111 424.513 745.359 412.062 785.151 412.062C817.471 412.062 854.759 419.546 887.067 431.945C817.471 481.671 720.496 506.56 668.293 506.56C618.541 506.56 541.475 526.443 489.271 541.358L531.54 471.749V471.749ZM1085.98 1160.48C1148.15 1167.91 1210.31 1242.53 1210.31 1416.54C1210.31 1707.46 1123.29 1901.39 1083.49 1901.39C1013.89 1901.39 588.724 1732.36 588.724 1254.93C588.724 1128.16 613.587 1105.75 653.365 1113.23L1085.98 1160.48V1160.48ZM660.848 1070.94C635.985 1073.42 628.528 1056.01 628.528 1046.1C628.528 1018.74 800.092 615.96 1242.63 615.96C1685.19 615.96 1856.76 1018.72 1856.76 1046.1C1856.76 1056.01 1849.27 1073.42 1824.44 1070.94L1267.51 983.938V976.494C1307.27 961.578 1327.2 929.245 1327.2 884.486C1327.2 834.76 1299.84 794.956 1242.65 794.956C1185.45 794.956 1158.11 834.76 1158.11 884.486C1158.11 929.245 1178.02 961.578 1217.78 976.494V983.938L660.848 1070.94V1070.94ZM810.027 364.814H785.164V357.382L854.772 310.133C934.342 243.001 991.526 220.642 1061.13 220.642C1095.96 220.642 1123.3 228.073 1150.65 243.001V250.433C1071.1 262.884 996.48 282.767 919.414 322.571C1013.91 337.486 1048.72 347.408 1130.77 399.611C1110.86 404.618 1086 412.049 1061.13 412.049C966.65 412.062 921.891 369.82 810.027 364.814V364.814ZM1431.59 322.584C1379.39 322.584 1314.73 330.016 1257.56 344.944V352.427C1307.27 364.814 1347.07 404.631 1374.42 449.35C1282.41 431.945 1187.95 387.225 1130.76 315.087C1180.47 297.682 1245.12 270.368 1307.26 270.368C1347.05 270.381 1399.29 277.812 1431.59 322.584ZM1831.85 1113.23C1871.67 1105.74 1896.52 1128.15 1896.52 1254.93C1896.52 1732.36 1471.35 1901.39 1401.77 1901.39C1361.98 1901.39 1274.97 1707.46 1274.97 1416.54C1274.97 1242.53 1337.13 1167.91 1399.29 1160.48L1831.85 1113.23V1113.23ZM1471.35 456.834C1446.5 446.86 1431.59 409.585 1416.69 372.297C1501.2 387.212 1558.39 424.5 1583.27 499.064L1471.35 456.834V456.834ZM1729.97 2035.62H1700.1V2030.68C1762.29 1995.87 1777.21 1953.57 1794.61 1921.29C1844.31 1826.8 1904 1734.82 1986.05 1692.52C1968.64 1767.14 1943.77 1908.85 1844.31 1978.46L1851.81 1985.93C2030.78 1946.19 2172.51 1883.98 2324.17 1759.65L2331.64 1767.14C2257.09 1970.96 2063.15 2055.54 1936.32 2055.54C1896.53 2055.55 1834.42 2035.62 1729.97 2035.62V2035.62ZM1749.83 270.381C1844.31 270.381 1933.84 310.146 1968.64 399.624C1891.56 384.761 1824.43 352.427 1777.21 300.185L1749.83 270.381V270.381ZM2055.66 464.266L2063.15 456.834C2033.31 419.546 1986.05 347.408 1986.05 330.016C2102.9 364.814 2140.24 449.35 2147.66 558.763C2008.42 528.92 1921.41 489.155 1879.12 404.631L2055.66 464.266ZM2147.66 1396.66C2155.11 1441.42 2172.51 1518.53 2172.51 1568.25C2172.51 1632.84 2155.11 1702.52 2122.84 1754.69L2127.81 1759.66C2262.07 1665.18 2339.15 1553.34 2426.14 1424.02L2433.58 1428.98C2408.76 1625.41 2324.17 1787.01 2013.39 1876.49C2045.76 1811.88 2045.76 1742.25 2045.76 1692.53C2045.75 1583.12 2070.57 1498.59 2147.66 1396.66V1396.66ZM2299.32 867.081C2175.04 802.439 2085.5 707.929 2020.84 581.123L2028.32 573.679C2063.15 591.084 2204.87 660.68 2222.28 693.013L2229.72 685.582C2204.87 648.294 2197.4 526.443 2197.4 499.077C2281.91 573.679 2314.23 675.608 2314.23 782.544C2314.25 809.871 2309.31 837.237 2299.32 867.081V867.081ZM2314.25 1187.8C2299.33 1128.15 2281.93 1095.83 2237.17 1053.53C2204.9 1011.29 2165.09 916.807 2147.68 817.355L2155.12 809.871C2165.11 834.76 2189.93 859.597 2249.61 911.852C2274.51 936.689 2306.78 986.415 2309.32 1026.22H2316.74L2361.52 742.739H2368.99C2391.36 794.943 2408.76 859.597 2408.76 911.852C2408.76 986.415 2356.54 1128.15 2314.25 1187.8ZM2189.92 1088.34C2237.17 1160.48 2281.93 1254.93 2284.4 1356.91H2291.9C2299.32 1307.18 2314.25 1262.4 2351.53 1230.08C2376.44 1205.19 2433.58 1103.27 2451.04 1070.94H2458.43C2485.84 1235.03 2393.84 1401.62 2249.59 1558.27C2252.07 1441.41 2165.08 1247.47 2165.08 1180.35C2165.09 1148.03 2175.04 1103.27 2189.92 1088.34Z" fill="#00B3EE"/>
</svg>
