<?xml version="1.0"?>
<svg xmlns="http://www.w3.org/2000/svg" height="512px" viewBox="-16 0 464 464" width="512px" class=""><g><path d="m336 64h-240c-17.671875 0-32 14.328125-32 32v288h232c4.417969 0 8 3.582031 8 8v40c0 17.671875 14.328125 32 32 32s32-14.328125 32-32v-336c0-17.671875-14.328125-32-32-32zm0 0" fill="#f9e109" data-original="#F9E109"/><path d="m200 360c-53.019531 0-96-42.980469-96-96v-200h-8c-17.671875 0-32 14.328125-32 32v288h232c4.417969 0 8 3.582031 8 8v40c0 17.671875 14.328125 32 32 32s32-14.328125 32-32v-72zm0 0" fill="#fcbc04" data-original="#FCBC04"/><path d="m296 152h-128c-4.417969 0-8-3.582031-8-8s3.582031-8 8-8h128c4.417969 0 8 3.582031 8 8s-3.582031 8-8 8zm0 0" fill="#2d72bc" data-original="#2D72BC" class="active-path" data-old_color="#2d72bc" style="fill:#2BA838"/><path d="m296 200h-168c-4.417969 0-8-3.582031-8-8s3.582031-8 8-8h168c4.417969 0 8 3.582031 8 8s-3.582031 8-8 8zm0 0" fill="#7ab92d" data-original="#7AB92D" class=""/><path d="m296 248h-168c-4.417969 0-8-3.582031-8-8s3.582031-8 8-8h168c4.417969 0 8 3.582031 8 8s-3.582031 8-8 8zm0 0" fill="#2d72bc" data-original="#2D72BC" class="active-path" data-old_color="#2d72bc" style="fill:#2BA838"/><path d="m296 296h-168c-4.417969 0-8-3.582031-8-8s3.582031-8 8-8h168c4.417969 0 8 3.582031 8 8s-3.582031 8-8 8zm0 0" fill="#a1d51c" data-original="#A1D51C" class=""/><path d="m264 344h-136c-4.417969 0-8-3.582031-8-8s3.582031-8 8-8h136c4.417969 0 8 3.582031 8 8s-3.582031 8-8 8zm0 0" fill="#2d72bc" data-original="#2D72BC" class="active-path" data-old_color="#2d72bc" style="fill:#2BA838"/><path d="m304 432v-40c0-4.417969-3.582031-8-8-8h-288c-4.417969 0-8 3.582031-8 8v40c0 17.671875 14.328125 32 32 32h304c-17.671875 0-32-14.328125-32-32zm0 0" fill="#e59730" data-original="#E59730" class=""/><path d="m400 0h-240c-17.671875 0-32 14.328125-32 32v32h208c17.671875 0 32 14.328125 32 32v304h32c17.671875 0 32-14.328125 32-32v-336c0-17.671875-14.328125-32-32-32zm0 0" fill="#4891d3" data-original="#4891D3" class="" style="fill:#138835" data-old_color="#4891d3"/><path d="m360 40h-232v24h208c17.671875 0 32 14.328125 32 32v304h24v-328c0-17.671875-14.328125-32-32-32zm0 0" fill="#2d72bc" data-original="#2D72BC" class="active-path" data-old_color="#2d72bc" style="fill:#2BA838"/></g> </svg>
