<?xml version="1.0" encoding="iso-8859-1"?>
<!-- Generator: Adobe Illustrator 19.0.0, SVG Export Plug-In . SVG Version: 6.00 Build 0)  -->
<svg version="1.1" id="Capa_1" xmlns="http://www.w3.org/2000/svg" xmlns:xlink="http://www.w3.org/1999/xlink" x="0px" y="0px"
	 viewBox="0 0 414.72 414.72" style="enable-background:new 0 0 414.72 414.72;" xml:space="preserve">
<path style="fill:#F2F2F2;" d="M363.52,63.365H51.2c-2.816,0-5.12,2.304-5.12,5.12v215.04c0,2.816,2.304,5.12,5.12,5.12h146.181
	c-5.033-10.02-7.941-21.299-7.941-33.28c0-41.001,33.224-74.24,74.24-74.24c41.016,0,74.24,33.239,74.24,74.24
	c0,11.981-2.903,23.26-7.941,33.28h33.541c2.816,0,5.12-2.304,5.12-5.12V68.485C368.64,65.674,366.336,63.365,363.52,63.365z"/>
<path style="fill:#DADEE0;" d="M384,22.405H30.72C13.824,22.405,0,36.229,0,53.125v250.88c0,16.896,13.824,30.72,30.72,30.72
	h176.507l8.602-22.641c0.108,0.092,0.236,0.174,0.343,0.266c-7.772-6.502-14.188-14.561-18.79-23.7H51.2
	c-2.816,0-5.12-2.304-5.12-5.12V68.49c0-2.811,2.304-5.12,5.12-5.12h312.32c2.816,0,5.12,2.304,5.12,5.12v215.04
	c0,2.816-2.304,5.12-5.12,5.12h-33.541c-4.152,8.243-9.805,15.58-16.568,21.719c0.072-0.067,0.148-0.118,0.22-0.184l9.318,24.545
	H384c16.896,0,30.72-13.824,30.72-30.72V53.13C414.72,36.234,400.896,22.405,384,22.405z"/>
<g>
	<path style="fill:#A4ABB1;" d="M102.4,132.485h143.36c4.239,0,7.68-3.441,7.68-7.68c0-4.244-3.441-7.68-7.68-7.68H102.4
		c-4.239,0-7.68,3.436-7.68,7.68C94.72,129.05,98.161,132.485,102.4,132.485"/>
	<path style="fill:#A4ABB1;" d="M102.4,183.685h81.92c4.239,0,7.68-3.441,7.68-7.68c0-4.244-3.441-7.68-7.68-7.68H102.4
		c-4.239,0-7.68,3.436-7.68,7.68C94.72,180.25,98.161,183.685,102.4,183.685"/>
</g>
<circle style="fill:#00a650;" cx="263.68" cy="255.386" r="74.24"/>
<path style="fill:#C7CED2;" d="M263.946,329.595l-1.951,5.135h6.19l-1.997-5.248C265.441,329.503,264.699,329.595,263.946,329.595z"
	/>
<circle style="fill:#FDD532;" cx="263.68" cy="255.386" r="33.28"/>
<path style="fill:#C7CED2;" d="M368.64,255.959v27.571c0,2.816-2.304,5.12-5.12,5.12h-33.541
	c-4.111,8.161-9.667,15.437-16.348,21.53l9.324,24.55H384c16.896,0,30.72-13.824,30.72-30.72v-1.971L368.64,255.959z"/>
<path style="fill:#DCE0E2;" d="M321.388,208.701c10.322,12.754,16.532,28.979,16.532,46.669c0,11.981-2.903,23.26-7.941,33.28
	h33.541c2.816,0,5.12-2.304,5.12-5.12v-27.571L321.388,208.701z"/>
<g>
	<path style="fill:#FDD532;" d="M263.68,329.605c-18.248,0-34.929-6.605-47.857-17.521l-23.567,62.054l29.384-5.268l18.478,23.444
		l23.813-62.72C263.854,329.595,263.772,329.605,263.68,329.605z"/>
	<path style="fill:#FDD532;" d="M266.194,329.482l23.859,62.833l18.478-23.444l29.384,5.268l-24.289-63.959
		C301.02,321.679,284.462,328.868,266.194,329.482z"/>
</g>
<g>
</g>
<g>
</g>
<g>
</g>
<g>
</g>
<g>
</g>
<g>
</g>
<g>
</g>
<g>
</g>
<g>
</g>
<g>
</g>
<g>
</g>
<g>
</g>
<g>
</g>
<g>
</g>
<g>
</g>
</svg>
