<?xml version="1.0"?>
<svg xmlns="http://www.w3.org/2000/svg" viewBox="0 0 64 64" width="512" height="512"><path d="m59 30v-20.52344a4.47657 4.47657 0 0 0 -4.47656-4.47656h-22.12344v6h18.585a2.01494 2.01494 0 0 1 2.015 2.01494v16.98506h-3l6 7 6-7z" fill="#FDD532"/><path d="m37 8-7-6v3h-20a5 5 0 0 0 -5 5v21.6h6v-18.60208a1.99792 1.99792 0 0 1 1.99792-1.99792h17.00208v3z" fill="#00a650"/><path d="m13.72155 53a2.72155 2.72155 0 0 1 -2.72155-2.72155v-16.27845h3l-6-6-6 6h3v20a5 5 0 0 0 5 5h21.6v-6z" fill="#FDD532"/><path d="m56 37-3-3.5v17.92246a1.57754 1.57754 0 0 1 -1.57754 1.57754h-17.42246v-3l-7 6 7 6v-3h20a5 5 0 0 0 5-5v-20.5z" fill="#00a650"/><path d="m32.01611 45a10.57135 10.57135 0 0 1 -2.25927-.19336l.34375-1.9707a11.02485 11.02485 0 0 0 1.89941.16406h.01514a10.98618 10.98618 0 0 0 1.90478-.166l.34766 1.96875a12.95909 12.95909 0 0 1 -2.25147.19725zm-6.5039-1.73242a13.02205 13.02205 0 0 1 -3.4585-2.89649l1.52929-1.28909a11.02 11.02 0 0 0 2.9292 2.45313zm12.9956-.0127-1.00293-1.73047a11.03708 11.03708 0 0 0 2.92481-2.458l1.53125 1.28711a13.01649 13.01649 0 0 1 -3.45313 2.90136zm-18.71875-6.78515a12.94722 12.94722 0 0 1 -.78857-4.44336l2-.00391a10.95757 10.95757 0 0 0 .6665 3.75977zm24.43115-.02344-1.87988-.68359a10.97191 10.97191 0 0 0 .65967-3.7627l1.55811-.03711.4414.00781a13.00615 13.00615 0 0 1 -.7793 4.47559zm-22.56787-8.1875-1.88086-.67969a12.958 12.958 0 0 1 2.25-3.91308l1.53516 1.2832a10.95162 10.95162 0 0 0 -1.9043 3.30957zm20.67286-.06055a10.95317 10.95317 0 0 0 -1.92237-3.29785l1.52637-1.291a12.932 12.932 0 0 1 2.273 3.89746zm-15.84961-5.71289-1.00684-1.72851a12.914 12.914 0 0 1 4.2373-1.55664l.35254 1.96875a10.92025 10.92025 0 0 0 -3.583 1.3164zm10.99316-.03222a10.906 10.906 0 0 0 -3.59082-1.294l.33887-1.9707a12.87683 12.87683 0 0 1 4.24707 1.53027z" fill="#ffd700"/><path d="m31.5 24 1.771 5.348h5.729l-4.635 3.304 1.77 5.348-4.635-3.305-4.635 3.305 1.77-5.348-4.635-3.304h5.729z" fill="#f4393d"/></svg>
