<?xml version="1.0" encoding="iso-8859-1"?>
<!-- Generator: Adobe Illustrator 19.0.0, SVG Export Plug-In . SVG Version: 6.00 Build 0)  -->
<svg version="1.1" id="Capa_1" xmlns="http://www.w3.org/2000/svg" xmlns:xlink="http://www.w3.org/1999/xlink" x="0px" y="0px"
	 viewBox="0 0 424.96 424.96" style="enable-background:new 0 0 424.96 424.96;" xml:space="preserve">
<g>
	<path style="fill:#00a650;" d="M394.24,15.36h-128c-16.901,0-30.72,13.824-30.72,30.715v76.805c0,16.896,13.819,30.72,30.72,30.72
		h20.48v40.96l49.162-40.96h58.358c16.891,0,30.72-13.824,30.72-30.72V46.075C424.96,29.184,411.131,15.36,394.24,15.36z"/>
	<path style="fill:#00a650;" d="M203.387,244.163c-10.644,4.296-22.246,6.717-34.432,6.717c-12.186,0-23.788-2.422-34.432-6.717
		C57.728,260.06,0,328.084,0,409.6h337.92C337.92,328.079,280.187,260.06,203.387,244.163z"/>
</g>
<polygon style="fill:#FDD532;" points="209.92,271.36 128,271.36 158.72,317.44 128,409.6 209.92,409.6 180.029,317.44 "/>
<path style="fill:#C5CED3;" d="M235.52,122.88V95.089c-16.778-17.551-40.371-28.529-66.565-28.529
	c-50.893,0-92.155,41.262-92.155,92.155c0,50.898,41.262,92.16,92.155,92.16s92.165-41.262,92.165-92.16
	c0-1.9-0.169-3.753-0.292-5.627C246.492,150.513,235.52,137.928,235.52,122.88z"/>
<path style="fill:#00a650;" d="M375.757,91.546c1.92,2.243,3.123,5.115,3.123,8.3c0,7.071-5.729,12.795-12.8,12.795
	c-4.132,0-7.757-1.987-10.102-5.012l-16.061-16.082c1.92,2.243,3.123,5.115,3.123,8.3c0,7.071-5.729,12.795-12.8,12.795
	c-4.132,0-7.752-1.981-10.092-5.012l-16.031-16.026c1.894,2.232,3.082,5.084,3.082,8.238c0,7.071-5.729,12.795-12.8,12.795
	c-3.256,0-6.19-1.249-8.448-3.251l-0.031,0.031l18.58,18.58l25.605,25.6l2.627,2.627l3.149-2.627h58.358
	c11.735,0,21.99-6.671,27.162-16.404L375.757,91.546z"/>
<g>
	<circle style="fill:#FDD532;" cx="366.08" cy="99.84" r="12.8"/>
	<circle style="fill:#FDD532;" cx="330.24" cy="99.84" r="12.8"/>
	<circle style="fill:#FDD532;" cx="294.4" cy="99.84" r="12.8"/>
</g>
<g>
</g>
<g>
</g>
<g>
</g>
<g>
</g>
<g>
</g>
<g>
</g>
<g>
</g>
<g>
</g>
<g>
</g>
<g>
</g>
<g>
</g>
<g>
</g>
<g>
</g>
<g>
</g>
<g>
</g>
</svg>
